  0
SECTION
  2
HEADER
  9
$ANGBASE
  50
0.0
  9
$ANGDIR
  70
1
  9
$MEASUREMENT
  70
1
  0
ENDSEC
  0
SECTION
  2
TABLES
  0
TABLE
  2
LTYPE
  70
4
  0
LTYPE
  5
40F
  2
CONTINUOUS
  70
0
  3
Solid line
  72
65
  73
0
  40
0.0
  0
LTYPE
  5
410
  2
DASHDOT
 70
0
  3
Dash Dot ____ _ ____ _
 72
65
 73
4
 40
2.0
 49
1.25
 49
-0.25
 49
0.25
 49
-0.25
  0
LTYPE
  5
411
  2
DASHED
 70
0
  3
Dashed __ __ __ __ __
 72
65
 73
2
 40
0.75
 49
0.5
 49
-0.25
  0
LTYPE
  5
43B
  2
DOTTED
 70
0
  3
Dotted .  .  .  .
 72
65
 73
2
 40
0.2
 49
0.0
 49
-0.2
  0
ENDTAB
  0
TABLE
  2
STYLE
  70
4
  0
STYLE
  2
KICAD
  70
0
  40
0
  41
1
  42
1
  50
0
  71
0
  3
isocp.shx
  0
STYLE
  2
KICADB
  70
0
  40
0
  41
1
  42
1
  50
0
  71
0
  3
isocp.shx
  0
STYLE
  2
KICADI
  70
0
  40
0
  41
1
  42
1
  50
15
  71
0
  3
isocp.shx
  0
STYLE
  2
KICADBI
  70
0
  40
0
  41
1
  42
1
  50
15
  71
0
  3
isocp.shx
  0
ENDTAB
  0
TABLE
  2
LAYER
  70
1
  0
LAYER
  2
BLACK
  70
0
  62
7
  6
CONTINUOUS
  0
ENDTAB
  0
ENDSEC
  0
SECTION
  2
ENTITIES
0
LINE
8
BLACK
6
CONTINUOUS
10
183.255
20
-121.668
11
181.046
21
-122.943
0
LINE
8
BLACK
6
CONTINUOUS
10
181.046
20
-122.943
11
179.796
21
-120.778
0
LINE
8
BLACK
6
CONTINUOUS
10
179.796
20
-120.778
11
182.005
21
-119.503
0
LINE
8
BLACK
6
CONTINUOUS
10
182.005
20
-119.503
11
183.255
21
-121.668
0
LINE
8
BLACK
6
CONTINUOUS
10
132.032
20
-117.943
11
130.782
21
-120.108
0
LINE
8
BLACK
6
CONTINUOUS
10
130.782
20
-120.108
11
128.574
21
-118.833
0
LINE
8
BLACK
6
CONTINUOUS
10
128.574
20
-118.833
11
129.824
21
-116.668
0
LINE
8
BLACK
6
CONTINUOUS
10
129.824
20
-116.668
11
132.032
21
-117.943
0
LINE
8
BLACK
6
CONTINUOUS
10
204.4
20
-115.423
11
202.089
21
-116.5
0
LINE
8
BLACK
6
CONTINUOUS
10
202.089
20
-116.5
11
201.032
21
-114.235
0
LINE
8
BLACK
6
CONTINUOUS
10
201.032
20
-114.235
11
203.343
21
-113.157
0
LINE
8
BLACK
6
CONTINUOUS
10
203.343
20
-113.157
11
204.4
21
-115.423
0
LINE
8
BLACK
6
CONTINUOUS
10
118.768
20
-113.218
11
117.518
21
-115.383
0
LINE
8
BLACK
6
CONTINUOUS
10
117.518
20
-115.383
11
115.309
21
-114.108
0
LINE
8
BLACK
6
CONTINUOUS
10
115.309
20
-114.108
11
116.559
21
-111.943
0
LINE
8
BLACK
6
CONTINUOUS
10
116.559
20
-111.943
11
118.768
21
-113.218
0
LINE
8
BLACK
6
CONTINUOUS
10
193.979
20
-112.543
11
191.771
21
-113.818
0
LINE
8
BLACK
6
CONTINUOUS
10
191.771
20
-113.818
11
190.521
21
-111.653
0
LINE
8
BLACK
6
CONTINUOUS
10
190.521
20
-111.653
11
192.729
21
-110.378
0
LINE
8
BLACK
6
CONTINUOUS
10
192.729
20
-110.378
11
193.979
21
-112.543
0
LINE
8
BLACK
6
CONTINUOUS
10
110.548
20
-111.396
11
109.492
21
-113.662
0
LINE
8
BLACK
6
CONTINUOUS
10
109.492
20
-113.662
11
107.181
21
-112.584
0
LINE
8
BLACK
6
CONTINUOUS
10
107.181
20
-112.584
11
108.237
21
-110.318
0
LINE
8
BLACK
6
CONTINUOUS
10
108.237
20
-110.318
11
110.548
21
-111.396
0
LINE
8
BLACK
6
CONTINUOUS
10
96.9224
20
-107.845
11
95.8659
21
-110.11
0
LINE
8
BLACK
6
CONTINUOUS
10
95.8659
20
-110.11
11
93.5548
21
-109.033
0
LINE
8
BLACK
6
CONTINUOUS
10
93.5548
20
-109.033
11
94.6113
21
-106.767
0
LINE
8
BLACK
6
CONTINUOUS
10
94.6113
20
-106.767
11
96.9224
21
-107.845
0
LINE
8
BLACK
6
CONTINUOUS
10
215.879
20
-107.268
11
213.568
21
-108.345
0
LINE
8
BLACK
6
CONTINUOUS
10
213.568
20
-108.345
11
212.511
21
-106.079
0
LINE
8
BLACK
6
CONTINUOUS
10
212.511
20
-106.079
11
214.822
21
-105.002
0
LINE
8
BLACK
6
CONTINUOUS
10
214.822
20
-105.002
11
215.879
21
-107.268
0
LINE
8
BLACK
6
CONTINUOUS
10
177.092
20
-90.4797
11
174.629
21
-91.1396
0
LINE
8
BLACK
6
CONTINUOUS
10
174.629
20
-91.1396
11
173.982
21
-88.7248
0
LINE
8
BLACK
6
CONTINUOUS
10
173.982
20
-88.7248
11
176.445
21
-88.0648
0
LINE
8
BLACK
6
CONTINUOUS
10
176.445
20
-88.0648
11
177.092
21
-90.4797
0
LINE
8
BLACK
6
CONTINUOUS
10
137.107
20
-85.9427
11
136.46
21
-88.3575
0
LINE
8
BLACK
6
CONTINUOUS
10
136.46
20
-88.3575
11
133.997
21
-87.6975
0
LINE
8
BLACK
6
CONTINUOUS
10
133.997
20
-87.6975
11
134.644
21
-85.2827
0
LINE
8
BLACK
6
CONTINUOUS
10
134.644
20
-85.2827
11
137.107
21
-85.9427
0
LINE
8
BLACK
6
CONTINUOUS
10
123.071
20
-84.8115
11
122.424
21
-87.2263
0
LINE
8
BLACK
6
CONTINUOUS
10
122.424
20
-87.2263
11
119.961
21
-86.5663
0
LINE
8
BLACK
6
CONTINUOUS
10
119.961
20
-86.5663
11
120.608
21
-84.1515
0
LINE
8
BLACK
6
CONTINUOUS
10
120.608
20
-84.1515
11
123.071
21
-84.8115
0
LINE
8
BLACK
6
CONTINUOUS
10
189.813
20
-84.4416
11
187.35
21
-85.1016
0
LINE
8
BLACK
6
CONTINUOUS
10
187.35
20
-85.1016
11
186.703
21
-82.6867
0
LINE
8
BLACK
6
CONTINUOUS
10
186.703
20
-82.6867
11
189.166
21
-82.0267
0
LINE
8
BLACK
6
CONTINUOUS
10
189.166
20
-82.0267
11
189.813
21
-84.4416
0
LINE
8
BLACK
6
CONTINUOUS
10
194.507
20
-81.869
11
192.044
21
-82.529
0
LINE
8
BLACK
6
CONTINUOUS
10
192.044
20
-82.529
11
191.397
21
-80.1141
0
LINE
8
BLACK
6
CONTINUOUS
10
191.397
20
-80.1141
11
193.86
21
-79.4542
0
LINE
8
BLACK
6
CONTINUOUS
10
193.86
20
-79.4542
11
194.507
21
-81.869
0
LINE
8
BLACK
6
CONTINUOUS
10
253.062
20
-79.5901
11
250.599
21
-80.2501
0
LINE
8
BLACK
6
CONTINUOUS
10
250.599
20
-80.2501
11
249.952
21
-77.8352
0
LINE
8
BLACK
6
CONTINUOUS
10
249.952
20
-77.8352
11
252.415
21
-77.1753
0
LINE
8
BLACK
6
CONTINUOUS
10
252.415
20
-77.1753
11
253.062
21
-79.5901
0
LINE
8
BLACK
6
CONTINUOUS
10
119.692
20
-77.332
11
119.045
21
-79.7468
0
LINE
8
BLACK
6
CONTINUOUS
10
119.045
20
-79.7468
11
116.582
21
-79.0868
0
LINE
8
BLACK
6
CONTINUOUS
10
116.582
20
-79.0868
11
117.229
21
-76.672
0
LINE
8
BLACK
6
CONTINUOUS
10
117.229
20
-76.672
11
119.692
21
-77.332
0
LINE
8
BLACK
6
CONTINUOUS
10
105.656
20
-76.2008
11
105.009
21
-78.6156
0
LINE
8
BLACK
6
CONTINUOUS
10
105.009
20
-78.6156
11
102.546
21
-77.9556
0
LINE
8
BLACK
6
CONTINUOUS
10
102.546
20
-77.9556
11
103.193
21
-75.5408
0
LINE
8
BLACK
6
CONTINUOUS
10
103.193
20
-75.5408
11
105.656
21
-76.2008
0
LINE
8
BLACK
6
CONTINUOUS
10
61.1365
20
-75.0531
11
60.4895
21
-77.4679
0
LINE
8
BLACK
6
CONTINUOUS
10
60.4895
20
-77.4679
11
58.0264
21
-76.8079
0
LINE
8
BLACK
6
CONTINUOUS
10
58.0264
20
-76.8079
11
58.6734
21
-74.3931
0
LINE
8
BLACK
6
CONTINUOUS
10
58.6734
20
-74.3931
11
61.1365
21
-75.0531
0
LINE
8
BLACK
6
CONTINUOUS
10
207.228
20
-75.8309
11
204.764
21
-76.4909
0
LINE
8
BLACK
6
CONTINUOUS
10
204.764
20
-76.4909
11
204.117
21
-74.0761
0
LINE
8
BLACK
6
CONTINUOUS
10
204.117
20
-74.0761
11
206.581
21
-73.4161
0
LINE
8
BLACK
6
CONTINUOUS
10
206.581
20
-73.4161
11
207.228
21
-75.8309
0
LINE
8
BLACK
6
CONTINUOUS
10
47.101
20
-73.9219
11
46.454
21
-76.3367
0
LINE
8
BLACK
6
CONTINUOUS
10
46.454
20
-76.3367
11
43.9909
21
-75.6767
0
LINE
8
BLACK
6
CONTINUOUS
10
43.9909
20
-75.6767
11
44.6379
21
-73.2619
0
LINE
8
BLACK
6
CONTINUOUS
10
44.6379
20
-73.2619
11
47.101
21
-73.9219
0
LINE
8
BLACK
6
CONTINUOUS
10
265.783
20
-73.552
11
263.32
21
-74.212
0
LINE
8
BLACK
6
CONTINUOUS
10
263.32
20
-74.212
11
262.673
21
-71.7972
0
LINE
8
BLACK
6
CONTINUOUS
10
262.673
20
-71.7972
11
265.136
21
-71.1372
0
LINE
8
BLACK
6
CONTINUOUS
10
265.136
20
-71.1372
11
265.783
21
-73.552
0
LINE
8
BLACK
6
CONTINUOUS
10
231.572
20
-72.9894
11
229.109
21
-73.6493
0
LINE
8
BLACK
6
CONTINUOUS
10
229.109
20
-73.6493
11
228.461
21
-71.2345
0
LINE
8
BLACK
6
CONTINUOUS
10
228.461
20
-71.2345
11
230.925
21
-70.5745
0
LINE
8
BLACK
6
CONTINUOUS
10
230.925
20
-70.5745
11
231.572
21
-72.9894
0
LINE
8
BLACK
6
CONTINUOUS
10
172.162
20
-72.0788
11
169.699
21
-72.7388
0
LINE
8
BLACK
6
CONTINUOUS
10
169.699
20
-72.7388
11
169.051
21
-70.3239
0
LINE
8
BLACK
6
CONTINUOUS
10
169.051
20
-70.3239
11
171.515
21
-69.664
0
LINE
8
BLACK
6
CONTINUOUS
10
171.515
20
-69.664
11
172.162
21
-72.0788
0
LINE
8
BLACK
6
CONTINUOUS
10
211.593
20
-72.0316
11
209.13
21
-72.6916
0
LINE
8
BLACK
6
CONTINUOUS
10
209.13
20
-72.6916
11
208.483
21
-70.2767
0
LINE
8
BLACK
6
CONTINUOUS
10
208.483
20
-70.2767
11
210.946
21
-69.6168
0
LINE
8
BLACK
6
CONTINUOUS
10
210.946
20
-69.6168
11
211.593
21
-72.0316
0
LINE
8
BLACK
6
CONTINUOUS
10
82.6272
20
-68.4524
11
81.9801
21
-70.8672
0
LINE
8
BLACK
6
CONTINUOUS
10
81.9801
20
-70.8672
11
79.517
21
-70.2072
0
LINE
8
BLACK
6
CONTINUOUS
10
79.517
20
-70.2072
11
80.1641
21
-67.7924
0
LINE
8
BLACK
6
CONTINUOUS
10
80.1641
20
-67.7924
11
82.6272
21
-68.4524
0
LINE
8
BLACK
6
CONTINUOUS
10
142.037
20
-67.5418
11
141.39
21
-69.9566
0
LINE
8
BLACK
6
CONTINUOUS
10
141.39
20
-69.9566
11
138.927
21
-69.2966
0
LINE
8
BLACK
6
CONTINUOUS
10
138.927
20
-69.2966
11
139.574
21
-66.8818
0
LINE
8
BLACK
6
CONTINUOUS
10
139.574
20
-66.8818
11
142.037
21
-67.5418
0
LINE
8
BLACK
6
CONTINUOUS
10
102.606
20
-67.4946
11
101.959
21
-69.9094
0
LINE
8
BLACK
6
CONTINUOUS
10
101.959
20
-69.9094
11
99.4957
21
-69.2494
0
LINE
8
BLACK
6
CONTINUOUS
10
99.4957
20
-69.2494
11
100.143
21
-66.8346
0
LINE
8
BLACK
6
CONTINUOUS
10
100.143
20
-66.8346
11
102.606
21
-67.4946
0
LINE
8
BLACK
6
CONTINUOUS
10
68.5917
20
-67.3212
11
67.9447
21
-69.736
0
LINE
8
BLACK
6
CONTINUOUS
10
67.9447
20
-69.736
11
65.4815
21
-69.076
0
LINE
8
BLACK
6
CONTINUOUS
10
65.4815
20
-69.076
11
66.1286
21
-66.6612
0
LINE
8
BLACK
6
CONTINUOUS
10
66.1286
20
-66.6612
11
68.5917
21
-67.3212
0
LINE
8
BLACK
6
CONTINUOUS
10
128.002
20
-66.4106
11
127.355
21
-68.8254
0
LINE
8
BLACK
6
CONTINUOUS
10
127.355
20
-68.8254
11
124.892
21
-68.1654
0
LINE
8
BLACK
6
CONTINUOUS
10
124.892
20
-68.1654
11
125.539
21
-65.7506
0
LINE
8
BLACK
6
CONTINUOUS
10
125.539
20
-65.7506
11
128.002
21
-66.4106
0
LINE
8
BLACK
6
CONTINUOUS
10
88.5704
20
-66.3634
11
87.9233
21
-68.7782
0
LINE
8
BLACK
6
CONTINUOUS
10
87.9233
20
-68.7782
11
85.4602
21
-68.1182
0
LINE
8
BLACK
6
CONTINUOUS
10
85.4602
20
-68.1182
11
86.1072
21
-65.7034
0
LINE
8
BLACK
6
CONTINUOUS
10
86.1072
20
-65.7034
11
88.5704
21
-66.3634
0
LINE
8
BLACK
6
CONTINUOUS
10
244.292
20
-66.9513
11
241.829
21
-67.6112
0
LINE
8
BLACK
6
CONTINUOUS
10
241.829
20
-67.6112
11
241.182
21
-65.1964
0
LINE
8
BLACK
6
CONTINUOUS
10
241.182
20
-65.1964
11
243.645
21
-64.5364
0
LINE
8
BLACK
6
CONTINUOUS
10
243.645
20
-64.5364
11
244.292
21
-66.9513
0
LINE
8
BLACK
6
CONTINUOUS
10
184.882
20
-66.0407
11
182.419
21
-66.7007
0
LINE
8
BLACK
6
CONTINUOUS
10
182.419
20
-66.7007
11
181.772
21
-64.2858
0
LINE
8
BLACK
6
CONTINUOUS
10
181.772
20
-64.2858
11
184.235
21
-63.6259
0
LINE
8
BLACK
6
CONTINUOUS
10
184.235
20
-63.6259
11
184.882
21
-66.0407
0
LINE
8
BLACK
6
CONTINUOUS
10
224.314
20
-65.9935
11
221.851
21
-66.6535
0
LINE
8
BLACK
6
CONTINUOUS
10
221.851
20
-66.6535
11
221.204
21
-64.2386
0
LINE
8
BLACK
6
CONTINUOUS
10
221.204
20
-64.2386
11
223.667
21
-63.5787
0
LINE
8
BLACK
6
CONTINUOUS
10
223.667
20
-63.5787
11
224.314
21
-65.9935
0
LINE
8
BLACK
6
CONTINUOUS
10
189.576
20
-63.4681
11
187.113
21
-64.1281
0
LINE
8
BLACK
6
CONTINUOUS
10
187.113
20
-64.1281
11
186.466
21
-61.7133
0
LINE
8
BLACK
6
CONTINUOUS
10
186.466
20
-61.7133
11
188.929
21
-61.0533
0
LINE
8
BLACK
6
CONTINUOUS
10
188.929
20
-61.0533
11
189.576
21
-63.4681
0
LINE
8
BLACK
6
CONTINUOUS
10
248.132
20
-61.1892
11
245.669
21
-61.8492
0
LINE
8
BLACK
6
CONTINUOUS
10
245.669
20
-61.8492
11
245.022
21
-59.4344
0
LINE
8
BLACK
6
CONTINUOUS
10
245.022
20
-59.4344
11
247.485
21
-58.7744
0
LINE
8
BLACK
6
CONTINUOUS
10
247.485
20
-58.7744
11
248.132
21
-61.1892
0
LINE
8
BLACK
6
CONTINUOUS
10
124.622
20
-58.9311
11
123.975
21
-61.3459
0
LINE
8
BLACK
6
CONTINUOUS
10
123.975
20
-61.3459
11
121.512
21
-60.6859
0
LINE
8
BLACK
6
CONTINUOUS
10
121.512
20
-60.6859
11
122.159
21
-58.2711
0
LINE
8
BLACK
6
CONTINUOUS
10
122.159
20
-58.2711
11
124.622
21
-58.9311
0
LINE
8
BLACK
6
CONTINUOUS
10
110.587
20
-57.7999
11
109.94
21
-60.2147
0
LINE
8
BLACK
6
CONTINUOUS
10
109.94
20
-60.2147
11
107.477
21
-59.5547
0
LINE
8
BLACK
6
CONTINUOUS
10
107.477
20
-59.5547
11
108.124
21
-57.1399
0
LINE
8
BLACK
6
CONTINUOUS
10
108.124
20
-57.1399
11
110.587
21
-57.7999
0
LINE
8
BLACK
6
CONTINUOUS
10
66.067
20
-56.6522
11
65.42
21
-59.067
0
LINE
8
BLACK
6
CONTINUOUS
10
65.42
20
-59.067
11
62.9569
21
-58.407
0
LINE
8
BLACK
6
CONTINUOUS
10
62.9569
20
-58.407
11
63.6039
21
-55.9922
0
LINE
8
BLACK
6
CONTINUOUS
10
63.6039
20
-55.9922
11
66.067
21
-56.6522
0
LINE
8
BLACK
6
CONTINUOUS
10
202.297
20
-57.43
11
199.834
21
-58.09
0
LINE
8
BLACK
6
CONTINUOUS
10
199.834
20
-58.09
11
199.187
21
-55.6752
0
LINE
8
BLACK
6
CONTINUOUS
10
199.187
20
-55.6752
11
201.65
21
-55.0152
0
LINE
8
BLACK
6
CONTINUOUS
10
201.65
20
-55.0152
11
202.297
21
-57.43
0
LINE
8
BLACK
6
CONTINUOUS
10
52.0315
20
-55.521
11
51.3845
21
-57.9358
0
LINE
8
BLACK
6
CONTINUOUS
10
51.3845
20
-57.9358
11
48.9214
21
-57.2758
0
LINE
8
BLACK
6
CONTINUOUS
10
48.9214
20
-57.2758
11
49.5684
21
-54.861
0
LINE
8
BLACK
6
CONTINUOUS
10
49.5684
20
-54.861
11
52.0315
21
-55.521
0
LINE
8
BLACK
6
CONTINUOUS
10
260.852
20
-55.1511
11
258.389
21
-55.8111
0
LINE
8
BLACK
6
CONTINUOUS
10
258.389
20
-55.8111
11
257.742
21
-53.3963
0
LINE
8
BLACK
6
CONTINUOUS
10
257.742
20
-53.3963
11
260.205
21
-52.7363
0
LINE
8
BLACK
6
CONTINUOUS
10
260.205
20
-52.7363
11
260.852
21
-55.1511
0
LINE
8
BLACK
6
CONTINUOUS
10
226.641
20
-54.5885
11
224.178
21
-55.2485
0
LINE
8
BLACK
6
CONTINUOUS
10
224.178
20
-55.2485
11
223.531
21
-52.8336
0
LINE
8
BLACK
6
CONTINUOUS
10
223.531
20
-52.8336
11
225.994
21
-52.1736
0
LINE
8
BLACK
6
CONTINUOUS
10
225.994
20
-52.1736
11
226.641
21
-54.5885
0
LINE
8
BLACK
6
CONTINUOUS
10
167.231
20
-53.6779
11
164.768
21
-54.3379
0
LINE
8
BLACK
6
CONTINUOUS
10
164.768
20
-54.3379
11
164.121
21
-51.9231
0
LINE
8
BLACK
6
CONTINUOUS
10
164.121
20
-51.9231
11
166.584
21
-51.2631
0
LINE
8
BLACK
6
CONTINUOUS
10
166.584
20
-51.2631
11
167.231
21
-53.6779
0
LINE
8
BLACK
6
CONTINUOUS
10
206.663
20
-53.6307
11
204.199
21
-54.2907
0
LINE
8
BLACK
6
CONTINUOUS
10
204.199
20
-54.2907
11
203.552
21
-51.8759
0
LINE
8
BLACK
6
CONTINUOUS
10
203.552
20
-51.8759
11
206.015
21
-51.2159
0
LINE
8
BLACK
6
CONTINUOUS
10
206.015
20
-51.2159
11
206.663
21
-53.6307
0
LINE
8
BLACK
6
CONTINUOUS
10
87.5577
20
-50.0515
11
86.9106
21
-52.4663
0
LINE
8
BLACK
6
CONTINUOUS
10
86.9106
20
-52.4663
11
84.4475
21
-51.8063
0
LINE
8
BLACK
6
CONTINUOUS
10
84.4475
20
-51.8063
11
85.0946
21
-49.3915
0
LINE
8
BLACK
6
CONTINUOUS
10
85.0946
20
-49.3915
11
87.5577
21
-50.0515
0
LINE
8
BLACK
6
CONTINUOUS
10
146.968
20
-49.1409
11
146.321
21
-51.5557
0
LINE
8
BLACK
6
CONTINUOUS
10
146.321
20
-51.5557
11
143.858
21
-50.8957
0
LINE
8
BLACK
6
CONTINUOUS
10
143.858
20
-50.8957
11
144.505
21
-48.4809
0
LINE
8
BLACK
6
CONTINUOUS
10
144.505
20
-48.4809
11
146.968
21
-49.1409
0
LINE
8
BLACK
6
CONTINUOUS
10
107.536
20
-49.0937
11
106.889
21
-51.5085
0
LINE
8
BLACK
6
CONTINUOUS
10
106.889
20
-51.5085
11
104.426
21
-50.8485
0
LINE
8
BLACK
6
CONTINUOUS
10
104.426
20
-50.8485
11
105.073
21
-48.4337
0
LINE
8
BLACK
6
CONTINUOUS
10
105.073
20
-48.4337
11
107.536
21
-49.0937
0
LINE
8
BLACK
6
CONTINUOUS
10
73.5222
20
-48.9203
11
72.8752
21
-51.3351
0
LINE
8
BLACK
6
CONTINUOUS
10
72.8752
20
-51.3351
11
70.4121
21
-50.6751
0
LINE
8
BLACK
6
CONTINUOUS
10
70.4121
20
-50.6751
11
71.0591
21
-48.2603
0
LINE
8
BLACK
6
CONTINUOUS
10
71.0591
20
-48.2603
11
73.5222
21
-48.9203
0
LINE
8
BLACK
6
CONTINUOUS
10
132.932
20
-48.0097
11
132.285
21
-50.4245
0
LINE
8
BLACK
6
CONTINUOUS
10
132.285
20
-50.4245
11
129.822
21
-49.7645
0
LINE
8
BLACK
6
CONTINUOUS
10
129.822
20
-49.7645
11
130.469
21
-47.3497
0
LINE
8
BLACK
6
CONTINUOUS
10
130.469
20
-47.3497
11
132.932
21
-48.0097
0
LINE
8
BLACK
6
CONTINUOUS
10
93.5009
20
-47.9625
11
92.8538
21
-50.3773
0
LINE
8
BLACK
6
CONTINUOUS
10
92.8538
20
-50.3773
11
90.3907
21
-49.7173
0
LINE
8
BLACK
6
CONTINUOUS
10
90.3907
20
-49.7173
11
91.0377
21
-47.3025
0
LINE
8
BLACK
6
CONTINUOUS
10
91.0377
20
-47.3025
11
93.5009
21
-47.9625
0
LINE
8
BLACK
6
CONTINUOUS
10
239.362
20
-48.5504
11
236.899
21
-49.2104
0
LINE
8
BLACK
6
CONTINUOUS
10
236.899
20
-49.2104
11
236.252
21
-46.7955
0
LINE
8
BLACK
6
CONTINUOUS
10
236.252
20
-46.7955
11
238.715
21
-46.1356
0
LINE
8
BLACK
6
CONTINUOUS
10
238.715
20
-46.1356
11
239.362
21
-48.5504
0
LINE
8
BLACK
6
CONTINUOUS
10
179.952
20
-47.6398
11
177.489
21
-48.2998
0
LINE
8
BLACK
6
CONTINUOUS
10
177.489
20
-48.2998
11
176.842
21
-45.885
0
LINE
8
BLACK
6
CONTINUOUS
10
176.842
20
-45.885
11
179.305
21
-45.225
0
LINE
8
BLACK
6
CONTINUOUS
10
179.305
20
-45.225
11
179.952
21
-47.6398
0
LINE
8
BLACK
6
CONTINUOUS
10
219.383
20
-47.5926
11
216.92
21
-48.2526
0
LINE
8
BLACK
6
CONTINUOUS
10
216.92
20
-48.2526
11
216.273
21
-45.8378
0
LINE
8
BLACK
6
CONTINUOUS
10
216.273
20
-45.8378
11
218.736
21
-45.1778
0
LINE
8
BLACK
6
CONTINUOUS
10
218.736
20
-45.1778
11
219.383
21
-47.5926
0
LINE
8
BLACK
6
CONTINUOUS
10
184.646
20
-45.0672
11
182.183
21
-45.7272
0
LINE
8
BLACK
6
CONTINUOUS
10
182.183
20
-45.7272
11
181.536
21
-43.3124
0
LINE
8
BLACK
6
CONTINUOUS
10
181.536
20
-43.3124
11
183.999
21
-42.6524
0
LINE
8
BLACK
6
CONTINUOUS
10
183.999
20
-42.6524
11
184.646
21
-45.0672
0
LINE
8
BLACK
6
CONTINUOUS
10
243.201
20
-42.7883
11
240.738
21
-43.4483
0
LINE
8
BLACK
6
CONTINUOUS
10
240.738
20
-43.4483
11
240.091
21
-41.0335
0
LINE
8
BLACK
6
CONTINUOUS
10
240.091
20
-41.0335
11
242.554
21
-40.3735
0
LINE
8
BLACK
6
CONTINUOUS
10
242.554
20
-40.3735
11
243.201
21
-42.7883
0
LINE
8
BLACK
6
CONTINUOUS
10
129.553
20
-40.5302
11
128.906
21
-42.945
0
LINE
8
BLACK
6
CONTINUOUS
10
128.906
20
-42.945
11
126.443
21
-42.2851
0
LINE
8
BLACK
6
CONTINUOUS
10
126.443
20
-42.2851
11
127.09
21
-39.8702
0
LINE
8
BLACK
6
CONTINUOUS
10
127.09
20
-39.8702
11
129.553
21
-40.5302
0
LINE
8
BLACK
6
CONTINUOUS
10
115.517
20
-39.399
11
114.87
21
-41.8138
0
LINE
8
BLACK
6
CONTINUOUS
10
114.87
20
-41.8138
11
112.407
21
-41.1539
0
LINE
8
BLACK
6
CONTINUOUS
10
112.407
20
-41.1539
11
113.054
21
-38.739
0
LINE
8
BLACK
6
CONTINUOUS
10
113.054
20
-38.739
11
115.517
21
-39.399
0
LINE
8
BLACK
6
CONTINUOUS
10
70.9975
20
-38.2513
11
70.3505
21
-40.6661
0
LINE
8
BLACK
6
CONTINUOUS
10
70.3505
20
-40.6661
11
67.8874
21
-40.0061
0
LINE
8
BLACK
6
CONTINUOUS
10
67.8874
20
-40.0061
11
68.5344
21
-37.5913
0
LINE
8
BLACK
6
CONTINUOUS
10
68.5344
20
-37.5913
11
70.9975
21
-38.2513
0
LINE
8
BLACK
6
CONTINUOUS
10
197.367
20
-39.0291
11
194.903
21
-39.6891
0
LINE
8
BLACK
6
CONTINUOUS
10
194.903
20
-39.6891
11
194.256
21
-37.2743
0
LINE
8
BLACK
6
CONTINUOUS
10
194.256
20
-37.2743
11
196.72
21
-36.6143
0
LINE
8
BLACK
6
CONTINUOUS
10
196.72
20
-36.6143
11
197.367
21
-39.0291
0
LINE
8
BLACK
6
CONTINUOUS
10
56.962
20
-37.1201
11
56.315
21
-39.5349
0
LINE
8
BLACK
6
CONTINUOUS
10
56.315
20
-39.5349
11
53.8519
21
-38.875
0
LINE
8
BLACK
6
CONTINUOUS
10
53.8519
20
-38.875
11
54.4989
21
-36.4601
0
LINE
8
BLACK
6
CONTINUOUS
10
54.4989
20
-36.4601
11
56.962
21
-37.1201
0
LINE
8
BLACK
6
CONTINUOUS
10
255.922
20
-36.7502
11
253.459
21
-37.4102
0
LINE
8
BLACK
6
CONTINUOUS
10
253.459
20
-37.4102
11
252.812
21
-34.9954
0
LINE
8
BLACK
6
CONTINUOUS
10
252.812
20
-34.9954
11
255.275
21
-34.3354
0
LINE
8
BLACK
6
CONTINUOUS
10
255.275
20
-34.3354
11
255.922
21
-36.7502
0
LINE
8
BLACK
6
CONTINUOUS
10
221.711
20
-36.1876
11
219.248
21
-36.8476
0
LINE
8
BLACK
6
CONTINUOUS
10
219.248
20
-36.8476
11
218.6
21
-34.4328
0
LINE
8
BLACK
6
CONTINUOUS
10
218.6
20
-34.4328
11
221.064
21
-33.7728
0
LINE
8
BLACK
6
CONTINUOUS
10
221.064
20
-33.7728
11
221.711
21
-36.1876
0
LINE
8
BLACK
6
CONTINUOUS
10
201.732
20
-35.2298
11
199.269
21
-35.8898
0
LINE
8
BLACK
6
CONTINUOUS
10
199.269
20
-35.8898
11
198.622
21
-33.475
0
LINE
8
BLACK
6
CONTINUOUS
10
198.622
20
-33.475
11
201.085
21
-32.815
0
LINE
8
BLACK
6
CONTINUOUS
10
201.085
20
-32.815
11
201.732
21
-35.2298
0
LINE
8
BLACK
6
CONTINUOUS
10
92.4882
20
-31.6506
11
91.8411
21
-34.0654
0
LINE
8
BLACK
6
CONTINUOUS
10
91.8411
20
-34.0654
11
89.378
21
-33.4054
0
LINE
8
BLACK
6
CONTINUOUS
10
89.378
20
-33.4054
11
90.0251
21
-30.9906
0
LINE
8
BLACK
6
CONTINUOUS
10
90.0251
20
-30.9906
11
92.4882
21
-31.6506
0
LINE
8
BLACK
6
CONTINUOUS
10
112.467
20
-30.6928
11
111.82
21
-33.1076
0
LINE
8
BLACK
6
CONTINUOUS
10
111.82
20
-33.1076
11
109.357
21
-32.4476
0
LINE
8
BLACK
6
CONTINUOUS
10
109.357
20
-32.4476
11
110.004
21
-30.0328
0
LINE
8
BLACK
6
CONTINUOUS
10
110.004
20
-30.0328
11
112.467
21
-30.6928
0
LINE
8
BLACK
6
CONTINUOUS
10
78.4527
20
-30.5194
11
77.8057
21
-32.9342
0
LINE
8
BLACK
6
CONTINUOUS
10
77.8057
20
-32.9342
11
75.3426
21
-32.2742
0
LINE
8
BLACK
6
CONTINUOUS
10
75.3426
20
-32.2742
11
75.9896
21
-29.8594
0
LINE
8
BLACK
6
CONTINUOUS
10
75.9896
20
-29.8594
11
78.4527
21
-30.5194
0
LINE
8
BLACK
6
CONTINUOUS
10
98.4314
20
-29.5616
11
97.7843
21
-31.9764
0
LINE
8
BLACK
6
CONTINUOUS
10
97.7843
20
-31.9764
11
95.3212
21
-31.3165
0
LINE
8
BLACK
6
CONTINUOUS
10
95.3212
20
-31.3165
11
95.9682
21
-28.9016
0
LINE
8
BLACK
6
CONTINUOUS
10
95.9682
20
-28.9016
11
98.4314
21
-29.5616
0
LINE
8
BLACK
6
CONTINUOUS
10
234.431
20
-30.1495
11
231.968
21
-30.8095
0
LINE
8
BLACK
6
CONTINUOUS
10
231.968
20
-30.8095
11
231.321
21
-28.3947
0
LINE
8
BLACK
6
CONTINUOUS
10
231.321
20
-28.3947
11
233.784
21
-27.7347
0
LINE
8
BLACK
6
CONTINUOUS
10
233.784
20
-27.7347
11
234.431
21
-30.1495
0
LINE
8
BLACK
6
CONTINUOUS
10
214.453
20
-29.1917
11
211.99
21
-29.8517
0
LINE
8
BLACK
6
CONTINUOUS
10
211.99
20
-29.8517
11
211.343
21
-27.4369
0
LINE
8
BLACK
6
CONTINUOUS
10
211.343
20
-27.4369
11
213.806
21
-26.7769
0
LINE
8
BLACK
6
CONTINUOUS
10
213.806
20
-26.7769
11
214.453
21
-29.1917
  0
ENDSEC
  0
EOF
