  0
SECTION
  2
HEADER
  9
$ANGBASE
  50
0.0
  9
$ANGDIR
  70
1
  9
$MEASUREMENT
  70
1
  0
ENDSEC
  0
SECTION
  2
TABLES
  0
TABLE
  2
LTYPE
  70
4
  0
LTYPE
  5
40F
  2
CONTINUOUS
  70
0
  3
Solid line
  72
65
  73
0
  40
0.0
  0
LTYPE
  5
410
  2
DASHDOT
 70
0
  3
Dash Dot ____ _ ____ _
 72
65
 73
4
 40
2.0
 49
1.25
 49
-0.25
 49
0.25
 49
-0.25
  0
LTYPE
  5
411
  2
DASHED
 70
0
  3
Dashed __ __ __ __ __
 72
65
 73
2
 40
0.75
 49
0.5
 49
-0.25
  0
LTYPE
  5
43B
  2
DOTTED
 70
0
  3
Dotted .  .  .  .
 72
65
 73
2
 40
0.2
 49
0.0
 49
-0.2
  0
ENDTAB
  0
TABLE
  2
STYLE
  70
4
  0
STYLE
  2
KICAD
  70
0
  40
0
  41
1
  42
1
  50
0
  71
0
  3
isocp.shx
  0
STYLE
  2
KICADB
  70
0
  40
0
  41
1
  42
1
  50
0
  71
0
  3
isocp.shx
  0
STYLE
  2
KICADI
  70
0
  40
0
  41
1
  42
1
  50
15
  71
0
  3
isocp.shx
  0
STYLE
  2
KICADBI
  70
0
  40
0
  41
1
  42
1
  50
15
  71
0
  3
isocp.shx
  0
ENDTAB
  0
TABLE
  2
LAYER
  70
1
  0
LAYER
  2
BLACK
  70
0
  62
7
  6
CONTINUOUS
  0
ENDTAB
  0
ENDSEC
  0
SECTION
  2
ENTITIES
0
LINE
8
BLACK
6
CONTINUOUS
10
160.227
20
-107.135
11
160.3
21
-107.184
0
LINE
8
BLACK
6
CONTINUOUS
10
160.3
20
-107.184
11
160.349
21
-107.257
0
LINE
8
BLACK
6
CONTINUOUS
10
160.349
20
-107.257
11
160.366
21
-107.343
0
LINE
8
BLACK
6
CONTINUOUS
10
160.366
20
-107.343
11
160.366
21
-107.793
0
LINE
8
BLACK
6
CONTINUOUS
10
160.366
20
-107.793
11
160.349
21
-107.879
0
LINE
8
BLACK
6
CONTINUOUS
10
160.349
20
-107.879
11
160.3
21
-107.952
0
LINE
8
BLACK
6
CONTINUOUS
10
160.3
20
-107.952
11
160.227
21
-108.001
0
LINE
8
BLACK
6
CONTINUOUS
10
160.227
20
-108.001
11
160.141
21
-108.018
0
LINE
8
BLACK
6
CONTINUOUS
10
160.141
20
-108.018
11
159.391
21
-108.018
0
LINE
8
BLACK
6
CONTINUOUS
10
159.391
20
-108.018
11
159.305
21
-108.001
0
LINE
8
BLACK
6
CONTINUOUS
10
159.305
20
-108.001
11
159.232
21
-107.952
0
LINE
8
BLACK
6
CONTINUOUS
10
159.232
20
-107.952
11
159.183
21
-107.879
0
LINE
8
BLACK
6
CONTINUOUS
10
159.183
20
-107.879
11
159.166
21
-107.793
0
LINE
8
BLACK
6
CONTINUOUS
10
159.166
20
-107.793
11
159.166
21
-107.343
0
LINE
8
BLACK
6
CONTINUOUS
10
159.166
20
-107.343
11
159.183
21
-107.257
0
LINE
8
BLACK
6
CONTINUOUS
10
159.183
20
-107.257
11
159.232
21
-107.184
0
LINE
8
BLACK
6
CONTINUOUS
10
159.232
20
-107.184
11
159.305
21
-107.135
0
LINE
8
BLACK
6
CONTINUOUS
10
159.305
20
-107.135
11
159.391
21
-107.118
0
LINE
8
BLACK
6
CONTINUOUS
10
159.391
20
-107.118
11
160.141
21
-107.118
0
LINE
8
BLACK
6
CONTINUOUS
10
160.141
20
-107.118
11
160.227
21
-107.135
0
LINE
8
BLACK
6
CONTINUOUS
10
157.687
20
-107.135
11
157.76
21
-107.184
0
LINE
8
BLACK
6
CONTINUOUS
10
157.76
20
-107.184
11
157.809
21
-107.257
0
LINE
8
BLACK
6
CONTINUOUS
10
157.809
20
-107.257
11
157.826
21
-107.343
0
LINE
8
BLACK
6
CONTINUOUS
10
157.826
20
-107.343
11
157.826
21
-107.793
0
LINE
8
BLACK
6
CONTINUOUS
10
157.826
20
-107.793
11
157.809
21
-107.879
0
LINE
8
BLACK
6
CONTINUOUS
10
157.809
20
-107.879
11
157.76
21
-107.952
0
LINE
8
BLACK
6
CONTINUOUS
10
157.76
20
-107.952
11
157.687
21
-108.001
0
LINE
8
BLACK
6
CONTINUOUS
10
157.687
20
-108.001
11
157.601
21
-108.018
0
LINE
8
BLACK
6
CONTINUOUS
10
157.601
20
-108.018
11
156.851
21
-108.018
0
LINE
8
BLACK
6
CONTINUOUS
10
156.851
20
-108.018
11
156.765
21
-108.001
0
LINE
8
BLACK
6
CONTINUOUS
10
156.765
20
-108.001
11
156.692
21
-107.952
0
LINE
8
BLACK
6
CONTINUOUS
10
156.692
20
-107.952
11
156.643
21
-107.879
0
LINE
8
BLACK
6
CONTINUOUS
10
156.643
20
-107.879
11
156.626
21
-107.793
0
LINE
8
BLACK
6
CONTINUOUS
10
156.626
20
-107.793
11
156.626
21
-107.343
0
LINE
8
BLACK
6
CONTINUOUS
10
156.626
20
-107.343
11
156.643
21
-107.257
0
LINE
8
BLACK
6
CONTINUOUS
10
156.643
20
-107.257
11
156.692
21
-107.184
0
LINE
8
BLACK
6
CONTINUOUS
10
156.692
20
-107.184
11
156.765
21
-107.135
0
LINE
8
BLACK
6
CONTINUOUS
10
156.765
20
-107.135
11
156.851
21
-107.118
0
LINE
8
BLACK
6
CONTINUOUS
10
156.851
20
-107.118
11
157.601
21
-107.118
0
LINE
8
BLACK
6
CONTINUOUS
10
157.601
20
-107.118
11
157.687
21
-107.135
0
LINE
8
BLACK
6
CONTINUOUS
10
155.147
20
-107.135
11
155.22
21
-107.184
0
LINE
8
BLACK
6
CONTINUOUS
10
155.22
20
-107.184
11
155.269
21
-107.257
0
LINE
8
BLACK
6
CONTINUOUS
10
155.269
20
-107.257
11
155.286
21
-107.343
0
LINE
8
BLACK
6
CONTINUOUS
10
155.286
20
-107.343
11
155.286
21
-107.793
0
LINE
8
BLACK
6
CONTINUOUS
10
155.286
20
-107.793
11
155.269
21
-107.879
0
LINE
8
BLACK
6
CONTINUOUS
10
155.269
20
-107.879
11
155.22
21
-107.952
0
LINE
8
BLACK
6
CONTINUOUS
10
155.22
20
-107.952
11
155.147
21
-108.001
0
LINE
8
BLACK
6
CONTINUOUS
10
155.147
20
-108.001
11
155.061
21
-108.018
0
LINE
8
BLACK
6
CONTINUOUS
10
155.061
20
-108.018
11
154.311
21
-108.018
0
LINE
8
BLACK
6
CONTINUOUS
10
154.311
20
-108.018
11
154.225
21
-108.001
0
LINE
8
BLACK
6
CONTINUOUS
10
154.225
20
-108.001
11
154.152
21
-107.952
0
LINE
8
BLACK
6
CONTINUOUS
10
154.152
20
-107.952
11
154.103
21
-107.879
0
LINE
8
BLACK
6
CONTINUOUS
10
154.103
20
-107.879
11
154.086
21
-107.793
0
LINE
8
BLACK
6
CONTINUOUS
10
154.086
20
-107.793
11
154.086
21
-107.343
0
LINE
8
BLACK
6
CONTINUOUS
10
154.086
20
-107.343
11
154.103
21
-107.257
0
LINE
8
BLACK
6
CONTINUOUS
10
154.103
20
-107.257
11
154.152
21
-107.184
0
LINE
8
BLACK
6
CONTINUOUS
10
154.152
20
-107.184
11
154.225
21
-107.135
0
LINE
8
BLACK
6
CONTINUOUS
10
154.225
20
-107.135
11
154.311
21
-107.118
0
LINE
8
BLACK
6
CONTINUOUS
10
154.311
20
-107.118
11
155.061
21
-107.118
0
LINE
8
BLACK
6
CONTINUOUS
10
155.061
20
-107.118
11
155.147
21
-107.135
0
LINE
8
BLACK
6
CONTINUOUS
10
152.607
20
-107.135
11
152.68
21
-107.184
0
LINE
8
BLACK
6
CONTINUOUS
10
152.68
20
-107.184
11
152.729
21
-107.257
0
LINE
8
BLACK
6
CONTINUOUS
10
152.729
20
-107.257
11
152.746
21
-107.343
0
LINE
8
BLACK
6
CONTINUOUS
10
152.746
20
-107.343
11
152.746
21
-107.793
0
LINE
8
BLACK
6
CONTINUOUS
10
152.746
20
-107.793
11
152.729
21
-107.879
0
LINE
8
BLACK
6
CONTINUOUS
10
152.729
20
-107.879
11
152.68
21
-107.952
0
LINE
8
BLACK
6
CONTINUOUS
10
152.68
20
-107.952
11
152.607
21
-108.001
0
LINE
8
BLACK
6
CONTINUOUS
10
152.607
20
-108.001
11
152.521
21
-108.018
0
LINE
8
BLACK
6
CONTINUOUS
10
152.521
20
-108.018
11
151.771
21
-108.018
0
LINE
8
BLACK
6
CONTINUOUS
10
151.771
20
-108.018
11
151.685
21
-108.001
0
LINE
8
BLACK
6
CONTINUOUS
10
151.685
20
-108.001
11
151.612
21
-107.952
0
LINE
8
BLACK
6
CONTINUOUS
10
151.612
20
-107.952
11
151.563
21
-107.879
0
LINE
8
BLACK
6
CONTINUOUS
10
151.563
20
-107.879
11
151.546
21
-107.793
0
LINE
8
BLACK
6
CONTINUOUS
10
151.546
20
-107.793
11
151.546
21
-107.343
0
LINE
8
BLACK
6
CONTINUOUS
10
151.546
20
-107.343
11
151.563
21
-107.257
0
LINE
8
BLACK
6
CONTINUOUS
10
151.563
20
-107.257
11
151.612
21
-107.184
0
LINE
8
BLACK
6
CONTINUOUS
10
151.612
20
-107.184
11
151.685
21
-107.135
0
LINE
8
BLACK
6
CONTINUOUS
10
151.685
20
-107.135
11
151.771
21
-107.118
0
LINE
8
BLACK
6
CONTINUOUS
10
151.771
20
-107.118
11
152.521
21
-107.118
0
LINE
8
BLACK
6
CONTINUOUS
10
152.521
20
-107.118
11
152.607
21
-107.135
0
LINE
8
BLACK
6
CONTINUOUS
10
160.227
20
-103.835
11
160.3
21
-103.884
0
LINE
8
BLACK
6
CONTINUOUS
10
160.3
20
-103.884
11
160.349
21
-103.957
0
LINE
8
BLACK
6
CONTINUOUS
10
160.349
20
-103.957
11
160.366
21
-104.043
0
LINE
8
BLACK
6
CONTINUOUS
10
160.366
20
-104.043
11
160.366
21
-104.493
0
LINE
8
BLACK
6
CONTINUOUS
10
160.366
20
-104.493
11
160.349
21
-104.579
0
LINE
8
BLACK
6
CONTINUOUS
10
160.349
20
-104.579
11
160.3
21
-104.652
0
LINE
8
BLACK
6
CONTINUOUS
10
160.3
20
-104.652
11
160.227
21
-104.701
0
LINE
8
BLACK
6
CONTINUOUS
10
160.227
20
-104.701
11
160.141
21
-104.718
0
LINE
8
BLACK
6
CONTINUOUS
10
160.141
20
-104.718
11
159.391
21
-104.718
0
LINE
8
BLACK
6
CONTINUOUS
10
159.391
20
-104.718
11
159.305
21
-104.701
0
LINE
8
BLACK
6
CONTINUOUS
10
159.305
20
-104.701
11
159.232
21
-104.652
0
LINE
8
BLACK
6
CONTINUOUS
10
159.232
20
-104.652
11
159.183
21
-104.579
0
LINE
8
BLACK
6
CONTINUOUS
10
159.183
20
-104.579
11
159.166
21
-104.493
0
LINE
8
BLACK
6
CONTINUOUS
10
159.166
20
-104.493
11
159.166
21
-104.043
0
LINE
8
BLACK
6
CONTINUOUS
10
159.166
20
-104.043
11
159.183
21
-103.957
0
LINE
8
BLACK
6
CONTINUOUS
10
159.183
20
-103.957
11
159.232
21
-103.884
0
LINE
8
BLACK
6
CONTINUOUS
10
159.232
20
-103.884
11
159.305
21
-103.835
0
LINE
8
BLACK
6
CONTINUOUS
10
159.305
20
-103.835
11
159.391
21
-103.818
0
LINE
8
BLACK
6
CONTINUOUS
10
159.391
20
-103.818
11
160.141
21
-103.818
0
LINE
8
BLACK
6
CONTINUOUS
10
160.141
20
-103.818
11
160.227
21
-103.835
0
LINE
8
BLACK
6
CONTINUOUS
10
157.687
20
-103.835
11
157.76
21
-103.884
0
LINE
8
BLACK
6
CONTINUOUS
10
157.76
20
-103.884
11
157.809
21
-103.957
0
LINE
8
BLACK
6
CONTINUOUS
10
157.809
20
-103.957
11
157.826
21
-104.043
0
LINE
8
BLACK
6
CONTINUOUS
10
157.826
20
-104.043
11
157.826
21
-104.493
0
LINE
8
BLACK
6
CONTINUOUS
10
157.826
20
-104.493
11
157.809
21
-104.579
0
LINE
8
BLACK
6
CONTINUOUS
10
157.809
20
-104.579
11
157.76
21
-104.652
0
LINE
8
BLACK
6
CONTINUOUS
10
157.76
20
-104.652
11
157.687
21
-104.701
0
LINE
8
BLACK
6
CONTINUOUS
10
157.687
20
-104.701
11
157.601
21
-104.718
0
LINE
8
BLACK
6
CONTINUOUS
10
157.601
20
-104.718
11
156.851
21
-104.718
0
LINE
8
BLACK
6
CONTINUOUS
10
156.851
20
-104.718
11
156.765
21
-104.701
0
LINE
8
BLACK
6
CONTINUOUS
10
156.765
20
-104.701
11
156.692
21
-104.652
0
LINE
8
BLACK
6
CONTINUOUS
10
156.692
20
-104.652
11
156.643
21
-104.579
0
LINE
8
BLACK
6
CONTINUOUS
10
156.643
20
-104.579
11
156.626
21
-104.493
0
LINE
8
BLACK
6
CONTINUOUS
10
156.626
20
-104.493
11
156.626
21
-104.043
0
LINE
8
BLACK
6
CONTINUOUS
10
156.626
20
-104.043
11
156.643
21
-103.957
0
LINE
8
BLACK
6
CONTINUOUS
10
156.643
20
-103.957
11
156.692
21
-103.884
0
LINE
8
BLACK
6
CONTINUOUS
10
156.692
20
-103.884
11
156.765
21
-103.835
0
LINE
8
BLACK
6
CONTINUOUS
10
156.765
20
-103.835
11
156.851
21
-103.818
0
LINE
8
BLACK
6
CONTINUOUS
10
156.851
20
-103.818
11
157.601
21
-103.818
0
LINE
8
BLACK
6
CONTINUOUS
10
157.601
20
-103.818
11
157.687
21
-103.835
0
LINE
8
BLACK
6
CONTINUOUS
10
155.147
20
-103.835
11
155.22
21
-103.884
0
LINE
8
BLACK
6
CONTINUOUS
10
155.22
20
-103.884
11
155.269
21
-103.957
0
LINE
8
BLACK
6
CONTINUOUS
10
155.269
20
-103.957
11
155.286
21
-104.043
0
LINE
8
BLACK
6
CONTINUOUS
10
155.286
20
-104.043
11
155.286
21
-104.493
0
LINE
8
BLACK
6
CONTINUOUS
10
155.286
20
-104.493
11
155.269
21
-104.579
0
LINE
8
BLACK
6
CONTINUOUS
10
155.269
20
-104.579
11
155.22
21
-104.652
0
LINE
8
BLACK
6
CONTINUOUS
10
155.22
20
-104.652
11
155.147
21
-104.701
0
LINE
8
BLACK
6
CONTINUOUS
10
155.147
20
-104.701
11
155.061
21
-104.718
0
LINE
8
BLACK
6
CONTINUOUS
10
155.061
20
-104.718
11
154.311
21
-104.718
0
LINE
8
BLACK
6
CONTINUOUS
10
154.311
20
-104.718
11
154.225
21
-104.701
0
LINE
8
BLACK
6
CONTINUOUS
10
154.225
20
-104.701
11
154.152
21
-104.652
0
LINE
8
BLACK
6
CONTINUOUS
10
154.152
20
-104.652
11
154.103
21
-104.579
0
LINE
8
BLACK
6
CONTINUOUS
10
154.103
20
-104.579
11
154.086
21
-104.493
0
LINE
8
BLACK
6
CONTINUOUS
10
154.086
20
-104.493
11
154.086
21
-104.043
0
LINE
8
BLACK
6
CONTINUOUS
10
154.086
20
-104.043
11
154.103
21
-103.957
0
LINE
8
BLACK
6
CONTINUOUS
10
154.103
20
-103.957
11
154.152
21
-103.884
0
LINE
8
BLACK
6
CONTINUOUS
10
154.152
20
-103.884
11
154.225
21
-103.835
0
LINE
8
BLACK
6
CONTINUOUS
10
154.225
20
-103.835
11
154.311
21
-103.818
0
LINE
8
BLACK
6
CONTINUOUS
10
154.311
20
-103.818
11
155.061
21
-103.818
0
LINE
8
BLACK
6
CONTINUOUS
10
155.061
20
-103.818
11
155.147
21
-103.835
0
LINE
8
BLACK
6
CONTINUOUS
10
152.607
20
-103.835
11
152.68
21
-103.884
0
LINE
8
BLACK
6
CONTINUOUS
10
152.68
20
-103.884
11
152.729
21
-103.957
0
LINE
8
BLACK
6
CONTINUOUS
10
152.729
20
-103.957
11
152.746
21
-104.043
0
LINE
8
BLACK
6
CONTINUOUS
10
152.746
20
-104.043
11
152.746
21
-104.493
0
LINE
8
BLACK
6
CONTINUOUS
10
152.746
20
-104.493
11
152.729
21
-104.579
0
LINE
8
BLACK
6
CONTINUOUS
10
152.729
20
-104.579
11
152.68
21
-104.652
0
LINE
8
BLACK
6
CONTINUOUS
10
152.68
20
-104.652
11
152.607
21
-104.701
0
LINE
8
BLACK
6
CONTINUOUS
10
152.607
20
-104.701
11
152.521
21
-104.718
0
LINE
8
BLACK
6
CONTINUOUS
10
152.521
20
-104.718
11
151.771
21
-104.718
0
LINE
8
BLACK
6
CONTINUOUS
10
151.771
20
-104.718
11
151.685
21
-104.701
0
LINE
8
BLACK
6
CONTINUOUS
10
151.685
20
-104.701
11
151.612
21
-104.652
0
LINE
8
BLACK
6
CONTINUOUS
10
151.612
20
-104.652
11
151.563
21
-104.579
0
LINE
8
BLACK
6
CONTINUOUS
10
151.563
20
-104.579
11
151.546
21
-104.493
0
LINE
8
BLACK
6
CONTINUOUS
10
151.546
20
-104.493
11
151.546
21
-104.043
0
LINE
8
BLACK
6
CONTINUOUS
10
151.546
20
-104.043
11
151.563
21
-103.957
0
LINE
8
BLACK
6
CONTINUOUS
10
151.563
20
-103.957
11
151.612
21
-103.884
0
LINE
8
BLACK
6
CONTINUOUS
10
151.612
20
-103.884
11
151.685
21
-103.835
0
LINE
8
BLACK
6
CONTINUOUS
10
151.685
20
-103.835
11
151.771
21
-103.818
0
LINE
8
BLACK
6
CONTINUOUS
10
151.771
20
-103.818
11
152.521
21
-103.818
0
LINE
8
BLACK
6
CONTINUOUS
10
152.521
20
-103.818
11
152.607
21
-103.835
0
LINE
8
BLACK
6
CONTINUOUS
10
167.847
20
-100.151
11
167.92
21
-100.2
0
LINE
8
BLACK
6
CONTINUOUS
10
167.92
20
-100.2
11
167.969
21
-100.273
0
LINE
8
BLACK
6
CONTINUOUS
10
167.969
20
-100.273
11
167.986
21
-100.359
0
LINE
8
BLACK
6
CONTINUOUS
10
167.986
20
-100.359
11
167.986
21
-100.809
0
LINE
8
BLACK
6
CONTINUOUS
10
167.986
20
-100.809
11
167.969
21
-100.895
0
LINE
8
BLACK
6
CONTINUOUS
10
167.969
20
-100.895
11
167.92
21
-100.968
0
LINE
8
BLACK
6
CONTINUOUS
10
167.92
20
-100.968
11
167.847
21
-101.017
0
LINE
8
BLACK
6
CONTINUOUS
10
167.847
20
-101.017
11
167.761
21
-101.034
0
LINE
8
BLACK
6
CONTINUOUS
10
167.761
20
-101.034
11
167.011
21
-101.034
0
LINE
8
BLACK
6
CONTINUOUS
10
167.011
20
-101.034
11
166.925
21
-101.017
0
LINE
8
BLACK
6
CONTINUOUS
10
166.925
20
-101.017
11
166.852
21
-100.968
0
LINE
8
BLACK
6
CONTINUOUS
10
166.852
20
-100.968
11
166.803
21
-100.895
0
LINE
8
BLACK
6
CONTINUOUS
10
166.803
20
-100.895
11
166.786
21
-100.809
0
LINE
8
BLACK
6
CONTINUOUS
10
166.786
20
-100.809
11
166.786
21
-100.359
0
LINE
8
BLACK
6
CONTINUOUS
10
166.786
20
-100.359
11
166.803
21
-100.273
0
LINE
8
BLACK
6
CONTINUOUS
10
166.803
20
-100.273
11
166.852
21
-100.2
0
LINE
8
BLACK
6
CONTINUOUS
10
166.852
20
-100.2
11
166.925
21
-100.151
0
LINE
8
BLACK
6
CONTINUOUS
10
166.925
20
-100.151
11
167.011
21
-100.134
0
LINE
8
BLACK
6
CONTINUOUS
10
167.011
20
-100.134
11
167.761
21
-100.134
0
LINE
8
BLACK
6
CONTINUOUS
10
167.761
20
-100.134
11
167.847
21
-100.151
0
LINE
8
BLACK
6
CONTINUOUS
10
165.307
20
-100.151
11
165.38
21
-100.2
0
LINE
8
BLACK
6
CONTINUOUS
10
165.38
20
-100.2
11
165.429
21
-100.273
0
LINE
8
BLACK
6
CONTINUOUS
10
165.429
20
-100.273
11
165.446
21
-100.359
0
LINE
8
BLACK
6
CONTINUOUS
10
165.446
20
-100.359
11
165.446
21
-100.809
0
LINE
8
BLACK
6
CONTINUOUS
10
165.446
20
-100.809
11
165.429
21
-100.895
0
LINE
8
BLACK
6
CONTINUOUS
10
165.429
20
-100.895
11
165.38
21
-100.968
0
LINE
8
BLACK
6
CONTINUOUS
10
165.38
20
-100.968
11
165.307
21
-101.017
0
LINE
8
BLACK
6
CONTINUOUS
10
165.307
20
-101.017
11
165.221
21
-101.034
0
LINE
8
BLACK
6
CONTINUOUS
10
165.221
20
-101.034
11
164.471
21
-101.034
0
LINE
8
BLACK
6
CONTINUOUS
10
164.471
20
-101.034
11
164.385
21
-101.017
0
LINE
8
BLACK
6
CONTINUOUS
10
164.385
20
-101.017
11
164.312
21
-100.968
0
LINE
8
BLACK
6
CONTINUOUS
10
164.312
20
-100.968
11
164.263
21
-100.895
0
LINE
8
BLACK
6
CONTINUOUS
10
164.263
20
-100.895
11
164.246
21
-100.809
0
LINE
8
BLACK
6
CONTINUOUS
10
164.246
20
-100.809
11
164.246
21
-100.359
0
LINE
8
BLACK
6
CONTINUOUS
10
164.246
20
-100.359
11
164.263
21
-100.273
0
LINE
8
BLACK
6
CONTINUOUS
10
164.263
20
-100.273
11
164.312
21
-100.2
0
LINE
8
BLACK
6
CONTINUOUS
10
164.312
20
-100.2
11
164.385
21
-100.151
0
LINE
8
BLACK
6
CONTINUOUS
10
164.385
20
-100.151
11
164.471
21
-100.134
0
LINE
8
BLACK
6
CONTINUOUS
10
164.471
20
-100.134
11
165.221
21
-100.134
0
LINE
8
BLACK
6
CONTINUOUS
10
165.221
20
-100.134
11
165.307
21
-100.151
0
LINE
8
BLACK
6
CONTINUOUS
10
162.767
20
-100.151
11
162.84
21
-100.2
0
LINE
8
BLACK
6
CONTINUOUS
10
162.84
20
-100.2
11
162.889
21
-100.273
0
LINE
8
BLACK
6
CONTINUOUS
10
162.889
20
-100.273
11
162.906
21
-100.359
0
LINE
8
BLACK
6
CONTINUOUS
10
162.906
20
-100.359
11
162.906
21
-100.809
0
LINE
8
BLACK
6
CONTINUOUS
10
162.906
20
-100.809
11
162.889
21
-100.895
0
LINE
8
BLACK
6
CONTINUOUS
10
162.889
20
-100.895
11
162.84
21
-100.968
0
LINE
8
BLACK
6
CONTINUOUS
10
162.84
20
-100.968
11
162.767
21
-101.017
0
LINE
8
BLACK
6
CONTINUOUS
10
162.767
20
-101.017
11
162.681
21
-101.034
0
LINE
8
BLACK
6
CONTINUOUS
10
162.681
20
-101.034
11
161.931
21
-101.034
0
LINE
8
BLACK
6
CONTINUOUS
10
161.931
20
-101.034
11
161.845
21
-101.017
0
LINE
8
BLACK
6
CONTINUOUS
10
161.845
20
-101.017
11
161.772
21
-100.968
0
LINE
8
BLACK
6
CONTINUOUS
10
161.772
20
-100.968
11
161.723
21
-100.895
0
LINE
8
BLACK
6
CONTINUOUS
10
161.723
20
-100.895
11
161.706
21
-100.809
0
LINE
8
BLACK
6
CONTINUOUS
10
161.706
20
-100.809
11
161.706
21
-100.359
0
LINE
8
BLACK
6
CONTINUOUS
10
161.706
20
-100.359
11
161.723
21
-100.273
0
LINE
8
BLACK
6
CONTINUOUS
10
161.723
20
-100.273
11
161.772
21
-100.2
0
LINE
8
BLACK
6
CONTINUOUS
10
161.772
20
-100.2
11
161.845
21
-100.151
0
LINE
8
BLACK
6
CONTINUOUS
10
161.845
20
-100.151
11
161.931
21
-100.134
0
LINE
8
BLACK
6
CONTINUOUS
10
161.931
20
-100.134
11
162.681
21
-100.134
0
LINE
8
BLACK
6
CONTINUOUS
10
162.681
20
-100.134
11
162.767
21
-100.151
0
LINE
8
BLACK
6
CONTINUOUS
10
160.227
20
-100.151
11
160.3
21
-100.2
0
LINE
8
BLACK
6
CONTINUOUS
10
160.3
20
-100.2
11
160.349
21
-100.273
0
LINE
8
BLACK
6
CONTINUOUS
10
160.349
20
-100.273
11
160.366
21
-100.359
0
LINE
8
BLACK
6
CONTINUOUS
10
160.366
20
-100.359
11
160.366
21
-100.809
0
LINE
8
BLACK
6
CONTINUOUS
10
160.366
20
-100.809
11
160.349
21
-100.895
0
LINE
8
BLACK
6
CONTINUOUS
10
160.349
20
-100.895
11
160.3
21
-100.968
0
LINE
8
BLACK
6
CONTINUOUS
10
160.3
20
-100.968
11
160.227
21
-101.017
0
LINE
8
BLACK
6
CONTINUOUS
10
160.227
20
-101.017
11
160.141
21
-101.034
0
LINE
8
BLACK
6
CONTINUOUS
10
160.141
20
-101.034
11
159.391
21
-101.034
0
LINE
8
BLACK
6
CONTINUOUS
10
159.391
20
-101.034
11
159.305
21
-101.017
0
LINE
8
BLACK
6
CONTINUOUS
10
159.305
20
-101.017
11
159.232
21
-100.968
0
LINE
8
BLACK
6
CONTINUOUS
10
159.232
20
-100.968
11
159.183
21
-100.895
0
LINE
8
BLACK
6
CONTINUOUS
10
159.183
20
-100.895
11
159.166
21
-100.809
0
LINE
8
BLACK
6
CONTINUOUS
10
159.166
20
-100.809
11
159.166
21
-100.359
0
LINE
8
BLACK
6
CONTINUOUS
10
159.166
20
-100.359
11
159.183
21
-100.273
0
LINE
8
BLACK
6
CONTINUOUS
10
159.183
20
-100.273
11
159.232
21
-100.2
0
LINE
8
BLACK
6
CONTINUOUS
10
159.232
20
-100.2
11
159.305
21
-100.151
0
LINE
8
BLACK
6
CONTINUOUS
10
159.305
20
-100.151
11
159.391
21
-100.134
0
LINE
8
BLACK
6
CONTINUOUS
10
159.391
20
-100.134
11
160.141
21
-100.134
0
LINE
8
BLACK
6
CONTINUOUS
10
160.141
20
-100.134
11
160.227
21
-100.151
0
LINE
8
BLACK
6
CONTINUOUS
10
157.687
20
-100.151
11
157.76
21
-100.2
0
LINE
8
BLACK
6
CONTINUOUS
10
157.76
20
-100.2
11
157.809
21
-100.273
0
LINE
8
BLACK
6
CONTINUOUS
10
157.809
20
-100.273
11
157.826
21
-100.359
0
LINE
8
BLACK
6
CONTINUOUS
10
157.826
20
-100.359
11
157.826
21
-100.809
0
LINE
8
BLACK
6
CONTINUOUS
10
157.826
20
-100.809
11
157.809
21
-100.895
0
LINE
8
BLACK
6
CONTINUOUS
10
157.809
20
-100.895
11
157.76
21
-100.968
0
LINE
8
BLACK
6
CONTINUOUS
10
157.76
20
-100.968
11
157.687
21
-101.017
0
LINE
8
BLACK
6
CONTINUOUS
10
157.687
20
-101.017
11
157.601
21
-101.034
0
LINE
8
BLACK
6
CONTINUOUS
10
157.601
20
-101.034
11
156.851
21
-101.034
0
LINE
8
BLACK
6
CONTINUOUS
10
156.851
20
-101.034
11
156.765
21
-101.017
0
LINE
8
BLACK
6
CONTINUOUS
10
156.765
20
-101.017
11
156.692
21
-100.968
0
LINE
8
BLACK
6
CONTINUOUS
10
156.692
20
-100.968
11
156.643
21
-100.895
0
LINE
8
BLACK
6
CONTINUOUS
10
156.643
20
-100.895
11
156.626
21
-100.809
0
LINE
8
BLACK
6
CONTINUOUS
10
156.626
20
-100.809
11
156.626
21
-100.359
0
LINE
8
BLACK
6
CONTINUOUS
10
156.626
20
-100.359
11
156.643
21
-100.273
0
LINE
8
BLACK
6
CONTINUOUS
10
156.643
20
-100.273
11
156.692
21
-100.2
0
LINE
8
BLACK
6
CONTINUOUS
10
156.692
20
-100.2
11
156.765
21
-100.151
0
LINE
8
BLACK
6
CONTINUOUS
10
156.765
20
-100.151
11
156.851
21
-100.134
0
LINE
8
BLACK
6
CONTINUOUS
10
156.851
20
-100.134
11
157.601
21
-100.134
0
LINE
8
BLACK
6
CONTINUOUS
10
157.601
20
-100.134
11
157.687
21
-100.151
0
LINE
8
BLACK
6
CONTINUOUS
10
155.147
20
-100.151
11
155.22
21
-100.2
0
LINE
8
BLACK
6
CONTINUOUS
10
155.22
20
-100.2
11
155.269
21
-100.273
0
LINE
8
BLACK
6
CONTINUOUS
10
155.269
20
-100.273
11
155.286
21
-100.359
0
LINE
8
BLACK
6
CONTINUOUS
10
155.286
20
-100.359
11
155.286
21
-100.809
0
LINE
8
BLACK
6
CONTINUOUS
10
155.286
20
-100.809
11
155.269
21
-100.895
0
LINE
8
BLACK
6
CONTINUOUS
10
155.269
20
-100.895
11
155.22
21
-100.968
0
LINE
8
BLACK
6
CONTINUOUS
10
155.22
20
-100.968
11
155.147
21
-101.017
0
LINE
8
BLACK
6
CONTINUOUS
10
155.147
20
-101.017
11
155.061
21
-101.034
0
LINE
8
BLACK
6
CONTINUOUS
10
155.061
20
-101.034
11
154.311
21
-101.034
0
LINE
8
BLACK
6
CONTINUOUS
10
154.311
20
-101.034
11
154.225
21
-101.017
0
LINE
8
BLACK
6
CONTINUOUS
10
154.225
20
-101.017
11
154.152
21
-100.968
0
LINE
8
BLACK
6
CONTINUOUS
10
154.152
20
-100.968
11
154.103
21
-100.895
0
LINE
8
BLACK
6
CONTINUOUS
10
154.103
20
-100.895
11
154.086
21
-100.809
0
LINE
8
BLACK
6
CONTINUOUS
10
154.086
20
-100.809
11
154.086
21
-100.359
0
LINE
8
BLACK
6
CONTINUOUS
10
154.086
20
-100.359
11
154.103
21
-100.273
0
LINE
8
BLACK
6
CONTINUOUS
10
154.103
20
-100.273
11
154.152
21
-100.2
0
LINE
8
BLACK
6
CONTINUOUS
10
154.152
20
-100.2
11
154.225
21
-100.151
0
LINE
8
BLACK
6
CONTINUOUS
10
154.225
20
-100.151
11
154.311
21
-100.134
0
LINE
8
BLACK
6
CONTINUOUS
10
154.311
20
-100.134
11
155.061
21
-100.134
0
LINE
8
BLACK
6
CONTINUOUS
10
155.061
20
-100.134
11
155.147
21
-100.151
0
LINE
8
BLACK
6
CONTINUOUS
10
152.607
20
-100.151
11
152.68
21
-100.2
0
LINE
8
BLACK
6
CONTINUOUS
10
152.68
20
-100.2
11
152.729
21
-100.273
0
LINE
8
BLACK
6
CONTINUOUS
10
152.729
20
-100.273
11
152.746
21
-100.359
0
LINE
8
BLACK
6
CONTINUOUS
10
152.746
20
-100.359
11
152.746
21
-100.809
0
LINE
8
BLACK
6
CONTINUOUS
10
152.746
20
-100.809
11
152.729
21
-100.895
0
LINE
8
BLACK
6
CONTINUOUS
10
152.729
20
-100.895
11
152.68
21
-100.968
0
LINE
8
BLACK
6
CONTINUOUS
10
152.68
20
-100.968
11
152.607
21
-101.017
0
LINE
8
BLACK
6
CONTINUOUS
10
152.607
20
-101.017
11
152.521
21
-101.034
0
LINE
8
BLACK
6
CONTINUOUS
10
152.521
20
-101.034
11
151.771
21
-101.034
0
LINE
8
BLACK
6
CONTINUOUS
10
151.771
20
-101.034
11
151.685
21
-101.017
0
LINE
8
BLACK
6
CONTINUOUS
10
151.685
20
-101.017
11
151.612
21
-100.968
0
LINE
8
BLACK
6
CONTINUOUS
10
151.612
20
-100.968
11
151.563
21
-100.895
0
LINE
8
BLACK
6
CONTINUOUS
10
151.563
20
-100.895
11
151.546
21
-100.809
0
LINE
8
BLACK
6
CONTINUOUS
10
151.546
20
-100.809
11
151.546
21
-100.359
0
LINE
8
BLACK
6
CONTINUOUS
10
151.546
20
-100.359
11
151.563
21
-100.273
0
LINE
8
BLACK
6
CONTINUOUS
10
151.563
20
-100.273
11
151.612
21
-100.2
0
LINE
8
BLACK
6
CONTINUOUS
10
151.612
20
-100.2
11
151.685
21
-100.151
0
LINE
8
BLACK
6
CONTINUOUS
10
151.685
20
-100.151
11
151.771
21
-100.134
0
LINE
8
BLACK
6
CONTINUOUS
10
151.771
20
-100.134
11
152.521
21
-100.134
0
LINE
8
BLACK
6
CONTINUOUS
10
152.521
20
-100.134
11
152.607
21
-100.151
0
LINE
8
BLACK
6
CONTINUOUS
10
150.067
20
-100.151
11
150.14
21
-100.2
0
LINE
8
BLACK
6
CONTINUOUS
10
150.14
20
-100.2
11
150.189
21
-100.273
0
LINE
8
BLACK
6
CONTINUOUS
10
150.189
20
-100.273
11
150.206
21
-100.359
0
LINE
8
BLACK
6
CONTINUOUS
10
150.206
20
-100.359
11
150.206
21
-100.809
0
LINE
8
BLACK
6
CONTINUOUS
10
150.206
20
-100.809
11
150.189
21
-100.895
0
LINE
8
BLACK
6
CONTINUOUS
10
150.189
20
-100.895
11
150.14
21
-100.968
0
LINE
8
BLACK
6
CONTINUOUS
10
150.14
20
-100.968
11
150.067
21
-101.017
0
LINE
8
BLACK
6
CONTINUOUS
10
150.067
20
-101.017
11
149.981
21
-101.034
0
LINE
8
BLACK
6
CONTINUOUS
10
149.981
20
-101.034
11
149.231
21
-101.034
0
LINE
8
BLACK
6
CONTINUOUS
10
149.231
20
-101.034
11
149.145
21
-101.017
0
LINE
8
BLACK
6
CONTINUOUS
10
149.145
20
-101.017
11
149.072
21
-100.968
0
LINE
8
BLACK
6
CONTINUOUS
10
149.072
20
-100.968
11
149.023
21
-100.895
0
LINE
8
BLACK
6
CONTINUOUS
10
149.023
20
-100.895
11
149.006
21
-100.809
0
LINE
8
BLACK
6
CONTINUOUS
10
149.006
20
-100.809
11
149.006
21
-100.359
0
LINE
8
BLACK
6
CONTINUOUS
10
149.006
20
-100.359
11
149.023
21
-100.273
0
LINE
8
BLACK
6
CONTINUOUS
10
149.023
20
-100.273
11
149.072
21
-100.2
0
LINE
8
BLACK
6
CONTINUOUS
10
149.072
20
-100.2
11
149.145
21
-100.151
0
LINE
8
BLACK
6
CONTINUOUS
10
149.145
20
-100.151
11
149.231
21
-100.134
0
LINE
8
BLACK
6
CONTINUOUS
10
149.231
20
-100.134
11
149.981
21
-100.134
0
LINE
8
BLACK
6
CONTINUOUS
10
149.981
20
-100.134
11
150.067
21
-100.151
0
LINE
8
BLACK
6
CONTINUOUS
10
147.527
20
-100.151
11
147.6
21
-100.2
0
LINE
8
BLACK
6
CONTINUOUS
10
147.6
20
-100.2
11
147.649
21
-100.273
0
LINE
8
BLACK
6
CONTINUOUS
10
147.649
20
-100.273
11
147.666
21
-100.359
0
LINE
8
BLACK
6
CONTINUOUS
10
147.666
20
-100.359
11
147.666
21
-100.809
0
LINE
8
BLACK
6
CONTINUOUS
10
147.666
20
-100.809
11
147.649
21
-100.895
0
LINE
8
BLACK
6
CONTINUOUS
10
147.649
20
-100.895
11
147.6
21
-100.968
0
LINE
8
BLACK
6
CONTINUOUS
10
147.6
20
-100.968
11
147.527
21
-101.017
0
LINE
8
BLACK
6
CONTINUOUS
10
147.527
20
-101.017
11
147.441
21
-101.034
0
LINE
8
BLACK
6
CONTINUOUS
10
147.441
20
-101.034
11
146.691
21
-101.034
0
LINE
8
BLACK
6
CONTINUOUS
10
146.691
20
-101.034
11
146.605
21
-101.017
0
LINE
8
BLACK
6
CONTINUOUS
10
146.605
20
-101.017
11
146.532
21
-100.968
0
LINE
8
BLACK
6
CONTINUOUS
10
146.532
20
-100.968
11
146.483
21
-100.895
0
LINE
8
BLACK
6
CONTINUOUS
10
146.483
20
-100.895
11
146.466
21
-100.809
0
LINE
8
BLACK
6
CONTINUOUS
10
146.466
20
-100.809
11
146.466
21
-100.359
0
LINE
8
BLACK
6
CONTINUOUS
10
146.466
20
-100.359
11
146.483
21
-100.273
0
LINE
8
BLACK
6
CONTINUOUS
10
146.483
20
-100.273
11
146.532
21
-100.2
0
LINE
8
BLACK
6
CONTINUOUS
10
146.532
20
-100.2
11
146.605
21
-100.151
0
LINE
8
BLACK
6
CONTINUOUS
10
146.605
20
-100.151
11
146.691
21
-100.134
0
LINE
8
BLACK
6
CONTINUOUS
10
146.691
20
-100.134
11
147.441
21
-100.134
0
LINE
8
BLACK
6
CONTINUOUS
10
147.441
20
-100.134
11
147.527
21
-100.151
0
LINE
8
BLACK
6
CONTINUOUS
10
144.987
20
-100.151
11
145.06
21
-100.2
0
LINE
8
BLACK
6
CONTINUOUS
10
145.06
20
-100.2
11
145.109
21
-100.273
0
LINE
8
BLACK
6
CONTINUOUS
10
145.109
20
-100.273
11
145.126
21
-100.359
0
LINE
8
BLACK
6
CONTINUOUS
10
145.126
20
-100.359
11
145.126
21
-100.809
0
LINE
8
BLACK
6
CONTINUOUS
10
145.126
20
-100.809
11
145.109
21
-100.895
0
LINE
8
BLACK
6
CONTINUOUS
10
145.109
20
-100.895
11
145.06
21
-100.968
0
LINE
8
BLACK
6
CONTINUOUS
10
145.06
20
-100.968
11
144.987
21
-101.017
0
LINE
8
BLACK
6
CONTINUOUS
10
144.987
20
-101.017
11
144.901
21
-101.034
0
LINE
8
BLACK
6
CONTINUOUS
10
144.901
20
-101.034
11
144.151
21
-101.034
0
LINE
8
BLACK
6
CONTINUOUS
10
144.151
20
-101.034
11
144.065
21
-101.017
0
LINE
8
BLACK
6
CONTINUOUS
10
144.065
20
-101.017
11
143.992
21
-100.968
0
LINE
8
BLACK
6
CONTINUOUS
10
143.992
20
-100.968
11
143.943
21
-100.895
0
LINE
8
BLACK
6
CONTINUOUS
10
143.943
20
-100.895
11
143.926
21
-100.809
0
LINE
8
BLACK
6
CONTINUOUS
10
143.926
20
-100.809
11
143.926
21
-100.359
0
LINE
8
BLACK
6
CONTINUOUS
10
143.926
20
-100.359
11
143.943
21
-100.273
0
LINE
8
BLACK
6
CONTINUOUS
10
143.943
20
-100.273
11
143.992
21
-100.2
0
LINE
8
BLACK
6
CONTINUOUS
10
143.992
20
-100.2
11
144.065
21
-100.151
0
LINE
8
BLACK
6
CONTINUOUS
10
144.065
20
-100.151
11
144.151
21
-100.134
0
LINE
8
BLACK
6
CONTINUOUS
10
144.151
20
-100.134
11
144.901
21
-100.134
0
LINE
8
BLACK
6
CONTINUOUS
10
144.901
20
-100.134
11
144.987
21
-100.151
0
LINE
8
BLACK
6
CONTINUOUS
10
167.847
20
-96.8511
11
167.92
21
-96.8999
0
LINE
8
BLACK
6
CONTINUOUS
10
167.92
20
-96.8999
11
167.969
21
-96.9729
0
LINE
8
BLACK
6
CONTINUOUS
10
167.969
20
-96.9729
11
167.986
21
-97.059
0
LINE
8
BLACK
6
CONTINUOUS
10
167.986
20
-97.059
11
167.986
21
-97.509
0
LINE
8
BLACK
6
CONTINUOUS
10
167.986
20
-97.509
11
167.969
21
-97.5951
0
LINE
8
BLACK
6
CONTINUOUS
10
167.969
20
-97.5951
11
167.92
21
-97.6681
0
LINE
8
BLACK
6
CONTINUOUS
10
167.92
20
-97.6681
11
167.847
21
-97.7169
0
LINE
8
BLACK
6
CONTINUOUS
10
167.847
20
-97.7169
11
167.761
21
-97.734
0
LINE
8
BLACK
6
CONTINUOUS
10
167.761
20
-97.734
11
167.011
21
-97.734
0
LINE
8
BLACK
6
CONTINUOUS
10
167.011
20
-97.734
11
166.925
21
-97.7169
0
LINE
8
BLACK
6
CONTINUOUS
10
166.925
20
-97.7169
11
166.852
21
-97.6681
0
LINE
8
BLACK
6
CONTINUOUS
10
166.852
20
-97.6681
11
166.803
21
-97.5951
0
LINE
8
BLACK
6
CONTINUOUS
10
166.803
20
-97.5951
11
166.786
21
-97.509
0
LINE
8
BLACK
6
CONTINUOUS
10
166.786
20
-97.509
11
166.786
21
-97.059
0
LINE
8
BLACK
6
CONTINUOUS
10
166.786
20
-97.059
11
166.803
21
-96.9729
0
LINE
8
BLACK
6
CONTINUOUS
10
166.803
20
-96.9729
11
166.852
21
-96.8999
0
LINE
8
BLACK
6
CONTINUOUS
10
166.852
20
-96.8999
11
166.925
21
-96.8511
0
LINE
8
BLACK
6
CONTINUOUS
10
166.925
20
-96.8511
11
167.011
21
-96.834
0
LINE
8
BLACK
6
CONTINUOUS
10
167.011
20
-96.834
11
167.761
21
-96.834
0
LINE
8
BLACK
6
CONTINUOUS
10
167.761
20
-96.834
11
167.847
21
-96.8511
0
LINE
8
BLACK
6
CONTINUOUS
10
165.307
20
-96.8511
11
165.38
21
-96.8999
0
LINE
8
BLACK
6
CONTINUOUS
10
165.38
20
-96.8999
11
165.429
21
-96.9729
0
LINE
8
BLACK
6
CONTINUOUS
10
165.429
20
-96.9729
11
165.446
21
-97.059
0
LINE
8
BLACK
6
CONTINUOUS
10
165.446
20
-97.059
11
165.446
21
-97.509
0
LINE
8
BLACK
6
CONTINUOUS
10
165.446
20
-97.509
11
165.429
21
-97.5951
0
LINE
8
BLACK
6
CONTINUOUS
10
165.429
20
-97.5951
11
165.38
21
-97.6681
0
LINE
8
BLACK
6
CONTINUOUS
10
165.38
20
-97.6681
11
165.307
21
-97.7169
0
LINE
8
BLACK
6
CONTINUOUS
10
165.307
20
-97.7169
11
165.221
21
-97.734
0
LINE
8
BLACK
6
CONTINUOUS
10
165.221
20
-97.734
11
164.471
21
-97.734
0
LINE
8
BLACK
6
CONTINUOUS
10
164.471
20
-97.734
11
164.385
21
-97.7169
0
LINE
8
BLACK
6
CONTINUOUS
10
164.385
20
-97.7169
11
164.312
21
-97.6681
0
LINE
8
BLACK
6
CONTINUOUS
10
164.312
20
-97.6681
11
164.263
21
-97.5951
0
LINE
8
BLACK
6
CONTINUOUS
10
164.263
20
-97.5951
11
164.246
21
-97.509
0
LINE
8
BLACK
6
CONTINUOUS
10
164.246
20
-97.509
11
164.246
21
-97.059
0
LINE
8
BLACK
6
CONTINUOUS
10
164.246
20
-97.059
11
164.263
21
-96.9729
0
LINE
8
BLACK
6
CONTINUOUS
10
164.263
20
-96.9729
11
164.312
21
-96.8999
0
LINE
8
BLACK
6
CONTINUOUS
10
164.312
20
-96.8999
11
164.385
21
-96.8511
0
LINE
8
BLACK
6
CONTINUOUS
10
164.385
20
-96.8511
11
164.471
21
-96.834
0
LINE
8
BLACK
6
CONTINUOUS
10
164.471
20
-96.834
11
165.221
21
-96.834
0
LINE
8
BLACK
6
CONTINUOUS
10
165.221
20
-96.834
11
165.307
21
-96.8511
0
LINE
8
BLACK
6
CONTINUOUS
10
162.767
20
-96.8511
11
162.84
21
-96.8999
0
LINE
8
BLACK
6
CONTINUOUS
10
162.84
20
-96.8999
11
162.889
21
-96.9729
0
LINE
8
BLACK
6
CONTINUOUS
10
162.889
20
-96.9729
11
162.906
21
-97.059
0
LINE
8
BLACK
6
CONTINUOUS
10
162.906
20
-97.059
11
162.906
21
-97.509
0
LINE
8
BLACK
6
CONTINUOUS
10
162.906
20
-97.509
11
162.889
21
-97.5951
0
LINE
8
BLACK
6
CONTINUOUS
10
162.889
20
-97.5951
11
162.84
21
-97.6681
0
LINE
8
BLACK
6
CONTINUOUS
10
162.84
20
-97.6681
11
162.767
21
-97.7169
0
LINE
8
BLACK
6
CONTINUOUS
10
162.767
20
-97.7169
11
162.681
21
-97.734
0
LINE
8
BLACK
6
CONTINUOUS
10
162.681
20
-97.734
11
161.931
21
-97.734
0
LINE
8
BLACK
6
CONTINUOUS
10
161.931
20
-97.734
11
161.845
21
-97.7169
0
LINE
8
BLACK
6
CONTINUOUS
10
161.845
20
-97.7169
11
161.772
21
-97.6681
0
LINE
8
BLACK
6
CONTINUOUS
10
161.772
20
-97.6681
11
161.723
21
-97.5951
0
LINE
8
BLACK
6
CONTINUOUS
10
161.723
20
-97.5951
11
161.706
21
-97.509
0
LINE
8
BLACK
6
CONTINUOUS
10
161.706
20
-97.509
11
161.706
21
-97.059
0
LINE
8
BLACK
6
CONTINUOUS
10
161.706
20
-97.059
11
161.723
21
-96.9729
0
LINE
8
BLACK
6
CONTINUOUS
10
161.723
20
-96.9729
11
161.772
21
-96.8999
0
LINE
8
BLACK
6
CONTINUOUS
10
161.772
20
-96.8999
11
161.845
21
-96.8511
0
LINE
8
BLACK
6
CONTINUOUS
10
161.845
20
-96.8511
11
161.931
21
-96.834
0
LINE
8
BLACK
6
CONTINUOUS
10
161.931
20
-96.834
11
162.681
21
-96.834
0
LINE
8
BLACK
6
CONTINUOUS
10
162.681
20
-96.834
11
162.767
21
-96.8511
0
LINE
8
BLACK
6
CONTINUOUS
10
160.227
20
-96.8511
11
160.3
21
-96.8999
0
LINE
8
BLACK
6
CONTINUOUS
10
160.3
20
-96.8999
11
160.349
21
-96.9729
0
LINE
8
BLACK
6
CONTINUOUS
10
160.349
20
-96.9729
11
160.366
21
-97.059
0
LINE
8
BLACK
6
CONTINUOUS
10
160.366
20
-97.059
11
160.366
21
-97.509
0
LINE
8
BLACK
6
CONTINUOUS
10
160.366
20
-97.509
11
160.349
21
-97.5951
0
LINE
8
BLACK
6
CONTINUOUS
10
160.349
20
-97.5951
11
160.3
21
-97.6681
0
LINE
8
BLACK
6
CONTINUOUS
10
160.3
20
-97.6681
11
160.227
21
-97.7169
0
LINE
8
BLACK
6
CONTINUOUS
10
160.227
20
-97.7169
11
160.141
21
-97.734
0
LINE
8
BLACK
6
CONTINUOUS
10
160.141
20
-97.734
11
159.391
21
-97.734
0
LINE
8
BLACK
6
CONTINUOUS
10
159.391
20
-97.734
11
159.305
21
-97.7169
0
LINE
8
BLACK
6
CONTINUOUS
10
159.305
20
-97.7169
11
159.232
21
-97.6681
0
LINE
8
BLACK
6
CONTINUOUS
10
159.232
20
-97.6681
11
159.183
21
-97.5951
0
LINE
8
BLACK
6
CONTINUOUS
10
159.183
20
-97.5951
11
159.166
21
-97.509
0
LINE
8
BLACK
6
CONTINUOUS
10
159.166
20
-97.509
11
159.166
21
-97.059
0
LINE
8
BLACK
6
CONTINUOUS
10
159.166
20
-97.059
11
159.183
21
-96.9729
0
LINE
8
BLACK
6
CONTINUOUS
10
159.183
20
-96.9729
11
159.232
21
-96.8999
0
LINE
8
BLACK
6
CONTINUOUS
10
159.232
20
-96.8999
11
159.305
21
-96.8511
0
LINE
8
BLACK
6
CONTINUOUS
10
159.305
20
-96.8511
11
159.391
21
-96.834
0
LINE
8
BLACK
6
CONTINUOUS
10
159.391
20
-96.834
11
160.141
21
-96.834
0
LINE
8
BLACK
6
CONTINUOUS
10
160.141
20
-96.834
11
160.227
21
-96.8511
0
LINE
8
BLACK
6
CONTINUOUS
10
157.687
20
-96.8511
11
157.76
21
-96.8999
0
LINE
8
BLACK
6
CONTINUOUS
10
157.76
20
-96.8999
11
157.809
21
-96.9729
0
LINE
8
BLACK
6
CONTINUOUS
10
157.809
20
-96.9729
11
157.826
21
-97.059
0
LINE
8
BLACK
6
CONTINUOUS
10
157.826
20
-97.059
11
157.826
21
-97.509
0
LINE
8
BLACK
6
CONTINUOUS
10
157.826
20
-97.509
11
157.809
21
-97.5951
0
LINE
8
BLACK
6
CONTINUOUS
10
157.809
20
-97.5951
11
157.76
21
-97.6681
0
LINE
8
BLACK
6
CONTINUOUS
10
157.76
20
-97.6681
11
157.687
21
-97.7169
0
LINE
8
BLACK
6
CONTINUOUS
10
157.687
20
-97.7169
11
157.601
21
-97.734
0
LINE
8
BLACK
6
CONTINUOUS
10
157.601
20
-97.734
11
156.851
21
-97.734
0
LINE
8
BLACK
6
CONTINUOUS
10
156.851
20
-97.734
11
156.765
21
-97.7169
0
LINE
8
BLACK
6
CONTINUOUS
10
156.765
20
-97.7169
11
156.692
21
-97.6681
0
LINE
8
BLACK
6
CONTINUOUS
10
156.692
20
-97.6681
11
156.643
21
-97.5951
0
LINE
8
BLACK
6
CONTINUOUS
10
156.643
20
-97.5951
11
156.626
21
-97.509
0
LINE
8
BLACK
6
CONTINUOUS
10
156.626
20
-97.509
11
156.626
21
-97.059
0
LINE
8
BLACK
6
CONTINUOUS
10
156.626
20
-97.059
11
156.643
21
-96.9729
0
LINE
8
BLACK
6
CONTINUOUS
10
156.643
20
-96.9729
11
156.692
21
-96.8999
0
LINE
8
BLACK
6
CONTINUOUS
10
156.692
20
-96.8999
11
156.765
21
-96.8511
0
LINE
8
BLACK
6
CONTINUOUS
10
156.765
20
-96.8511
11
156.851
21
-96.834
0
LINE
8
BLACK
6
CONTINUOUS
10
156.851
20
-96.834
11
157.601
21
-96.834
0
LINE
8
BLACK
6
CONTINUOUS
10
157.601
20
-96.834
11
157.687
21
-96.8511
0
LINE
8
BLACK
6
CONTINUOUS
10
155.147
20
-96.8511
11
155.22
21
-96.8999
0
LINE
8
BLACK
6
CONTINUOUS
10
155.22
20
-96.8999
11
155.269
21
-96.9729
0
LINE
8
BLACK
6
CONTINUOUS
10
155.269
20
-96.9729
11
155.286
21
-97.059
0
LINE
8
BLACK
6
CONTINUOUS
10
155.286
20
-97.059
11
155.286
21
-97.509
0
LINE
8
BLACK
6
CONTINUOUS
10
155.286
20
-97.509
11
155.269
21
-97.5951
0
LINE
8
BLACK
6
CONTINUOUS
10
155.269
20
-97.5951
11
155.22
21
-97.6681
0
LINE
8
BLACK
6
CONTINUOUS
10
155.22
20
-97.6681
11
155.147
21
-97.7169
0
LINE
8
BLACK
6
CONTINUOUS
10
155.147
20
-97.7169
11
155.061
21
-97.734
0
LINE
8
BLACK
6
CONTINUOUS
10
155.061
20
-97.734
11
154.311
21
-97.734
0
LINE
8
BLACK
6
CONTINUOUS
10
154.311
20
-97.734
11
154.225
21
-97.7169
0
LINE
8
BLACK
6
CONTINUOUS
10
154.225
20
-97.7169
11
154.152
21
-97.6681
0
LINE
8
BLACK
6
CONTINUOUS
10
154.152
20
-97.6681
11
154.103
21
-97.5951
0
LINE
8
BLACK
6
CONTINUOUS
10
154.103
20
-97.5951
11
154.086
21
-97.509
0
LINE
8
BLACK
6
CONTINUOUS
10
154.086
20
-97.509
11
154.086
21
-97.059
0
LINE
8
BLACK
6
CONTINUOUS
10
154.086
20
-97.059
11
154.103
21
-96.9729
0
LINE
8
BLACK
6
CONTINUOUS
10
154.103
20
-96.9729
11
154.152
21
-96.8999
0
LINE
8
BLACK
6
CONTINUOUS
10
154.152
20
-96.8999
11
154.225
21
-96.8511
0
LINE
8
BLACK
6
CONTINUOUS
10
154.225
20
-96.8511
11
154.311
21
-96.834
0
LINE
8
BLACK
6
CONTINUOUS
10
154.311
20
-96.834
11
155.061
21
-96.834
0
LINE
8
BLACK
6
CONTINUOUS
10
155.061
20
-96.834
11
155.147
21
-96.8511
0
LINE
8
BLACK
6
CONTINUOUS
10
152.607
20
-96.8511
11
152.68
21
-96.8999
0
LINE
8
BLACK
6
CONTINUOUS
10
152.68
20
-96.8999
11
152.729
21
-96.9729
0
LINE
8
BLACK
6
CONTINUOUS
10
152.729
20
-96.9729
11
152.746
21
-97.059
0
LINE
8
BLACK
6
CONTINUOUS
10
152.746
20
-97.059
11
152.746
21
-97.509
0
LINE
8
BLACK
6
CONTINUOUS
10
152.746
20
-97.509
11
152.729
21
-97.5951
0
LINE
8
BLACK
6
CONTINUOUS
10
152.729
20
-97.5951
11
152.68
21
-97.6681
0
LINE
8
BLACK
6
CONTINUOUS
10
152.68
20
-97.6681
11
152.607
21
-97.7169
0
LINE
8
BLACK
6
CONTINUOUS
10
152.607
20
-97.7169
11
152.521
21
-97.734
0
LINE
8
BLACK
6
CONTINUOUS
10
152.521
20
-97.734
11
151.771
21
-97.734
0
LINE
8
BLACK
6
CONTINUOUS
10
151.771
20
-97.734
11
151.685
21
-97.7169
0
LINE
8
BLACK
6
CONTINUOUS
10
151.685
20
-97.7169
11
151.612
21
-97.6681
0
LINE
8
BLACK
6
CONTINUOUS
10
151.612
20
-97.6681
11
151.563
21
-97.5951
0
LINE
8
BLACK
6
CONTINUOUS
10
151.563
20
-97.5951
11
151.546
21
-97.509
0
LINE
8
BLACK
6
CONTINUOUS
10
151.546
20
-97.509
11
151.546
21
-97.059
0
LINE
8
BLACK
6
CONTINUOUS
10
151.546
20
-97.059
11
151.563
21
-96.9729
0
LINE
8
BLACK
6
CONTINUOUS
10
151.563
20
-96.9729
11
151.612
21
-96.8999
0
LINE
8
BLACK
6
CONTINUOUS
10
151.612
20
-96.8999
11
151.685
21
-96.8511
0
LINE
8
BLACK
6
CONTINUOUS
10
151.685
20
-96.8511
11
151.771
21
-96.834
0
LINE
8
BLACK
6
CONTINUOUS
10
151.771
20
-96.834
11
152.521
21
-96.834
0
LINE
8
BLACK
6
CONTINUOUS
10
152.521
20
-96.834
11
152.607
21
-96.8511
0
LINE
8
BLACK
6
CONTINUOUS
10
150.067
20
-96.8511
11
150.14
21
-96.8999
0
LINE
8
BLACK
6
CONTINUOUS
10
150.14
20
-96.8999
11
150.189
21
-96.9729
0
LINE
8
BLACK
6
CONTINUOUS
10
150.189
20
-96.9729
11
150.206
21
-97.059
0
LINE
8
BLACK
6
CONTINUOUS
10
150.206
20
-97.059
11
150.206
21
-97.509
0
LINE
8
BLACK
6
CONTINUOUS
10
150.206
20
-97.509
11
150.189
21
-97.5951
0
LINE
8
BLACK
6
CONTINUOUS
10
150.189
20
-97.5951
11
150.14
21
-97.6681
0
LINE
8
BLACK
6
CONTINUOUS
10
150.14
20
-97.6681
11
150.067
21
-97.7169
0
LINE
8
BLACK
6
CONTINUOUS
10
150.067
20
-97.7169
11
149.981
21
-97.734
0
LINE
8
BLACK
6
CONTINUOUS
10
149.981
20
-97.734
11
149.231
21
-97.734
0
LINE
8
BLACK
6
CONTINUOUS
10
149.231
20
-97.734
11
149.145
21
-97.7169
0
LINE
8
BLACK
6
CONTINUOUS
10
149.145
20
-97.7169
11
149.072
21
-97.6681
0
LINE
8
BLACK
6
CONTINUOUS
10
149.072
20
-97.6681
11
149.023
21
-97.5951
0
LINE
8
BLACK
6
CONTINUOUS
10
149.023
20
-97.5951
11
149.006
21
-97.509
0
LINE
8
BLACK
6
CONTINUOUS
10
149.006
20
-97.509
11
149.006
21
-97.059
0
LINE
8
BLACK
6
CONTINUOUS
10
149.006
20
-97.059
11
149.023
21
-96.9729
0
LINE
8
BLACK
6
CONTINUOUS
10
149.023
20
-96.9729
11
149.072
21
-96.8999
0
LINE
8
BLACK
6
CONTINUOUS
10
149.072
20
-96.8999
11
149.145
21
-96.8511
0
LINE
8
BLACK
6
CONTINUOUS
10
149.145
20
-96.8511
11
149.231
21
-96.834
0
LINE
8
BLACK
6
CONTINUOUS
10
149.231
20
-96.834
11
149.981
21
-96.834
0
LINE
8
BLACK
6
CONTINUOUS
10
149.981
20
-96.834
11
150.067
21
-96.8511
0
LINE
8
BLACK
6
CONTINUOUS
10
147.527
20
-96.8511
11
147.6
21
-96.8999
0
LINE
8
BLACK
6
CONTINUOUS
10
147.6
20
-96.8999
11
147.649
21
-96.9729
0
LINE
8
BLACK
6
CONTINUOUS
10
147.649
20
-96.9729
11
147.666
21
-97.059
0
LINE
8
BLACK
6
CONTINUOUS
10
147.666
20
-97.059
11
147.666
21
-97.509
0
LINE
8
BLACK
6
CONTINUOUS
10
147.666
20
-97.509
11
147.649
21
-97.5951
0
LINE
8
BLACK
6
CONTINUOUS
10
147.649
20
-97.5951
11
147.6
21
-97.6681
0
LINE
8
BLACK
6
CONTINUOUS
10
147.6
20
-97.6681
11
147.527
21
-97.7169
0
LINE
8
BLACK
6
CONTINUOUS
10
147.527
20
-97.7169
11
147.441
21
-97.734
0
LINE
8
BLACK
6
CONTINUOUS
10
147.441
20
-97.734
11
146.691
21
-97.734
0
LINE
8
BLACK
6
CONTINUOUS
10
146.691
20
-97.734
11
146.605
21
-97.7169
0
LINE
8
BLACK
6
CONTINUOUS
10
146.605
20
-97.7169
11
146.532
21
-97.6681
0
LINE
8
BLACK
6
CONTINUOUS
10
146.532
20
-97.6681
11
146.483
21
-97.5951
0
LINE
8
BLACK
6
CONTINUOUS
10
146.483
20
-97.5951
11
146.466
21
-97.509
0
LINE
8
BLACK
6
CONTINUOUS
10
146.466
20
-97.509
11
146.466
21
-97.059
0
LINE
8
BLACK
6
CONTINUOUS
10
146.466
20
-97.059
11
146.483
21
-96.9729
0
LINE
8
BLACK
6
CONTINUOUS
10
146.483
20
-96.9729
11
146.532
21
-96.8999
0
LINE
8
BLACK
6
CONTINUOUS
10
146.532
20
-96.8999
11
146.605
21
-96.8511
0
LINE
8
BLACK
6
CONTINUOUS
10
146.605
20
-96.8511
11
146.691
21
-96.834
0
LINE
8
BLACK
6
CONTINUOUS
10
146.691
20
-96.834
11
147.441
21
-96.834
0
LINE
8
BLACK
6
CONTINUOUS
10
147.441
20
-96.834
11
147.527
21
-96.8511
0
LINE
8
BLACK
6
CONTINUOUS
10
144.987
20
-96.8511
11
145.06
21
-96.8999
0
LINE
8
BLACK
6
CONTINUOUS
10
145.06
20
-96.8999
11
145.109
21
-96.9729
0
LINE
8
BLACK
6
CONTINUOUS
10
145.109
20
-96.9729
11
145.126
21
-97.059
0
LINE
8
BLACK
6
CONTINUOUS
10
145.126
20
-97.059
11
145.126
21
-97.509
0
LINE
8
BLACK
6
CONTINUOUS
10
145.126
20
-97.509
11
145.109
21
-97.5951
0
LINE
8
BLACK
6
CONTINUOUS
10
145.109
20
-97.5951
11
145.06
21
-97.6681
0
LINE
8
BLACK
6
CONTINUOUS
10
145.06
20
-97.6681
11
144.987
21
-97.7169
0
LINE
8
BLACK
6
CONTINUOUS
10
144.987
20
-97.7169
11
144.901
21
-97.734
0
LINE
8
BLACK
6
CONTINUOUS
10
144.901
20
-97.734
11
144.151
21
-97.734
0
LINE
8
BLACK
6
CONTINUOUS
10
144.151
20
-97.734
11
144.065
21
-97.7169
0
LINE
8
BLACK
6
CONTINUOUS
10
144.065
20
-97.7169
11
143.992
21
-97.6681
0
LINE
8
BLACK
6
CONTINUOUS
10
143.992
20
-97.6681
11
143.943
21
-97.5951
0
LINE
8
BLACK
6
CONTINUOUS
10
143.943
20
-97.5951
11
143.926
21
-97.509
0
LINE
8
BLACK
6
CONTINUOUS
10
143.926
20
-97.509
11
143.926
21
-97.059
0
LINE
8
BLACK
6
CONTINUOUS
10
143.926
20
-97.059
11
143.943
21
-96.9729
0
LINE
8
BLACK
6
CONTINUOUS
10
143.943
20
-96.9729
11
143.992
21
-96.8999
0
LINE
8
BLACK
6
CONTINUOUS
10
143.992
20
-96.8999
11
144.065
21
-96.8511
0
LINE
8
BLACK
6
CONTINUOUS
10
144.065
20
-96.8511
11
144.151
21
-96.834
0
LINE
8
BLACK
6
CONTINUOUS
10
144.151
20
-96.834
11
144.901
21
-96.834
0
LINE
8
BLACK
6
CONTINUOUS
10
144.901
20
-96.834
11
144.987
21
-96.8511
0
LINE
8
BLACK
6
CONTINUOUS
10
167.847
20
-87.1951
11
167.92
21
-87.2439
0
LINE
8
BLACK
6
CONTINUOUS
10
167.92
20
-87.2439
11
167.969
21
-87.3169
0
LINE
8
BLACK
6
CONTINUOUS
10
167.969
20
-87.3169
11
167.986
21
-87.403
0
LINE
8
BLACK
6
CONTINUOUS
10
167.986
20
-87.403
11
167.986
21
-87.853
0
LINE
8
BLACK
6
CONTINUOUS
10
167.986
20
-87.853
11
167.969
21
-87.9391
0
LINE
8
BLACK
6
CONTINUOUS
10
167.969
20
-87.9391
11
167.92
21
-88.0121
0
LINE
8
BLACK
6
CONTINUOUS
10
167.92
20
-88.0121
11
167.847
21
-88.0609
0
LINE
8
BLACK
6
CONTINUOUS
10
167.847
20
-88.0609
11
167.761
21
-88.078
0
LINE
8
BLACK
6
CONTINUOUS
10
167.761
20
-88.078
11
167.011
21
-88.078
0
LINE
8
BLACK
6
CONTINUOUS
10
167.011
20
-88.078
11
166.925
21
-88.0609
0
LINE
8
BLACK
6
CONTINUOUS
10
166.925
20
-88.0609
11
166.852
21
-88.0121
0
LINE
8
BLACK
6
CONTINUOUS
10
166.852
20
-88.0121
11
166.803
21
-87.9391
0
LINE
8
BLACK
6
CONTINUOUS
10
166.803
20
-87.9391
11
166.786
21
-87.853
0
LINE
8
BLACK
6
CONTINUOUS
10
166.786
20
-87.853
11
166.786
21
-87.403
0
LINE
8
BLACK
6
CONTINUOUS
10
166.786
20
-87.403
11
166.803
21
-87.3169
0
LINE
8
BLACK
6
CONTINUOUS
10
166.803
20
-87.3169
11
166.852
21
-87.2439
0
LINE
8
BLACK
6
CONTINUOUS
10
166.852
20
-87.2439
11
166.925
21
-87.1951
0
LINE
8
BLACK
6
CONTINUOUS
10
166.925
20
-87.1951
11
167.011
21
-87.178
0
LINE
8
BLACK
6
CONTINUOUS
10
167.011
20
-87.178
11
167.761
21
-87.178
0
LINE
8
BLACK
6
CONTINUOUS
10
167.761
20
-87.178
11
167.847
21
-87.1951
0
LINE
8
BLACK
6
CONTINUOUS
10
165.307
20
-87.1951
11
165.38
21
-87.2439
0
LINE
8
BLACK
6
CONTINUOUS
10
165.38
20
-87.2439
11
165.429
21
-87.3169
0
LINE
8
BLACK
6
CONTINUOUS
10
165.429
20
-87.3169
11
165.446
21
-87.403
0
LINE
8
BLACK
6
CONTINUOUS
10
165.446
20
-87.403
11
165.446
21
-87.853
0
LINE
8
BLACK
6
CONTINUOUS
10
165.446
20
-87.853
11
165.429
21
-87.9391
0
LINE
8
BLACK
6
CONTINUOUS
10
165.429
20
-87.9391
11
165.38
21
-88.0121
0
LINE
8
BLACK
6
CONTINUOUS
10
165.38
20
-88.0121
11
165.307
21
-88.0609
0
LINE
8
BLACK
6
CONTINUOUS
10
165.307
20
-88.0609
11
165.221
21
-88.078
0
LINE
8
BLACK
6
CONTINUOUS
10
165.221
20
-88.078
11
164.471
21
-88.078
0
LINE
8
BLACK
6
CONTINUOUS
10
164.471
20
-88.078
11
164.385
21
-88.0609
0
LINE
8
BLACK
6
CONTINUOUS
10
164.385
20
-88.0609
11
164.312
21
-88.0121
0
LINE
8
BLACK
6
CONTINUOUS
10
164.312
20
-88.0121
11
164.263
21
-87.9391
0
LINE
8
BLACK
6
CONTINUOUS
10
164.263
20
-87.9391
11
164.246
21
-87.853
0
LINE
8
BLACK
6
CONTINUOUS
10
164.246
20
-87.853
11
164.246
21
-87.403
0
LINE
8
BLACK
6
CONTINUOUS
10
164.246
20
-87.403
11
164.263
21
-87.3169
0
LINE
8
BLACK
6
CONTINUOUS
10
164.263
20
-87.3169
11
164.312
21
-87.2439
0
LINE
8
BLACK
6
CONTINUOUS
10
164.312
20
-87.2439
11
164.385
21
-87.1951
0
LINE
8
BLACK
6
CONTINUOUS
10
164.385
20
-87.1951
11
164.471
21
-87.178
0
LINE
8
BLACK
6
CONTINUOUS
10
164.471
20
-87.178
11
165.221
21
-87.178
0
LINE
8
BLACK
6
CONTINUOUS
10
165.221
20
-87.178
11
165.307
21
-87.1951
0
LINE
8
BLACK
6
CONTINUOUS
10
162.767
20
-87.1951
11
162.84
21
-87.2439
0
LINE
8
BLACK
6
CONTINUOUS
10
162.84
20
-87.2439
11
162.889
21
-87.3169
0
LINE
8
BLACK
6
CONTINUOUS
10
162.889
20
-87.3169
11
162.906
21
-87.403
0
LINE
8
BLACK
6
CONTINUOUS
10
162.906
20
-87.403
11
162.906
21
-87.853
0
LINE
8
BLACK
6
CONTINUOUS
10
162.906
20
-87.853
11
162.889
21
-87.9391
0
LINE
8
BLACK
6
CONTINUOUS
10
162.889
20
-87.9391
11
162.84
21
-88.0121
0
LINE
8
BLACK
6
CONTINUOUS
10
162.84
20
-88.0121
11
162.767
21
-88.0609
0
LINE
8
BLACK
6
CONTINUOUS
10
162.767
20
-88.0609
11
162.681
21
-88.078
0
LINE
8
BLACK
6
CONTINUOUS
10
162.681
20
-88.078
11
161.931
21
-88.078
0
LINE
8
BLACK
6
CONTINUOUS
10
161.931
20
-88.078
11
161.845
21
-88.0609
0
LINE
8
BLACK
6
CONTINUOUS
10
161.845
20
-88.0609
11
161.772
21
-88.0121
0
LINE
8
BLACK
6
CONTINUOUS
10
161.772
20
-88.0121
11
161.723
21
-87.9391
0
LINE
8
BLACK
6
CONTINUOUS
10
161.723
20
-87.9391
11
161.706
21
-87.853
0
LINE
8
BLACK
6
CONTINUOUS
10
161.706
20
-87.853
11
161.706
21
-87.403
0
LINE
8
BLACK
6
CONTINUOUS
10
161.706
20
-87.403
11
161.723
21
-87.3169
0
LINE
8
BLACK
6
CONTINUOUS
10
161.723
20
-87.3169
11
161.772
21
-87.2439
0
LINE
8
BLACK
6
CONTINUOUS
10
161.772
20
-87.2439
11
161.845
21
-87.1951
0
LINE
8
BLACK
6
CONTINUOUS
10
161.845
20
-87.1951
11
161.931
21
-87.178
0
LINE
8
BLACK
6
CONTINUOUS
10
161.931
20
-87.178
11
162.681
21
-87.178
0
LINE
8
BLACK
6
CONTINUOUS
10
162.681
20
-87.178
11
162.767
21
-87.1951
0
LINE
8
BLACK
6
CONTINUOUS
10
160.227
20
-87.1951
11
160.3
21
-87.2439
0
LINE
8
BLACK
6
CONTINUOUS
10
160.3
20
-87.2439
11
160.349
21
-87.3169
0
LINE
8
BLACK
6
CONTINUOUS
10
160.349
20
-87.3169
11
160.366
21
-87.403
0
LINE
8
BLACK
6
CONTINUOUS
10
160.366
20
-87.403
11
160.366
21
-87.853
0
LINE
8
BLACK
6
CONTINUOUS
10
160.366
20
-87.853
11
160.349
21
-87.9391
0
LINE
8
BLACK
6
CONTINUOUS
10
160.349
20
-87.9391
11
160.3
21
-88.0121
0
LINE
8
BLACK
6
CONTINUOUS
10
160.3
20
-88.0121
11
160.227
21
-88.0609
0
LINE
8
BLACK
6
CONTINUOUS
10
160.227
20
-88.0609
11
160.141
21
-88.078
0
LINE
8
BLACK
6
CONTINUOUS
10
160.141
20
-88.078
11
159.391
21
-88.078
0
LINE
8
BLACK
6
CONTINUOUS
10
159.391
20
-88.078
11
159.305
21
-88.0609
0
LINE
8
BLACK
6
CONTINUOUS
10
159.305
20
-88.0609
11
159.232
21
-88.0121
0
LINE
8
BLACK
6
CONTINUOUS
10
159.232
20
-88.0121
11
159.183
21
-87.9391
0
LINE
8
BLACK
6
CONTINUOUS
10
159.183
20
-87.9391
11
159.166
21
-87.853
0
LINE
8
BLACK
6
CONTINUOUS
10
159.166
20
-87.853
11
159.166
21
-87.403
0
LINE
8
BLACK
6
CONTINUOUS
10
159.166
20
-87.403
11
159.183
21
-87.3169
0
LINE
8
BLACK
6
CONTINUOUS
10
159.183
20
-87.3169
11
159.232
21
-87.2439
0
LINE
8
BLACK
6
CONTINUOUS
10
159.232
20
-87.2439
11
159.305
21
-87.1951
0
LINE
8
BLACK
6
CONTINUOUS
10
159.305
20
-87.1951
11
159.391
21
-87.178
0
LINE
8
BLACK
6
CONTINUOUS
10
159.391
20
-87.178
11
160.141
21
-87.178
0
LINE
8
BLACK
6
CONTINUOUS
10
160.141
20
-87.178
11
160.227
21
-87.1951
0
LINE
8
BLACK
6
CONTINUOUS
10
157.687
20
-87.1951
11
157.76
21
-87.2439
0
LINE
8
BLACK
6
CONTINUOUS
10
157.76
20
-87.2439
11
157.809
21
-87.3169
0
LINE
8
BLACK
6
CONTINUOUS
10
157.809
20
-87.3169
11
157.826
21
-87.403
0
LINE
8
BLACK
6
CONTINUOUS
10
157.826
20
-87.403
11
157.826
21
-87.853
0
LINE
8
BLACK
6
CONTINUOUS
10
157.826
20
-87.853
11
157.809
21
-87.9391
0
LINE
8
BLACK
6
CONTINUOUS
10
157.809
20
-87.9391
11
157.76
21
-88.0121
0
LINE
8
BLACK
6
CONTINUOUS
10
157.76
20
-88.0121
11
157.687
21
-88.0609
0
LINE
8
BLACK
6
CONTINUOUS
10
157.687
20
-88.0609
11
157.601
21
-88.078
0
LINE
8
BLACK
6
CONTINUOUS
10
157.601
20
-88.078
11
156.851
21
-88.078
0
LINE
8
BLACK
6
CONTINUOUS
10
156.851
20
-88.078
11
156.765
21
-88.0609
0
LINE
8
BLACK
6
CONTINUOUS
10
156.765
20
-88.0609
11
156.692
21
-88.0121
0
LINE
8
BLACK
6
CONTINUOUS
10
156.692
20
-88.0121
11
156.643
21
-87.9391
0
LINE
8
BLACK
6
CONTINUOUS
10
156.643
20
-87.9391
11
156.626
21
-87.853
0
LINE
8
BLACK
6
CONTINUOUS
10
156.626
20
-87.853
11
156.626
21
-87.403
0
LINE
8
BLACK
6
CONTINUOUS
10
156.626
20
-87.403
11
156.643
21
-87.3169
0
LINE
8
BLACK
6
CONTINUOUS
10
156.643
20
-87.3169
11
156.692
21
-87.2439
0
LINE
8
BLACK
6
CONTINUOUS
10
156.692
20
-87.2439
11
156.765
21
-87.1951
0
LINE
8
BLACK
6
CONTINUOUS
10
156.765
20
-87.1951
11
156.851
21
-87.178
0
LINE
8
BLACK
6
CONTINUOUS
10
156.851
20
-87.178
11
157.601
21
-87.178
0
LINE
8
BLACK
6
CONTINUOUS
10
157.601
20
-87.178
11
157.687
21
-87.1951
0
LINE
8
BLACK
6
CONTINUOUS
10
155.147
20
-87.1951
11
155.22
21
-87.2439
0
LINE
8
BLACK
6
CONTINUOUS
10
155.22
20
-87.2439
11
155.269
21
-87.3169
0
LINE
8
BLACK
6
CONTINUOUS
10
155.269
20
-87.3169
11
155.286
21
-87.403
0
LINE
8
BLACK
6
CONTINUOUS
10
155.286
20
-87.403
11
155.286
21
-87.853
0
LINE
8
BLACK
6
CONTINUOUS
10
155.286
20
-87.853
11
155.269
21
-87.9391
0
LINE
8
BLACK
6
CONTINUOUS
10
155.269
20
-87.9391
11
155.22
21
-88.0121
0
LINE
8
BLACK
6
CONTINUOUS
10
155.22
20
-88.0121
11
155.147
21
-88.0609
0
LINE
8
BLACK
6
CONTINUOUS
10
155.147
20
-88.0609
11
155.061
21
-88.078
0
LINE
8
BLACK
6
CONTINUOUS
10
155.061
20
-88.078
11
154.311
21
-88.078
0
LINE
8
BLACK
6
CONTINUOUS
10
154.311
20
-88.078
11
154.225
21
-88.0609
0
LINE
8
BLACK
6
CONTINUOUS
10
154.225
20
-88.0609
11
154.152
21
-88.0121
0
LINE
8
BLACK
6
CONTINUOUS
10
154.152
20
-88.0121
11
154.103
21
-87.9391
0
LINE
8
BLACK
6
CONTINUOUS
10
154.103
20
-87.9391
11
154.086
21
-87.853
0
LINE
8
BLACK
6
CONTINUOUS
10
154.086
20
-87.853
11
154.086
21
-87.403
0
LINE
8
BLACK
6
CONTINUOUS
10
154.086
20
-87.403
11
154.103
21
-87.3169
0
LINE
8
BLACK
6
CONTINUOUS
10
154.103
20
-87.3169
11
154.152
21
-87.2439
0
LINE
8
BLACK
6
CONTINUOUS
10
154.152
20
-87.2439
11
154.225
21
-87.1951
0
LINE
8
BLACK
6
CONTINUOUS
10
154.225
20
-87.1951
11
154.311
21
-87.178
0
LINE
8
BLACK
6
CONTINUOUS
10
154.311
20
-87.178
11
155.061
21
-87.178
0
LINE
8
BLACK
6
CONTINUOUS
10
155.061
20
-87.178
11
155.147
21
-87.1951
0
LINE
8
BLACK
6
CONTINUOUS
10
152.607
20
-87.1951
11
152.68
21
-87.2439
0
LINE
8
BLACK
6
CONTINUOUS
10
152.68
20
-87.2439
11
152.729
21
-87.3169
0
LINE
8
BLACK
6
CONTINUOUS
10
152.729
20
-87.3169
11
152.746
21
-87.403
0
LINE
8
BLACK
6
CONTINUOUS
10
152.746
20
-87.403
11
152.746
21
-87.853
0
LINE
8
BLACK
6
CONTINUOUS
10
152.746
20
-87.853
11
152.729
21
-87.9391
0
LINE
8
BLACK
6
CONTINUOUS
10
152.729
20
-87.9391
11
152.68
21
-88.0121
0
LINE
8
BLACK
6
CONTINUOUS
10
152.68
20
-88.0121
11
152.607
21
-88.0609
0
LINE
8
BLACK
6
CONTINUOUS
10
152.607
20
-88.0609
11
152.521
21
-88.078
0
LINE
8
BLACK
6
CONTINUOUS
10
152.521
20
-88.078
11
151.771
21
-88.078
0
LINE
8
BLACK
6
CONTINUOUS
10
151.771
20
-88.078
11
151.685
21
-88.0609
0
LINE
8
BLACK
6
CONTINUOUS
10
151.685
20
-88.0609
11
151.612
21
-88.0121
0
LINE
8
BLACK
6
CONTINUOUS
10
151.612
20
-88.0121
11
151.563
21
-87.9391
0
LINE
8
BLACK
6
CONTINUOUS
10
151.563
20
-87.9391
11
151.546
21
-87.853
0
LINE
8
BLACK
6
CONTINUOUS
10
151.546
20
-87.853
11
151.546
21
-87.403
0
LINE
8
BLACK
6
CONTINUOUS
10
151.546
20
-87.403
11
151.563
21
-87.3169
0
LINE
8
BLACK
6
CONTINUOUS
10
151.563
20
-87.3169
11
151.612
21
-87.2439
0
LINE
8
BLACK
6
CONTINUOUS
10
151.612
20
-87.2439
11
151.685
21
-87.1951
0
LINE
8
BLACK
6
CONTINUOUS
10
151.685
20
-87.1951
11
151.771
21
-87.178
0
LINE
8
BLACK
6
CONTINUOUS
10
151.771
20
-87.178
11
152.521
21
-87.178
0
LINE
8
BLACK
6
CONTINUOUS
10
152.521
20
-87.178
11
152.607
21
-87.1951
0
LINE
8
BLACK
6
CONTINUOUS
10
150.067
20
-87.1951
11
150.14
21
-87.2439
0
LINE
8
BLACK
6
CONTINUOUS
10
150.14
20
-87.2439
11
150.189
21
-87.3169
0
LINE
8
BLACK
6
CONTINUOUS
10
150.189
20
-87.3169
11
150.206
21
-87.403
0
LINE
8
BLACK
6
CONTINUOUS
10
150.206
20
-87.403
11
150.206
21
-87.853
0
LINE
8
BLACK
6
CONTINUOUS
10
150.206
20
-87.853
11
150.189
21
-87.9391
0
LINE
8
BLACK
6
CONTINUOUS
10
150.189
20
-87.9391
11
150.14
21
-88.0121
0
LINE
8
BLACK
6
CONTINUOUS
10
150.14
20
-88.0121
11
150.067
21
-88.0609
0
LINE
8
BLACK
6
CONTINUOUS
10
150.067
20
-88.0609
11
149.981
21
-88.078
0
LINE
8
BLACK
6
CONTINUOUS
10
149.981
20
-88.078
11
149.231
21
-88.078
0
LINE
8
BLACK
6
CONTINUOUS
10
149.231
20
-88.078
11
149.145
21
-88.0609
0
LINE
8
BLACK
6
CONTINUOUS
10
149.145
20
-88.0609
11
149.072
21
-88.0121
0
LINE
8
BLACK
6
CONTINUOUS
10
149.072
20
-88.0121
11
149.023
21
-87.9391
0
LINE
8
BLACK
6
CONTINUOUS
10
149.023
20
-87.9391
11
149.006
21
-87.853
0
LINE
8
BLACK
6
CONTINUOUS
10
149.006
20
-87.853
11
149.006
21
-87.403
0
LINE
8
BLACK
6
CONTINUOUS
10
149.006
20
-87.403
11
149.023
21
-87.3169
0
LINE
8
BLACK
6
CONTINUOUS
10
149.023
20
-87.3169
11
149.072
21
-87.2439
0
LINE
8
BLACK
6
CONTINUOUS
10
149.072
20
-87.2439
11
149.145
21
-87.1951
0
LINE
8
BLACK
6
CONTINUOUS
10
149.145
20
-87.1951
11
149.231
21
-87.178
0
LINE
8
BLACK
6
CONTINUOUS
10
149.231
20
-87.178
11
149.981
21
-87.178
0
LINE
8
BLACK
6
CONTINUOUS
10
149.981
20
-87.178
11
150.067
21
-87.1951
0
LINE
8
BLACK
6
CONTINUOUS
10
147.527
20
-87.1951
11
147.6
21
-87.2439
0
LINE
8
BLACK
6
CONTINUOUS
10
147.6
20
-87.2439
11
147.649
21
-87.3169
0
LINE
8
BLACK
6
CONTINUOUS
10
147.649
20
-87.3169
11
147.666
21
-87.403
0
LINE
8
BLACK
6
CONTINUOUS
10
147.666
20
-87.403
11
147.666
21
-87.853
0
LINE
8
BLACK
6
CONTINUOUS
10
147.666
20
-87.853
11
147.649
21
-87.9391
0
LINE
8
BLACK
6
CONTINUOUS
10
147.649
20
-87.9391
11
147.6
21
-88.0121
0
LINE
8
BLACK
6
CONTINUOUS
10
147.6
20
-88.0121
11
147.527
21
-88.0609
0
LINE
8
BLACK
6
CONTINUOUS
10
147.527
20
-88.0609
11
147.441
21
-88.078
0
LINE
8
BLACK
6
CONTINUOUS
10
147.441
20
-88.078
11
146.691
21
-88.078
0
LINE
8
BLACK
6
CONTINUOUS
10
146.691
20
-88.078
11
146.605
21
-88.0609
0
LINE
8
BLACK
6
CONTINUOUS
10
146.605
20
-88.0609
11
146.532
21
-88.0121
0
LINE
8
BLACK
6
CONTINUOUS
10
146.532
20
-88.0121
11
146.483
21
-87.9391
0
LINE
8
BLACK
6
CONTINUOUS
10
146.483
20
-87.9391
11
146.466
21
-87.853
0
LINE
8
BLACK
6
CONTINUOUS
10
146.466
20
-87.853
11
146.466
21
-87.403
0
LINE
8
BLACK
6
CONTINUOUS
10
146.466
20
-87.403
11
146.483
21
-87.3169
0
LINE
8
BLACK
6
CONTINUOUS
10
146.483
20
-87.3169
11
146.532
21
-87.2439
0
LINE
8
BLACK
6
CONTINUOUS
10
146.532
20
-87.2439
11
146.605
21
-87.1951
0
LINE
8
BLACK
6
CONTINUOUS
10
146.605
20
-87.1951
11
146.691
21
-87.178
0
LINE
8
BLACK
6
CONTINUOUS
10
146.691
20
-87.178
11
147.441
21
-87.178
0
LINE
8
BLACK
6
CONTINUOUS
10
147.441
20
-87.178
11
147.527
21
-87.1951
0
LINE
8
BLACK
6
CONTINUOUS
10
144.987
20
-87.1951
11
145.06
21
-87.2439
0
LINE
8
BLACK
6
CONTINUOUS
10
145.06
20
-87.2439
11
145.109
21
-87.3169
0
LINE
8
BLACK
6
CONTINUOUS
10
145.109
20
-87.3169
11
145.126
21
-87.403
0
LINE
8
BLACK
6
CONTINUOUS
10
145.126
20
-87.403
11
145.126
21
-87.853
0
LINE
8
BLACK
6
CONTINUOUS
10
145.126
20
-87.853
11
145.109
21
-87.9391
0
LINE
8
BLACK
6
CONTINUOUS
10
145.109
20
-87.9391
11
145.06
21
-88.0121
0
LINE
8
BLACK
6
CONTINUOUS
10
145.06
20
-88.0121
11
144.987
21
-88.0609
0
LINE
8
BLACK
6
CONTINUOUS
10
144.987
20
-88.0609
11
144.901
21
-88.078
0
LINE
8
BLACK
6
CONTINUOUS
10
144.901
20
-88.078
11
144.151
21
-88.078
0
LINE
8
BLACK
6
CONTINUOUS
10
144.151
20
-88.078
11
144.065
21
-88.0609
0
LINE
8
BLACK
6
CONTINUOUS
10
144.065
20
-88.0609
11
143.992
21
-88.0121
0
LINE
8
BLACK
6
CONTINUOUS
10
143.992
20
-88.0121
11
143.943
21
-87.9391
0
LINE
8
BLACK
6
CONTINUOUS
10
143.943
20
-87.9391
11
143.926
21
-87.853
0
LINE
8
BLACK
6
CONTINUOUS
10
143.926
20
-87.853
11
143.926
21
-87.403
0
LINE
8
BLACK
6
CONTINUOUS
10
143.926
20
-87.403
11
143.943
21
-87.3169
0
LINE
8
BLACK
6
CONTINUOUS
10
143.943
20
-87.3169
11
143.992
21
-87.2439
0
LINE
8
BLACK
6
CONTINUOUS
10
143.992
20
-87.2439
11
144.065
21
-87.1951
0
LINE
8
BLACK
6
CONTINUOUS
10
144.065
20
-87.1951
11
144.151
21
-87.178
0
LINE
8
BLACK
6
CONTINUOUS
10
144.151
20
-87.178
11
144.901
21
-87.178
0
LINE
8
BLACK
6
CONTINUOUS
10
144.901
20
-87.178
11
144.987
21
-87.1951
0
LINE
8
BLACK
6
CONTINUOUS
10
167.847
20
-83.8951
11
167.92
21
-83.9439
0
LINE
8
BLACK
6
CONTINUOUS
10
167.92
20
-83.9439
11
167.969
21
-84.0169
0
LINE
8
BLACK
6
CONTINUOUS
10
167.969
20
-84.0169
11
167.986
21
-84.103
0
LINE
8
BLACK
6
CONTINUOUS
10
167.986
20
-84.103
11
167.986
21
-84.553
0
LINE
8
BLACK
6
CONTINUOUS
10
167.986
20
-84.553
11
167.969
21
-84.6391
0
LINE
8
BLACK
6
CONTINUOUS
10
167.969
20
-84.6391
11
167.92
21
-84.7121
0
LINE
8
BLACK
6
CONTINUOUS
10
167.92
20
-84.7121
11
167.847
21
-84.7609
0
LINE
8
BLACK
6
CONTINUOUS
10
167.847
20
-84.7609
11
167.761
21
-84.778
0
LINE
8
BLACK
6
CONTINUOUS
10
167.761
20
-84.778
11
167.011
21
-84.778
0
LINE
8
BLACK
6
CONTINUOUS
10
167.011
20
-84.778
11
166.925
21
-84.7609
0
LINE
8
BLACK
6
CONTINUOUS
10
166.925
20
-84.7609
11
166.852
21
-84.7121
0
LINE
8
BLACK
6
CONTINUOUS
10
166.852
20
-84.7121
11
166.803
21
-84.6391
0
LINE
8
BLACK
6
CONTINUOUS
10
166.803
20
-84.6391
11
166.786
21
-84.553
0
LINE
8
BLACK
6
CONTINUOUS
10
166.786
20
-84.553
11
166.786
21
-84.103
0
LINE
8
BLACK
6
CONTINUOUS
10
166.786
20
-84.103
11
166.803
21
-84.0169
0
LINE
8
BLACK
6
CONTINUOUS
10
166.803
20
-84.0169
11
166.852
21
-83.9439
0
LINE
8
BLACK
6
CONTINUOUS
10
166.852
20
-83.9439
11
166.925
21
-83.8951
0
LINE
8
BLACK
6
CONTINUOUS
10
166.925
20
-83.8951
11
167.011
21
-83.878
0
LINE
8
BLACK
6
CONTINUOUS
10
167.011
20
-83.878
11
167.761
21
-83.878
0
LINE
8
BLACK
6
CONTINUOUS
10
167.761
20
-83.878
11
167.847
21
-83.8951
0
LINE
8
BLACK
6
CONTINUOUS
10
165.307
20
-83.8951
11
165.38
21
-83.9439
0
LINE
8
BLACK
6
CONTINUOUS
10
165.38
20
-83.9439
11
165.429
21
-84.0169
0
LINE
8
BLACK
6
CONTINUOUS
10
165.429
20
-84.0169
11
165.446
21
-84.103
0
LINE
8
BLACK
6
CONTINUOUS
10
165.446
20
-84.103
11
165.446
21
-84.553
0
LINE
8
BLACK
6
CONTINUOUS
10
165.446
20
-84.553
11
165.429
21
-84.6391
0
LINE
8
BLACK
6
CONTINUOUS
10
165.429
20
-84.6391
11
165.38
21
-84.7121
0
LINE
8
BLACK
6
CONTINUOUS
10
165.38
20
-84.7121
11
165.307
21
-84.7609
0
LINE
8
BLACK
6
CONTINUOUS
10
165.307
20
-84.7609
11
165.221
21
-84.778
0
LINE
8
BLACK
6
CONTINUOUS
10
165.221
20
-84.778
11
164.471
21
-84.778
0
LINE
8
BLACK
6
CONTINUOUS
10
164.471
20
-84.778
11
164.385
21
-84.7609
0
LINE
8
BLACK
6
CONTINUOUS
10
164.385
20
-84.7609
11
164.312
21
-84.7121
0
LINE
8
BLACK
6
CONTINUOUS
10
164.312
20
-84.7121
11
164.263
21
-84.6391
0
LINE
8
BLACK
6
CONTINUOUS
10
164.263
20
-84.6391
11
164.246
21
-84.553
0
LINE
8
BLACK
6
CONTINUOUS
10
164.246
20
-84.553
11
164.246
21
-84.103
0
LINE
8
BLACK
6
CONTINUOUS
10
164.246
20
-84.103
11
164.263
21
-84.0169
0
LINE
8
BLACK
6
CONTINUOUS
10
164.263
20
-84.0169
11
164.312
21
-83.9439
0
LINE
8
BLACK
6
CONTINUOUS
10
164.312
20
-83.9439
11
164.385
21
-83.8951
0
LINE
8
BLACK
6
CONTINUOUS
10
164.385
20
-83.8951
11
164.471
21
-83.878
0
LINE
8
BLACK
6
CONTINUOUS
10
164.471
20
-83.878
11
165.221
21
-83.878
0
LINE
8
BLACK
6
CONTINUOUS
10
165.221
20
-83.878
11
165.307
21
-83.8951
0
LINE
8
BLACK
6
CONTINUOUS
10
162.767
20
-83.8951
11
162.84
21
-83.9439
0
LINE
8
BLACK
6
CONTINUOUS
10
162.84
20
-83.9439
11
162.889
21
-84.0169
0
LINE
8
BLACK
6
CONTINUOUS
10
162.889
20
-84.0169
11
162.906
21
-84.103
0
LINE
8
BLACK
6
CONTINUOUS
10
162.906
20
-84.103
11
162.906
21
-84.553
0
LINE
8
BLACK
6
CONTINUOUS
10
162.906
20
-84.553
11
162.889
21
-84.6391
0
LINE
8
BLACK
6
CONTINUOUS
10
162.889
20
-84.6391
11
162.84
21
-84.7121
0
LINE
8
BLACK
6
CONTINUOUS
10
162.84
20
-84.7121
11
162.767
21
-84.7609
0
LINE
8
BLACK
6
CONTINUOUS
10
162.767
20
-84.7609
11
162.681
21
-84.778
0
LINE
8
BLACK
6
CONTINUOUS
10
162.681
20
-84.778
11
161.931
21
-84.778
0
LINE
8
BLACK
6
CONTINUOUS
10
161.931
20
-84.778
11
161.845
21
-84.7609
0
LINE
8
BLACK
6
CONTINUOUS
10
161.845
20
-84.7609
11
161.772
21
-84.7121
0
LINE
8
BLACK
6
CONTINUOUS
10
161.772
20
-84.7121
11
161.723
21
-84.6391
0
LINE
8
BLACK
6
CONTINUOUS
10
161.723
20
-84.6391
11
161.706
21
-84.553
0
LINE
8
BLACK
6
CONTINUOUS
10
161.706
20
-84.553
11
161.706
21
-84.103
0
LINE
8
BLACK
6
CONTINUOUS
10
161.706
20
-84.103
11
161.723
21
-84.0169
0
LINE
8
BLACK
6
CONTINUOUS
10
161.723
20
-84.0169
11
161.772
21
-83.9439
0
LINE
8
BLACK
6
CONTINUOUS
10
161.772
20
-83.9439
11
161.845
21
-83.8951
0
LINE
8
BLACK
6
CONTINUOUS
10
161.845
20
-83.8951
11
161.931
21
-83.878
0
LINE
8
BLACK
6
CONTINUOUS
10
161.931
20
-83.878
11
162.681
21
-83.878
0
LINE
8
BLACK
6
CONTINUOUS
10
162.681
20
-83.878
11
162.767
21
-83.8951
0
LINE
8
BLACK
6
CONTINUOUS
10
160.227
20
-83.8951
11
160.3
21
-83.9439
0
LINE
8
BLACK
6
CONTINUOUS
10
160.3
20
-83.9439
11
160.349
21
-84.0169
0
LINE
8
BLACK
6
CONTINUOUS
10
160.349
20
-84.0169
11
160.366
21
-84.103
0
LINE
8
BLACK
6
CONTINUOUS
10
160.366
20
-84.103
11
160.366
21
-84.553
0
LINE
8
BLACK
6
CONTINUOUS
10
160.366
20
-84.553
11
160.349
21
-84.6391
0
LINE
8
BLACK
6
CONTINUOUS
10
160.349
20
-84.6391
11
160.3
21
-84.7121
0
LINE
8
BLACK
6
CONTINUOUS
10
160.3
20
-84.7121
11
160.227
21
-84.7609
0
LINE
8
BLACK
6
CONTINUOUS
10
160.227
20
-84.7609
11
160.141
21
-84.778
0
LINE
8
BLACK
6
CONTINUOUS
10
160.141
20
-84.778
11
159.391
21
-84.778
0
LINE
8
BLACK
6
CONTINUOUS
10
159.391
20
-84.778
11
159.305
21
-84.7609
0
LINE
8
BLACK
6
CONTINUOUS
10
159.305
20
-84.7609
11
159.232
21
-84.7121
0
LINE
8
BLACK
6
CONTINUOUS
10
159.232
20
-84.7121
11
159.183
21
-84.6391
0
LINE
8
BLACK
6
CONTINUOUS
10
159.183
20
-84.6391
11
159.166
21
-84.553
0
LINE
8
BLACK
6
CONTINUOUS
10
159.166
20
-84.553
11
159.166
21
-84.103
0
LINE
8
BLACK
6
CONTINUOUS
10
159.166
20
-84.103
11
159.183
21
-84.0169
0
LINE
8
BLACK
6
CONTINUOUS
10
159.183
20
-84.0169
11
159.232
21
-83.9439
0
LINE
8
BLACK
6
CONTINUOUS
10
159.232
20
-83.9439
11
159.305
21
-83.8951
0
LINE
8
BLACK
6
CONTINUOUS
10
159.305
20
-83.8951
11
159.391
21
-83.878
0
LINE
8
BLACK
6
CONTINUOUS
10
159.391
20
-83.878
11
160.141
21
-83.878
0
LINE
8
BLACK
6
CONTINUOUS
10
160.141
20
-83.878
11
160.227
21
-83.8951
0
LINE
8
BLACK
6
CONTINUOUS
10
157.687
20
-83.8951
11
157.76
21
-83.9439
0
LINE
8
BLACK
6
CONTINUOUS
10
157.76
20
-83.9439
11
157.809
21
-84.0169
0
LINE
8
BLACK
6
CONTINUOUS
10
157.809
20
-84.0169
11
157.826
21
-84.103
0
LINE
8
BLACK
6
CONTINUOUS
10
157.826
20
-84.103
11
157.826
21
-84.553
0
LINE
8
BLACK
6
CONTINUOUS
10
157.826
20
-84.553
11
157.809
21
-84.6391
0
LINE
8
BLACK
6
CONTINUOUS
10
157.809
20
-84.6391
11
157.76
21
-84.7121
0
LINE
8
BLACK
6
CONTINUOUS
10
157.76
20
-84.7121
11
157.687
21
-84.7609
0
LINE
8
BLACK
6
CONTINUOUS
10
157.687
20
-84.7609
11
157.601
21
-84.778
0
LINE
8
BLACK
6
CONTINUOUS
10
157.601
20
-84.778
11
156.851
21
-84.778
0
LINE
8
BLACK
6
CONTINUOUS
10
156.851
20
-84.778
11
156.765
21
-84.7609
0
LINE
8
BLACK
6
CONTINUOUS
10
156.765
20
-84.7609
11
156.692
21
-84.7121
0
LINE
8
BLACK
6
CONTINUOUS
10
156.692
20
-84.7121
11
156.643
21
-84.6391
0
LINE
8
BLACK
6
CONTINUOUS
10
156.643
20
-84.6391
11
156.626
21
-84.553
0
LINE
8
BLACK
6
CONTINUOUS
10
156.626
20
-84.553
11
156.626
21
-84.103
0
LINE
8
BLACK
6
CONTINUOUS
10
156.626
20
-84.103
11
156.643
21
-84.0169
0
LINE
8
BLACK
6
CONTINUOUS
10
156.643
20
-84.0169
11
156.692
21
-83.9439
0
LINE
8
BLACK
6
CONTINUOUS
10
156.692
20
-83.9439
11
156.765
21
-83.8951
0
LINE
8
BLACK
6
CONTINUOUS
10
156.765
20
-83.8951
11
156.851
21
-83.878
0
LINE
8
BLACK
6
CONTINUOUS
10
156.851
20
-83.878
11
157.601
21
-83.878
0
LINE
8
BLACK
6
CONTINUOUS
10
157.601
20
-83.878
11
157.687
21
-83.8951
0
LINE
8
BLACK
6
CONTINUOUS
10
155.147
20
-83.8951
11
155.22
21
-83.9439
0
LINE
8
BLACK
6
CONTINUOUS
10
155.22
20
-83.9439
11
155.269
21
-84.0169
0
LINE
8
BLACK
6
CONTINUOUS
10
155.269
20
-84.0169
11
155.286
21
-84.103
0
LINE
8
BLACK
6
CONTINUOUS
10
155.286
20
-84.103
11
155.286
21
-84.553
0
LINE
8
BLACK
6
CONTINUOUS
10
155.286
20
-84.553
11
155.269
21
-84.6391
0
LINE
8
BLACK
6
CONTINUOUS
10
155.269
20
-84.6391
11
155.22
21
-84.7121
0
LINE
8
BLACK
6
CONTINUOUS
10
155.22
20
-84.7121
11
155.147
21
-84.7609
0
LINE
8
BLACK
6
CONTINUOUS
10
155.147
20
-84.7609
11
155.061
21
-84.778
0
LINE
8
BLACK
6
CONTINUOUS
10
155.061
20
-84.778
11
154.311
21
-84.778
0
LINE
8
BLACK
6
CONTINUOUS
10
154.311
20
-84.778
11
154.225
21
-84.7609
0
LINE
8
BLACK
6
CONTINUOUS
10
154.225
20
-84.7609
11
154.152
21
-84.7121
0
LINE
8
BLACK
6
CONTINUOUS
10
154.152
20
-84.7121
11
154.103
21
-84.6391
0
LINE
8
BLACK
6
CONTINUOUS
10
154.103
20
-84.6391
11
154.086
21
-84.553
0
LINE
8
BLACK
6
CONTINUOUS
10
154.086
20
-84.553
11
154.086
21
-84.103
0
LINE
8
BLACK
6
CONTINUOUS
10
154.086
20
-84.103
11
154.103
21
-84.0169
0
LINE
8
BLACK
6
CONTINUOUS
10
154.103
20
-84.0169
11
154.152
21
-83.9439
0
LINE
8
BLACK
6
CONTINUOUS
10
154.152
20
-83.9439
11
154.225
21
-83.8951
0
LINE
8
BLACK
6
CONTINUOUS
10
154.225
20
-83.8951
11
154.311
21
-83.878
0
LINE
8
BLACK
6
CONTINUOUS
10
154.311
20
-83.878
11
155.061
21
-83.878
0
LINE
8
BLACK
6
CONTINUOUS
10
155.061
20
-83.878
11
155.147
21
-83.8951
0
LINE
8
BLACK
6
CONTINUOUS
10
152.607
20
-83.8951
11
152.68
21
-83.9439
0
LINE
8
BLACK
6
CONTINUOUS
10
152.68
20
-83.9439
11
152.729
21
-84.0169
0
LINE
8
BLACK
6
CONTINUOUS
10
152.729
20
-84.0169
11
152.746
21
-84.103
0
LINE
8
BLACK
6
CONTINUOUS
10
152.746
20
-84.103
11
152.746
21
-84.553
0
LINE
8
BLACK
6
CONTINUOUS
10
152.746
20
-84.553
11
152.729
21
-84.6391
0
LINE
8
BLACK
6
CONTINUOUS
10
152.729
20
-84.6391
11
152.68
21
-84.7121
0
LINE
8
BLACK
6
CONTINUOUS
10
152.68
20
-84.7121
11
152.607
21
-84.7609
0
LINE
8
BLACK
6
CONTINUOUS
10
152.607
20
-84.7609
11
152.521
21
-84.778
0
LINE
8
BLACK
6
CONTINUOUS
10
152.521
20
-84.778
11
151.771
21
-84.778
0
LINE
8
BLACK
6
CONTINUOUS
10
151.771
20
-84.778
11
151.685
21
-84.7609
0
LINE
8
BLACK
6
CONTINUOUS
10
151.685
20
-84.7609
11
151.612
21
-84.7121
0
LINE
8
BLACK
6
CONTINUOUS
10
151.612
20
-84.7121
11
151.563
21
-84.6391
0
LINE
8
BLACK
6
CONTINUOUS
10
151.563
20
-84.6391
11
151.546
21
-84.553
0
LINE
8
BLACK
6
CONTINUOUS
10
151.546
20
-84.553
11
151.546
21
-84.103
0
LINE
8
BLACK
6
CONTINUOUS
10
151.546
20
-84.103
11
151.563
21
-84.0169
0
LINE
8
BLACK
6
CONTINUOUS
10
151.563
20
-84.0169
11
151.612
21
-83.9439
0
LINE
8
BLACK
6
CONTINUOUS
10
151.612
20
-83.9439
11
151.685
21
-83.8951
0
LINE
8
BLACK
6
CONTINUOUS
10
151.685
20
-83.8951
11
151.771
21
-83.878
0
LINE
8
BLACK
6
CONTINUOUS
10
151.771
20
-83.878
11
152.521
21
-83.878
0
LINE
8
BLACK
6
CONTINUOUS
10
152.521
20
-83.878
11
152.607
21
-83.8951
0
LINE
8
BLACK
6
CONTINUOUS
10
150.067
20
-83.8951
11
150.14
21
-83.9439
0
LINE
8
BLACK
6
CONTINUOUS
10
150.14
20
-83.9439
11
150.189
21
-84.0169
0
LINE
8
BLACK
6
CONTINUOUS
10
150.189
20
-84.0169
11
150.206
21
-84.103
0
LINE
8
BLACK
6
CONTINUOUS
10
150.206
20
-84.103
11
150.206
21
-84.553
0
LINE
8
BLACK
6
CONTINUOUS
10
150.206
20
-84.553
11
150.189
21
-84.6391
0
LINE
8
BLACK
6
CONTINUOUS
10
150.189
20
-84.6391
11
150.14
21
-84.7121
0
LINE
8
BLACK
6
CONTINUOUS
10
150.14
20
-84.7121
11
150.067
21
-84.7609
0
LINE
8
BLACK
6
CONTINUOUS
10
150.067
20
-84.7609
11
149.981
21
-84.778
0
LINE
8
BLACK
6
CONTINUOUS
10
149.981
20
-84.778
11
149.231
21
-84.778
0
LINE
8
BLACK
6
CONTINUOUS
10
149.231
20
-84.778
11
149.145
21
-84.7609
0
LINE
8
BLACK
6
CONTINUOUS
10
149.145
20
-84.7609
11
149.072
21
-84.7121
0
LINE
8
BLACK
6
CONTINUOUS
10
149.072
20
-84.7121
11
149.023
21
-84.6391
0
LINE
8
BLACK
6
CONTINUOUS
10
149.023
20
-84.6391
11
149.006
21
-84.553
0
LINE
8
BLACK
6
CONTINUOUS
10
149.006
20
-84.553
11
149.006
21
-84.103
0
LINE
8
BLACK
6
CONTINUOUS
10
149.006
20
-84.103
11
149.023
21
-84.0169
0
LINE
8
BLACK
6
CONTINUOUS
10
149.023
20
-84.0169
11
149.072
21
-83.9439
0
LINE
8
BLACK
6
CONTINUOUS
10
149.072
20
-83.9439
11
149.145
21
-83.8951
0
LINE
8
BLACK
6
CONTINUOUS
10
149.145
20
-83.8951
11
149.231
21
-83.878
0
LINE
8
BLACK
6
CONTINUOUS
10
149.231
20
-83.878
11
149.981
21
-83.878
0
LINE
8
BLACK
6
CONTINUOUS
10
149.981
20
-83.878
11
150.067
21
-83.8951
0
LINE
8
BLACK
6
CONTINUOUS
10
147.527
20
-83.8951
11
147.6
21
-83.9439
0
LINE
8
BLACK
6
CONTINUOUS
10
147.6
20
-83.9439
11
147.649
21
-84.0169
0
LINE
8
BLACK
6
CONTINUOUS
10
147.649
20
-84.0169
11
147.666
21
-84.103
0
LINE
8
BLACK
6
CONTINUOUS
10
147.666
20
-84.103
11
147.666
21
-84.553
0
LINE
8
BLACK
6
CONTINUOUS
10
147.666
20
-84.553
11
147.649
21
-84.6391
0
LINE
8
BLACK
6
CONTINUOUS
10
147.649
20
-84.6391
11
147.6
21
-84.7121
0
LINE
8
BLACK
6
CONTINUOUS
10
147.6
20
-84.7121
11
147.527
21
-84.7609
0
LINE
8
BLACK
6
CONTINUOUS
10
147.527
20
-84.7609
11
147.441
21
-84.778
0
LINE
8
BLACK
6
CONTINUOUS
10
147.441
20
-84.778
11
146.691
21
-84.778
0
LINE
8
BLACK
6
CONTINUOUS
10
146.691
20
-84.778
11
146.605
21
-84.7609
0
LINE
8
BLACK
6
CONTINUOUS
10
146.605
20
-84.7609
11
146.532
21
-84.7121
0
LINE
8
BLACK
6
CONTINUOUS
10
146.532
20
-84.7121
11
146.483
21
-84.6391
0
LINE
8
BLACK
6
CONTINUOUS
10
146.483
20
-84.6391
11
146.466
21
-84.553
0
LINE
8
BLACK
6
CONTINUOUS
10
146.466
20
-84.553
11
146.466
21
-84.103
0
LINE
8
BLACK
6
CONTINUOUS
10
146.466
20
-84.103
11
146.483
21
-84.0169
0
LINE
8
BLACK
6
CONTINUOUS
10
146.483
20
-84.0169
11
146.532
21
-83.9439
0
LINE
8
BLACK
6
CONTINUOUS
10
146.532
20
-83.9439
11
146.605
21
-83.8951
0
LINE
8
BLACK
6
CONTINUOUS
10
146.605
20
-83.8951
11
146.691
21
-83.878
0
LINE
8
BLACK
6
CONTINUOUS
10
146.691
20
-83.878
11
147.441
21
-83.878
0
LINE
8
BLACK
6
CONTINUOUS
10
147.441
20
-83.878
11
147.527
21
-83.8951
0
LINE
8
BLACK
6
CONTINUOUS
10
144.987
20
-83.8951
11
145.06
21
-83.9439
0
LINE
8
BLACK
6
CONTINUOUS
10
145.06
20
-83.9439
11
145.109
21
-84.0169
0
LINE
8
BLACK
6
CONTINUOUS
10
145.109
20
-84.0169
11
145.126
21
-84.103
0
LINE
8
BLACK
6
CONTINUOUS
10
145.126
20
-84.103
11
145.126
21
-84.553
0
LINE
8
BLACK
6
CONTINUOUS
10
145.126
20
-84.553
11
145.109
21
-84.6391
0
LINE
8
BLACK
6
CONTINUOUS
10
145.109
20
-84.6391
11
145.06
21
-84.7121
0
LINE
8
BLACK
6
CONTINUOUS
10
145.06
20
-84.7121
11
144.987
21
-84.7609
0
LINE
8
BLACK
6
CONTINUOUS
10
144.987
20
-84.7609
11
144.901
21
-84.778
0
LINE
8
BLACK
6
CONTINUOUS
10
144.901
20
-84.778
11
144.151
21
-84.778
0
LINE
8
BLACK
6
CONTINUOUS
10
144.151
20
-84.778
11
144.065
21
-84.7609
0
LINE
8
BLACK
6
CONTINUOUS
10
144.065
20
-84.7609
11
143.992
21
-84.7121
0
LINE
8
BLACK
6
CONTINUOUS
10
143.992
20
-84.7121
11
143.943
21
-84.6391
0
LINE
8
BLACK
6
CONTINUOUS
10
143.943
20
-84.6391
11
143.926
21
-84.553
0
LINE
8
BLACK
6
CONTINUOUS
10
143.926
20
-84.553
11
143.926
21
-84.103
0
LINE
8
BLACK
6
CONTINUOUS
10
143.926
20
-84.103
11
143.943
21
-84.0169
0
LINE
8
BLACK
6
CONTINUOUS
10
143.943
20
-84.0169
11
143.992
21
-83.9439
0
LINE
8
BLACK
6
CONTINUOUS
10
143.992
20
-83.9439
11
144.065
21
-83.8951
0
LINE
8
BLACK
6
CONTINUOUS
10
144.065
20
-83.8951
11
144.151
21
-83.878
0
LINE
8
BLACK
6
CONTINUOUS
10
144.151
20
-83.878
11
144.901
21
-83.878
0
LINE
8
BLACK
6
CONTINUOUS
10
144.901
20
-83.878
11
144.987
21
-83.8951
0
LINE
8
BLACK
6
CONTINUOUS
10
167.847
20
-75.0031
11
167.92
21
-75.0519
0
LINE
8
BLACK
6
CONTINUOUS
10
167.92
20
-75.0519
11
167.969
21
-75.1249
0
LINE
8
BLACK
6
CONTINUOUS
10
167.969
20
-75.1249
11
167.986
21
-75.211
0
LINE
8
BLACK
6
CONTINUOUS
10
167.986
20
-75.211
11
167.986
21
-75.661
0
LINE
8
BLACK
6
CONTINUOUS
10
167.986
20
-75.661
11
167.969
21
-75.7471
0
LINE
8
BLACK
6
CONTINUOUS
10
167.969
20
-75.7471
11
167.92
21
-75.8201
0
LINE
8
BLACK
6
CONTINUOUS
10
167.92
20
-75.8201
11
167.847
21
-75.8689
0
LINE
8
BLACK
6
CONTINUOUS
10
167.847
20
-75.8689
11
167.761
21
-75.886
0
LINE
8
BLACK
6
CONTINUOUS
10
167.761
20
-75.886
11
167.011
21
-75.886
0
LINE
8
BLACK
6
CONTINUOUS
10
167.011
20
-75.886
11
166.925
21
-75.8689
0
LINE
8
BLACK
6
CONTINUOUS
10
166.925
20
-75.8689
11
166.852
21
-75.8201
0
LINE
8
BLACK
6
CONTINUOUS
10
166.852
20
-75.8201
11
166.803
21
-75.7471
0
LINE
8
BLACK
6
CONTINUOUS
10
166.803
20
-75.7471
11
166.786
21
-75.661
0
LINE
8
BLACK
6
CONTINUOUS
10
166.786
20
-75.661
11
166.786
21
-75.211
0
LINE
8
BLACK
6
CONTINUOUS
10
166.786
20
-75.211
11
166.803
21
-75.1249
0
LINE
8
BLACK
6
CONTINUOUS
10
166.803
20
-75.1249
11
166.852
21
-75.0519
0
LINE
8
BLACK
6
CONTINUOUS
10
166.852
20
-75.0519
11
166.925
21
-75.0031
0
LINE
8
BLACK
6
CONTINUOUS
10
166.925
20
-75.0031
11
167.011
21
-74.986
0
LINE
8
BLACK
6
CONTINUOUS
10
167.011
20
-74.986
11
167.761
21
-74.986
0
LINE
8
BLACK
6
CONTINUOUS
10
167.761
20
-74.986
11
167.847
21
-75.0031
0
LINE
8
BLACK
6
CONTINUOUS
10
165.307
20
-75.0031
11
165.38
21
-75.0519
0
LINE
8
BLACK
6
CONTINUOUS
10
165.38
20
-75.0519
11
165.429
21
-75.1249
0
LINE
8
BLACK
6
CONTINUOUS
10
165.429
20
-75.1249
11
165.446
21
-75.211
0
LINE
8
BLACK
6
CONTINUOUS
10
165.446
20
-75.211
11
165.446
21
-75.661
0
LINE
8
BLACK
6
CONTINUOUS
10
165.446
20
-75.661
11
165.429
21
-75.7471
0
LINE
8
BLACK
6
CONTINUOUS
10
165.429
20
-75.7471
11
165.38
21
-75.8201
0
LINE
8
BLACK
6
CONTINUOUS
10
165.38
20
-75.8201
11
165.307
21
-75.8689
0
LINE
8
BLACK
6
CONTINUOUS
10
165.307
20
-75.8689
11
165.221
21
-75.886
0
LINE
8
BLACK
6
CONTINUOUS
10
165.221
20
-75.886
11
164.471
21
-75.886
0
LINE
8
BLACK
6
CONTINUOUS
10
164.471
20
-75.886
11
164.385
21
-75.8689
0
LINE
8
BLACK
6
CONTINUOUS
10
164.385
20
-75.8689
11
164.312
21
-75.8201
0
LINE
8
BLACK
6
CONTINUOUS
10
164.312
20
-75.8201
11
164.263
21
-75.7471
0
LINE
8
BLACK
6
CONTINUOUS
10
164.263
20
-75.7471
11
164.246
21
-75.661
0
LINE
8
BLACK
6
CONTINUOUS
10
164.246
20
-75.661
11
164.246
21
-75.211
0
LINE
8
BLACK
6
CONTINUOUS
10
164.246
20
-75.211
11
164.263
21
-75.1249
0
LINE
8
BLACK
6
CONTINUOUS
10
164.263
20
-75.1249
11
164.312
21
-75.0519
0
LINE
8
BLACK
6
CONTINUOUS
10
164.312
20
-75.0519
11
164.385
21
-75.0031
0
LINE
8
BLACK
6
CONTINUOUS
10
164.385
20
-75.0031
11
164.471
21
-74.986
0
LINE
8
BLACK
6
CONTINUOUS
10
164.471
20
-74.986
11
165.221
21
-74.986
0
LINE
8
BLACK
6
CONTINUOUS
10
165.221
20
-74.986
11
165.307
21
-75.0031
0
LINE
8
BLACK
6
CONTINUOUS
10
162.767
20
-75.0031
11
162.84
21
-75.0519
0
LINE
8
BLACK
6
CONTINUOUS
10
162.84
20
-75.0519
11
162.889
21
-75.1249
0
LINE
8
BLACK
6
CONTINUOUS
10
162.889
20
-75.1249
11
162.906
21
-75.211
0
LINE
8
BLACK
6
CONTINUOUS
10
162.906
20
-75.211
11
162.906
21
-75.661
0
LINE
8
BLACK
6
CONTINUOUS
10
162.906
20
-75.661
11
162.889
21
-75.7471
0
LINE
8
BLACK
6
CONTINUOUS
10
162.889
20
-75.7471
11
162.84
21
-75.8201
0
LINE
8
BLACK
6
CONTINUOUS
10
162.84
20
-75.8201
11
162.767
21
-75.8689
0
LINE
8
BLACK
6
CONTINUOUS
10
162.767
20
-75.8689
11
162.681
21
-75.886
0
LINE
8
BLACK
6
CONTINUOUS
10
162.681
20
-75.886
11
161.931
21
-75.886
0
LINE
8
BLACK
6
CONTINUOUS
10
161.931
20
-75.886
11
161.845
21
-75.8689
0
LINE
8
BLACK
6
CONTINUOUS
10
161.845
20
-75.8689
11
161.772
21
-75.8201
0
LINE
8
BLACK
6
CONTINUOUS
10
161.772
20
-75.8201
11
161.723
21
-75.7471
0
LINE
8
BLACK
6
CONTINUOUS
10
161.723
20
-75.7471
11
161.706
21
-75.661
0
LINE
8
BLACK
6
CONTINUOUS
10
161.706
20
-75.661
11
161.706
21
-75.211
0
LINE
8
BLACK
6
CONTINUOUS
10
161.706
20
-75.211
11
161.723
21
-75.1249
0
LINE
8
BLACK
6
CONTINUOUS
10
161.723
20
-75.1249
11
161.772
21
-75.0519
0
LINE
8
BLACK
6
CONTINUOUS
10
161.772
20
-75.0519
11
161.845
21
-75.0031
0
LINE
8
BLACK
6
CONTINUOUS
10
161.845
20
-75.0031
11
161.931
21
-74.986
0
LINE
8
BLACK
6
CONTINUOUS
10
161.931
20
-74.986
11
162.681
21
-74.986
0
LINE
8
BLACK
6
CONTINUOUS
10
162.681
20
-74.986
11
162.767
21
-75.0031
0
LINE
8
BLACK
6
CONTINUOUS
10
160.227
20
-75.0031
11
160.3
21
-75.0519
0
LINE
8
BLACK
6
CONTINUOUS
10
160.3
20
-75.0519
11
160.349
21
-75.1249
0
LINE
8
BLACK
6
CONTINUOUS
10
160.349
20
-75.1249
11
160.366
21
-75.211
0
LINE
8
BLACK
6
CONTINUOUS
10
160.366
20
-75.211
11
160.366
21
-75.661
0
LINE
8
BLACK
6
CONTINUOUS
10
160.366
20
-75.661
11
160.349
21
-75.7471
0
LINE
8
BLACK
6
CONTINUOUS
10
160.349
20
-75.7471
11
160.3
21
-75.8201
0
LINE
8
BLACK
6
CONTINUOUS
10
160.3
20
-75.8201
11
160.227
21
-75.8689
0
LINE
8
BLACK
6
CONTINUOUS
10
160.227
20
-75.8689
11
160.141
21
-75.886
0
LINE
8
BLACK
6
CONTINUOUS
10
160.141
20
-75.886
11
159.391
21
-75.886
0
LINE
8
BLACK
6
CONTINUOUS
10
159.391
20
-75.886
11
159.305
21
-75.8689
0
LINE
8
BLACK
6
CONTINUOUS
10
159.305
20
-75.8689
11
159.232
21
-75.8201
0
LINE
8
BLACK
6
CONTINUOUS
10
159.232
20
-75.8201
11
159.183
21
-75.7471
0
LINE
8
BLACK
6
CONTINUOUS
10
159.183
20
-75.7471
11
159.166
21
-75.661
0
LINE
8
BLACK
6
CONTINUOUS
10
159.166
20
-75.661
11
159.166
21
-75.211
0
LINE
8
BLACK
6
CONTINUOUS
10
159.166
20
-75.211
11
159.183
21
-75.1249
0
LINE
8
BLACK
6
CONTINUOUS
10
159.183
20
-75.1249
11
159.232
21
-75.0519
0
LINE
8
BLACK
6
CONTINUOUS
10
159.232
20
-75.0519
11
159.305
21
-75.0031
0
LINE
8
BLACK
6
CONTINUOUS
10
159.305
20
-75.0031
11
159.391
21
-74.986
0
LINE
8
BLACK
6
CONTINUOUS
10
159.391
20
-74.986
11
160.141
21
-74.986
0
LINE
8
BLACK
6
CONTINUOUS
10
160.141
20
-74.986
11
160.227
21
-75.0031
0
LINE
8
BLACK
6
CONTINUOUS
10
157.687
20
-75.0031
11
157.76
21
-75.0519
0
LINE
8
BLACK
6
CONTINUOUS
10
157.76
20
-75.0519
11
157.809
21
-75.1249
0
LINE
8
BLACK
6
CONTINUOUS
10
157.809
20
-75.1249
11
157.826
21
-75.211
0
LINE
8
BLACK
6
CONTINUOUS
10
157.826
20
-75.211
11
157.826
21
-75.661
0
LINE
8
BLACK
6
CONTINUOUS
10
157.826
20
-75.661
11
157.809
21
-75.7471
0
LINE
8
BLACK
6
CONTINUOUS
10
157.809
20
-75.7471
11
157.76
21
-75.8201
0
LINE
8
BLACK
6
CONTINUOUS
10
157.76
20
-75.8201
11
157.687
21
-75.8689
0
LINE
8
BLACK
6
CONTINUOUS
10
157.687
20
-75.8689
11
157.601
21
-75.886
0
LINE
8
BLACK
6
CONTINUOUS
10
157.601
20
-75.886
11
156.851
21
-75.886
0
LINE
8
BLACK
6
CONTINUOUS
10
156.851
20
-75.886
11
156.765
21
-75.8689
0
LINE
8
BLACK
6
CONTINUOUS
10
156.765
20
-75.8689
11
156.692
21
-75.8201
0
LINE
8
BLACK
6
CONTINUOUS
10
156.692
20
-75.8201
11
156.643
21
-75.7471
0
LINE
8
BLACK
6
CONTINUOUS
10
156.643
20
-75.7471
11
156.626
21
-75.661
0
LINE
8
BLACK
6
CONTINUOUS
10
156.626
20
-75.661
11
156.626
21
-75.211
0
LINE
8
BLACK
6
CONTINUOUS
10
156.626
20
-75.211
11
156.643
21
-75.1249
0
LINE
8
BLACK
6
CONTINUOUS
10
156.643
20
-75.1249
11
156.692
21
-75.0519
0
LINE
8
BLACK
6
CONTINUOUS
10
156.692
20
-75.0519
11
156.765
21
-75.0031
0
LINE
8
BLACK
6
CONTINUOUS
10
156.765
20
-75.0031
11
156.851
21
-74.986
0
LINE
8
BLACK
6
CONTINUOUS
10
156.851
20
-74.986
11
157.601
21
-74.986
0
LINE
8
BLACK
6
CONTINUOUS
10
157.601
20
-74.986
11
157.687
21
-75.0031
0
LINE
8
BLACK
6
CONTINUOUS
10
155.147
20
-75.0031
11
155.22
21
-75.0519
0
LINE
8
BLACK
6
CONTINUOUS
10
155.22
20
-75.0519
11
155.269
21
-75.1249
0
LINE
8
BLACK
6
CONTINUOUS
10
155.269
20
-75.1249
11
155.286
21
-75.211
0
LINE
8
BLACK
6
CONTINUOUS
10
155.286
20
-75.211
11
155.286
21
-75.661
0
LINE
8
BLACK
6
CONTINUOUS
10
155.286
20
-75.661
11
155.269
21
-75.7471
0
LINE
8
BLACK
6
CONTINUOUS
10
155.269
20
-75.7471
11
155.22
21
-75.8201
0
LINE
8
BLACK
6
CONTINUOUS
10
155.22
20
-75.8201
11
155.147
21
-75.8689
0
LINE
8
BLACK
6
CONTINUOUS
10
155.147
20
-75.8689
11
155.061
21
-75.886
0
LINE
8
BLACK
6
CONTINUOUS
10
155.061
20
-75.886
11
154.311
21
-75.886
0
LINE
8
BLACK
6
CONTINUOUS
10
154.311
20
-75.886
11
154.225
21
-75.8689
0
LINE
8
BLACK
6
CONTINUOUS
10
154.225
20
-75.8689
11
154.152
21
-75.8201
0
LINE
8
BLACK
6
CONTINUOUS
10
154.152
20
-75.8201
11
154.103
21
-75.7471
0
LINE
8
BLACK
6
CONTINUOUS
10
154.103
20
-75.7471
11
154.086
21
-75.661
0
LINE
8
BLACK
6
CONTINUOUS
10
154.086
20
-75.661
11
154.086
21
-75.211
0
LINE
8
BLACK
6
CONTINUOUS
10
154.086
20
-75.211
11
154.103
21
-75.1249
0
LINE
8
BLACK
6
CONTINUOUS
10
154.103
20
-75.1249
11
154.152
21
-75.0519
0
LINE
8
BLACK
6
CONTINUOUS
10
154.152
20
-75.0519
11
154.225
21
-75.0031
0
LINE
8
BLACK
6
CONTINUOUS
10
154.225
20
-75.0031
11
154.311
21
-74.986
0
LINE
8
BLACK
6
CONTINUOUS
10
154.311
20
-74.986
11
155.061
21
-74.986
0
LINE
8
BLACK
6
CONTINUOUS
10
155.061
20
-74.986
11
155.147
21
-75.0031
0
LINE
8
BLACK
6
CONTINUOUS
10
152.607
20
-75.0031
11
152.68
21
-75.0519
0
LINE
8
BLACK
6
CONTINUOUS
10
152.68
20
-75.0519
11
152.729
21
-75.1249
0
LINE
8
BLACK
6
CONTINUOUS
10
152.729
20
-75.1249
11
152.746
21
-75.211
0
LINE
8
BLACK
6
CONTINUOUS
10
152.746
20
-75.211
11
152.746
21
-75.661
0
LINE
8
BLACK
6
CONTINUOUS
10
152.746
20
-75.661
11
152.729
21
-75.7471
0
LINE
8
BLACK
6
CONTINUOUS
10
152.729
20
-75.7471
11
152.68
21
-75.8201
0
LINE
8
BLACK
6
CONTINUOUS
10
152.68
20
-75.8201
11
152.607
21
-75.8689
0
LINE
8
BLACK
6
CONTINUOUS
10
152.607
20
-75.8689
11
152.521
21
-75.886
0
LINE
8
BLACK
6
CONTINUOUS
10
152.521
20
-75.886
11
151.771
21
-75.886
0
LINE
8
BLACK
6
CONTINUOUS
10
151.771
20
-75.886
11
151.685
21
-75.8689
0
LINE
8
BLACK
6
CONTINUOUS
10
151.685
20
-75.8689
11
151.612
21
-75.8201
0
LINE
8
BLACK
6
CONTINUOUS
10
151.612
20
-75.8201
11
151.563
21
-75.7471
0
LINE
8
BLACK
6
CONTINUOUS
10
151.563
20
-75.7471
11
151.546
21
-75.661
0
LINE
8
BLACK
6
CONTINUOUS
10
151.546
20
-75.661
11
151.546
21
-75.211
0
LINE
8
BLACK
6
CONTINUOUS
10
151.546
20
-75.211
11
151.563
21
-75.1249
0
LINE
8
BLACK
6
CONTINUOUS
10
151.563
20
-75.1249
11
151.612
21
-75.0519
0
LINE
8
BLACK
6
CONTINUOUS
10
151.612
20
-75.0519
11
151.685
21
-75.0031
0
LINE
8
BLACK
6
CONTINUOUS
10
151.685
20
-75.0031
11
151.771
21
-74.986
0
LINE
8
BLACK
6
CONTINUOUS
10
151.771
20
-74.986
11
152.521
21
-74.986
0
LINE
8
BLACK
6
CONTINUOUS
10
152.521
20
-74.986
11
152.607
21
-75.0031
0
LINE
8
BLACK
6
CONTINUOUS
10
150.067
20
-75.0031
11
150.14
21
-75.0519
0
LINE
8
BLACK
6
CONTINUOUS
10
150.14
20
-75.0519
11
150.189
21
-75.1249
0
LINE
8
BLACK
6
CONTINUOUS
10
150.189
20
-75.1249
11
150.206
21
-75.211
0
LINE
8
BLACK
6
CONTINUOUS
10
150.206
20
-75.211
11
150.206
21
-75.661
0
LINE
8
BLACK
6
CONTINUOUS
10
150.206
20
-75.661
11
150.189
21
-75.7471
0
LINE
8
BLACK
6
CONTINUOUS
10
150.189
20
-75.7471
11
150.14
21
-75.8201
0
LINE
8
BLACK
6
CONTINUOUS
10
150.14
20
-75.8201
11
150.067
21
-75.8689
0
LINE
8
BLACK
6
CONTINUOUS
10
150.067
20
-75.8689
11
149.981
21
-75.886
0
LINE
8
BLACK
6
CONTINUOUS
10
149.981
20
-75.886
11
149.231
21
-75.886
0
LINE
8
BLACK
6
CONTINUOUS
10
149.231
20
-75.886
11
149.145
21
-75.8689
0
LINE
8
BLACK
6
CONTINUOUS
10
149.145
20
-75.8689
11
149.072
21
-75.8201
0
LINE
8
BLACK
6
CONTINUOUS
10
149.072
20
-75.8201
11
149.023
21
-75.7471
0
LINE
8
BLACK
6
CONTINUOUS
10
149.023
20
-75.7471
11
149.006
21
-75.661
0
LINE
8
BLACK
6
CONTINUOUS
10
149.006
20
-75.661
11
149.006
21
-75.211
0
LINE
8
BLACK
6
CONTINUOUS
10
149.006
20
-75.211
11
149.023
21
-75.1249
0
LINE
8
BLACK
6
CONTINUOUS
10
149.023
20
-75.1249
11
149.072
21
-75.0519
0
LINE
8
BLACK
6
CONTINUOUS
10
149.072
20
-75.0519
11
149.145
21
-75.0031
0
LINE
8
BLACK
6
CONTINUOUS
10
149.145
20
-75.0031
11
149.231
21
-74.986
0
LINE
8
BLACK
6
CONTINUOUS
10
149.231
20
-74.986
11
149.981
21
-74.986
0
LINE
8
BLACK
6
CONTINUOUS
10
149.981
20
-74.986
11
150.067
21
-75.0031
0
LINE
8
BLACK
6
CONTINUOUS
10
147.527
20
-75.0031
11
147.6
21
-75.0519
0
LINE
8
BLACK
6
CONTINUOUS
10
147.6
20
-75.0519
11
147.649
21
-75.1249
0
LINE
8
BLACK
6
CONTINUOUS
10
147.649
20
-75.1249
11
147.666
21
-75.211
0
LINE
8
BLACK
6
CONTINUOUS
10
147.666
20
-75.211
11
147.666
21
-75.661
0
LINE
8
BLACK
6
CONTINUOUS
10
147.666
20
-75.661
11
147.649
21
-75.7471
0
LINE
8
BLACK
6
CONTINUOUS
10
147.649
20
-75.7471
11
147.6
21
-75.8201
0
LINE
8
BLACK
6
CONTINUOUS
10
147.6
20
-75.8201
11
147.527
21
-75.8689
0
LINE
8
BLACK
6
CONTINUOUS
10
147.527
20
-75.8689
11
147.441
21
-75.886
0
LINE
8
BLACK
6
CONTINUOUS
10
147.441
20
-75.886
11
146.691
21
-75.886
0
LINE
8
BLACK
6
CONTINUOUS
10
146.691
20
-75.886
11
146.605
21
-75.8689
0
LINE
8
BLACK
6
CONTINUOUS
10
146.605
20
-75.8689
11
146.532
21
-75.8201
0
LINE
8
BLACK
6
CONTINUOUS
10
146.532
20
-75.8201
11
146.483
21
-75.7471
0
LINE
8
BLACK
6
CONTINUOUS
10
146.483
20
-75.7471
11
146.466
21
-75.661
0
LINE
8
BLACK
6
CONTINUOUS
10
146.466
20
-75.661
11
146.466
21
-75.211
0
LINE
8
BLACK
6
CONTINUOUS
10
146.466
20
-75.211
11
146.483
21
-75.1249
0
LINE
8
BLACK
6
CONTINUOUS
10
146.483
20
-75.1249
11
146.532
21
-75.0519
0
LINE
8
BLACK
6
CONTINUOUS
10
146.532
20
-75.0519
11
146.605
21
-75.0031
0
LINE
8
BLACK
6
CONTINUOUS
10
146.605
20
-75.0031
11
146.691
21
-74.986
0
LINE
8
BLACK
6
CONTINUOUS
10
146.691
20
-74.986
11
147.441
21
-74.986
0
LINE
8
BLACK
6
CONTINUOUS
10
147.441
20
-74.986
11
147.527
21
-75.0031
0
LINE
8
BLACK
6
CONTINUOUS
10
144.987
20
-75.0031
11
145.06
21
-75.0519
0
LINE
8
BLACK
6
CONTINUOUS
10
145.06
20
-75.0519
11
145.109
21
-75.1249
0
LINE
8
BLACK
6
CONTINUOUS
10
145.109
20
-75.1249
11
145.126
21
-75.211
0
LINE
8
BLACK
6
CONTINUOUS
10
145.126
20
-75.211
11
145.126
21
-75.661
0
LINE
8
BLACK
6
CONTINUOUS
10
145.126
20
-75.661
11
145.109
21
-75.7471
0
LINE
8
BLACK
6
CONTINUOUS
10
145.109
20
-75.7471
11
145.06
21
-75.8201
0
LINE
8
BLACK
6
CONTINUOUS
10
145.06
20
-75.8201
11
144.987
21
-75.8689
0
LINE
8
BLACK
6
CONTINUOUS
10
144.987
20
-75.8689
11
144.901
21
-75.886
0
LINE
8
BLACK
6
CONTINUOUS
10
144.901
20
-75.886
11
144.151
21
-75.886
0
LINE
8
BLACK
6
CONTINUOUS
10
144.151
20
-75.886
11
144.065
21
-75.8689
0
LINE
8
BLACK
6
CONTINUOUS
10
144.065
20
-75.8689
11
143.992
21
-75.8201
0
LINE
8
BLACK
6
CONTINUOUS
10
143.992
20
-75.8201
11
143.943
21
-75.7471
0
LINE
8
BLACK
6
CONTINUOUS
10
143.943
20
-75.7471
11
143.926
21
-75.661
0
LINE
8
BLACK
6
CONTINUOUS
10
143.926
20
-75.661
11
143.926
21
-75.211
0
LINE
8
BLACK
6
CONTINUOUS
10
143.926
20
-75.211
11
143.943
21
-75.1249
0
LINE
8
BLACK
6
CONTINUOUS
10
143.943
20
-75.1249
11
143.992
21
-75.0519
0
LINE
8
BLACK
6
CONTINUOUS
10
143.992
20
-75.0519
11
144.065
21
-75.0031
0
LINE
8
BLACK
6
CONTINUOUS
10
144.065
20
-75.0031
11
144.151
21
-74.986
0
LINE
8
BLACK
6
CONTINUOUS
10
144.151
20
-74.986
11
144.901
21
-74.986
0
LINE
8
BLACK
6
CONTINUOUS
10
144.901
20
-74.986
11
144.987
21
-75.0031
0
LINE
8
BLACK
6
CONTINUOUS
10
167.847
20
-71.7031
11
167.92
21
-71.7519
0
LINE
8
BLACK
6
CONTINUOUS
10
167.92
20
-71.7519
11
167.969
21
-71.8249
0
LINE
8
BLACK
6
CONTINUOUS
10
167.969
20
-71.8249
11
167.986
21
-71.911
0
LINE
8
BLACK
6
CONTINUOUS
10
167.986
20
-71.911
11
167.986
21
-72.361
0
LINE
8
BLACK
6
CONTINUOUS
10
167.986
20
-72.361
11
167.969
21
-72.4471
0
LINE
8
BLACK
6
CONTINUOUS
10
167.969
20
-72.4471
11
167.92
21
-72.5201
0
LINE
8
BLACK
6
CONTINUOUS
10
167.92
20
-72.5201
11
167.847
21
-72.5689
0
LINE
8
BLACK
6
CONTINUOUS
10
167.847
20
-72.5689
11
167.761
21
-72.586
0
LINE
8
BLACK
6
CONTINUOUS
10
167.761
20
-72.586
11
167.011
21
-72.586
0
LINE
8
BLACK
6
CONTINUOUS
10
167.011
20
-72.586
11
166.925
21
-72.5689
0
LINE
8
BLACK
6
CONTINUOUS
10
166.925
20
-72.5689
11
166.852
21
-72.5201
0
LINE
8
BLACK
6
CONTINUOUS
10
166.852
20
-72.5201
11
166.803
21
-72.4471
0
LINE
8
BLACK
6
CONTINUOUS
10
166.803
20
-72.4471
11
166.786
21
-72.361
0
LINE
8
BLACK
6
CONTINUOUS
10
166.786
20
-72.361
11
166.786
21
-71.911
0
LINE
8
BLACK
6
CONTINUOUS
10
166.786
20
-71.911
11
166.803
21
-71.8249
0
LINE
8
BLACK
6
CONTINUOUS
10
166.803
20
-71.8249
11
166.852
21
-71.7519
0
LINE
8
BLACK
6
CONTINUOUS
10
166.852
20
-71.7519
11
166.925
21
-71.7031
0
LINE
8
BLACK
6
CONTINUOUS
10
166.925
20
-71.7031
11
167.011
21
-71.686
0
LINE
8
BLACK
6
CONTINUOUS
10
167.011
20
-71.686
11
167.761
21
-71.686
0
LINE
8
BLACK
6
CONTINUOUS
10
167.761
20
-71.686
11
167.847
21
-71.7031
0
LINE
8
BLACK
6
CONTINUOUS
10
165.307
20
-71.7031
11
165.38
21
-71.7519
0
LINE
8
BLACK
6
CONTINUOUS
10
165.38
20
-71.7519
11
165.429
21
-71.8249
0
LINE
8
BLACK
6
CONTINUOUS
10
165.429
20
-71.8249
11
165.446
21
-71.911
0
LINE
8
BLACK
6
CONTINUOUS
10
165.446
20
-71.911
11
165.446
21
-72.361
0
LINE
8
BLACK
6
CONTINUOUS
10
165.446
20
-72.361
11
165.429
21
-72.4471
0
LINE
8
BLACK
6
CONTINUOUS
10
165.429
20
-72.4471
11
165.38
21
-72.5201
0
LINE
8
BLACK
6
CONTINUOUS
10
165.38
20
-72.5201
11
165.307
21
-72.5689
0
LINE
8
BLACK
6
CONTINUOUS
10
165.307
20
-72.5689
11
165.221
21
-72.586
0
LINE
8
BLACK
6
CONTINUOUS
10
165.221
20
-72.586
11
164.471
21
-72.586
0
LINE
8
BLACK
6
CONTINUOUS
10
164.471
20
-72.586
11
164.385
21
-72.5689
0
LINE
8
BLACK
6
CONTINUOUS
10
164.385
20
-72.5689
11
164.312
21
-72.5201
0
LINE
8
BLACK
6
CONTINUOUS
10
164.312
20
-72.5201
11
164.263
21
-72.4471
0
LINE
8
BLACK
6
CONTINUOUS
10
164.263
20
-72.4471
11
164.246
21
-72.361
0
LINE
8
BLACK
6
CONTINUOUS
10
164.246
20
-72.361
11
164.246
21
-71.911
0
LINE
8
BLACK
6
CONTINUOUS
10
164.246
20
-71.911
11
164.263
21
-71.8249
0
LINE
8
BLACK
6
CONTINUOUS
10
164.263
20
-71.8249
11
164.312
21
-71.7519
0
LINE
8
BLACK
6
CONTINUOUS
10
164.312
20
-71.7519
11
164.385
21
-71.7031
0
LINE
8
BLACK
6
CONTINUOUS
10
164.385
20
-71.7031
11
164.471
21
-71.686
0
LINE
8
BLACK
6
CONTINUOUS
10
164.471
20
-71.686
11
165.221
21
-71.686
0
LINE
8
BLACK
6
CONTINUOUS
10
165.221
20
-71.686
11
165.307
21
-71.7031
0
LINE
8
BLACK
6
CONTINUOUS
10
162.767
20
-71.7031
11
162.84
21
-71.7519
0
LINE
8
BLACK
6
CONTINUOUS
10
162.84
20
-71.7519
11
162.889
21
-71.8249
0
LINE
8
BLACK
6
CONTINUOUS
10
162.889
20
-71.8249
11
162.906
21
-71.911
0
LINE
8
BLACK
6
CONTINUOUS
10
162.906
20
-71.911
11
162.906
21
-72.361
0
LINE
8
BLACK
6
CONTINUOUS
10
162.906
20
-72.361
11
162.889
21
-72.4471
0
LINE
8
BLACK
6
CONTINUOUS
10
162.889
20
-72.4471
11
162.84
21
-72.5201
0
LINE
8
BLACK
6
CONTINUOUS
10
162.84
20
-72.5201
11
162.767
21
-72.5689
0
LINE
8
BLACK
6
CONTINUOUS
10
162.767
20
-72.5689
11
162.681
21
-72.586
0
LINE
8
BLACK
6
CONTINUOUS
10
162.681
20
-72.586
11
161.931
21
-72.586
0
LINE
8
BLACK
6
CONTINUOUS
10
161.931
20
-72.586
11
161.845
21
-72.5689
0
LINE
8
BLACK
6
CONTINUOUS
10
161.845
20
-72.5689
11
161.772
21
-72.5201
0
LINE
8
BLACK
6
CONTINUOUS
10
161.772
20
-72.5201
11
161.723
21
-72.4471
0
LINE
8
BLACK
6
CONTINUOUS
10
161.723
20
-72.4471
11
161.706
21
-72.361
0
LINE
8
BLACK
6
CONTINUOUS
10
161.706
20
-72.361
11
161.706
21
-71.911
0
LINE
8
BLACK
6
CONTINUOUS
10
161.706
20
-71.911
11
161.723
21
-71.8249
0
LINE
8
BLACK
6
CONTINUOUS
10
161.723
20
-71.8249
11
161.772
21
-71.7519
0
LINE
8
BLACK
6
CONTINUOUS
10
161.772
20
-71.7519
11
161.845
21
-71.7031
0
LINE
8
BLACK
6
CONTINUOUS
10
161.845
20
-71.7031
11
161.931
21
-71.686
0
LINE
8
BLACK
6
CONTINUOUS
10
161.931
20
-71.686
11
162.681
21
-71.686
0
LINE
8
BLACK
6
CONTINUOUS
10
162.681
20
-71.686
11
162.767
21
-71.7031
0
LINE
8
BLACK
6
CONTINUOUS
10
160.227
20
-71.7031
11
160.3
21
-71.7519
0
LINE
8
BLACK
6
CONTINUOUS
10
160.3
20
-71.7519
11
160.349
21
-71.8249
0
LINE
8
BLACK
6
CONTINUOUS
10
160.349
20
-71.8249
11
160.366
21
-71.911
0
LINE
8
BLACK
6
CONTINUOUS
10
160.366
20
-71.911
11
160.366
21
-72.361
0
LINE
8
BLACK
6
CONTINUOUS
10
160.366
20
-72.361
11
160.349
21
-72.4471
0
LINE
8
BLACK
6
CONTINUOUS
10
160.349
20
-72.4471
11
160.3
21
-72.5201
0
LINE
8
BLACK
6
CONTINUOUS
10
160.3
20
-72.5201
11
160.227
21
-72.5689
0
LINE
8
BLACK
6
CONTINUOUS
10
160.227
20
-72.5689
11
160.141
21
-72.586
0
LINE
8
BLACK
6
CONTINUOUS
10
160.141
20
-72.586
11
159.391
21
-72.586
0
LINE
8
BLACK
6
CONTINUOUS
10
159.391
20
-72.586
11
159.305
21
-72.5689
0
LINE
8
BLACK
6
CONTINUOUS
10
159.305
20
-72.5689
11
159.232
21
-72.5201
0
LINE
8
BLACK
6
CONTINUOUS
10
159.232
20
-72.5201
11
159.183
21
-72.4471
0
LINE
8
BLACK
6
CONTINUOUS
10
159.183
20
-72.4471
11
159.166
21
-72.361
0
LINE
8
BLACK
6
CONTINUOUS
10
159.166
20
-72.361
11
159.166
21
-71.911
0
LINE
8
BLACK
6
CONTINUOUS
10
159.166
20
-71.911
11
159.183
21
-71.8249
0
LINE
8
BLACK
6
CONTINUOUS
10
159.183
20
-71.8249
11
159.232
21
-71.7519
0
LINE
8
BLACK
6
CONTINUOUS
10
159.232
20
-71.7519
11
159.305
21
-71.7031
0
LINE
8
BLACK
6
CONTINUOUS
10
159.305
20
-71.7031
11
159.391
21
-71.686
0
LINE
8
BLACK
6
CONTINUOUS
10
159.391
20
-71.686
11
160.141
21
-71.686
0
LINE
8
BLACK
6
CONTINUOUS
10
160.141
20
-71.686
11
160.227
21
-71.7031
0
LINE
8
BLACK
6
CONTINUOUS
10
157.687
20
-71.7031
11
157.76
21
-71.7519
0
LINE
8
BLACK
6
CONTINUOUS
10
157.76
20
-71.7519
11
157.809
21
-71.8249
0
LINE
8
BLACK
6
CONTINUOUS
10
157.809
20
-71.8249
11
157.826
21
-71.911
0
LINE
8
BLACK
6
CONTINUOUS
10
157.826
20
-71.911
11
157.826
21
-72.361
0
LINE
8
BLACK
6
CONTINUOUS
10
157.826
20
-72.361
11
157.809
21
-72.4471
0
LINE
8
BLACK
6
CONTINUOUS
10
157.809
20
-72.4471
11
157.76
21
-72.5201
0
LINE
8
BLACK
6
CONTINUOUS
10
157.76
20
-72.5201
11
157.687
21
-72.5689
0
LINE
8
BLACK
6
CONTINUOUS
10
157.687
20
-72.5689
11
157.601
21
-72.586
0
LINE
8
BLACK
6
CONTINUOUS
10
157.601
20
-72.586
11
156.851
21
-72.586
0
LINE
8
BLACK
6
CONTINUOUS
10
156.851
20
-72.586
11
156.765
21
-72.5689
0
LINE
8
BLACK
6
CONTINUOUS
10
156.765
20
-72.5689
11
156.692
21
-72.5201
0
LINE
8
BLACK
6
CONTINUOUS
10
156.692
20
-72.5201
11
156.643
21
-72.4471
0
LINE
8
BLACK
6
CONTINUOUS
10
156.643
20
-72.4471
11
156.626
21
-72.361
0
LINE
8
BLACK
6
CONTINUOUS
10
156.626
20
-72.361
11
156.626
21
-71.911
0
LINE
8
BLACK
6
CONTINUOUS
10
156.626
20
-71.911
11
156.643
21
-71.8249
0
LINE
8
BLACK
6
CONTINUOUS
10
156.643
20
-71.8249
11
156.692
21
-71.7519
0
LINE
8
BLACK
6
CONTINUOUS
10
156.692
20
-71.7519
11
156.765
21
-71.7031
0
LINE
8
BLACK
6
CONTINUOUS
10
156.765
20
-71.7031
11
156.851
21
-71.686
0
LINE
8
BLACK
6
CONTINUOUS
10
156.851
20
-71.686
11
157.601
21
-71.686
0
LINE
8
BLACK
6
CONTINUOUS
10
157.601
20
-71.686
11
157.687
21
-71.7031
0
LINE
8
BLACK
6
CONTINUOUS
10
155.147
20
-71.7031
11
155.22
21
-71.7519
0
LINE
8
BLACK
6
CONTINUOUS
10
155.22
20
-71.7519
11
155.269
21
-71.8249
0
LINE
8
BLACK
6
CONTINUOUS
10
155.269
20
-71.8249
11
155.286
21
-71.911
0
LINE
8
BLACK
6
CONTINUOUS
10
155.286
20
-71.911
11
155.286
21
-72.361
0
LINE
8
BLACK
6
CONTINUOUS
10
155.286
20
-72.361
11
155.269
21
-72.4471
0
LINE
8
BLACK
6
CONTINUOUS
10
155.269
20
-72.4471
11
155.22
21
-72.5201
0
LINE
8
BLACK
6
CONTINUOUS
10
155.22
20
-72.5201
11
155.147
21
-72.5689
0
LINE
8
BLACK
6
CONTINUOUS
10
155.147
20
-72.5689
11
155.061
21
-72.586
0
LINE
8
BLACK
6
CONTINUOUS
10
155.061
20
-72.586
11
154.311
21
-72.586
0
LINE
8
BLACK
6
CONTINUOUS
10
154.311
20
-72.586
11
154.225
21
-72.5689
0
LINE
8
BLACK
6
CONTINUOUS
10
154.225
20
-72.5689
11
154.152
21
-72.5201
0
LINE
8
BLACK
6
CONTINUOUS
10
154.152
20
-72.5201
11
154.103
21
-72.4471
0
LINE
8
BLACK
6
CONTINUOUS
10
154.103
20
-72.4471
11
154.086
21
-72.361
0
LINE
8
BLACK
6
CONTINUOUS
10
154.086
20
-72.361
11
154.086
21
-71.911
0
LINE
8
BLACK
6
CONTINUOUS
10
154.086
20
-71.911
11
154.103
21
-71.8249
0
LINE
8
BLACK
6
CONTINUOUS
10
154.103
20
-71.8249
11
154.152
21
-71.7519
0
LINE
8
BLACK
6
CONTINUOUS
10
154.152
20
-71.7519
11
154.225
21
-71.7031
0
LINE
8
BLACK
6
CONTINUOUS
10
154.225
20
-71.7031
11
154.311
21
-71.686
0
LINE
8
BLACK
6
CONTINUOUS
10
154.311
20
-71.686
11
155.061
21
-71.686
0
LINE
8
BLACK
6
CONTINUOUS
10
155.061
20
-71.686
11
155.147
21
-71.7031
0
LINE
8
BLACK
6
CONTINUOUS
10
152.607
20
-71.7031
11
152.68
21
-71.7519
0
LINE
8
BLACK
6
CONTINUOUS
10
152.68
20
-71.7519
11
152.729
21
-71.8249
0
LINE
8
BLACK
6
CONTINUOUS
10
152.729
20
-71.8249
11
152.746
21
-71.911
0
LINE
8
BLACK
6
CONTINUOUS
10
152.746
20
-71.911
11
152.746
21
-72.361
0
LINE
8
BLACK
6
CONTINUOUS
10
152.746
20
-72.361
11
152.729
21
-72.4471
0
LINE
8
BLACK
6
CONTINUOUS
10
152.729
20
-72.4471
11
152.68
21
-72.5201
0
LINE
8
BLACK
6
CONTINUOUS
10
152.68
20
-72.5201
11
152.607
21
-72.5689
0
LINE
8
BLACK
6
CONTINUOUS
10
152.607
20
-72.5689
11
152.521
21
-72.586
0
LINE
8
BLACK
6
CONTINUOUS
10
152.521
20
-72.586
11
151.771
21
-72.586
0
LINE
8
BLACK
6
CONTINUOUS
10
151.771
20
-72.586
11
151.685
21
-72.5689
0
LINE
8
BLACK
6
CONTINUOUS
10
151.685
20
-72.5689
11
151.612
21
-72.5201
0
LINE
8
BLACK
6
CONTINUOUS
10
151.612
20
-72.5201
11
151.563
21
-72.4471
0
LINE
8
BLACK
6
CONTINUOUS
10
151.563
20
-72.4471
11
151.546
21
-72.361
0
LINE
8
BLACK
6
CONTINUOUS
10
151.546
20
-72.361
11
151.546
21
-71.911
0
LINE
8
BLACK
6
CONTINUOUS
10
151.546
20
-71.911
11
151.563
21
-71.8249
0
LINE
8
BLACK
6
CONTINUOUS
10
151.563
20
-71.8249
11
151.612
21
-71.7519
0
LINE
8
BLACK
6
CONTINUOUS
10
151.612
20
-71.7519
11
151.685
21
-71.7031
0
LINE
8
BLACK
6
CONTINUOUS
10
151.685
20
-71.7031
11
151.771
21
-71.686
0
LINE
8
BLACK
6
CONTINUOUS
10
151.771
20
-71.686
11
152.521
21
-71.686
0
LINE
8
BLACK
6
CONTINUOUS
10
152.521
20
-71.686
11
152.607
21
-71.7031
0
LINE
8
BLACK
6
CONTINUOUS
10
150.067
20
-71.7031
11
150.14
21
-71.7519
0
LINE
8
BLACK
6
CONTINUOUS
10
150.14
20
-71.7519
11
150.189
21
-71.8249
0
LINE
8
BLACK
6
CONTINUOUS
10
150.189
20
-71.8249
11
150.206
21
-71.911
0
LINE
8
BLACK
6
CONTINUOUS
10
150.206
20
-71.911
11
150.206
21
-72.361
0
LINE
8
BLACK
6
CONTINUOUS
10
150.206
20
-72.361
11
150.189
21
-72.4471
0
LINE
8
BLACK
6
CONTINUOUS
10
150.189
20
-72.4471
11
150.14
21
-72.5201
0
LINE
8
BLACK
6
CONTINUOUS
10
150.14
20
-72.5201
11
150.067
21
-72.5689
0
LINE
8
BLACK
6
CONTINUOUS
10
150.067
20
-72.5689
11
149.981
21
-72.586
0
LINE
8
BLACK
6
CONTINUOUS
10
149.981
20
-72.586
11
149.231
21
-72.586
0
LINE
8
BLACK
6
CONTINUOUS
10
149.231
20
-72.586
11
149.145
21
-72.5689
0
LINE
8
BLACK
6
CONTINUOUS
10
149.145
20
-72.5689
11
149.072
21
-72.5201
0
LINE
8
BLACK
6
CONTINUOUS
10
149.072
20
-72.5201
11
149.023
21
-72.4471
0
LINE
8
BLACK
6
CONTINUOUS
10
149.023
20
-72.4471
11
149.006
21
-72.361
0
LINE
8
BLACK
6
CONTINUOUS
10
149.006
20
-72.361
11
149.006
21
-71.911
0
LINE
8
BLACK
6
CONTINUOUS
10
149.006
20
-71.911
11
149.023
21
-71.8249
0
LINE
8
BLACK
6
CONTINUOUS
10
149.023
20
-71.8249
11
149.072
21
-71.7519
0
LINE
8
BLACK
6
CONTINUOUS
10
149.072
20
-71.7519
11
149.145
21
-71.7031
0
LINE
8
BLACK
6
CONTINUOUS
10
149.145
20
-71.7031
11
149.231
21
-71.686
0
LINE
8
BLACK
6
CONTINUOUS
10
149.231
20
-71.686
11
149.981
21
-71.686
0
LINE
8
BLACK
6
CONTINUOUS
10
149.981
20
-71.686
11
150.067
21
-71.7031
0
LINE
8
BLACK
6
CONTINUOUS
10
147.527
20
-71.7031
11
147.6
21
-71.7519
0
LINE
8
BLACK
6
CONTINUOUS
10
147.6
20
-71.7519
11
147.649
21
-71.8249
0
LINE
8
BLACK
6
CONTINUOUS
10
147.649
20
-71.8249
11
147.666
21
-71.911
0
LINE
8
BLACK
6
CONTINUOUS
10
147.666
20
-71.911
11
147.666
21
-72.361
0
LINE
8
BLACK
6
CONTINUOUS
10
147.666
20
-72.361
11
147.649
21
-72.4471
0
LINE
8
BLACK
6
CONTINUOUS
10
147.649
20
-72.4471
11
147.6
21
-72.5201
0
LINE
8
BLACK
6
CONTINUOUS
10
147.6
20
-72.5201
11
147.527
21
-72.5689
0
LINE
8
BLACK
6
CONTINUOUS
10
147.527
20
-72.5689
11
147.441
21
-72.586
0
LINE
8
BLACK
6
CONTINUOUS
10
147.441
20
-72.586
11
146.691
21
-72.586
0
LINE
8
BLACK
6
CONTINUOUS
10
146.691
20
-72.586
11
146.605
21
-72.5689
0
LINE
8
BLACK
6
CONTINUOUS
10
146.605
20
-72.5689
11
146.532
21
-72.5201
0
LINE
8
BLACK
6
CONTINUOUS
10
146.532
20
-72.5201
11
146.483
21
-72.4471
0
LINE
8
BLACK
6
CONTINUOUS
10
146.483
20
-72.4471
11
146.466
21
-72.361
0
LINE
8
BLACK
6
CONTINUOUS
10
146.466
20
-72.361
11
146.466
21
-71.911
0
LINE
8
BLACK
6
CONTINUOUS
10
146.466
20
-71.911
11
146.483
21
-71.8249
0
LINE
8
BLACK
6
CONTINUOUS
10
146.483
20
-71.8249
11
146.532
21
-71.7519
0
LINE
8
BLACK
6
CONTINUOUS
10
146.532
20
-71.7519
11
146.605
21
-71.7031
0
LINE
8
BLACK
6
CONTINUOUS
10
146.605
20
-71.7031
11
146.691
21
-71.686
0
LINE
8
BLACK
6
CONTINUOUS
10
146.691
20
-71.686
11
147.441
21
-71.686
0
LINE
8
BLACK
6
CONTINUOUS
10
147.441
20
-71.686
11
147.527
21
-71.7031
0
LINE
8
BLACK
6
CONTINUOUS
10
144.987
20
-71.7031
11
145.06
21
-71.7519
0
LINE
8
BLACK
6
CONTINUOUS
10
145.06
20
-71.7519
11
145.109
21
-71.8249
0
LINE
8
BLACK
6
CONTINUOUS
10
145.109
20
-71.8249
11
145.126
21
-71.911
0
LINE
8
BLACK
6
CONTINUOUS
10
145.126
20
-71.911
11
145.126
21
-72.361
0
LINE
8
BLACK
6
CONTINUOUS
10
145.126
20
-72.361
11
145.109
21
-72.4471
0
LINE
8
BLACK
6
CONTINUOUS
10
145.109
20
-72.4471
11
145.06
21
-72.5201
0
LINE
8
BLACK
6
CONTINUOUS
10
145.06
20
-72.5201
11
144.987
21
-72.5689
0
LINE
8
BLACK
6
CONTINUOUS
10
144.987
20
-72.5689
11
144.901
21
-72.586
0
LINE
8
BLACK
6
CONTINUOUS
10
144.901
20
-72.586
11
144.151
21
-72.586
0
LINE
8
BLACK
6
CONTINUOUS
10
144.151
20
-72.586
11
144.065
21
-72.5689
0
LINE
8
BLACK
6
CONTINUOUS
10
144.065
20
-72.5689
11
143.992
21
-72.5201
0
LINE
8
BLACK
6
CONTINUOUS
10
143.992
20
-72.5201
11
143.943
21
-72.4471
0
LINE
8
BLACK
6
CONTINUOUS
10
143.943
20
-72.4471
11
143.926
21
-72.361
0
LINE
8
BLACK
6
CONTINUOUS
10
143.926
20
-72.361
11
143.926
21
-71.911
0
LINE
8
BLACK
6
CONTINUOUS
10
143.926
20
-71.911
11
143.943
21
-71.8249
0
LINE
8
BLACK
6
CONTINUOUS
10
143.943
20
-71.8249
11
143.992
21
-71.7519
0
LINE
8
BLACK
6
CONTINUOUS
10
143.992
20
-71.7519
11
144.065
21
-71.7031
0
LINE
8
BLACK
6
CONTINUOUS
10
144.065
20
-71.7031
11
144.151
21
-71.686
0
LINE
8
BLACK
6
CONTINUOUS
10
144.151
20
-71.686
11
144.901
21
-71.686
0
LINE
8
BLACK
6
CONTINUOUS
10
144.901
20
-71.686
11
144.987
21
-71.7031
0
LINE
8
BLACK
6
CONTINUOUS
10
159.716
20
-67.3266
11
159.749
21
-67.3483
0
LINE
8
BLACK
6
CONTINUOUS
10
159.749
20
-67.3483
11
159.77
21
-67.3807
0
LINE
8
BLACK
6
CONTINUOUS
10
159.77
20
-67.3807
11
159.778
21
-67.419
0
LINE
8
BLACK
6
CONTINUOUS
10
159.778
20
-67.419
11
159.778
21
-67.619
0
LINE
8
BLACK
6
CONTINUOUS
10
159.778
20
-67.619
11
159.77
21
-67.6573
0
LINE
8
BLACK
6
CONTINUOUS
10
159.77
20
-67.6573
11
159.749
21
-67.6897
0
LINE
8
BLACK
6
CONTINUOUS
10
159.749
20
-67.6897
11
159.716
21
-67.7114
0
LINE
8
BLACK
6
CONTINUOUS
10
159.716
20
-67.7114
11
159.678
21
-67.719
0
LINE
8
BLACK
6
CONTINUOUS
10
159.678
20
-67.719
11
158.403
21
-67.719
0
LINE
8
BLACK
6
CONTINUOUS
10
158.403
20
-67.719
11
158.365
21
-67.7114
0
LINE
8
BLACK
6
CONTINUOUS
10
158.365
20
-67.7114
11
158.332
21
-67.6897
0
LINE
8
BLACK
6
CONTINUOUS
10
158.332
20
-67.6897
11
158.311
21
-67.6573
0
LINE
8
BLACK
6
CONTINUOUS
10
158.311
20
-67.6573
11
158.303
21
-67.619
0
LINE
8
BLACK
6
CONTINUOUS
10
158.303
20
-67.619
11
158.303
21
-67.419
0
LINE
8
BLACK
6
CONTINUOUS
10
158.303
20
-67.419
11
158.311
21
-67.3807
0
LINE
8
BLACK
6
CONTINUOUS
10
158.311
20
-67.3807
11
158.332
21
-67.3483
0
LINE
8
BLACK
6
CONTINUOUS
10
158.332
20
-67.3483
11
158.365
21
-67.3266
0
LINE
8
BLACK
6
CONTINUOUS
10
158.365
20
-67.3266
11
158.403
21
-67.319
0
LINE
8
BLACK
6
CONTINUOUS
10
158.403
20
-67.319
11
159.678
21
-67.319
0
LINE
8
BLACK
6
CONTINUOUS
10
159.678
20
-67.319
11
159.716
21
-67.3266
0
LINE
8
BLACK
6
CONTINUOUS
10
153.991
20
-67.3266
11
154.024
21
-67.3483
0
LINE
8
BLACK
6
CONTINUOUS
10
154.024
20
-67.3483
11
154.045
21
-67.3807
0
LINE
8
BLACK
6
CONTINUOUS
10
154.045
20
-67.3807
11
154.053
21
-67.419
0
LINE
8
BLACK
6
CONTINUOUS
10
154.053
20
-67.419
11
154.053
21
-67.619
0
LINE
8
BLACK
6
CONTINUOUS
10
154.053
20
-67.619
11
154.045
21
-67.6573
0
LINE
8
BLACK
6
CONTINUOUS
10
154.045
20
-67.6573
11
154.024
21
-67.6897
0
LINE
8
BLACK
6
CONTINUOUS
10
154.024
20
-67.6897
11
153.991
21
-67.7114
0
LINE
8
BLACK
6
CONTINUOUS
10
153.991
20
-67.7114
11
153.953
21
-67.719
0
LINE
8
BLACK
6
CONTINUOUS
10
153.953
20
-67.719
11
152.678
21
-67.719
0
LINE
8
BLACK
6
CONTINUOUS
10
152.678
20
-67.719
11
152.64
21
-67.7114
0
LINE
8
BLACK
6
CONTINUOUS
10
152.64
20
-67.7114
11
152.607
21
-67.6897
0
LINE
8
BLACK
6
CONTINUOUS
10
152.607
20
-67.6897
11
152.586
21
-67.6573
0
LINE
8
BLACK
6
CONTINUOUS
10
152.586
20
-67.6573
11
152.578
21
-67.619
0
LINE
8
BLACK
6
CONTINUOUS
10
152.578
20
-67.619
11
152.578
21
-67.419
0
LINE
8
BLACK
6
CONTINUOUS
10
152.578
20
-67.419
11
152.586
21
-67.3807
0
LINE
8
BLACK
6
CONTINUOUS
10
152.586
20
-67.3807
11
152.607
21
-67.3483
0
LINE
8
BLACK
6
CONTINUOUS
10
152.607
20
-67.3483
11
152.64
21
-67.3266
0
LINE
8
BLACK
6
CONTINUOUS
10
152.64
20
-67.3266
11
152.678
21
-67.319
0
LINE
8
BLACK
6
CONTINUOUS
10
152.678
20
-67.319
11
153.953
21
-67.319
0
LINE
8
BLACK
6
CONTINUOUS
10
153.953
20
-67.319
11
153.991
21
-67.3266
0
LINE
8
BLACK
6
CONTINUOUS
10
159.716
20
-66.6766
11
159.749
21
-66.6983
0
LINE
8
BLACK
6
CONTINUOUS
10
159.749
20
-66.6983
11
159.77
21
-66.7307
0
LINE
8
BLACK
6
CONTINUOUS
10
159.77
20
-66.7307
11
159.778
21
-66.769
0
LINE
8
BLACK
6
CONTINUOUS
10
159.778
20
-66.769
11
159.778
21
-66.969
0
LINE
8
BLACK
6
CONTINUOUS
10
159.778
20
-66.969
11
159.77
21
-67.0073
0
LINE
8
BLACK
6
CONTINUOUS
10
159.77
20
-67.0073
11
159.749
21
-67.0397
0
LINE
8
BLACK
6
CONTINUOUS
10
159.749
20
-67.0397
11
159.716
21
-67.0614
0
LINE
8
BLACK
6
CONTINUOUS
10
159.716
20
-67.0614
11
159.678
21
-67.069
0
LINE
8
BLACK
6
CONTINUOUS
10
159.678
20
-67.069
11
158.403
21
-67.069
0
LINE
8
BLACK
6
CONTINUOUS
10
158.403
20
-67.069
11
158.365
21
-67.0614
0
LINE
8
BLACK
6
CONTINUOUS
10
158.365
20
-67.0614
11
158.332
21
-67.0397
0
LINE
8
BLACK
6
CONTINUOUS
10
158.332
20
-67.0397
11
158.311
21
-67.0073
0
LINE
8
BLACK
6
CONTINUOUS
10
158.311
20
-67.0073
11
158.303
21
-66.969
0
LINE
8
BLACK
6
CONTINUOUS
10
158.303
20
-66.969
11
158.303
21
-66.769
0
LINE
8
BLACK
6
CONTINUOUS
10
158.303
20
-66.769
11
158.311
21
-66.7307
0
LINE
8
BLACK
6
CONTINUOUS
10
158.311
20
-66.7307
11
158.332
21
-66.6983
0
LINE
8
BLACK
6
CONTINUOUS
10
158.332
20
-66.6983
11
158.365
21
-66.6766
0
LINE
8
BLACK
6
CONTINUOUS
10
158.365
20
-66.6766
11
158.403
21
-66.669
0
LINE
8
BLACK
6
CONTINUOUS
10
158.403
20
-66.669
11
159.678
21
-66.669
0
LINE
8
BLACK
6
CONTINUOUS
10
159.678
20
-66.669
11
159.716
21
-66.6766
0
LINE
8
BLACK
6
CONTINUOUS
10
153.991
20
-66.6766
11
154.024
21
-66.6983
0
LINE
8
BLACK
6
CONTINUOUS
10
154.024
20
-66.6983
11
154.045
21
-66.7307
0
LINE
8
BLACK
6
CONTINUOUS
10
154.045
20
-66.7307
11
154.053
21
-66.769
0
LINE
8
BLACK
6
CONTINUOUS
10
154.053
20
-66.769
11
154.053
21
-66.969
0
LINE
8
BLACK
6
CONTINUOUS
10
154.053
20
-66.969
11
154.045
21
-67.0073
0
LINE
8
BLACK
6
CONTINUOUS
10
154.045
20
-67.0073
11
154.024
21
-67.0397
0
LINE
8
BLACK
6
CONTINUOUS
10
154.024
20
-67.0397
11
153.991
21
-67.0614
0
LINE
8
BLACK
6
CONTINUOUS
10
153.991
20
-67.0614
11
153.953
21
-67.069
0
LINE
8
BLACK
6
CONTINUOUS
10
153.953
20
-67.069
11
152.678
21
-67.069
0
LINE
8
BLACK
6
CONTINUOUS
10
152.678
20
-67.069
11
152.64
21
-67.0614
0
LINE
8
BLACK
6
CONTINUOUS
10
152.64
20
-67.0614
11
152.607
21
-67.0397
0
LINE
8
BLACK
6
CONTINUOUS
10
152.607
20
-67.0397
11
152.586
21
-67.0073
0
LINE
8
BLACK
6
CONTINUOUS
10
152.586
20
-67.0073
11
152.578
21
-66.969
0
LINE
8
BLACK
6
CONTINUOUS
10
152.578
20
-66.969
11
152.578
21
-66.769
0
LINE
8
BLACK
6
CONTINUOUS
10
152.578
20
-66.769
11
152.586
21
-66.7307
0
LINE
8
BLACK
6
CONTINUOUS
10
152.586
20
-66.7307
11
152.607
21
-66.6983
0
LINE
8
BLACK
6
CONTINUOUS
10
152.607
20
-66.6983
11
152.64
21
-66.6766
0
LINE
8
BLACK
6
CONTINUOUS
10
152.64
20
-66.6766
11
152.678
21
-66.669
0
LINE
8
BLACK
6
CONTINUOUS
10
152.678
20
-66.669
11
153.953
21
-66.669
0
LINE
8
BLACK
6
CONTINUOUS
10
153.953
20
-66.669
11
153.991
21
-66.6766
0
LINE
8
BLACK
6
CONTINUOUS
10
159.716
20
-66.0266
11
159.749
21
-66.0483
0
LINE
8
BLACK
6
CONTINUOUS
10
159.749
20
-66.0483
11
159.77
21
-66.0807
0
LINE
8
BLACK
6
CONTINUOUS
10
159.77
20
-66.0807
11
159.778
21
-66.119
0
LINE
8
BLACK
6
CONTINUOUS
10
159.778
20
-66.119
11
159.778
21
-66.319
0
LINE
8
BLACK
6
CONTINUOUS
10
159.778
20
-66.319
11
159.77
21
-66.3573
0
LINE
8
BLACK
6
CONTINUOUS
10
159.77
20
-66.3573
11
159.749
21
-66.3897
0
LINE
8
BLACK
6
CONTINUOUS
10
159.749
20
-66.3897
11
159.716
21
-66.4114
0
LINE
8
BLACK
6
CONTINUOUS
10
159.716
20
-66.4114
11
159.678
21
-66.419
0
LINE
8
BLACK
6
CONTINUOUS
10
159.678
20
-66.419
11
158.403
21
-66.419
0
LINE
8
BLACK
6
CONTINUOUS
10
158.403
20
-66.419
11
158.365
21
-66.4114
0
LINE
8
BLACK
6
CONTINUOUS
10
158.365
20
-66.4114
11
158.332
21
-66.3897
0
LINE
8
BLACK
6
CONTINUOUS
10
158.332
20
-66.3897
11
158.311
21
-66.3573
0
LINE
8
BLACK
6
CONTINUOUS
10
158.311
20
-66.3573
11
158.303
21
-66.319
0
LINE
8
BLACK
6
CONTINUOUS
10
158.303
20
-66.319
11
158.303
21
-66.119
0
LINE
8
BLACK
6
CONTINUOUS
10
158.303
20
-66.119
11
158.311
21
-66.0807
0
LINE
8
BLACK
6
CONTINUOUS
10
158.311
20
-66.0807
11
158.332
21
-66.0483
0
LINE
8
BLACK
6
CONTINUOUS
10
158.332
20
-66.0483
11
158.365
21
-66.0266
0
LINE
8
BLACK
6
CONTINUOUS
10
158.365
20
-66.0266
11
158.403
21
-66.019
0
LINE
8
BLACK
6
CONTINUOUS
10
158.403
20
-66.019
11
159.678
21
-66.019
0
LINE
8
BLACK
6
CONTINUOUS
10
159.678
20
-66.019
11
159.716
21
-66.0266
0
LINE
8
BLACK
6
CONTINUOUS
10
153.991
20
-66.0266
11
154.024
21
-66.0483
0
LINE
8
BLACK
6
CONTINUOUS
10
154.024
20
-66.0483
11
154.045
21
-66.0807
0
LINE
8
BLACK
6
CONTINUOUS
10
154.045
20
-66.0807
11
154.053
21
-66.119
0
LINE
8
BLACK
6
CONTINUOUS
10
154.053
20
-66.119
11
154.053
21
-66.319
0
LINE
8
BLACK
6
CONTINUOUS
10
154.053
20
-66.319
11
154.045
21
-66.3573
0
LINE
8
BLACK
6
CONTINUOUS
10
154.045
20
-66.3573
11
154.024
21
-66.3897
0
LINE
8
BLACK
6
CONTINUOUS
10
154.024
20
-66.3897
11
153.991
21
-66.4114
0
LINE
8
BLACK
6
CONTINUOUS
10
153.991
20
-66.4114
11
153.953
21
-66.419
0
LINE
8
BLACK
6
CONTINUOUS
10
153.953
20
-66.419
11
152.678
21
-66.419
0
LINE
8
BLACK
6
CONTINUOUS
10
152.678
20
-66.419
11
152.64
21
-66.4114
0
LINE
8
BLACK
6
CONTINUOUS
10
152.64
20
-66.4114
11
152.607
21
-66.3897
0
LINE
8
BLACK
6
CONTINUOUS
10
152.607
20
-66.3897
11
152.586
21
-66.3573
0
LINE
8
BLACK
6
CONTINUOUS
10
152.586
20
-66.3573
11
152.578
21
-66.319
0
LINE
8
BLACK
6
CONTINUOUS
10
152.578
20
-66.319
11
152.578
21
-66.119
0
LINE
8
BLACK
6
CONTINUOUS
10
152.578
20
-66.119
11
152.586
21
-66.0807
0
LINE
8
BLACK
6
CONTINUOUS
10
152.586
20
-66.0807
11
152.607
21
-66.0483
0
LINE
8
BLACK
6
CONTINUOUS
10
152.607
20
-66.0483
11
152.64
21
-66.0266
0
LINE
8
BLACK
6
CONTINUOUS
10
152.64
20
-66.0266
11
152.678
21
-66.019
0
LINE
8
BLACK
6
CONTINUOUS
10
152.678
20
-66.019
11
153.953
21
-66.019
0
LINE
8
BLACK
6
CONTINUOUS
10
153.953
20
-66.019
11
153.991
21
-66.0266
0
LINE
8
BLACK
6
CONTINUOUS
10
159.716
20
-65.3766
11
159.749
21
-65.3983
0
LINE
8
BLACK
6
CONTINUOUS
10
159.749
20
-65.3983
11
159.77
21
-65.4307
0
LINE
8
BLACK
6
CONTINUOUS
10
159.77
20
-65.4307
11
159.778
21
-65.469
0
LINE
8
BLACK
6
CONTINUOUS
10
159.778
20
-65.469
11
159.778
21
-65.669
0
LINE
8
BLACK
6
CONTINUOUS
10
159.778
20
-65.669
11
159.77
21
-65.7073
0
LINE
8
BLACK
6
CONTINUOUS
10
159.77
20
-65.7073
11
159.749
21
-65.7397
0
LINE
8
BLACK
6
CONTINUOUS
10
159.749
20
-65.7397
11
159.716
21
-65.7614
0
LINE
8
BLACK
6
CONTINUOUS
10
159.716
20
-65.7614
11
159.678
21
-65.769
0
LINE
8
BLACK
6
CONTINUOUS
10
159.678
20
-65.769
11
158.403
21
-65.769
0
LINE
8
BLACK
6
CONTINUOUS
10
158.403
20
-65.769
11
158.365
21
-65.7614
0
LINE
8
BLACK
6
CONTINUOUS
10
158.365
20
-65.7614
11
158.332
21
-65.7397
0
LINE
8
BLACK
6
CONTINUOUS
10
158.332
20
-65.7397
11
158.311
21
-65.7073
0
LINE
8
BLACK
6
CONTINUOUS
10
158.311
20
-65.7073
11
158.303
21
-65.669
0
LINE
8
BLACK
6
CONTINUOUS
10
158.303
20
-65.669
11
158.303
21
-65.469
0
LINE
8
BLACK
6
CONTINUOUS
10
158.303
20
-65.469
11
158.311
21
-65.4307
0
LINE
8
BLACK
6
CONTINUOUS
10
158.311
20
-65.4307
11
158.332
21
-65.3983
0
LINE
8
BLACK
6
CONTINUOUS
10
158.332
20
-65.3983
11
158.365
21
-65.3766
0
LINE
8
BLACK
6
CONTINUOUS
10
158.365
20
-65.3766
11
158.403
21
-65.369
0
LINE
8
BLACK
6
CONTINUOUS
10
158.403
20
-65.369
11
159.678
21
-65.369
0
LINE
8
BLACK
6
CONTINUOUS
10
159.678
20
-65.369
11
159.716
21
-65.3766
0
LINE
8
BLACK
6
CONTINUOUS
10
153.991
20
-65.3766
11
154.024
21
-65.3983
0
LINE
8
BLACK
6
CONTINUOUS
10
154.024
20
-65.3983
11
154.045
21
-65.4307
0
LINE
8
BLACK
6
CONTINUOUS
10
154.045
20
-65.4307
11
154.053
21
-65.469
0
LINE
8
BLACK
6
CONTINUOUS
10
154.053
20
-65.469
11
154.053
21
-65.669
0
LINE
8
BLACK
6
CONTINUOUS
10
154.053
20
-65.669
11
154.045
21
-65.7073
0
LINE
8
BLACK
6
CONTINUOUS
10
154.045
20
-65.7073
11
154.024
21
-65.7397
0
LINE
8
BLACK
6
CONTINUOUS
10
154.024
20
-65.7397
11
153.991
21
-65.7614
0
LINE
8
BLACK
6
CONTINUOUS
10
153.991
20
-65.7614
11
153.953
21
-65.769
0
LINE
8
BLACK
6
CONTINUOUS
10
153.953
20
-65.769
11
152.678
21
-65.769
0
LINE
8
BLACK
6
CONTINUOUS
10
152.678
20
-65.769
11
152.64
21
-65.7614
0
LINE
8
BLACK
6
CONTINUOUS
10
152.64
20
-65.7614
11
152.607
21
-65.7397
0
LINE
8
BLACK
6
CONTINUOUS
10
152.607
20
-65.7397
11
152.586
21
-65.7073
0
LINE
8
BLACK
6
CONTINUOUS
10
152.586
20
-65.7073
11
152.578
21
-65.669
0
LINE
8
BLACK
6
CONTINUOUS
10
152.578
20
-65.669
11
152.578
21
-65.469
0
LINE
8
BLACK
6
CONTINUOUS
10
152.578
20
-65.469
11
152.586
21
-65.4307
0
LINE
8
BLACK
6
CONTINUOUS
10
152.586
20
-65.4307
11
152.607
21
-65.3983
0
LINE
8
BLACK
6
CONTINUOUS
10
152.607
20
-65.3983
11
152.64
21
-65.3766
0
LINE
8
BLACK
6
CONTINUOUS
10
152.64
20
-65.3766
11
152.678
21
-65.369
0
LINE
8
BLACK
6
CONTINUOUS
10
152.678
20
-65.369
11
153.953
21
-65.369
0
LINE
8
BLACK
6
CONTINUOUS
10
153.953
20
-65.369
11
153.991
21
-65.3766
0
LINE
8
BLACK
6
CONTINUOUS
10
159.716
20
-64.7266
11
159.749
21
-64.7483
0
LINE
8
BLACK
6
CONTINUOUS
10
159.749
20
-64.7483
11
159.77
21
-64.7807
0
LINE
8
BLACK
6
CONTINUOUS
10
159.77
20
-64.7807
11
159.778
21
-64.819
0
LINE
8
BLACK
6
CONTINUOUS
10
159.778
20
-64.819
11
159.778
21
-65.019
0
LINE
8
BLACK
6
CONTINUOUS
10
159.778
20
-65.019
11
159.77
21
-65.0573
0
LINE
8
BLACK
6
CONTINUOUS
10
159.77
20
-65.0573
11
159.749
21
-65.0897
0
LINE
8
BLACK
6
CONTINUOUS
10
159.749
20
-65.0897
11
159.716
21
-65.1114
0
LINE
8
BLACK
6
CONTINUOUS
10
159.716
20
-65.1114
11
159.678
21
-65.119
0
LINE
8
BLACK
6
CONTINUOUS
10
159.678
20
-65.119
11
158.403
21
-65.119
0
LINE
8
BLACK
6
CONTINUOUS
10
158.403
20
-65.119
11
158.365
21
-65.1114
0
LINE
8
BLACK
6
CONTINUOUS
10
158.365
20
-65.1114
11
158.332
21
-65.0897
0
LINE
8
BLACK
6
CONTINUOUS
10
158.332
20
-65.0897
11
158.311
21
-65.0573
0
LINE
8
BLACK
6
CONTINUOUS
10
158.311
20
-65.0573
11
158.303
21
-65.019
0
LINE
8
BLACK
6
CONTINUOUS
10
158.303
20
-65.019
11
158.303
21
-64.819
0
LINE
8
BLACK
6
CONTINUOUS
10
158.303
20
-64.819
11
158.311
21
-64.7807
0
LINE
8
BLACK
6
CONTINUOUS
10
158.311
20
-64.7807
11
158.332
21
-64.7483
0
LINE
8
BLACK
6
CONTINUOUS
10
158.332
20
-64.7483
11
158.365
21
-64.7266
0
LINE
8
BLACK
6
CONTINUOUS
10
158.365
20
-64.7266
11
158.403
21
-64.719
0
LINE
8
BLACK
6
CONTINUOUS
10
158.403
20
-64.719
11
159.678
21
-64.719
0
LINE
8
BLACK
6
CONTINUOUS
10
159.678
20
-64.719
11
159.716
21
-64.7266
0
LINE
8
BLACK
6
CONTINUOUS
10
153.991
20
-64.7266
11
154.024
21
-64.7483
0
LINE
8
BLACK
6
CONTINUOUS
10
154.024
20
-64.7483
11
154.045
21
-64.7807
0
LINE
8
BLACK
6
CONTINUOUS
10
154.045
20
-64.7807
11
154.053
21
-64.819
0
LINE
8
BLACK
6
CONTINUOUS
10
154.053
20
-64.819
11
154.053
21
-65.019
0
LINE
8
BLACK
6
CONTINUOUS
10
154.053
20
-65.019
11
154.045
21
-65.0573
0
LINE
8
BLACK
6
CONTINUOUS
10
154.045
20
-65.0573
11
154.024
21
-65.0897
0
LINE
8
BLACK
6
CONTINUOUS
10
154.024
20
-65.0897
11
153.991
21
-65.1114
0
LINE
8
BLACK
6
CONTINUOUS
10
153.991
20
-65.1114
11
153.953
21
-65.119
0
LINE
8
BLACK
6
CONTINUOUS
10
153.953
20
-65.119
11
152.678
21
-65.119
0
LINE
8
BLACK
6
CONTINUOUS
10
152.678
20
-65.119
11
152.64
21
-65.1114
0
LINE
8
BLACK
6
CONTINUOUS
10
152.64
20
-65.1114
11
152.607
21
-65.0897
0
LINE
8
BLACK
6
CONTINUOUS
10
152.607
20
-65.0897
11
152.586
21
-65.0573
0
LINE
8
BLACK
6
CONTINUOUS
10
152.586
20
-65.0573
11
152.578
21
-65.019
0
LINE
8
BLACK
6
CONTINUOUS
10
152.578
20
-65.019
11
152.578
21
-64.819
0
LINE
8
BLACK
6
CONTINUOUS
10
152.578
20
-64.819
11
152.586
21
-64.7807
0
LINE
8
BLACK
6
CONTINUOUS
10
152.586
20
-64.7807
11
152.607
21
-64.7483
0
LINE
8
BLACK
6
CONTINUOUS
10
152.607
20
-64.7483
11
152.64
21
-64.7266
0
LINE
8
BLACK
6
CONTINUOUS
10
152.64
20
-64.7266
11
152.678
21
-64.719
0
LINE
8
BLACK
6
CONTINUOUS
10
152.678
20
-64.719
11
153.953
21
-64.719
0
LINE
8
BLACK
6
CONTINUOUS
10
153.953
20
-64.719
11
153.991
21
-64.7266
0
LINE
8
BLACK
6
CONTINUOUS
10
159.716
20
-64.0766
11
159.749
21
-64.0983
0
LINE
8
BLACK
6
CONTINUOUS
10
159.749
20
-64.0983
11
159.77
21
-64.1307
0
LINE
8
BLACK
6
CONTINUOUS
10
159.77
20
-64.1307
11
159.778
21
-64.169
0
LINE
8
BLACK
6
CONTINUOUS
10
159.778
20
-64.169
11
159.778
21
-64.369
0
LINE
8
BLACK
6
CONTINUOUS
10
159.778
20
-64.369
11
159.77
21
-64.4073
0
LINE
8
BLACK
6
CONTINUOUS
10
159.77
20
-64.4073
11
159.749
21
-64.4397
0
LINE
8
BLACK
6
CONTINUOUS
10
159.749
20
-64.4397
11
159.716
21
-64.4614
0
LINE
8
BLACK
6
CONTINUOUS
10
159.716
20
-64.4614
11
159.678
21
-64.469
0
LINE
8
BLACK
6
CONTINUOUS
10
159.678
20
-64.469
11
158.403
21
-64.469
0
LINE
8
BLACK
6
CONTINUOUS
10
158.403
20
-64.469
11
158.365
21
-64.4614
0
LINE
8
BLACK
6
CONTINUOUS
10
158.365
20
-64.4614
11
158.332
21
-64.4397
0
LINE
8
BLACK
6
CONTINUOUS
10
158.332
20
-64.4397
11
158.311
21
-64.4073
0
LINE
8
BLACK
6
CONTINUOUS
10
158.311
20
-64.4073
11
158.303
21
-64.369
0
LINE
8
BLACK
6
CONTINUOUS
10
158.303
20
-64.369
11
158.303
21
-64.169
0
LINE
8
BLACK
6
CONTINUOUS
10
158.303
20
-64.169
11
158.311
21
-64.1307
0
LINE
8
BLACK
6
CONTINUOUS
10
158.311
20
-64.1307
11
158.332
21
-64.0983
0
LINE
8
BLACK
6
CONTINUOUS
10
158.332
20
-64.0983
11
158.365
21
-64.0766
0
LINE
8
BLACK
6
CONTINUOUS
10
158.365
20
-64.0766
11
158.403
21
-64.069
0
LINE
8
BLACK
6
CONTINUOUS
10
158.403
20
-64.069
11
159.678
21
-64.069
0
LINE
8
BLACK
6
CONTINUOUS
10
159.678
20
-64.069
11
159.716
21
-64.0766
0
LINE
8
BLACK
6
CONTINUOUS
10
153.991
20
-64.0766
11
154.024
21
-64.0983
0
LINE
8
BLACK
6
CONTINUOUS
10
154.024
20
-64.0983
11
154.045
21
-64.1307
0
LINE
8
BLACK
6
CONTINUOUS
10
154.045
20
-64.1307
11
154.053
21
-64.169
0
LINE
8
BLACK
6
CONTINUOUS
10
154.053
20
-64.169
11
154.053
21
-64.369
0
LINE
8
BLACK
6
CONTINUOUS
10
154.053
20
-64.369
11
154.045
21
-64.4073
0
LINE
8
BLACK
6
CONTINUOUS
10
154.045
20
-64.4073
11
154.024
21
-64.4397
0
LINE
8
BLACK
6
CONTINUOUS
10
154.024
20
-64.4397
11
153.991
21
-64.4614
0
LINE
8
BLACK
6
CONTINUOUS
10
153.991
20
-64.4614
11
153.953
21
-64.469
0
LINE
8
BLACK
6
CONTINUOUS
10
153.953
20
-64.469
11
152.678
21
-64.469
0
LINE
8
BLACK
6
CONTINUOUS
10
152.678
20
-64.469
11
152.64
21
-64.4614
0
LINE
8
BLACK
6
CONTINUOUS
10
152.64
20
-64.4614
11
152.607
21
-64.4397
0
LINE
8
BLACK
6
CONTINUOUS
10
152.607
20
-64.4397
11
152.586
21
-64.4073
0
LINE
8
BLACK
6
CONTINUOUS
10
152.586
20
-64.4073
11
152.578
21
-64.369
0
LINE
8
BLACK
6
CONTINUOUS
10
152.578
20
-64.369
11
152.578
21
-64.169
0
LINE
8
BLACK
6
CONTINUOUS
10
152.578
20
-64.169
11
152.586
21
-64.1307
0
LINE
8
BLACK
6
CONTINUOUS
10
152.586
20
-64.1307
11
152.607
21
-64.0983
0
LINE
8
BLACK
6
CONTINUOUS
10
152.607
20
-64.0983
11
152.64
21
-64.0766
0
LINE
8
BLACK
6
CONTINUOUS
10
152.64
20
-64.0766
11
152.678
21
-64.069
0
LINE
8
BLACK
6
CONTINUOUS
10
152.678
20
-64.069
11
153.953
21
-64.069
0
LINE
8
BLACK
6
CONTINUOUS
10
153.953
20
-64.069
11
153.991
21
-64.0766
0
LINE
8
BLACK
6
CONTINUOUS
10
159.716
20
-63.4266
11
159.749
21
-63.4483
0
LINE
8
BLACK
6
CONTINUOUS
10
159.749
20
-63.4483
11
159.77
21
-63.4807
0
LINE
8
BLACK
6
CONTINUOUS
10
159.77
20
-63.4807
11
159.778
21
-63.519
0
LINE
8
BLACK
6
CONTINUOUS
10
159.778
20
-63.519
11
159.778
21
-63.719
0
LINE
8
BLACK
6
CONTINUOUS
10
159.778
20
-63.719
11
159.77
21
-63.7573
0
LINE
8
BLACK
6
CONTINUOUS
10
159.77
20
-63.7573
11
159.749
21
-63.7897
0
LINE
8
BLACK
6
CONTINUOUS
10
159.749
20
-63.7897
11
159.716
21
-63.8114
0
LINE
8
BLACK
6
CONTINUOUS
10
159.716
20
-63.8114
11
159.678
21
-63.819
0
LINE
8
BLACK
6
CONTINUOUS
10
159.678
20
-63.819
11
158.403
21
-63.819
0
LINE
8
BLACK
6
CONTINUOUS
10
158.403
20
-63.819
11
158.365
21
-63.8114
0
LINE
8
BLACK
6
CONTINUOUS
10
158.365
20
-63.8114
11
158.332
21
-63.7897
0
LINE
8
BLACK
6
CONTINUOUS
10
158.332
20
-63.7897
11
158.311
21
-63.7573
0
LINE
8
BLACK
6
CONTINUOUS
10
158.311
20
-63.7573
11
158.303
21
-63.719
0
LINE
8
BLACK
6
CONTINUOUS
10
158.303
20
-63.719
11
158.303
21
-63.519
0
LINE
8
BLACK
6
CONTINUOUS
10
158.303
20
-63.519
11
158.311
21
-63.4807
0
LINE
8
BLACK
6
CONTINUOUS
10
158.311
20
-63.4807
11
158.332
21
-63.4483
0
LINE
8
BLACK
6
CONTINUOUS
10
158.332
20
-63.4483
11
158.365
21
-63.4266
0
LINE
8
BLACK
6
CONTINUOUS
10
158.365
20
-63.4266
11
158.403
21
-63.419
0
LINE
8
BLACK
6
CONTINUOUS
10
158.403
20
-63.419
11
159.678
21
-63.419
0
LINE
8
BLACK
6
CONTINUOUS
10
159.678
20
-63.419
11
159.716
21
-63.4266
0
LINE
8
BLACK
6
CONTINUOUS
10
153.991
20
-63.4266
11
154.024
21
-63.4483
0
LINE
8
BLACK
6
CONTINUOUS
10
154.024
20
-63.4483
11
154.045
21
-63.4807
0
LINE
8
BLACK
6
CONTINUOUS
10
154.045
20
-63.4807
11
154.053
21
-63.519
0
LINE
8
BLACK
6
CONTINUOUS
10
154.053
20
-63.519
11
154.053
21
-63.719
0
LINE
8
BLACK
6
CONTINUOUS
10
154.053
20
-63.719
11
154.045
21
-63.7573
0
LINE
8
BLACK
6
CONTINUOUS
10
154.045
20
-63.7573
11
154.024
21
-63.7897
0
LINE
8
BLACK
6
CONTINUOUS
10
154.024
20
-63.7897
11
153.991
21
-63.8114
0
LINE
8
BLACK
6
CONTINUOUS
10
153.991
20
-63.8114
11
153.953
21
-63.819
0
LINE
8
BLACK
6
CONTINUOUS
10
153.953
20
-63.819
11
152.678
21
-63.819
0
LINE
8
BLACK
6
CONTINUOUS
10
152.678
20
-63.819
11
152.64
21
-63.8114
0
LINE
8
BLACK
6
CONTINUOUS
10
152.64
20
-63.8114
11
152.607
21
-63.7897
0
LINE
8
BLACK
6
CONTINUOUS
10
152.607
20
-63.7897
11
152.586
21
-63.7573
0
LINE
8
BLACK
6
CONTINUOUS
10
152.586
20
-63.7573
11
152.578
21
-63.719
0
LINE
8
BLACK
6
CONTINUOUS
10
152.578
20
-63.719
11
152.578
21
-63.519
0
LINE
8
BLACK
6
CONTINUOUS
10
152.578
20
-63.519
11
152.586
21
-63.4807
0
LINE
8
BLACK
6
CONTINUOUS
10
152.586
20
-63.4807
11
152.607
21
-63.4483
0
LINE
8
BLACK
6
CONTINUOUS
10
152.607
20
-63.4483
11
152.64
21
-63.4266
0
LINE
8
BLACK
6
CONTINUOUS
10
152.64
20
-63.4266
11
152.678
21
-63.419
0
LINE
8
BLACK
6
CONTINUOUS
10
152.678
20
-63.419
11
153.953
21
-63.419
0
LINE
8
BLACK
6
CONTINUOUS
10
153.953
20
-63.419
11
153.991
21
-63.4266
0
LINE
8
BLACK
6
CONTINUOUS
10
159.716
20
-62.7766
11
159.749
21
-62.7983
0
LINE
8
BLACK
6
CONTINUOUS
10
159.749
20
-62.7983
11
159.77
21
-62.8307
0
LINE
8
BLACK
6
CONTINUOUS
10
159.77
20
-62.8307
11
159.778
21
-62.869
0
LINE
8
BLACK
6
CONTINUOUS
10
159.778
20
-62.869
11
159.778
21
-63.069
0
LINE
8
BLACK
6
CONTINUOUS
10
159.778
20
-63.069
11
159.77
21
-63.1073
0
LINE
8
BLACK
6
CONTINUOUS
10
159.77
20
-63.1073
11
159.749
21
-63.1397
0
LINE
8
BLACK
6
CONTINUOUS
10
159.749
20
-63.1397
11
159.716
21
-63.1614
0
LINE
8
BLACK
6
CONTINUOUS
10
159.716
20
-63.1614
11
159.678
21
-63.169
0
LINE
8
BLACK
6
CONTINUOUS
10
159.678
20
-63.169
11
158.403
21
-63.169
0
LINE
8
BLACK
6
CONTINUOUS
10
158.403
20
-63.169
11
158.365
21
-63.1614
0
LINE
8
BLACK
6
CONTINUOUS
10
158.365
20
-63.1614
11
158.332
21
-63.1397
0
LINE
8
BLACK
6
CONTINUOUS
10
158.332
20
-63.1397
11
158.311
21
-63.1073
0
LINE
8
BLACK
6
CONTINUOUS
10
158.311
20
-63.1073
11
158.303
21
-63.069
0
LINE
8
BLACK
6
CONTINUOUS
10
158.303
20
-63.069
11
158.303
21
-62.869
0
LINE
8
BLACK
6
CONTINUOUS
10
158.303
20
-62.869
11
158.311
21
-62.8307
0
LINE
8
BLACK
6
CONTINUOUS
10
158.311
20
-62.8307
11
158.332
21
-62.7983
0
LINE
8
BLACK
6
CONTINUOUS
10
158.332
20
-62.7983
11
158.365
21
-62.7766
0
LINE
8
BLACK
6
CONTINUOUS
10
158.365
20
-62.7766
11
158.403
21
-62.769
0
LINE
8
BLACK
6
CONTINUOUS
10
158.403
20
-62.769
11
159.678
21
-62.769
0
LINE
8
BLACK
6
CONTINUOUS
10
159.678
20
-62.769
11
159.716
21
-62.7766
0
LINE
8
BLACK
6
CONTINUOUS
10
153.991
20
-62.7766
11
154.024
21
-62.7983
0
LINE
8
BLACK
6
CONTINUOUS
10
154.024
20
-62.7983
11
154.045
21
-62.8307
0
LINE
8
BLACK
6
CONTINUOUS
10
154.045
20
-62.8307
11
154.053
21
-62.869
0
LINE
8
BLACK
6
CONTINUOUS
10
154.053
20
-62.869
11
154.053
21
-63.069
0
LINE
8
BLACK
6
CONTINUOUS
10
154.053
20
-63.069
11
154.045
21
-63.1073
0
LINE
8
BLACK
6
CONTINUOUS
10
154.045
20
-63.1073
11
154.024
21
-63.1397
0
LINE
8
BLACK
6
CONTINUOUS
10
154.024
20
-63.1397
11
153.991
21
-63.1614
0
LINE
8
BLACK
6
CONTINUOUS
10
153.991
20
-63.1614
11
153.953
21
-63.169
0
LINE
8
BLACK
6
CONTINUOUS
10
153.953
20
-63.169
11
152.678
21
-63.169
0
LINE
8
BLACK
6
CONTINUOUS
10
152.678
20
-63.169
11
152.64
21
-63.1614
0
LINE
8
BLACK
6
CONTINUOUS
10
152.64
20
-63.1614
11
152.607
21
-63.1397
0
LINE
8
BLACK
6
CONTINUOUS
10
152.607
20
-63.1397
11
152.586
21
-63.1073
0
LINE
8
BLACK
6
CONTINUOUS
10
152.586
20
-63.1073
11
152.578
21
-63.069
0
LINE
8
BLACK
6
CONTINUOUS
10
152.578
20
-63.069
11
152.578
21
-62.869
0
LINE
8
BLACK
6
CONTINUOUS
10
152.578
20
-62.869
11
152.586
21
-62.8307
0
LINE
8
BLACK
6
CONTINUOUS
10
152.586
20
-62.8307
11
152.607
21
-62.7983
0
LINE
8
BLACK
6
CONTINUOUS
10
152.607
20
-62.7983
11
152.64
21
-62.7766
0
LINE
8
BLACK
6
CONTINUOUS
10
152.64
20
-62.7766
11
152.678
21
-62.769
0
LINE
8
BLACK
6
CONTINUOUS
10
152.678
20
-62.769
11
153.953
21
-62.769
0
LINE
8
BLACK
6
CONTINUOUS
10
153.953
20
-62.769
11
153.991
21
-62.7766
0
LINE
8
BLACK
6
CONTINUOUS
10
159.716
20
-62.1266
11
159.749
21
-62.1483
0
LINE
8
BLACK
6
CONTINUOUS
10
159.749
20
-62.1483
11
159.77
21
-62.1807
0
LINE
8
BLACK
6
CONTINUOUS
10
159.77
20
-62.1807
11
159.778
21
-62.219
0
LINE
8
BLACK
6
CONTINUOUS
10
159.778
20
-62.219
11
159.778
21
-62.419
0
LINE
8
BLACK
6
CONTINUOUS
10
159.778
20
-62.419
11
159.77
21
-62.4573
0
LINE
8
BLACK
6
CONTINUOUS
10
159.77
20
-62.4573
11
159.749
21
-62.4897
0
LINE
8
BLACK
6
CONTINUOUS
10
159.749
20
-62.4897
11
159.716
21
-62.5114
0
LINE
8
BLACK
6
CONTINUOUS
10
159.716
20
-62.5114
11
159.678
21
-62.519
0
LINE
8
BLACK
6
CONTINUOUS
10
159.678
20
-62.519
11
158.403
21
-62.519
0
LINE
8
BLACK
6
CONTINUOUS
10
158.403
20
-62.519
11
158.365
21
-62.5114
0
LINE
8
BLACK
6
CONTINUOUS
10
158.365
20
-62.5114
11
158.332
21
-62.4897
0
LINE
8
BLACK
6
CONTINUOUS
10
158.332
20
-62.4897
11
158.311
21
-62.4573
0
LINE
8
BLACK
6
CONTINUOUS
10
158.311
20
-62.4573
11
158.303
21
-62.419
0
LINE
8
BLACK
6
CONTINUOUS
10
158.303
20
-62.419
11
158.303
21
-62.219
0
LINE
8
BLACK
6
CONTINUOUS
10
158.303
20
-62.219
11
158.311
21
-62.1807
0
LINE
8
BLACK
6
CONTINUOUS
10
158.311
20
-62.1807
11
158.332
21
-62.1483
0
LINE
8
BLACK
6
CONTINUOUS
10
158.332
20
-62.1483
11
158.365
21
-62.1266
0
LINE
8
BLACK
6
CONTINUOUS
10
158.365
20
-62.1266
11
158.403
21
-62.119
0
LINE
8
BLACK
6
CONTINUOUS
10
158.403
20
-62.119
11
159.678
21
-62.119
0
LINE
8
BLACK
6
CONTINUOUS
10
159.678
20
-62.119
11
159.716
21
-62.1266
0
LINE
8
BLACK
6
CONTINUOUS
10
153.991
20
-62.1266
11
154.024
21
-62.1483
0
LINE
8
BLACK
6
CONTINUOUS
10
154.024
20
-62.1483
11
154.045
21
-62.1807
0
LINE
8
BLACK
6
CONTINUOUS
10
154.045
20
-62.1807
11
154.053
21
-62.219
0
LINE
8
BLACK
6
CONTINUOUS
10
154.053
20
-62.219
11
154.053
21
-62.419
0
LINE
8
BLACK
6
CONTINUOUS
10
154.053
20
-62.419
11
154.045
21
-62.4573
0
LINE
8
BLACK
6
CONTINUOUS
10
154.045
20
-62.4573
11
154.024
21
-62.4897
0
LINE
8
BLACK
6
CONTINUOUS
10
154.024
20
-62.4897
11
153.991
21
-62.5114
0
LINE
8
BLACK
6
CONTINUOUS
10
153.991
20
-62.5114
11
153.953
21
-62.519
0
LINE
8
BLACK
6
CONTINUOUS
10
153.953
20
-62.519
11
152.678
21
-62.519
0
LINE
8
BLACK
6
CONTINUOUS
10
152.678
20
-62.519
11
152.64
21
-62.5114
0
LINE
8
BLACK
6
CONTINUOUS
10
152.64
20
-62.5114
11
152.607
21
-62.4897
0
LINE
8
BLACK
6
CONTINUOUS
10
152.607
20
-62.4897
11
152.586
21
-62.4573
0
LINE
8
BLACK
6
CONTINUOUS
10
152.586
20
-62.4573
11
152.578
21
-62.419
0
LINE
8
BLACK
6
CONTINUOUS
10
152.578
20
-62.419
11
152.578
21
-62.219
0
LINE
8
BLACK
6
CONTINUOUS
10
152.578
20
-62.219
11
152.586
21
-62.1807
0
LINE
8
BLACK
6
CONTINUOUS
10
152.586
20
-62.1807
11
152.607
21
-62.1483
0
LINE
8
BLACK
6
CONTINUOUS
10
152.607
20
-62.1483
11
152.64
21
-62.1266
0
LINE
8
BLACK
6
CONTINUOUS
10
152.64
20
-62.1266
11
152.678
21
-62.119
0
LINE
8
BLACK
6
CONTINUOUS
10
152.678
20
-62.119
11
153.953
21
-62.119
0
LINE
8
BLACK
6
CONTINUOUS
10
153.953
20
-62.119
11
153.991
21
-62.1266
0
LINE
8
BLACK
6
CONTINUOUS
10
159.716
20
-61.4766
11
159.749
21
-61.4983
0
LINE
8
BLACK
6
CONTINUOUS
10
159.749
20
-61.4983
11
159.77
21
-61.5307
0
LINE
8
BLACK
6
CONTINUOUS
10
159.77
20
-61.5307
11
159.778
21
-61.569
0
LINE
8
BLACK
6
CONTINUOUS
10
159.778
20
-61.569
11
159.778
21
-61.769
0
LINE
8
BLACK
6
CONTINUOUS
10
159.778
20
-61.769
11
159.77
21
-61.8073
0
LINE
8
BLACK
6
CONTINUOUS
10
159.77
20
-61.8073
11
159.749
21
-61.8397
0
LINE
8
BLACK
6
CONTINUOUS
10
159.749
20
-61.8397
11
159.716
21
-61.8614
0
LINE
8
BLACK
6
CONTINUOUS
10
159.716
20
-61.8614
11
159.678
21
-61.869
0
LINE
8
BLACK
6
CONTINUOUS
10
159.678
20
-61.869
11
158.403
21
-61.869
0
LINE
8
BLACK
6
CONTINUOUS
10
158.403
20
-61.869
11
158.365
21
-61.8614
0
LINE
8
BLACK
6
CONTINUOUS
10
158.365
20
-61.8614
11
158.332
21
-61.8397
0
LINE
8
BLACK
6
CONTINUOUS
10
158.332
20
-61.8397
11
158.311
21
-61.8073
0
LINE
8
BLACK
6
CONTINUOUS
10
158.311
20
-61.8073
11
158.303
21
-61.769
0
LINE
8
BLACK
6
CONTINUOUS
10
158.303
20
-61.769
11
158.303
21
-61.569
0
LINE
8
BLACK
6
CONTINUOUS
10
158.303
20
-61.569
11
158.311
21
-61.5307
0
LINE
8
BLACK
6
CONTINUOUS
10
158.311
20
-61.5307
11
158.332
21
-61.4983
0
LINE
8
BLACK
6
CONTINUOUS
10
158.332
20
-61.4983
11
158.365
21
-61.4766
0
LINE
8
BLACK
6
CONTINUOUS
10
158.365
20
-61.4766
11
158.403
21
-61.469
0
LINE
8
BLACK
6
CONTINUOUS
10
158.403
20
-61.469
11
159.678
21
-61.469
0
LINE
8
BLACK
6
CONTINUOUS
10
159.678
20
-61.469
11
159.716
21
-61.4766
0
LINE
8
BLACK
6
CONTINUOUS
10
153.991
20
-61.4766
11
154.024
21
-61.4983
0
LINE
8
BLACK
6
CONTINUOUS
10
154.024
20
-61.4983
11
154.045
21
-61.5307
0
LINE
8
BLACK
6
CONTINUOUS
10
154.045
20
-61.5307
11
154.053
21
-61.569
0
LINE
8
BLACK
6
CONTINUOUS
10
154.053
20
-61.569
11
154.053
21
-61.769
0
LINE
8
BLACK
6
CONTINUOUS
10
154.053
20
-61.769
11
154.045
21
-61.8073
0
LINE
8
BLACK
6
CONTINUOUS
10
154.045
20
-61.8073
11
154.024
21
-61.8397
0
LINE
8
BLACK
6
CONTINUOUS
10
154.024
20
-61.8397
11
153.991
21
-61.8614
0
LINE
8
BLACK
6
CONTINUOUS
10
153.991
20
-61.8614
11
153.953
21
-61.869
0
LINE
8
BLACK
6
CONTINUOUS
10
153.953
20
-61.869
11
152.678
21
-61.869
0
LINE
8
BLACK
6
CONTINUOUS
10
152.678
20
-61.869
11
152.64
21
-61.8614
0
LINE
8
BLACK
6
CONTINUOUS
10
152.64
20
-61.8614
11
152.607
21
-61.8397
0
LINE
8
BLACK
6
CONTINUOUS
10
152.607
20
-61.8397
11
152.586
21
-61.8073
0
LINE
8
BLACK
6
CONTINUOUS
10
152.586
20
-61.8073
11
152.578
21
-61.769
0
LINE
8
BLACK
6
CONTINUOUS
10
152.578
20
-61.769
11
152.578
21
-61.569
0
LINE
8
BLACK
6
CONTINUOUS
10
152.578
20
-61.569
11
152.586
21
-61.5307
0
LINE
8
BLACK
6
CONTINUOUS
10
152.586
20
-61.5307
11
152.607
21
-61.4983
0
LINE
8
BLACK
6
CONTINUOUS
10
152.607
20
-61.4983
11
152.64
21
-61.4766
0
LINE
8
BLACK
6
CONTINUOUS
10
152.64
20
-61.4766
11
152.678
21
-61.469
0
LINE
8
BLACK
6
CONTINUOUS
10
152.678
20
-61.469
11
153.953
21
-61.469
0
LINE
8
BLACK
6
CONTINUOUS
10
153.953
20
-61.469
11
153.991
21
-61.4766
0
LINE
8
BLACK
6
CONTINUOUS
10
157.797
20
-58.127
11
157.878
21
-58.1812
0
LINE
8
BLACK
6
CONTINUOUS
10
157.878
20
-58.1812
11
157.932
21
-58.2623
0
LINE
8
BLACK
6
CONTINUOUS
10
157.932
20
-58.2623
11
157.951
21
-58.358
0
LINE
8
BLACK
6
CONTINUOUS
10
157.951
20
-58.358
11
157.951
21
-58.858
0
LINE
8
BLACK
6
CONTINUOUS
10
157.951
20
-58.858
11
157.932
21
-58.9537
0
LINE
8
BLACK
6
CONTINUOUS
10
157.932
20
-58.9537
11
157.878
21
-59.0348
0
LINE
8
BLACK
6
CONTINUOUS
10
157.878
20
-59.0348
11
157.797
21
-59.089
0
LINE
8
BLACK
6
CONTINUOUS
10
157.797
20
-59.089
11
157.701
21
-59.108
0
LINE
8
BLACK
6
CONTINUOUS
10
157.701
20
-59.108
11
156.751
21
-59.108
0
LINE
8
BLACK
6
CONTINUOUS
10
156.751
20
-59.108
11
156.655
21
-59.089
0
LINE
8
BLACK
6
CONTINUOUS
10
156.655
20
-59.089
11
156.574
21
-59.0348
0
LINE
8
BLACK
6
CONTINUOUS
10
156.574
20
-59.0348
11
156.52
21
-58.9537
0
LINE
8
BLACK
6
CONTINUOUS
10
156.52
20
-58.9537
11
156.501
21
-58.858
0
LINE
8
BLACK
6
CONTINUOUS
10
156.501
20
-58.858
11
156.501
21
-58.358
0
LINE
8
BLACK
6
CONTINUOUS
10
156.501
20
-58.358
11
156.52
21
-58.2623
0
LINE
8
BLACK
6
CONTINUOUS
10
156.52
20
-58.2623
11
156.574
21
-58.1812
0
LINE
8
BLACK
6
CONTINUOUS
10
156.574
20
-58.1812
11
156.655
21
-58.127
0
LINE
8
BLACK
6
CONTINUOUS
10
156.655
20
-58.127
11
156.751
21
-58.108
0
LINE
8
BLACK
6
CONTINUOUS
10
156.751
20
-58.108
11
157.701
21
-58.108
0
LINE
8
BLACK
6
CONTINUOUS
10
157.701
20
-58.108
11
157.797
21
-58.127
0
LINE
8
BLACK
6
CONTINUOUS
10
154.495
20
-58.127
11
154.576
21
-58.1812
0
LINE
8
BLACK
6
CONTINUOUS
10
154.576
20
-58.1812
11
154.63
21
-58.2623
0
LINE
8
BLACK
6
CONTINUOUS
10
154.63
20
-58.2623
11
154.649
21
-58.358
0
LINE
8
BLACK
6
CONTINUOUS
10
154.649
20
-58.358
11
154.649
21
-58.858
0
LINE
8
BLACK
6
CONTINUOUS
10
154.649
20
-58.858
11
154.63
21
-58.9537
0
LINE
8
BLACK
6
CONTINUOUS
10
154.63
20
-58.9537
11
154.576
21
-59.0348
0
LINE
8
BLACK
6
CONTINUOUS
10
154.576
20
-59.0348
11
154.495
21
-59.089
0
LINE
8
BLACK
6
CONTINUOUS
10
154.495
20
-59.089
11
154.399
21
-59.108
0
LINE
8
BLACK
6
CONTINUOUS
10
154.399
20
-59.108
11
153.449
21
-59.108
0
LINE
8
BLACK
6
CONTINUOUS
10
153.449
20
-59.108
11
153.353
21
-59.089
0
LINE
8
BLACK
6
CONTINUOUS
10
153.353
20
-59.089
11
153.272
21
-59.0348
0
LINE
8
BLACK
6
CONTINUOUS
10
153.272
20
-59.0348
11
153.218
21
-58.9537
0
LINE
8
BLACK
6
CONTINUOUS
10
153.218
20
-58.9537
11
153.199
21
-58.858
0
LINE
8
BLACK
6
CONTINUOUS
10
153.199
20
-58.858
11
153.199
21
-58.358
0
LINE
8
BLACK
6
CONTINUOUS
10
153.199
20
-58.358
11
153.218
21
-58.2623
0
LINE
8
BLACK
6
CONTINUOUS
10
153.218
20
-58.2623
11
153.272
21
-58.1812
0
LINE
8
BLACK
6
CONTINUOUS
10
153.272
20
-58.1812
11
153.353
21
-58.127
0
LINE
8
BLACK
6
CONTINUOUS
10
153.353
20
-58.127
11
153.449
21
-58.108
0
LINE
8
BLACK
6
CONTINUOUS
10
153.449
20
-58.108
11
154.399
21
-58.108
0
LINE
8
BLACK
6
CONTINUOUS
10
154.399
20
-58.108
11
154.495
21
-58.127
0
LINE
8
BLACK
6
CONTINUOUS
10
157.797
20
-56.227
11
157.878
21
-56.2812
0
LINE
8
BLACK
6
CONTINUOUS
10
157.878
20
-56.2812
11
157.932
21
-56.3623
0
LINE
8
BLACK
6
CONTINUOUS
10
157.932
20
-56.3623
11
157.951
21
-56.458
0
LINE
8
BLACK
6
CONTINUOUS
10
157.951
20
-56.458
11
157.951
21
-56.958
0
LINE
8
BLACK
6
CONTINUOUS
10
157.951
20
-56.958
11
157.932
21
-57.0537
0
LINE
8
BLACK
6
CONTINUOUS
10
157.932
20
-57.0537
11
157.878
21
-57.1348
0
LINE
8
BLACK
6
CONTINUOUS
10
157.878
20
-57.1348
11
157.797
21
-57.189
0
LINE
8
BLACK
6
CONTINUOUS
10
157.797
20
-57.189
11
157.701
21
-57.208
0
LINE
8
BLACK
6
CONTINUOUS
10
157.701
20
-57.208
11
156.751
21
-57.208
0
LINE
8
BLACK
6
CONTINUOUS
10
156.751
20
-57.208
11
156.655
21
-57.189
0
LINE
8
BLACK
6
CONTINUOUS
10
156.655
20
-57.189
11
156.574
21
-57.1348
0
LINE
8
BLACK
6
CONTINUOUS
10
156.574
20
-57.1348
11
156.52
21
-57.0537
0
LINE
8
BLACK
6
CONTINUOUS
10
156.52
20
-57.0537
11
156.501
21
-56.958
0
LINE
8
BLACK
6
CONTINUOUS
10
156.501
20
-56.958
11
156.501
21
-56.458
0
LINE
8
BLACK
6
CONTINUOUS
10
156.501
20
-56.458
11
156.52
21
-56.3623
0
LINE
8
BLACK
6
CONTINUOUS
10
156.52
20
-56.3623
11
156.574
21
-56.2812
0
LINE
8
BLACK
6
CONTINUOUS
10
156.574
20
-56.2812
11
156.655
21
-56.227
0
LINE
8
BLACK
6
CONTINUOUS
10
156.655
20
-56.227
11
156.751
21
-56.208
0
LINE
8
BLACK
6
CONTINUOUS
10
156.751
20
-56.208
11
157.701
21
-56.208
0
LINE
8
BLACK
6
CONTINUOUS
10
157.701
20
-56.208
11
157.797
21
-56.227
0
LINE
8
BLACK
6
CONTINUOUS
10
154.495
20
-56.227
11
154.576
21
-56.2812
0
LINE
8
BLACK
6
CONTINUOUS
10
154.576
20
-56.2812
11
154.63
21
-56.3623
0
LINE
8
BLACK
6
CONTINUOUS
10
154.63
20
-56.3623
11
154.649
21
-56.458
0
LINE
8
BLACK
6
CONTINUOUS
10
154.649
20
-56.458
11
154.649
21
-56.958
0
LINE
8
BLACK
6
CONTINUOUS
10
154.649
20
-56.958
11
154.63
21
-57.0537
0
LINE
8
BLACK
6
CONTINUOUS
10
154.63
20
-57.0537
11
154.576
21
-57.1348
0
LINE
8
BLACK
6
CONTINUOUS
10
154.576
20
-57.1348
11
154.495
21
-57.189
0
LINE
8
BLACK
6
CONTINUOUS
10
154.495
20
-57.189
11
154.399
21
-57.208
0
LINE
8
BLACK
6
CONTINUOUS
10
154.399
20
-57.208
11
153.449
21
-57.208
0
LINE
8
BLACK
6
CONTINUOUS
10
153.449
20
-57.208
11
153.353
21
-57.189
0
LINE
8
BLACK
6
CONTINUOUS
10
153.353
20
-57.189
11
153.272
21
-57.1348
0
LINE
8
BLACK
6
CONTINUOUS
10
153.272
20
-57.1348
11
153.218
21
-57.0537
0
LINE
8
BLACK
6
CONTINUOUS
10
153.218
20
-57.0537
11
153.199
21
-56.958
0
LINE
8
BLACK
6
CONTINUOUS
10
153.199
20
-56.958
11
153.199
21
-56.458
0
LINE
8
BLACK
6
CONTINUOUS
10
153.199
20
-56.458
11
153.218
21
-56.3623
0
LINE
8
BLACK
6
CONTINUOUS
10
153.218
20
-56.3623
11
153.272
21
-56.2812
0
LINE
8
BLACK
6
CONTINUOUS
10
153.272
20
-56.2812
11
153.353
21
-56.227
0
LINE
8
BLACK
6
CONTINUOUS
10
153.353
20
-56.227
11
153.449
21
-56.208
0
LINE
8
BLACK
6
CONTINUOUS
10
153.449
20
-56.208
11
154.399
21
-56.208
0
LINE
8
BLACK
6
CONTINUOUS
10
154.399
20
-56.208
11
154.495
21
-56.227
0
LINE
8
BLACK
6
CONTINUOUS
10
154.495
20
-54.317
11
154.576
21
-54.3712
0
LINE
8
BLACK
6
CONTINUOUS
10
154.576
20
-54.3712
11
154.63
21
-54.4523
0
LINE
8
BLACK
6
CONTINUOUS
10
154.63
20
-54.4523
11
154.649
21
-54.548
0
LINE
8
BLACK
6
CONTINUOUS
10
154.649
20
-54.548
11
154.649
21
-55.048
0
LINE
8
BLACK
6
CONTINUOUS
10
154.649
20
-55.048
11
154.63
21
-55.1437
0
LINE
8
BLACK
6
CONTINUOUS
10
154.63
20
-55.1437
11
154.576
21
-55.2248
0
LINE
8
BLACK
6
CONTINUOUS
10
154.576
20
-55.2248
11
154.495
21
-55.279
0
LINE
8
BLACK
6
CONTINUOUS
10
154.495
20
-55.279
11
154.399
21
-55.298
0
LINE
8
BLACK
6
CONTINUOUS
10
154.399
20
-55.298
11
153.449
21
-55.298
0
LINE
8
BLACK
6
CONTINUOUS
10
153.449
20
-55.298
11
153.353
21
-55.279
0
LINE
8
BLACK
6
CONTINUOUS
10
153.353
20
-55.279
11
153.272
21
-55.2248
0
LINE
8
BLACK
6
CONTINUOUS
10
153.272
20
-55.2248
11
153.218
21
-55.1437
0
LINE
8
BLACK
6
CONTINUOUS
10
153.218
20
-55.1437
11
153.199
21
-55.048
0
LINE
8
BLACK
6
CONTINUOUS
10
153.199
20
-55.048
11
153.199
21
-54.548
0
LINE
8
BLACK
6
CONTINUOUS
10
153.199
20
-54.548
11
153.218
21
-54.4523
0
LINE
8
BLACK
6
CONTINUOUS
10
153.218
20
-54.4523
11
153.272
21
-54.3712
0
LINE
8
BLACK
6
CONTINUOUS
10
153.272
20
-54.3712
11
153.353
21
-54.317
0
LINE
8
BLACK
6
CONTINUOUS
10
153.353
20
-54.317
11
153.449
21
-54.298
0
LINE
8
BLACK
6
CONTINUOUS
10
153.449
20
-54.298
11
154.399
21
-54.298
0
LINE
8
BLACK
6
CONTINUOUS
10
154.399
20
-54.298
11
154.495
21
-54.317
0
LINE
8
BLACK
6
CONTINUOUS
10
154.495
20
-52.417
11
154.576
21
-52.4712
0
LINE
8
BLACK
6
CONTINUOUS
10
154.576
20
-52.4712
11
154.63
21
-52.5523
0
LINE
8
BLACK
6
CONTINUOUS
10
154.63
20
-52.5523
11
154.649
21
-52.648
0
LINE
8
BLACK
6
CONTINUOUS
10
154.649
20
-52.648
11
154.649
21
-53.148
0
LINE
8
BLACK
6
CONTINUOUS
10
154.649
20
-53.148
11
154.63
21
-53.2437
0
LINE
8
BLACK
6
CONTINUOUS
10
154.63
20
-53.2437
11
154.576
21
-53.3248
0
LINE
8
BLACK
6
CONTINUOUS
10
154.576
20
-53.3248
11
154.495
21
-53.379
0
LINE
8
BLACK
6
CONTINUOUS
10
154.495
20
-53.379
11
154.399
21
-53.398
0
LINE
8
BLACK
6
CONTINUOUS
10
154.399
20
-53.398
11
153.449
21
-53.398
0
LINE
8
BLACK
6
CONTINUOUS
10
153.449
20
-53.398
11
153.353
21
-53.379
0
LINE
8
BLACK
6
CONTINUOUS
10
153.353
20
-53.379
11
153.272
21
-53.3248
0
LINE
8
BLACK
6
CONTINUOUS
10
153.272
20
-53.3248
11
153.218
21
-53.2437
0
LINE
8
BLACK
6
CONTINUOUS
10
153.218
20
-53.2437
11
153.199
21
-53.148
0
LINE
8
BLACK
6
CONTINUOUS
10
153.199
20
-53.148
11
153.199
21
-52.648
0
LINE
8
BLACK
6
CONTINUOUS
10
153.199
20
-52.648
11
153.218
21
-52.5523
0
LINE
8
BLACK
6
CONTINUOUS
10
153.218
20
-52.5523
11
153.272
21
-52.4712
0
LINE
8
BLACK
6
CONTINUOUS
10
153.272
20
-52.4712
11
153.353
21
-52.417
0
LINE
8
BLACK
6
CONTINUOUS
10
153.353
20
-52.417
11
153.449
21
-52.398
0
LINE
8
BLACK
6
CONTINUOUS
10
153.449
20
-52.398
11
154.399
21
-52.398
0
LINE
8
BLACK
6
CONTINUOUS
10
154.399
20
-52.398
11
154.495
21
-52.417
0
LINE
8
BLACK
6
CONTINUOUS
10
157.772
20
-50.203
11
157.853
21
-50.2572
0
LINE
8
BLACK
6
CONTINUOUS
10
157.853
20
-50.2572
11
157.907
21
-50.3383
0
LINE
8
BLACK
6
CONTINUOUS
10
157.907
20
-50.3383
11
157.926
21
-50.434
0
LINE
8
BLACK
6
CONTINUOUS
10
157.926
20
-50.434
11
157.926
21
-50.959
0
LINE
8
BLACK
6
CONTINUOUS
10
157.926
20
-50.959
11
157.907
21
-51.0547
0
LINE
8
BLACK
6
CONTINUOUS
10
157.907
20
-51.0547
11
157.853
21
-51.1358
0
LINE
8
BLACK
6
CONTINUOUS
10
157.853
20
-51.1358
11
157.772
21
-51.19
0
LINE
8
BLACK
6
CONTINUOUS
10
157.772
20
-51.19
11
157.676
21
-51.209
0
LINE
8
BLACK
6
CONTINUOUS
10
157.676
20
-51.209
11
156.776
21
-51.209
0
LINE
8
BLACK
6
CONTINUOUS
10
156.776
20
-51.209
11
156.68
21
-51.19
0
LINE
8
BLACK
6
CONTINUOUS
10
156.68
20
-51.19
11
156.599
21
-51.1358
0
LINE
8
BLACK
6
CONTINUOUS
10
156.599
20
-51.1358
11
156.545
21
-51.0547
0
LINE
8
BLACK
6
CONTINUOUS
10
156.545
20
-51.0547
11
156.526
21
-50.959
0
LINE
8
BLACK
6
CONTINUOUS
10
156.526
20
-50.959
11
156.526
21
-50.434
0
LINE
8
BLACK
6
CONTINUOUS
10
156.526
20
-50.434
11
156.545
21
-50.3383
0
LINE
8
BLACK
6
CONTINUOUS
10
156.545
20
-50.3383
11
156.599
21
-50.2572
0
LINE
8
BLACK
6
CONTINUOUS
10
156.599
20
-50.2572
11
156.68
21
-50.203
0
LINE
8
BLACK
6
CONTINUOUS
10
156.68
20
-50.203
11
156.776
21
-50.184
0
LINE
8
BLACK
6
CONTINUOUS
10
156.776
20
-50.184
11
157.676
21
-50.184
0
LINE
8
BLACK
6
CONTINUOUS
10
157.676
20
-50.184
11
157.772
21
-50.203
0
LINE
8
BLACK
6
CONTINUOUS
10
154.47
20
-50.203
11
154.551
21
-50.2572
0
LINE
8
BLACK
6
CONTINUOUS
10
154.551
20
-50.2572
11
154.605
21
-50.3383
0
LINE
8
BLACK
6
CONTINUOUS
10
154.605
20
-50.3383
11
154.624
21
-50.434
0
LINE
8
BLACK
6
CONTINUOUS
10
154.624
20
-50.434
11
154.624
21
-50.959
0
LINE
8
BLACK
6
CONTINUOUS
10
154.624
20
-50.959
11
154.605
21
-51.0547
0
LINE
8
BLACK
6
CONTINUOUS
10
154.605
20
-51.0547
11
154.551
21
-51.1358
0
LINE
8
BLACK
6
CONTINUOUS
10
154.551
20
-51.1358
11
154.47
21
-51.19
0
LINE
8
BLACK
6
CONTINUOUS
10
154.47
20
-51.19
11
154.374
21
-51.209
0
LINE
8
BLACK
6
CONTINUOUS
10
154.374
20
-51.209
11
153.474
21
-51.209
0
LINE
8
BLACK
6
CONTINUOUS
10
153.474
20
-51.209
11
153.378
21
-51.19
0
LINE
8
BLACK
6
CONTINUOUS
10
153.378
20
-51.19
11
153.297
21
-51.1358
0
LINE
8
BLACK
6
CONTINUOUS
10
153.297
20
-51.1358
11
153.243
21
-51.0547
0
LINE
8
BLACK
6
CONTINUOUS
10
153.243
20
-51.0547
11
153.224
21
-50.959
0
LINE
8
BLACK
6
CONTINUOUS
10
153.224
20
-50.959
11
153.224
21
-50.434
0
LINE
8
BLACK
6
CONTINUOUS
10
153.224
20
-50.434
11
153.243
21
-50.3383
0
LINE
8
BLACK
6
CONTINUOUS
10
153.243
20
-50.3383
11
153.297
21
-50.2572
0
LINE
8
BLACK
6
CONTINUOUS
10
153.297
20
-50.2572
11
153.378
21
-50.203
0
LINE
8
BLACK
6
CONTINUOUS
10
153.378
20
-50.203
11
153.474
21
-50.184
0
LINE
8
BLACK
6
CONTINUOUS
10
153.474
20
-50.184
11
154.374
21
-50.184
0
LINE
8
BLACK
6
CONTINUOUS
10
154.374
20
-50.184
11
154.47
21
-50.203
0
LINE
8
BLACK
6
CONTINUOUS
10
157.772
20
-48.378
11
157.853
21
-48.4322
0
LINE
8
BLACK
6
CONTINUOUS
10
157.853
20
-48.4322
11
157.907
21
-48.5133
0
LINE
8
BLACK
6
CONTINUOUS
10
157.907
20
-48.5133
11
157.926
21
-48.609
0
LINE
8
BLACK
6
CONTINUOUS
10
157.926
20
-48.609
11
157.926
21
-49.134
0
LINE
8
BLACK
6
CONTINUOUS
10
157.926
20
-49.134
11
157.907
21
-49.2297
0
LINE
8
BLACK
6
CONTINUOUS
10
157.907
20
-49.2297
11
157.853
21
-49.3108
0
LINE
8
BLACK
6
CONTINUOUS
10
157.853
20
-49.3108
11
157.772
21
-49.365
0
LINE
8
BLACK
6
CONTINUOUS
10
157.772
20
-49.365
11
157.676
21
-49.384
0
LINE
8
BLACK
6
CONTINUOUS
10
157.676
20
-49.384
11
156.776
21
-49.384
0
LINE
8
BLACK
6
CONTINUOUS
10
156.776
20
-49.384
11
156.68
21
-49.365
0
LINE
8
BLACK
6
CONTINUOUS
10
156.68
20
-49.365
11
156.599
21
-49.3108
0
LINE
8
BLACK
6
CONTINUOUS
10
156.599
20
-49.3108
11
156.545
21
-49.2297
0
LINE
8
BLACK
6
CONTINUOUS
10
156.545
20
-49.2297
11
156.526
21
-49.134
0
LINE
8
BLACK
6
CONTINUOUS
10
156.526
20
-49.134
11
156.526
21
-48.609
0
LINE
8
BLACK
6
CONTINUOUS
10
156.526
20
-48.609
11
156.545
21
-48.5133
0
LINE
8
BLACK
6
CONTINUOUS
10
156.545
20
-48.5133
11
156.599
21
-48.4322
0
LINE
8
BLACK
6
CONTINUOUS
10
156.599
20
-48.4322
11
156.68
21
-48.378
0
LINE
8
BLACK
6
CONTINUOUS
10
156.68
20
-48.378
11
156.776
21
-48.359
0
LINE
8
BLACK
6
CONTINUOUS
10
156.776
20
-48.359
11
157.676
21
-48.359
0
LINE
8
BLACK
6
CONTINUOUS
10
157.676
20
-48.359
11
157.772
21
-48.378
0
LINE
8
BLACK
6
CONTINUOUS
10
154.47
20
-48.378
11
154.551
21
-48.4322
0
LINE
8
BLACK
6
CONTINUOUS
10
154.551
20
-48.4322
11
154.605
21
-48.5133
0
LINE
8
BLACK
6
CONTINUOUS
10
154.605
20
-48.5133
11
154.624
21
-48.609
0
LINE
8
BLACK
6
CONTINUOUS
10
154.624
20
-48.609
11
154.624
21
-49.134
0
LINE
8
BLACK
6
CONTINUOUS
10
154.624
20
-49.134
11
154.605
21
-49.2297
0
LINE
8
BLACK
6
CONTINUOUS
10
154.605
20
-49.2297
11
154.551
21
-49.3108
0
LINE
8
BLACK
6
CONTINUOUS
10
154.551
20
-49.3108
11
154.47
21
-49.365
0
LINE
8
BLACK
6
CONTINUOUS
10
154.47
20
-49.365
11
154.374
21
-49.384
0
LINE
8
BLACK
6
CONTINUOUS
10
154.374
20
-49.384
11
153.474
21
-49.384
0
LINE
8
BLACK
6
CONTINUOUS
10
153.474
20
-49.384
11
153.378
21
-49.365
0
LINE
8
BLACK
6
CONTINUOUS
10
153.378
20
-49.365
11
153.297
21
-49.3108
0
LINE
8
BLACK
6
CONTINUOUS
10
153.297
20
-49.3108
11
153.243
21
-49.2297
0
LINE
8
BLACK
6
CONTINUOUS
10
153.243
20
-49.2297
11
153.224
21
-49.134
0
LINE
8
BLACK
6
CONTINUOUS
10
153.224
20
-49.134
11
153.224
21
-48.609
0
LINE
8
BLACK
6
CONTINUOUS
10
153.224
20
-48.609
11
153.243
21
-48.5133
0
LINE
8
BLACK
6
CONTINUOUS
10
153.243
20
-48.5133
11
153.297
21
-48.4322
0
LINE
8
BLACK
6
CONTINUOUS
10
153.297
20
-48.4322
11
153.378
21
-48.378
0
LINE
8
BLACK
6
CONTINUOUS
10
153.378
20
-48.378
11
153.474
21
-48.359
0
LINE
8
BLACK
6
CONTINUOUS
10
153.474
20
-48.359
11
154.374
21
-48.359
0
LINE
8
BLACK
6
CONTINUOUS
10
154.374
20
-48.359
11
154.47
21
-48.378
0
LINE
8
BLACK
6
CONTINUOUS
10
157.772
20
-46.393
11
157.853
21
-46.4472
0
LINE
8
BLACK
6
CONTINUOUS
10
157.853
20
-46.4472
11
157.907
21
-46.5283
0
LINE
8
BLACK
6
CONTINUOUS
10
157.907
20
-46.5283
11
157.926
21
-46.624
0
LINE
8
BLACK
6
CONTINUOUS
10
157.926
20
-46.624
11
157.926
21
-47.149
0
LINE
8
BLACK
6
CONTINUOUS
10
157.926
20
-47.149
11
157.907
21
-47.2447
0
LINE
8
BLACK
6
CONTINUOUS
10
157.907
20
-47.2447
11
157.853
21
-47.3258
0
LINE
8
BLACK
6
CONTINUOUS
10
157.853
20
-47.3258
11
157.772
21
-47.38
0
LINE
8
BLACK
6
CONTINUOUS
10
157.772
20
-47.38
11
157.676
21
-47.399
0
LINE
8
BLACK
6
CONTINUOUS
10
157.676
20
-47.399
11
156.776
21
-47.399
0
LINE
8
BLACK
6
CONTINUOUS
10
156.776
20
-47.399
11
156.68
21
-47.38
0
LINE
8
BLACK
6
CONTINUOUS
10
156.68
20
-47.38
11
156.599
21
-47.3258
0
LINE
8
BLACK
6
CONTINUOUS
10
156.599
20
-47.3258
11
156.545
21
-47.2447
0
LINE
8
BLACK
6
CONTINUOUS
10
156.545
20
-47.2447
11
156.526
21
-47.149
0
LINE
8
BLACK
6
CONTINUOUS
10
156.526
20
-47.149
11
156.526
21
-46.624
0
LINE
8
BLACK
6
CONTINUOUS
10
156.526
20
-46.624
11
156.545
21
-46.5283
0
LINE
8
BLACK
6
CONTINUOUS
10
156.545
20
-46.5283
11
156.599
21
-46.4472
0
LINE
8
BLACK
6
CONTINUOUS
10
156.599
20
-46.4472
11
156.68
21
-46.393
0
LINE
8
BLACK
6
CONTINUOUS
10
156.68
20
-46.393
11
156.776
21
-46.374
0
LINE
8
BLACK
6
CONTINUOUS
10
156.776
20
-46.374
11
157.676
21
-46.374
0
LINE
8
BLACK
6
CONTINUOUS
10
157.676
20
-46.374
11
157.772
21
-46.393
0
LINE
8
BLACK
6
CONTINUOUS
10
154.47
20
-46.393
11
154.551
21
-46.4472
0
LINE
8
BLACK
6
CONTINUOUS
10
154.551
20
-46.4472
11
154.605
21
-46.5283
0
LINE
8
BLACK
6
CONTINUOUS
10
154.605
20
-46.5283
11
154.624
21
-46.624
0
LINE
8
BLACK
6
CONTINUOUS
10
154.624
20
-46.624
11
154.624
21
-47.149
0
LINE
8
BLACK
6
CONTINUOUS
10
154.624
20
-47.149
11
154.605
21
-47.2447
0
LINE
8
BLACK
6
CONTINUOUS
10
154.605
20
-47.2447
11
154.551
21
-47.3258
0
LINE
8
BLACK
6
CONTINUOUS
10
154.551
20
-47.3258
11
154.47
21
-47.38
0
LINE
8
BLACK
6
CONTINUOUS
10
154.47
20
-47.38
11
154.374
21
-47.399
0
LINE
8
BLACK
6
CONTINUOUS
10
154.374
20
-47.399
11
153.474
21
-47.399
0
LINE
8
BLACK
6
CONTINUOUS
10
153.474
20
-47.399
11
153.378
21
-47.38
0
LINE
8
BLACK
6
CONTINUOUS
10
153.378
20
-47.38
11
153.297
21
-47.3258
0
LINE
8
BLACK
6
CONTINUOUS
10
153.297
20
-47.3258
11
153.243
21
-47.2447
0
LINE
8
BLACK
6
CONTINUOUS
10
153.243
20
-47.2447
11
153.224
21
-47.149
0
LINE
8
BLACK
6
CONTINUOUS
10
153.224
20
-47.149
11
153.224
21
-46.624
0
LINE
8
BLACK
6
CONTINUOUS
10
153.224
20
-46.624
11
153.243
21
-46.5283
0
LINE
8
BLACK
6
CONTINUOUS
10
153.243
20
-46.5283
11
153.297
21
-46.4472
0
LINE
8
BLACK
6
CONTINUOUS
10
153.297
20
-46.4472
11
153.378
21
-46.393
0
LINE
8
BLACK
6
CONTINUOUS
10
153.378
20
-46.393
11
153.474
21
-46.374
0
LINE
8
BLACK
6
CONTINUOUS
10
153.474
20
-46.374
11
154.374
21
-46.374
0
LINE
8
BLACK
6
CONTINUOUS
10
154.374
20
-46.374
11
154.47
21
-46.393
0
LINE
8
BLACK
6
CONTINUOUS
10
157.772
20
-44.568
11
157.853
21
-44.6222
0
LINE
8
BLACK
6
CONTINUOUS
10
157.853
20
-44.6222
11
157.907
21
-44.7033
0
LINE
8
BLACK
6
CONTINUOUS
10
157.907
20
-44.7033
11
157.926
21
-44.799
0
LINE
8
BLACK
6
CONTINUOUS
10
157.926
20
-44.799
11
157.926
21
-45.324
0
LINE
8
BLACK
6
CONTINUOUS
10
157.926
20
-45.324
11
157.907
21
-45.4197
0
LINE
8
BLACK
6
CONTINUOUS
10
157.907
20
-45.4197
11
157.853
21
-45.5008
0
LINE
8
BLACK
6
CONTINUOUS
10
157.853
20
-45.5008
11
157.772
21
-45.555
0
LINE
8
BLACK
6
CONTINUOUS
10
157.772
20
-45.555
11
157.676
21
-45.574
0
LINE
8
BLACK
6
CONTINUOUS
10
157.676
20
-45.574
11
156.776
21
-45.574
0
LINE
8
BLACK
6
CONTINUOUS
10
156.776
20
-45.574
11
156.68
21
-45.555
0
LINE
8
BLACK
6
CONTINUOUS
10
156.68
20
-45.555
11
156.599
21
-45.5008
0
LINE
8
BLACK
6
CONTINUOUS
10
156.599
20
-45.5008
11
156.545
21
-45.4197
0
LINE
8
BLACK
6
CONTINUOUS
10
156.545
20
-45.4197
11
156.526
21
-45.324
0
LINE
8
BLACK
6
CONTINUOUS
10
156.526
20
-45.324
11
156.526
21
-44.799
0
LINE
8
BLACK
6
CONTINUOUS
10
156.526
20
-44.799
11
156.545
21
-44.7033
0
LINE
8
BLACK
6
CONTINUOUS
10
156.545
20
-44.7033
11
156.599
21
-44.6222
0
LINE
8
BLACK
6
CONTINUOUS
10
156.599
20
-44.6222
11
156.68
21
-44.568
0
LINE
8
BLACK
6
CONTINUOUS
10
156.68
20
-44.568
11
156.776
21
-44.549
0
LINE
8
BLACK
6
CONTINUOUS
10
156.776
20
-44.549
11
157.676
21
-44.549
0
LINE
8
BLACK
6
CONTINUOUS
10
157.676
20
-44.549
11
157.772
21
-44.568
0
LINE
8
BLACK
6
CONTINUOUS
10
154.47
20
-44.568
11
154.551
21
-44.6222
0
LINE
8
BLACK
6
CONTINUOUS
10
154.551
20
-44.6222
11
154.605
21
-44.7033
0
LINE
8
BLACK
6
CONTINUOUS
10
154.605
20
-44.7033
11
154.624
21
-44.799
0
LINE
8
BLACK
6
CONTINUOUS
10
154.624
20
-44.799
11
154.624
21
-45.324
0
LINE
8
BLACK
6
CONTINUOUS
10
154.624
20
-45.324
11
154.605
21
-45.4197
0
LINE
8
BLACK
6
CONTINUOUS
10
154.605
20
-45.4197
11
154.551
21
-45.5008
0
LINE
8
BLACK
6
CONTINUOUS
10
154.551
20
-45.5008
11
154.47
21
-45.555
0
LINE
8
BLACK
6
CONTINUOUS
10
154.47
20
-45.555
11
154.374
21
-45.574
0
LINE
8
BLACK
6
CONTINUOUS
10
154.374
20
-45.574
11
153.474
21
-45.574
0
LINE
8
BLACK
6
CONTINUOUS
10
153.474
20
-45.574
11
153.378
21
-45.555
0
LINE
8
BLACK
6
CONTINUOUS
10
153.378
20
-45.555
11
153.297
21
-45.5008
0
LINE
8
BLACK
6
CONTINUOUS
10
153.297
20
-45.5008
11
153.243
21
-45.4197
0
LINE
8
BLACK
6
CONTINUOUS
10
153.243
20
-45.4197
11
153.224
21
-45.324
0
LINE
8
BLACK
6
CONTINUOUS
10
153.224
20
-45.324
11
153.224
21
-44.799
0
LINE
8
BLACK
6
CONTINUOUS
10
153.224
20
-44.799
11
153.243
21
-44.7033
0
LINE
8
BLACK
6
CONTINUOUS
10
153.243
20
-44.7033
11
153.297
21
-44.6222
0
LINE
8
BLACK
6
CONTINUOUS
10
153.297
20
-44.6222
11
153.378
21
-44.568
0
LINE
8
BLACK
6
CONTINUOUS
10
153.378
20
-44.568
11
153.474
21
-44.549
0
LINE
8
BLACK
6
CONTINUOUS
10
153.474
20
-44.549
11
154.374
21
-44.549
0
LINE
8
BLACK
6
CONTINUOUS
10
154.374
20
-44.549
11
154.47
21
-44.568
0
LINE
8
BLACK
6
CONTINUOUS
10
159.504
20
-42.28
11
158.904
21
-42.28
0
LINE
8
BLACK
6
CONTINUOUS
10
158.904
20
-42.28
11
158.904
21
-40.83
0
LINE
8
BLACK
6
CONTINUOUS
10
158.904
20
-40.83
11
159.504
21
-40.83
0
LINE
8
BLACK
6
CONTINUOUS
10
159.504
20
-40.83
11
159.504
21
-42.28
0
LINE
8
BLACK
6
CONTINUOUS
10
158.704
20
-42.28
11
158.104
21
-42.28
0
LINE
8
BLACK
6
CONTINUOUS
10
158.104
20
-42.28
11
158.104
21
-40.83
0
LINE
8
BLACK
6
CONTINUOUS
10
158.104
20
-40.83
11
158.704
21
-40.83
0
LINE
8
BLACK
6
CONTINUOUS
10
158.704
20
-40.83
11
158.704
21
-42.28
0
LINE
8
BLACK
6
CONTINUOUS
10
157.854
20
-42.28
11
157.554
21
-42.28
0
LINE
8
BLACK
6
CONTINUOUS
10
157.554
20
-42.28
11
157.554
21
-40.83
0
LINE
8
BLACK
6
CONTINUOUS
10
157.554
20
-40.83
11
157.854
21
-40.83
0
LINE
8
BLACK
6
CONTINUOUS
10
157.854
20
-40.83
11
157.854
21
-42.28
0
LINE
8
BLACK
6
CONTINUOUS
10
157.354
20
-42.28
11
157.054
21
-42.28
0
LINE
8
BLACK
6
CONTINUOUS
10
157.054
20
-42.28
11
157.054
21
-40.83
0
LINE
8
BLACK
6
CONTINUOUS
10
157.054
20
-40.83
11
157.354
21
-40.83
0
LINE
8
BLACK
6
CONTINUOUS
10
157.354
20
-40.83
11
157.354
21
-42.28
0
LINE
8
BLACK
6
CONTINUOUS
10
156.854
20
-42.28
11
156.554
21
-42.28
0
LINE
8
BLACK
6
CONTINUOUS
10
156.554
20
-42.28
11
156.554
21
-40.83
0
LINE
8
BLACK
6
CONTINUOUS
10
156.554
20
-40.83
11
156.854
21
-40.83
0
LINE
8
BLACK
6
CONTINUOUS
10
156.854
20
-40.83
11
156.854
21
-42.28
0
LINE
8
BLACK
6
CONTINUOUS
10
156.354
20
-42.28
11
156.054
21
-42.28
0
LINE
8
BLACK
6
CONTINUOUS
10
156.054
20
-42.28
11
156.054
21
-40.83
0
LINE
8
BLACK
6
CONTINUOUS
10
156.054
20
-40.83
11
156.354
21
-40.83
0
LINE
8
BLACK
6
CONTINUOUS
10
156.354
20
-40.83
11
156.354
21
-42.28
0
LINE
8
BLACK
6
CONTINUOUS
10
155.854
20
-42.28
11
155.554
21
-42.28
0
LINE
8
BLACK
6
CONTINUOUS
10
155.554
20
-42.28
11
155.554
21
-40.83
0
LINE
8
BLACK
6
CONTINUOUS
10
155.554
20
-40.83
11
155.854
21
-40.83
0
LINE
8
BLACK
6
CONTINUOUS
10
155.854
20
-40.83
11
155.854
21
-42.28
0
LINE
8
BLACK
6
CONTINUOUS
10
155.354
20
-42.28
11
155.054
21
-42.28
0
LINE
8
BLACK
6
CONTINUOUS
10
155.054
20
-42.28
11
155.054
21
-40.83
0
LINE
8
BLACK
6
CONTINUOUS
10
155.054
20
-40.83
11
155.354
21
-40.83
0
LINE
8
BLACK
6
CONTINUOUS
10
155.354
20
-40.83
11
155.354
21
-42.28
0
LINE
8
BLACK
6
CONTINUOUS
10
154.854
20
-42.28
11
154.554
21
-42.28
0
LINE
8
BLACK
6
CONTINUOUS
10
154.554
20
-42.28
11
154.554
21
-40.83
0
LINE
8
BLACK
6
CONTINUOUS
10
154.554
20
-40.83
11
154.854
21
-40.83
0
LINE
8
BLACK
6
CONTINUOUS
10
154.854
20
-40.83
11
154.854
21
-42.28
0
LINE
8
BLACK
6
CONTINUOUS
10
154.354
20
-42.28
11
154.054
21
-42.28
0
LINE
8
BLACK
6
CONTINUOUS
10
154.054
20
-42.28
11
154.054
21
-40.83
0
LINE
8
BLACK
6
CONTINUOUS
10
154.054
20
-40.83
11
154.354
21
-40.83
0
LINE
8
BLACK
6
CONTINUOUS
10
154.354
20
-40.83
11
154.354
21
-42.28
0
LINE
8
BLACK
6
CONTINUOUS
10
153.804
20
-42.28
11
153.204
21
-42.28
0
LINE
8
BLACK
6
CONTINUOUS
10
153.204
20
-42.28
11
153.204
21
-40.83
0
LINE
8
BLACK
6
CONTINUOUS
10
153.204
20
-40.83
11
153.804
21
-40.83
0
LINE
8
BLACK
6
CONTINUOUS
10
153.804
20
-40.83
11
153.804
21
-42.28
0
LINE
8
BLACK
6
CONTINUOUS
10
153.004
20
-42.28
11
152.404
21
-42.28
0
LINE
8
BLACK
6
CONTINUOUS
10
152.404
20
-42.28
11
152.404
21
-40.83
0
LINE
8
BLACK
6
CONTINUOUS
10
152.404
20
-40.83
11
153.004
21
-40.83
0
LINE
8
BLACK
6
CONTINUOUS
10
153.004
20
-40.83
11
153.004
21
-42.28
  0
ENDSEC
  0
EOF
