  0
SECTION
  2
HEADER
  9
$ANGBASE
  50
0.0
  9
$ANGDIR
  70
1
  9
$MEASUREMENT
  70
1
  0
ENDSEC
  0
SECTION
  2
TABLES
  0
TABLE
  2
LTYPE
  70
4
  0
LTYPE
  5
40F
  2
CONTINUOUS
  70
0
  3
Solid line
  72
65
  73
0
  40
0.0
  0
LTYPE
  5
410
  2
DASHDOT
 70
0
  3
Dash Dot ____ _ ____ _
 72
65
 73
4
 40
2.0
 49
1.25
 49
-0.25
 49
0.25
 49
-0.25
  0
LTYPE
  5
411
  2
DASHED
 70
0
  3
Dashed __ __ __ __ __
 72
65
 73
2
 40
0.75
 49
0.5
 49
-0.25
  0
LTYPE
  5
43B
  2
DOTTED
 70
0
  3
Dotted .  .  .  .
 72
65
 73
2
 40
0.2
 49
0.0
 49
-0.2
  0
ENDTAB
  0
TABLE
  2
STYLE
  70
4
  0
STYLE
  2
KICAD
  70
0
  40
0
  41
1
  42
1
  50
0
  71
0
  3
isocp.shx
  0
STYLE
  2
KICADB
  70
0
  40
0
  41
1
  42
1
  50
0
  71
0
  3
isocp.shx
  0
STYLE
  2
KICADI
  70
0
  40
0
  41
1
  42
1
  50
15
  71
0
  3
isocp.shx
  0
STYLE
  2
KICADBI
  70
0
  40
0
  41
1
  42
1
  50
15
  71
0
  3
isocp.shx
  0
ENDTAB
  0
TABLE
  2
LAYER
  70
1
  0
LAYER
  2
BLACK
  70
0
  62
7
  6
CONTINUOUS
  0
ENDTAB
  0
ENDSEC
  0
SECTION
  2
ENTITIES
0
LINE
8
BLACK
6
CONTINUOUS
10
96.7951
20
-23.1327
11
96.8029
21
-23.1317
0
LINE
8
BLACK
6
CONTINUOUS
10
96.8029
20
-23.1317
11
115.201
21
-28.0612
0
LINE
8
BLACK
6
CONTINUOUS
10
115.201
20
-28.0612
11
151.265
21
-35
0
LINE
8
BLACK
6
CONTINUOUS
10
151.265
20
-35
11
160.645
21
-35
0
LINE
8
BLACK
6
CONTINUOUS
10
160.645
20
-35
11
196.469
21
-28.0712
0
LINE
8
BLACK
6
CONTINUOUS
10
196.469
20
-28.0712
11
214.857
21
-23.1317
0
LINE
8
BLACK
6
CONTINUOUS
10
214.857
20
-23.1317
11
214.865
21
-23.1327
0
LINE
8
BLACK
6
CONTINUOUS
10
214.865
20
-23.1327
11
214.872
21
-23.1301
0
LINE
8
BLACK
6
CONTINUOUS
10
214.872
20
-23.1301
11
234.872
21
-24.1001
0
LINE
8
BLACK
6
CONTINUOUS
10
234.872
20
-24.1001
11
234.878
21
-24.1028
0
LINE
8
BLACK
6
CONTINUOUS
10
234.878
20
-24.1028
11
234.885
21
-24.1022
0
LINE
8
BLACK
6
CONTINUOUS
10
234.885
20
-24.1022
11
256.365
21
-30.6922
0
LINE
8
BLACK
6
CONTINUOUS
10
256.365
20
-30.6922
11
256.369
21
-30.6959
0
LINE
8
BLACK
6
CONTINUOUS
10
256.369
20
-30.6959
11
256.375
21
-30.6967
0
LINE
8
BLACK
6
CONTINUOUS
10
256.375
20
-30.6967
11
256.383
21
-30.7077
0
LINE
8
BLACK
6
CONTINUOUS
10
256.383
20
-30.7077
11
256.394
21
-30.7166
0
LINE
8
BLACK
6
CONTINUOUS
10
256.394
20
-30.7166
11
256.395
21
-30.7224
0
LINE
8
BLACK
6
CONTINUOUS
10
256.395
20
-30.7224
11
256.398
21
-30.7271
0
LINE
8
BLACK
6
CONTINUOUS
10
256.398
20
-30.7271
11
271.188
21
-85.9471
0
LINE
8
BLACK
6
CONTINUOUS
10
271.188
20
-85.9471
11
271.187
21
-85.9583
0
LINE
8
BLACK
6
CONTINUOUS
10
271.187
20
-85.9583
11
271.189
21
-85.9693
0
LINE
8
BLACK
6
CONTINUOUS
10
271.189
20
-85.9693
11
271.184
21
-85.9765
0
LINE
8
BLACK
6
CONTINUOUS
10
271.184
20
-85.9765
11
271.183
21
-85.985
0
LINE
8
BLACK
6
CONTINUOUS
10
271.183
20
-85.985
11
271.174
21
-85.9919
0
LINE
8
BLACK
6
CONTINUOUS
10
271.174
20
-85.9919
11
271.168
21
-86.0013
0
LINE
8
BLACK
6
CONTINUOUS
10
271.168
20
-86.0013
11
223.328
21
-118.591
0
LINE
8
BLACK
6
CONTINUOUS
10
223.328
20
-118.591
11
223.324
21
-118.592
0
LINE
8
BLACK
6
CONTINUOUS
10
223.324
20
-118.592
11
223.321
21
-118.595
0
LINE
8
BLACK
6
CONTINUOUS
10
223.321
20
-118.595
11
206.041
21
-126.645
0
LINE
8
BLACK
6
CONTINUOUS
10
206.041
20
-126.645
11
206.037
21
-126.645
0
LINE
8
BLACK
6
CONTINUOUS
10
206.037
20
-126.645
11
206.034
21
-126.648
0
LINE
8
BLACK
6
CONTINUOUS
10
206.034
20
-126.648
11
185.874
21
-132.718
0
LINE
8
BLACK
6
CONTINUOUS
10
185.874
20
-132.718
11
185.867
21
-132.717
0
LINE
8
BLACK
6
CONTINUOUS
10
185.867
20
-132.717
11
185.86
21
-132.72
0
LINE
8
BLACK
6
CONTINUOUS
10
185.86
20
-132.72
11
125.8
21
-132.71
0
LINE
8
BLACK
6
CONTINUOUS
10
125.8
20
-132.71
11
125.793
21
-132.707
0
LINE
8
BLACK
6
CONTINUOUS
10
125.793
20
-132.707
11
125.786
21
-132.708
0
LINE
8
BLACK
6
CONTINUOUS
10
125.786
20
-132.708
11
105.616
21
-126.628
0
LINE
8
BLACK
6
CONTINUOUS
10
105.616
20
-126.628
11
105.613
21
-126.625
0
LINE
8
BLACK
6
CONTINUOUS
10
105.613
20
-126.625
11
105.609
21
-126.625
0
LINE
8
BLACK
6
CONTINUOUS
10
105.609
20
-126.625
11
88.2789
21
-118.565
0
LINE
8
BLACK
6
CONTINUOUS
10
88.2789
20
-118.565
11
88.276
21
-118.562
0
LINE
8
BLACK
6
CONTINUOUS
10
88.276
20
-118.562
11
88.2718
21
-118.561
0
LINE
8
BLACK
6
CONTINUOUS
10
88.2718
20
-118.561
11
40.5018
21
-85.9813
0
LINE
8
BLACK
6
CONTINUOUS
10
40.5018
20
-85.9813
11
40.4956
21
-85.9719
0
LINE
8
BLACK
6
CONTINUOUS
10
40.4956
20
-85.9719
11
40.4867
21
-85.965
0
LINE
8
BLACK
6
CONTINUOUS
10
40.4867
20
-85.965
11
40.4856
21
-85.9565
0
LINE
8
BLACK
6
CONTINUOUS
10
40.4856
20
-85.9565
11
40.4809
21
-85.9493
0
LINE
8
BLACK
6
CONTINUOUS
10
40.4809
20
-85.9493
11
40.4832
21
-85.9382
0
LINE
8
BLACK
6
CONTINUOUS
10
40.4832
20
-85.9382
11
40.4817
21
-85.9271
0
LINE
8
BLACK
6
CONTINUOUS
10
40.4817
20
-85.9271
11
55.2617
21
-30.7371
0
LINE
8
BLACK
6
CONTINUOUS
10
55.2617
20
-30.7371
11
55.2653
21
-30.7324
0
LINE
8
BLACK
6
CONTINUOUS
10
55.2653
20
-30.7324
11
55.2658
21
-30.7266
0
LINE
8
BLACK
6
CONTINUOUS
10
55.2658
20
-30.7266
11
55.2765
21
-30.7177
0
LINE
8
BLACK
6
CONTINUOUS
10
55.2765
20
-30.7177
11
55.285
21
-30.7067
0
LINE
8
BLACK
6
CONTINUOUS
10
55.285
20
-30.7067
11
55.2908
21
-30.7059
0
LINE
8
BLACK
6
CONTINUOUS
10
55.2908
20
-30.7059
11
55.2953
21
-30.7022
0
LINE
8
BLACK
6
CONTINUOUS
10
55.2953
20
-30.7022
11
76.7853
21
-24.0922
0
LINE
8
BLACK
6
CONTINUOUS
10
76.7853
20
-24.0922
11
76.7917
21
-24.0928
0
LINE
8
BLACK
6
CONTINUOUS
10
76.7917
20
-24.0928
11
76.7976
21
-24.0901
0
LINE
8
BLACK
6
CONTINUOUS
10
76.7976
20
-24.0901
11
96.7876
21
-23.1301
0
LINE
8
BLACK
6
CONTINUOUS
10
96.7876
20
-23.1301
11
96.7951
21
-23.1327
0
LINE
8
BLACK
6
CONTINUOUS
10
76.8087
20
-24.1896
11
55.3511
21
-30.7897
0
LINE
8
BLACK
6
CONTINUOUS
10
55.3511
20
-30.7897
11
40.5875
21
-85.9187
0
LINE
8
BLACK
6
CONTINUOUS
10
40.5875
20
-85.9187
11
88.3248
21
-118.476
0
LINE
8
BLACK
6
CONTINUOUS
10
88.3248
20
-118.476
11
105.648
21
-126.533
0
LINE
8
BLACK
6
CONTINUOUS
10
105.648
20
-126.533
11
125.807
21
-132.61
0
LINE
8
BLACK
6
CONTINUOUS
10
125.807
20
-132.61
11
185.853
21
-132.62
0
LINE
8
BLACK
6
CONTINUOUS
10
185.853
20
-132.62
11
206.002
21
-126.553
0
LINE
8
BLACK
6
CONTINUOUS
10
206.002
20
-126.553
11
223.275
21
-118.506
0
LINE
8
BLACK
6
CONTINUOUS
10
223.275
20
-118.506
11
271.083
21
-85.9387
0
LINE
8
BLACK
6
CONTINUOUS
10
271.083
20
-85.9387
11
256.309
21
-30.7797
0
LINE
8
BLACK
6
CONTINUOUS
10
256.309
20
-30.7797
11
234.861
21
-24.1996
0
LINE
8
BLACK
6
CONTINUOUS
10
234.861
20
-24.1996
11
214.875
21
-23.2303
0
LINE
8
BLACK
6
CONTINUOUS
10
214.875
20
-23.2303
11
196.493
21
-28.1683
0
LINE
8
BLACK
6
CONTINUOUS
10
196.493
20
-28.1683
11
196.491
21
-28.168
0
LINE
8
BLACK
6
CONTINUOUS
10
196.491
20
-28.168
11
196.489
21
-28.1691
0
LINE
8
BLACK
6
CONTINUOUS
10
196.489
20
-28.1691
11
160.659
21
-35.0991
0
LINE
8
BLACK
6
CONTINUOUS
10
160.659
20
-35.0991
11
160.655
21
-35.0981
0
LINE
8
BLACK
6
CONTINUOUS
10
160.655
20
-35.0981
11
160.65
21
-35.1
0
LINE
8
BLACK
6
CONTINUOUS
10
160.65
20
-35.1
11
151.26
21
-35.1
0
LINE
8
BLACK
6
CONTINUOUS
10
151.26
20
-35.1
11
151.255
21
-35.0981
0
LINE
8
BLACK
6
CONTINUOUS
10
151.255
20
-35.0981
11
151.251
21
-35.0991
0
LINE
8
BLACK
6
CONTINUOUS
10
151.251
20
-35.0991
11
115.181
21
-28.1591
0
LINE
8
BLACK
6
CONTINUOUS
10
115.181
20
-28.1591
11
115.179
21
-28.158
0
LINE
8
BLACK
6
CONTINUOUS
10
115.179
20
-28.158
11
115.177
21
-28.1583
0
LINE
8
BLACK
6
CONTINUOUS
10
115.177
20
-28.1583
11
96.7846
21
-23.2303
0
LINE
8
BLACK
6
CONTINUOUS
10
96.7846
20
-23.2303
11
76.8087
21
-24.1896
  0
ENDSEC
  0
EOF
