%TF.GenerationSoftware,KiCad,Pcbnew,7.0.1*%
%TF.CreationDate,2024-01-05T17:15:01-05:00*%
%TF.ProjectId,ch55p34,63683535-7033-4342-9e6b-696361645f70,rev?*%
%TF.SameCoordinates,Original*%
%TF.FileFunction,Legend,Top*%
%TF.FilePolarity,Positive*%
%FSLAX46Y46*%
G04 Gerber Fmt 4.6, Leading zero omitted, Abs format (unit mm)*
G04 Created by KiCad (PCBNEW 7.0.1) date 2024-01-05 17:15:01*
%MOMM*%
%LPD*%
G01*
G04 APERTURE LIST*
%ADD10C,0.150000*%
%ADD11C,0.120000*%
G04 APERTURE END LIST*
D10*
X144470285Y-41726428D02*
X143970285Y-41012142D01*
X143613142Y-41726428D02*
X143613142Y-40226428D01*
X143613142Y-40226428D02*
X144184571Y-40226428D01*
X144184571Y-40226428D02*
X144327428Y-40297857D01*
X144327428Y-40297857D02*
X144398857Y-40369285D01*
X144398857Y-40369285D02*
X144470285Y-40512142D01*
X144470285Y-40512142D02*
X144470285Y-40726428D01*
X144470285Y-40726428D02*
X144398857Y-40869285D01*
X144398857Y-40869285D02*
X144327428Y-40940714D01*
X144327428Y-40940714D02*
X144184571Y-41012142D01*
X144184571Y-41012142D02*
X143613142Y-41012142D01*
X145684571Y-41655000D02*
X145541714Y-41726428D01*
X145541714Y-41726428D02*
X145256000Y-41726428D01*
X145256000Y-41726428D02*
X145113142Y-41655000D01*
X145113142Y-41655000D02*
X145041714Y-41512142D01*
X145041714Y-41512142D02*
X145041714Y-40940714D01*
X145041714Y-40940714D02*
X145113142Y-40797857D01*
X145113142Y-40797857D02*
X145256000Y-40726428D01*
X145256000Y-40726428D02*
X145541714Y-40726428D01*
X145541714Y-40726428D02*
X145684571Y-40797857D01*
X145684571Y-40797857D02*
X145756000Y-40940714D01*
X145756000Y-40940714D02*
X145756000Y-41083571D01*
X145756000Y-41083571D02*
X145041714Y-41226428D01*
X146327428Y-41655000D02*
X146470285Y-41726428D01*
X146470285Y-41726428D02*
X146755999Y-41726428D01*
X146755999Y-41726428D02*
X146898856Y-41655000D01*
X146898856Y-41655000D02*
X146970285Y-41512142D01*
X146970285Y-41512142D02*
X146970285Y-41440714D01*
X146970285Y-41440714D02*
X146898856Y-41297857D01*
X146898856Y-41297857D02*
X146755999Y-41226428D01*
X146755999Y-41226428D02*
X146541714Y-41226428D01*
X146541714Y-41226428D02*
X146398856Y-41155000D01*
X146398856Y-41155000D02*
X146327428Y-41012142D01*
X146327428Y-41012142D02*
X146327428Y-40940714D01*
X146327428Y-40940714D02*
X146398856Y-40797857D01*
X146398856Y-40797857D02*
X146541714Y-40726428D01*
X146541714Y-40726428D02*
X146755999Y-40726428D01*
X146755999Y-40726428D02*
X146898856Y-40797857D01*
X148184571Y-41655000D02*
X148041714Y-41726428D01*
X148041714Y-41726428D02*
X147756000Y-41726428D01*
X147756000Y-41726428D02*
X147613142Y-41655000D01*
X147613142Y-41655000D02*
X147541714Y-41512142D01*
X147541714Y-41512142D02*
X147541714Y-40940714D01*
X147541714Y-40940714D02*
X147613142Y-40797857D01*
X147613142Y-40797857D02*
X147756000Y-40726428D01*
X147756000Y-40726428D02*
X148041714Y-40726428D01*
X148041714Y-40726428D02*
X148184571Y-40797857D01*
X148184571Y-40797857D02*
X148256000Y-40940714D01*
X148256000Y-40940714D02*
X148256000Y-41083571D01*
X148256000Y-41083571D02*
X147541714Y-41226428D01*
X148684571Y-40726428D02*
X149255999Y-40726428D01*
X148898856Y-40226428D02*
X148898856Y-41512142D01*
X148898856Y-41512142D02*
X148970285Y-41655000D01*
X148970285Y-41655000D02*
X149113142Y-41726428D01*
X149113142Y-41726428D02*
X149255999Y-41726428D01*
X164433142Y-41448714D02*
X164647428Y-41520142D01*
X164647428Y-41520142D02*
X164718857Y-41591571D01*
X164718857Y-41591571D02*
X164790285Y-41734428D01*
X164790285Y-41734428D02*
X164790285Y-41948714D01*
X164790285Y-41948714D02*
X164718857Y-42091571D01*
X164718857Y-42091571D02*
X164647428Y-42163000D01*
X164647428Y-42163000D02*
X164504571Y-42234428D01*
X164504571Y-42234428D02*
X163933142Y-42234428D01*
X163933142Y-42234428D02*
X163933142Y-40734428D01*
X163933142Y-40734428D02*
X164433142Y-40734428D01*
X164433142Y-40734428D02*
X164576000Y-40805857D01*
X164576000Y-40805857D02*
X164647428Y-40877285D01*
X164647428Y-40877285D02*
X164718857Y-41020142D01*
X164718857Y-41020142D02*
X164718857Y-41163000D01*
X164718857Y-41163000D02*
X164647428Y-41305857D01*
X164647428Y-41305857D02*
X164576000Y-41377285D01*
X164576000Y-41377285D02*
X164433142Y-41448714D01*
X164433142Y-41448714D02*
X163933142Y-41448714D01*
X165647428Y-42234428D02*
X165504571Y-42163000D01*
X165504571Y-42163000D02*
X165433142Y-42091571D01*
X165433142Y-42091571D02*
X165361714Y-41948714D01*
X165361714Y-41948714D02*
X165361714Y-41520142D01*
X165361714Y-41520142D02*
X165433142Y-41377285D01*
X165433142Y-41377285D02*
X165504571Y-41305857D01*
X165504571Y-41305857D02*
X165647428Y-41234428D01*
X165647428Y-41234428D02*
X165861714Y-41234428D01*
X165861714Y-41234428D02*
X166004571Y-41305857D01*
X166004571Y-41305857D02*
X166076000Y-41377285D01*
X166076000Y-41377285D02*
X166147428Y-41520142D01*
X166147428Y-41520142D02*
X166147428Y-41948714D01*
X166147428Y-41948714D02*
X166076000Y-42091571D01*
X166076000Y-42091571D02*
X166004571Y-42163000D01*
X166004571Y-42163000D02*
X165861714Y-42234428D01*
X165861714Y-42234428D02*
X165647428Y-42234428D01*
X167004571Y-42234428D02*
X166861714Y-42163000D01*
X166861714Y-42163000D02*
X166790285Y-42091571D01*
X166790285Y-42091571D02*
X166718857Y-41948714D01*
X166718857Y-41948714D02*
X166718857Y-41520142D01*
X166718857Y-41520142D02*
X166790285Y-41377285D01*
X166790285Y-41377285D02*
X166861714Y-41305857D01*
X166861714Y-41305857D02*
X167004571Y-41234428D01*
X167004571Y-41234428D02*
X167218857Y-41234428D01*
X167218857Y-41234428D02*
X167361714Y-41305857D01*
X167361714Y-41305857D02*
X167433143Y-41377285D01*
X167433143Y-41377285D02*
X167504571Y-41520142D01*
X167504571Y-41520142D02*
X167504571Y-41948714D01*
X167504571Y-41948714D02*
X167433143Y-42091571D01*
X167433143Y-42091571D02*
X167361714Y-42163000D01*
X167361714Y-42163000D02*
X167218857Y-42234428D01*
X167218857Y-42234428D02*
X167004571Y-42234428D01*
X167933143Y-41234428D02*
X168504571Y-41234428D01*
X168147428Y-40734428D02*
X168147428Y-42020142D01*
X168147428Y-42020142D02*
X168218857Y-42163000D01*
X168218857Y-42163000D02*
X168361714Y-42234428D01*
X168361714Y-42234428D02*
X168504571Y-42234428D01*
%TO.C,U1*%
X155416095Y-59856619D02*
X155416095Y-60666142D01*
X155416095Y-60666142D02*
X155463714Y-60761380D01*
X155463714Y-60761380D02*
X155511333Y-60809000D01*
X155511333Y-60809000D02*
X155606571Y-60856619D01*
X155606571Y-60856619D02*
X155797047Y-60856619D01*
X155797047Y-60856619D02*
X155892285Y-60809000D01*
X155892285Y-60809000D02*
X155939904Y-60761380D01*
X155939904Y-60761380D02*
X155987523Y-60666142D01*
X155987523Y-60666142D02*
X155987523Y-59856619D01*
X156987523Y-60856619D02*
X156416095Y-60856619D01*
X156701809Y-60856619D02*
X156701809Y-59856619D01*
X156701809Y-59856619D02*
X156606571Y-59999476D01*
X156606571Y-59999476D02*
X156511333Y-60094714D01*
X156511333Y-60094714D02*
X156416095Y-60142333D01*
%TO.C,R4*%
X159338619Y-49950666D02*
X158862428Y-50283999D01*
X159338619Y-50522094D02*
X158338619Y-50522094D01*
X158338619Y-50522094D02*
X158338619Y-50141142D01*
X158338619Y-50141142D02*
X158386238Y-50045904D01*
X158386238Y-50045904D02*
X158433857Y-49998285D01*
X158433857Y-49998285D02*
X158529095Y-49950666D01*
X158529095Y-49950666D02*
X158671952Y-49950666D01*
X158671952Y-49950666D02*
X158767190Y-49998285D01*
X158767190Y-49998285D02*
X158814809Y-50045904D01*
X158814809Y-50045904D02*
X158862428Y-50141142D01*
X158862428Y-50141142D02*
X158862428Y-50522094D01*
X158671952Y-49093523D02*
X159338619Y-49093523D01*
X158291000Y-49331618D02*
X159005285Y-49569713D01*
X159005285Y-49569713D02*
X159005285Y-48950666D01*
%TO.C,R3*%
X156036619Y-49950666D02*
X155560428Y-50283999D01*
X156036619Y-50522094D02*
X155036619Y-50522094D01*
X155036619Y-50522094D02*
X155036619Y-50141142D01*
X155036619Y-50141142D02*
X155084238Y-50045904D01*
X155084238Y-50045904D02*
X155131857Y-49998285D01*
X155131857Y-49998285D02*
X155227095Y-49950666D01*
X155227095Y-49950666D02*
X155369952Y-49950666D01*
X155369952Y-49950666D02*
X155465190Y-49998285D01*
X155465190Y-49998285D02*
X155512809Y-50045904D01*
X155512809Y-50045904D02*
X155560428Y-50141142D01*
X155560428Y-50141142D02*
X155560428Y-50522094D01*
X155036619Y-49617332D02*
X155036619Y-48998285D01*
X155036619Y-48998285D02*
X155417571Y-49331618D01*
X155417571Y-49331618D02*
X155417571Y-49188761D01*
X155417571Y-49188761D02*
X155465190Y-49093523D01*
X155465190Y-49093523D02*
X155512809Y-49045904D01*
X155512809Y-49045904D02*
X155608047Y-48998285D01*
X155608047Y-48998285D02*
X155846142Y-48998285D01*
X155846142Y-48998285D02*
X155941380Y-49045904D01*
X155941380Y-49045904D02*
X155989000Y-49093523D01*
X155989000Y-49093523D02*
X156036619Y-49188761D01*
X156036619Y-49188761D02*
X156036619Y-49474475D01*
X156036619Y-49474475D02*
X155989000Y-49569713D01*
X155989000Y-49569713D02*
X155941380Y-49617332D01*
%TO.C,R2*%
X159338619Y-46140666D02*
X158862428Y-46473999D01*
X159338619Y-46712094D02*
X158338619Y-46712094D01*
X158338619Y-46712094D02*
X158338619Y-46331142D01*
X158338619Y-46331142D02*
X158386238Y-46235904D01*
X158386238Y-46235904D02*
X158433857Y-46188285D01*
X158433857Y-46188285D02*
X158529095Y-46140666D01*
X158529095Y-46140666D02*
X158671952Y-46140666D01*
X158671952Y-46140666D02*
X158767190Y-46188285D01*
X158767190Y-46188285D02*
X158814809Y-46235904D01*
X158814809Y-46235904D02*
X158862428Y-46331142D01*
X158862428Y-46331142D02*
X158862428Y-46712094D01*
X158433857Y-45759713D02*
X158386238Y-45712094D01*
X158386238Y-45712094D02*
X158338619Y-45616856D01*
X158338619Y-45616856D02*
X158338619Y-45378761D01*
X158338619Y-45378761D02*
X158386238Y-45283523D01*
X158386238Y-45283523D02*
X158433857Y-45235904D01*
X158433857Y-45235904D02*
X158529095Y-45188285D01*
X158529095Y-45188285D02*
X158624333Y-45188285D01*
X158624333Y-45188285D02*
X158767190Y-45235904D01*
X158767190Y-45235904D02*
X159338619Y-45807332D01*
X159338619Y-45807332D02*
X159338619Y-45188285D01*
%TO.C,R1*%
X156036619Y-46140666D02*
X155560428Y-46473999D01*
X156036619Y-46712094D02*
X155036619Y-46712094D01*
X155036619Y-46712094D02*
X155036619Y-46331142D01*
X155036619Y-46331142D02*
X155084238Y-46235904D01*
X155084238Y-46235904D02*
X155131857Y-46188285D01*
X155131857Y-46188285D02*
X155227095Y-46140666D01*
X155227095Y-46140666D02*
X155369952Y-46140666D01*
X155369952Y-46140666D02*
X155465190Y-46188285D01*
X155465190Y-46188285D02*
X155512809Y-46235904D01*
X155512809Y-46235904D02*
X155560428Y-46331142D01*
X155560428Y-46331142D02*
X155560428Y-46712094D01*
X156036619Y-45188285D02*
X156036619Y-45759713D01*
X156036619Y-45473999D02*
X155036619Y-45473999D01*
X155036619Y-45473999D02*
X155179476Y-45569237D01*
X155179476Y-45569237D02*
X155274714Y-45664475D01*
X155274714Y-45664475D02*
X155322333Y-45759713D01*
%TO.C,J3*%
X142161619Y-44275333D02*
X142875904Y-44275333D01*
X142875904Y-44275333D02*
X143018761Y-44322952D01*
X143018761Y-44322952D02*
X143114000Y-44418190D01*
X143114000Y-44418190D02*
X143161619Y-44561047D01*
X143161619Y-44561047D02*
X143161619Y-44656285D01*
X142161619Y-43894380D02*
X142161619Y-43275333D01*
X142161619Y-43275333D02*
X142542571Y-43608666D01*
X142542571Y-43608666D02*
X142542571Y-43465809D01*
X142542571Y-43465809D02*
X142590190Y-43370571D01*
X142590190Y-43370571D02*
X142637809Y-43322952D01*
X142637809Y-43322952D02*
X142733047Y-43275333D01*
X142733047Y-43275333D02*
X142971142Y-43275333D01*
X142971142Y-43275333D02*
X143066380Y-43322952D01*
X143066380Y-43322952D02*
X143114000Y-43370571D01*
X143114000Y-43370571D02*
X143161619Y-43465809D01*
X143161619Y-43465809D02*
X143161619Y-43751523D01*
X143161619Y-43751523D02*
X143114000Y-43846761D01*
X143114000Y-43846761D02*
X143066380Y-43894380D01*
%TO.C,J2*%
X169183619Y-44529333D02*
X169897904Y-44529333D01*
X169897904Y-44529333D02*
X170040761Y-44576952D01*
X170040761Y-44576952D02*
X170136000Y-44672190D01*
X170136000Y-44672190D02*
X170183619Y-44815047D01*
X170183619Y-44815047D02*
X170183619Y-44910285D01*
X169278857Y-44100761D02*
X169231238Y-44053142D01*
X169231238Y-44053142D02*
X169183619Y-43957904D01*
X169183619Y-43957904D02*
X169183619Y-43719809D01*
X169183619Y-43719809D02*
X169231238Y-43624571D01*
X169231238Y-43624571D02*
X169278857Y-43576952D01*
X169278857Y-43576952D02*
X169374095Y-43529333D01*
X169374095Y-43529333D02*
X169469333Y-43529333D01*
X169469333Y-43529333D02*
X169612190Y-43576952D01*
X169612190Y-43576952D02*
X170183619Y-44148380D01*
X170183619Y-44148380D02*
X170183619Y-43529333D01*
%TO.C,J1*%
X155620666Y-42617619D02*
X155620666Y-43331904D01*
X155620666Y-43331904D02*
X155573047Y-43474761D01*
X155573047Y-43474761D02*
X155477809Y-43570000D01*
X155477809Y-43570000D02*
X155334952Y-43617619D01*
X155334952Y-43617619D02*
X155239714Y-43617619D01*
X156620666Y-43617619D02*
X156049238Y-43617619D01*
X156334952Y-43617619D02*
X156334952Y-42617619D01*
X156334952Y-42617619D02*
X156239714Y-42760476D01*
X156239714Y-42760476D02*
X156144476Y-42855714D01*
X156144476Y-42855714D02*
X156049238Y-42903333D01*
%TO.C,D34*%
X158228619Y-107132285D02*
X157228619Y-107132285D01*
X157228619Y-107132285D02*
X157228619Y-106894190D01*
X157228619Y-106894190D02*
X157276238Y-106751333D01*
X157276238Y-106751333D02*
X157371476Y-106656095D01*
X157371476Y-106656095D02*
X157466714Y-106608476D01*
X157466714Y-106608476D02*
X157657190Y-106560857D01*
X157657190Y-106560857D02*
X157800047Y-106560857D01*
X157800047Y-106560857D02*
X157990523Y-106608476D01*
X157990523Y-106608476D02*
X158085761Y-106656095D01*
X158085761Y-106656095D02*
X158181000Y-106751333D01*
X158181000Y-106751333D02*
X158228619Y-106894190D01*
X158228619Y-106894190D02*
X158228619Y-107132285D01*
X157228619Y-106227523D02*
X157228619Y-105608476D01*
X157228619Y-105608476D02*
X157609571Y-105941809D01*
X157609571Y-105941809D02*
X157609571Y-105798952D01*
X157609571Y-105798952D02*
X157657190Y-105703714D01*
X157657190Y-105703714D02*
X157704809Y-105656095D01*
X157704809Y-105656095D02*
X157800047Y-105608476D01*
X157800047Y-105608476D02*
X158038142Y-105608476D01*
X158038142Y-105608476D02*
X158133380Y-105656095D01*
X158133380Y-105656095D02*
X158181000Y-105703714D01*
X158181000Y-105703714D02*
X158228619Y-105798952D01*
X158228619Y-105798952D02*
X158228619Y-106084666D01*
X158228619Y-106084666D02*
X158181000Y-106179904D01*
X158181000Y-106179904D02*
X158133380Y-106227523D01*
X157561952Y-104751333D02*
X158228619Y-104751333D01*
X157181000Y-104989428D02*
X157895285Y-105227523D01*
X157895285Y-105227523D02*
X157895285Y-104608476D01*
%TO.C,D33*%
X155688619Y-107132285D02*
X154688619Y-107132285D01*
X154688619Y-107132285D02*
X154688619Y-106894190D01*
X154688619Y-106894190D02*
X154736238Y-106751333D01*
X154736238Y-106751333D02*
X154831476Y-106656095D01*
X154831476Y-106656095D02*
X154926714Y-106608476D01*
X154926714Y-106608476D02*
X155117190Y-106560857D01*
X155117190Y-106560857D02*
X155260047Y-106560857D01*
X155260047Y-106560857D02*
X155450523Y-106608476D01*
X155450523Y-106608476D02*
X155545761Y-106656095D01*
X155545761Y-106656095D02*
X155641000Y-106751333D01*
X155641000Y-106751333D02*
X155688619Y-106894190D01*
X155688619Y-106894190D02*
X155688619Y-107132285D01*
X154688619Y-106227523D02*
X154688619Y-105608476D01*
X154688619Y-105608476D02*
X155069571Y-105941809D01*
X155069571Y-105941809D02*
X155069571Y-105798952D01*
X155069571Y-105798952D02*
X155117190Y-105703714D01*
X155117190Y-105703714D02*
X155164809Y-105656095D01*
X155164809Y-105656095D02*
X155260047Y-105608476D01*
X155260047Y-105608476D02*
X155498142Y-105608476D01*
X155498142Y-105608476D02*
X155593380Y-105656095D01*
X155593380Y-105656095D02*
X155641000Y-105703714D01*
X155641000Y-105703714D02*
X155688619Y-105798952D01*
X155688619Y-105798952D02*
X155688619Y-106084666D01*
X155688619Y-106084666D02*
X155641000Y-106179904D01*
X155641000Y-106179904D02*
X155593380Y-106227523D01*
X154688619Y-105275142D02*
X154688619Y-104656095D01*
X154688619Y-104656095D02*
X155069571Y-104989428D01*
X155069571Y-104989428D02*
X155069571Y-104846571D01*
X155069571Y-104846571D02*
X155117190Y-104751333D01*
X155117190Y-104751333D02*
X155164809Y-104703714D01*
X155164809Y-104703714D02*
X155260047Y-104656095D01*
X155260047Y-104656095D02*
X155498142Y-104656095D01*
X155498142Y-104656095D02*
X155593380Y-104703714D01*
X155593380Y-104703714D02*
X155641000Y-104751333D01*
X155641000Y-104751333D02*
X155688619Y-104846571D01*
X155688619Y-104846571D02*
X155688619Y-105132285D01*
X155688619Y-105132285D02*
X155641000Y-105227523D01*
X155641000Y-105227523D02*
X155593380Y-105275142D01*
%TO.C,D32*%
X153148619Y-107132285D02*
X152148619Y-107132285D01*
X152148619Y-107132285D02*
X152148619Y-106894190D01*
X152148619Y-106894190D02*
X152196238Y-106751333D01*
X152196238Y-106751333D02*
X152291476Y-106656095D01*
X152291476Y-106656095D02*
X152386714Y-106608476D01*
X152386714Y-106608476D02*
X152577190Y-106560857D01*
X152577190Y-106560857D02*
X152720047Y-106560857D01*
X152720047Y-106560857D02*
X152910523Y-106608476D01*
X152910523Y-106608476D02*
X153005761Y-106656095D01*
X153005761Y-106656095D02*
X153101000Y-106751333D01*
X153101000Y-106751333D02*
X153148619Y-106894190D01*
X153148619Y-106894190D02*
X153148619Y-107132285D01*
X152148619Y-106227523D02*
X152148619Y-105608476D01*
X152148619Y-105608476D02*
X152529571Y-105941809D01*
X152529571Y-105941809D02*
X152529571Y-105798952D01*
X152529571Y-105798952D02*
X152577190Y-105703714D01*
X152577190Y-105703714D02*
X152624809Y-105656095D01*
X152624809Y-105656095D02*
X152720047Y-105608476D01*
X152720047Y-105608476D02*
X152958142Y-105608476D01*
X152958142Y-105608476D02*
X153053380Y-105656095D01*
X153053380Y-105656095D02*
X153101000Y-105703714D01*
X153101000Y-105703714D02*
X153148619Y-105798952D01*
X153148619Y-105798952D02*
X153148619Y-106084666D01*
X153148619Y-106084666D02*
X153101000Y-106179904D01*
X153101000Y-106179904D02*
X153053380Y-106227523D01*
X152243857Y-105227523D02*
X152196238Y-105179904D01*
X152196238Y-105179904D02*
X152148619Y-105084666D01*
X152148619Y-105084666D02*
X152148619Y-104846571D01*
X152148619Y-104846571D02*
X152196238Y-104751333D01*
X152196238Y-104751333D02*
X152243857Y-104703714D01*
X152243857Y-104703714D02*
X152339095Y-104656095D01*
X152339095Y-104656095D02*
X152434333Y-104656095D01*
X152434333Y-104656095D02*
X152577190Y-104703714D01*
X152577190Y-104703714D02*
X153148619Y-105275142D01*
X153148619Y-105275142D02*
X153148619Y-104656095D01*
%TO.C,D31*%
X150608619Y-107132285D02*
X149608619Y-107132285D01*
X149608619Y-107132285D02*
X149608619Y-106894190D01*
X149608619Y-106894190D02*
X149656238Y-106751333D01*
X149656238Y-106751333D02*
X149751476Y-106656095D01*
X149751476Y-106656095D02*
X149846714Y-106608476D01*
X149846714Y-106608476D02*
X150037190Y-106560857D01*
X150037190Y-106560857D02*
X150180047Y-106560857D01*
X150180047Y-106560857D02*
X150370523Y-106608476D01*
X150370523Y-106608476D02*
X150465761Y-106656095D01*
X150465761Y-106656095D02*
X150561000Y-106751333D01*
X150561000Y-106751333D02*
X150608619Y-106894190D01*
X150608619Y-106894190D02*
X150608619Y-107132285D01*
X149608619Y-106227523D02*
X149608619Y-105608476D01*
X149608619Y-105608476D02*
X149989571Y-105941809D01*
X149989571Y-105941809D02*
X149989571Y-105798952D01*
X149989571Y-105798952D02*
X150037190Y-105703714D01*
X150037190Y-105703714D02*
X150084809Y-105656095D01*
X150084809Y-105656095D02*
X150180047Y-105608476D01*
X150180047Y-105608476D02*
X150418142Y-105608476D01*
X150418142Y-105608476D02*
X150513380Y-105656095D01*
X150513380Y-105656095D02*
X150561000Y-105703714D01*
X150561000Y-105703714D02*
X150608619Y-105798952D01*
X150608619Y-105798952D02*
X150608619Y-106084666D01*
X150608619Y-106084666D02*
X150561000Y-106179904D01*
X150561000Y-106179904D02*
X150513380Y-106227523D01*
X150608619Y-104656095D02*
X150608619Y-105227523D01*
X150608619Y-104941809D02*
X149608619Y-104941809D01*
X149608619Y-104941809D02*
X149751476Y-105037047D01*
X149751476Y-105037047D02*
X149846714Y-105132285D01*
X149846714Y-105132285D02*
X149894333Y-105227523D01*
%TO.C,D30*%
X165848619Y-100148285D02*
X164848619Y-100148285D01*
X164848619Y-100148285D02*
X164848619Y-99910190D01*
X164848619Y-99910190D02*
X164896238Y-99767333D01*
X164896238Y-99767333D02*
X164991476Y-99672095D01*
X164991476Y-99672095D02*
X165086714Y-99624476D01*
X165086714Y-99624476D02*
X165277190Y-99576857D01*
X165277190Y-99576857D02*
X165420047Y-99576857D01*
X165420047Y-99576857D02*
X165610523Y-99624476D01*
X165610523Y-99624476D02*
X165705761Y-99672095D01*
X165705761Y-99672095D02*
X165801000Y-99767333D01*
X165801000Y-99767333D02*
X165848619Y-99910190D01*
X165848619Y-99910190D02*
X165848619Y-100148285D01*
X164848619Y-99243523D02*
X164848619Y-98624476D01*
X164848619Y-98624476D02*
X165229571Y-98957809D01*
X165229571Y-98957809D02*
X165229571Y-98814952D01*
X165229571Y-98814952D02*
X165277190Y-98719714D01*
X165277190Y-98719714D02*
X165324809Y-98672095D01*
X165324809Y-98672095D02*
X165420047Y-98624476D01*
X165420047Y-98624476D02*
X165658142Y-98624476D01*
X165658142Y-98624476D02*
X165753380Y-98672095D01*
X165753380Y-98672095D02*
X165801000Y-98719714D01*
X165801000Y-98719714D02*
X165848619Y-98814952D01*
X165848619Y-98814952D02*
X165848619Y-99100666D01*
X165848619Y-99100666D02*
X165801000Y-99195904D01*
X165801000Y-99195904D02*
X165753380Y-99243523D01*
X164848619Y-98005428D02*
X164848619Y-97910190D01*
X164848619Y-97910190D02*
X164896238Y-97814952D01*
X164896238Y-97814952D02*
X164943857Y-97767333D01*
X164943857Y-97767333D02*
X165039095Y-97719714D01*
X165039095Y-97719714D02*
X165229571Y-97672095D01*
X165229571Y-97672095D02*
X165467666Y-97672095D01*
X165467666Y-97672095D02*
X165658142Y-97719714D01*
X165658142Y-97719714D02*
X165753380Y-97767333D01*
X165753380Y-97767333D02*
X165801000Y-97814952D01*
X165801000Y-97814952D02*
X165848619Y-97910190D01*
X165848619Y-97910190D02*
X165848619Y-98005428D01*
X165848619Y-98005428D02*
X165801000Y-98100666D01*
X165801000Y-98100666D02*
X165753380Y-98148285D01*
X165753380Y-98148285D02*
X165658142Y-98195904D01*
X165658142Y-98195904D02*
X165467666Y-98243523D01*
X165467666Y-98243523D02*
X165229571Y-98243523D01*
X165229571Y-98243523D02*
X165039095Y-98195904D01*
X165039095Y-98195904D02*
X164943857Y-98148285D01*
X164943857Y-98148285D02*
X164896238Y-98100666D01*
X164896238Y-98100666D02*
X164848619Y-98005428D01*
%TO.C,D29*%
X163308619Y-100148285D02*
X162308619Y-100148285D01*
X162308619Y-100148285D02*
X162308619Y-99910190D01*
X162308619Y-99910190D02*
X162356238Y-99767333D01*
X162356238Y-99767333D02*
X162451476Y-99672095D01*
X162451476Y-99672095D02*
X162546714Y-99624476D01*
X162546714Y-99624476D02*
X162737190Y-99576857D01*
X162737190Y-99576857D02*
X162880047Y-99576857D01*
X162880047Y-99576857D02*
X163070523Y-99624476D01*
X163070523Y-99624476D02*
X163165761Y-99672095D01*
X163165761Y-99672095D02*
X163261000Y-99767333D01*
X163261000Y-99767333D02*
X163308619Y-99910190D01*
X163308619Y-99910190D02*
X163308619Y-100148285D01*
X162403857Y-99195904D02*
X162356238Y-99148285D01*
X162356238Y-99148285D02*
X162308619Y-99053047D01*
X162308619Y-99053047D02*
X162308619Y-98814952D01*
X162308619Y-98814952D02*
X162356238Y-98719714D01*
X162356238Y-98719714D02*
X162403857Y-98672095D01*
X162403857Y-98672095D02*
X162499095Y-98624476D01*
X162499095Y-98624476D02*
X162594333Y-98624476D01*
X162594333Y-98624476D02*
X162737190Y-98672095D01*
X162737190Y-98672095D02*
X163308619Y-99243523D01*
X163308619Y-99243523D02*
X163308619Y-98624476D01*
X163308619Y-98148285D02*
X163308619Y-97957809D01*
X163308619Y-97957809D02*
X163261000Y-97862571D01*
X163261000Y-97862571D02*
X163213380Y-97814952D01*
X163213380Y-97814952D02*
X163070523Y-97719714D01*
X163070523Y-97719714D02*
X162880047Y-97672095D01*
X162880047Y-97672095D02*
X162499095Y-97672095D01*
X162499095Y-97672095D02*
X162403857Y-97719714D01*
X162403857Y-97719714D02*
X162356238Y-97767333D01*
X162356238Y-97767333D02*
X162308619Y-97862571D01*
X162308619Y-97862571D02*
X162308619Y-98053047D01*
X162308619Y-98053047D02*
X162356238Y-98148285D01*
X162356238Y-98148285D02*
X162403857Y-98195904D01*
X162403857Y-98195904D02*
X162499095Y-98243523D01*
X162499095Y-98243523D02*
X162737190Y-98243523D01*
X162737190Y-98243523D02*
X162832428Y-98195904D01*
X162832428Y-98195904D02*
X162880047Y-98148285D01*
X162880047Y-98148285D02*
X162927666Y-98053047D01*
X162927666Y-98053047D02*
X162927666Y-97862571D01*
X162927666Y-97862571D02*
X162880047Y-97767333D01*
X162880047Y-97767333D02*
X162832428Y-97719714D01*
X162832428Y-97719714D02*
X162737190Y-97672095D01*
%TO.C,D28*%
X160768619Y-100148285D02*
X159768619Y-100148285D01*
X159768619Y-100148285D02*
X159768619Y-99910190D01*
X159768619Y-99910190D02*
X159816238Y-99767333D01*
X159816238Y-99767333D02*
X159911476Y-99672095D01*
X159911476Y-99672095D02*
X160006714Y-99624476D01*
X160006714Y-99624476D02*
X160197190Y-99576857D01*
X160197190Y-99576857D02*
X160340047Y-99576857D01*
X160340047Y-99576857D02*
X160530523Y-99624476D01*
X160530523Y-99624476D02*
X160625761Y-99672095D01*
X160625761Y-99672095D02*
X160721000Y-99767333D01*
X160721000Y-99767333D02*
X160768619Y-99910190D01*
X160768619Y-99910190D02*
X160768619Y-100148285D01*
X159863857Y-99195904D02*
X159816238Y-99148285D01*
X159816238Y-99148285D02*
X159768619Y-99053047D01*
X159768619Y-99053047D02*
X159768619Y-98814952D01*
X159768619Y-98814952D02*
X159816238Y-98719714D01*
X159816238Y-98719714D02*
X159863857Y-98672095D01*
X159863857Y-98672095D02*
X159959095Y-98624476D01*
X159959095Y-98624476D02*
X160054333Y-98624476D01*
X160054333Y-98624476D02*
X160197190Y-98672095D01*
X160197190Y-98672095D02*
X160768619Y-99243523D01*
X160768619Y-99243523D02*
X160768619Y-98624476D01*
X160197190Y-98053047D02*
X160149571Y-98148285D01*
X160149571Y-98148285D02*
X160101952Y-98195904D01*
X160101952Y-98195904D02*
X160006714Y-98243523D01*
X160006714Y-98243523D02*
X159959095Y-98243523D01*
X159959095Y-98243523D02*
X159863857Y-98195904D01*
X159863857Y-98195904D02*
X159816238Y-98148285D01*
X159816238Y-98148285D02*
X159768619Y-98053047D01*
X159768619Y-98053047D02*
X159768619Y-97862571D01*
X159768619Y-97862571D02*
X159816238Y-97767333D01*
X159816238Y-97767333D02*
X159863857Y-97719714D01*
X159863857Y-97719714D02*
X159959095Y-97672095D01*
X159959095Y-97672095D02*
X160006714Y-97672095D01*
X160006714Y-97672095D02*
X160101952Y-97719714D01*
X160101952Y-97719714D02*
X160149571Y-97767333D01*
X160149571Y-97767333D02*
X160197190Y-97862571D01*
X160197190Y-97862571D02*
X160197190Y-98053047D01*
X160197190Y-98053047D02*
X160244809Y-98148285D01*
X160244809Y-98148285D02*
X160292428Y-98195904D01*
X160292428Y-98195904D02*
X160387666Y-98243523D01*
X160387666Y-98243523D02*
X160578142Y-98243523D01*
X160578142Y-98243523D02*
X160673380Y-98195904D01*
X160673380Y-98195904D02*
X160721000Y-98148285D01*
X160721000Y-98148285D02*
X160768619Y-98053047D01*
X160768619Y-98053047D02*
X160768619Y-97862571D01*
X160768619Y-97862571D02*
X160721000Y-97767333D01*
X160721000Y-97767333D02*
X160673380Y-97719714D01*
X160673380Y-97719714D02*
X160578142Y-97672095D01*
X160578142Y-97672095D02*
X160387666Y-97672095D01*
X160387666Y-97672095D02*
X160292428Y-97719714D01*
X160292428Y-97719714D02*
X160244809Y-97767333D01*
X160244809Y-97767333D02*
X160197190Y-97862571D01*
%TO.C,D27*%
X158228619Y-100148285D02*
X157228619Y-100148285D01*
X157228619Y-100148285D02*
X157228619Y-99910190D01*
X157228619Y-99910190D02*
X157276238Y-99767333D01*
X157276238Y-99767333D02*
X157371476Y-99672095D01*
X157371476Y-99672095D02*
X157466714Y-99624476D01*
X157466714Y-99624476D02*
X157657190Y-99576857D01*
X157657190Y-99576857D02*
X157800047Y-99576857D01*
X157800047Y-99576857D02*
X157990523Y-99624476D01*
X157990523Y-99624476D02*
X158085761Y-99672095D01*
X158085761Y-99672095D02*
X158181000Y-99767333D01*
X158181000Y-99767333D02*
X158228619Y-99910190D01*
X158228619Y-99910190D02*
X158228619Y-100148285D01*
X157323857Y-99195904D02*
X157276238Y-99148285D01*
X157276238Y-99148285D02*
X157228619Y-99053047D01*
X157228619Y-99053047D02*
X157228619Y-98814952D01*
X157228619Y-98814952D02*
X157276238Y-98719714D01*
X157276238Y-98719714D02*
X157323857Y-98672095D01*
X157323857Y-98672095D02*
X157419095Y-98624476D01*
X157419095Y-98624476D02*
X157514333Y-98624476D01*
X157514333Y-98624476D02*
X157657190Y-98672095D01*
X157657190Y-98672095D02*
X158228619Y-99243523D01*
X158228619Y-99243523D02*
X158228619Y-98624476D01*
X157228619Y-98291142D02*
X157228619Y-97624476D01*
X157228619Y-97624476D02*
X158228619Y-98053047D01*
%TO.C,D26*%
X155688619Y-100148285D02*
X154688619Y-100148285D01*
X154688619Y-100148285D02*
X154688619Y-99910190D01*
X154688619Y-99910190D02*
X154736238Y-99767333D01*
X154736238Y-99767333D02*
X154831476Y-99672095D01*
X154831476Y-99672095D02*
X154926714Y-99624476D01*
X154926714Y-99624476D02*
X155117190Y-99576857D01*
X155117190Y-99576857D02*
X155260047Y-99576857D01*
X155260047Y-99576857D02*
X155450523Y-99624476D01*
X155450523Y-99624476D02*
X155545761Y-99672095D01*
X155545761Y-99672095D02*
X155641000Y-99767333D01*
X155641000Y-99767333D02*
X155688619Y-99910190D01*
X155688619Y-99910190D02*
X155688619Y-100148285D01*
X154783857Y-99195904D02*
X154736238Y-99148285D01*
X154736238Y-99148285D02*
X154688619Y-99053047D01*
X154688619Y-99053047D02*
X154688619Y-98814952D01*
X154688619Y-98814952D02*
X154736238Y-98719714D01*
X154736238Y-98719714D02*
X154783857Y-98672095D01*
X154783857Y-98672095D02*
X154879095Y-98624476D01*
X154879095Y-98624476D02*
X154974333Y-98624476D01*
X154974333Y-98624476D02*
X155117190Y-98672095D01*
X155117190Y-98672095D02*
X155688619Y-99243523D01*
X155688619Y-99243523D02*
X155688619Y-98624476D01*
X154688619Y-97767333D02*
X154688619Y-97957809D01*
X154688619Y-97957809D02*
X154736238Y-98053047D01*
X154736238Y-98053047D02*
X154783857Y-98100666D01*
X154783857Y-98100666D02*
X154926714Y-98195904D01*
X154926714Y-98195904D02*
X155117190Y-98243523D01*
X155117190Y-98243523D02*
X155498142Y-98243523D01*
X155498142Y-98243523D02*
X155593380Y-98195904D01*
X155593380Y-98195904D02*
X155641000Y-98148285D01*
X155641000Y-98148285D02*
X155688619Y-98053047D01*
X155688619Y-98053047D02*
X155688619Y-97862571D01*
X155688619Y-97862571D02*
X155641000Y-97767333D01*
X155641000Y-97767333D02*
X155593380Y-97719714D01*
X155593380Y-97719714D02*
X155498142Y-97672095D01*
X155498142Y-97672095D02*
X155260047Y-97672095D01*
X155260047Y-97672095D02*
X155164809Y-97719714D01*
X155164809Y-97719714D02*
X155117190Y-97767333D01*
X155117190Y-97767333D02*
X155069571Y-97862571D01*
X155069571Y-97862571D02*
X155069571Y-98053047D01*
X155069571Y-98053047D02*
X155117190Y-98148285D01*
X155117190Y-98148285D02*
X155164809Y-98195904D01*
X155164809Y-98195904D02*
X155260047Y-98243523D01*
%TO.C,D25*%
X153148619Y-100148285D02*
X152148619Y-100148285D01*
X152148619Y-100148285D02*
X152148619Y-99910190D01*
X152148619Y-99910190D02*
X152196238Y-99767333D01*
X152196238Y-99767333D02*
X152291476Y-99672095D01*
X152291476Y-99672095D02*
X152386714Y-99624476D01*
X152386714Y-99624476D02*
X152577190Y-99576857D01*
X152577190Y-99576857D02*
X152720047Y-99576857D01*
X152720047Y-99576857D02*
X152910523Y-99624476D01*
X152910523Y-99624476D02*
X153005761Y-99672095D01*
X153005761Y-99672095D02*
X153101000Y-99767333D01*
X153101000Y-99767333D02*
X153148619Y-99910190D01*
X153148619Y-99910190D02*
X153148619Y-100148285D01*
X152243857Y-99195904D02*
X152196238Y-99148285D01*
X152196238Y-99148285D02*
X152148619Y-99053047D01*
X152148619Y-99053047D02*
X152148619Y-98814952D01*
X152148619Y-98814952D02*
X152196238Y-98719714D01*
X152196238Y-98719714D02*
X152243857Y-98672095D01*
X152243857Y-98672095D02*
X152339095Y-98624476D01*
X152339095Y-98624476D02*
X152434333Y-98624476D01*
X152434333Y-98624476D02*
X152577190Y-98672095D01*
X152577190Y-98672095D02*
X153148619Y-99243523D01*
X153148619Y-99243523D02*
X153148619Y-98624476D01*
X152148619Y-97719714D02*
X152148619Y-98195904D01*
X152148619Y-98195904D02*
X152624809Y-98243523D01*
X152624809Y-98243523D02*
X152577190Y-98195904D01*
X152577190Y-98195904D02*
X152529571Y-98100666D01*
X152529571Y-98100666D02*
X152529571Y-97862571D01*
X152529571Y-97862571D02*
X152577190Y-97767333D01*
X152577190Y-97767333D02*
X152624809Y-97719714D01*
X152624809Y-97719714D02*
X152720047Y-97672095D01*
X152720047Y-97672095D02*
X152958142Y-97672095D01*
X152958142Y-97672095D02*
X153053380Y-97719714D01*
X153053380Y-97719714D02*
X153101000Y-97767333D01*
X153101000Y-97767333D02*
X153148619Y-97862571D01*
X153148619Y-97862571D02*
X153148619Y-98100666D01*
X153148619Y-98100666D02*
X153101000Y-98195904D01*
X153101000Y-98195904D02*
X153053380Y-98243523D01*
%TO.C,D24*%
X150608619Y-100148285D02*
X149608619Y-100148285D01*
X149608619Y-100148285D02*
X149608619Y-99910190D01*
X149608619Y-99910190D02*
X149656238Y-99767333D01*
X149656238Y-99767333D02*
X149751476Y-99672095D01*
X149751476Y-99672095D02*
X149846714Y-99624476D01*
X149846714Y-99624476D02*
X150037190Y-99576857D01*
X150037190Y-99576857D02*
X150180047Y-99576857D01*
X150180047Y-99576857D02*
X150370523Y-99624476D01*
X150370523Y-99624476D02*
X150465761Y-99672095D01*
X150465761Y-99672095D02*
X150561000Y-99767333D01*
X150561000Y-99767333D02*
X150608619Y-99910190D01*
X150608619Y-99910190D02*
X150608619Y-100148285D01*
X149703857Y-99195904D02*
X149656238Y-99148285D01*
X149656238Y-99148285D02*
X149608619Y-99053047D01*
X149608619Y-99053047D02*
X149608619Y-98814952D01*
X149608619Y-98814952D02*
X149656238Y-98719714D01*
X149656238Y-98719714D02*
X149703857Y-98672095D01*
X149703857Y-98672095D02*
X149799095Y-98624476D01*
X149799095Y-98624476D02*
X149894333Y-98624476D01*
X149894333Y-98624476D02*
X150037190Y-98672095D01*
X150037190Y-98672095D02*
X150608619Y-99243523D01*
X150608619Y-99243523D02*
X150608619Y-98624476D01*
X149941952Y-97767333D02*
X150608619Y-97767333D01*
X149561000Y-98005428D02*
X150275285Y-98243523D01*
X150275285Y-98243523D02*
X150275285Y-97624476D01*
%TO.C,D23*%
X148068619Y-100148285D02*
X147068619Y-100148285D01*
X147068619Y-100148285D02*
X147068619Y-99910190D01*
X147068619Y-99910190D02*
X147116238Y-99767333D01*
X147116238Y-99767333D02*
X147211476Y-99672095D01*
X147211476Y-99672095D02*
X147306714Y-99624476D01*
X147306714Y-99624476D02*
X147497190Y-99576857D01*
X147497190Y-99576857D02*
X147640047Y-99576857D01*
X147640047Y-99576857D02*
X147830523Y-99624476D01*
X147830523Y-99624476D02*
X147925761Y-99672095D01*
X147925761Y-99672095D02*
X148021000Y-99767333D01*
X148021000Y-99767333D02*
X148068619Y-99910190D01*
X148068619Y-99910190D02*
X148068619Y-100148285D01*
X147163857Y-99195904D02*
X147116238Y-99148285D01*
X147116238Y-99148285D02*
X147068619Y-99053047D01*
X147068619Y-99053047D02*
X147068619Y-98814952D01*
X147068619Y-98814952D02*
X147116238Y-98719714D01*
X147116238Y-98719714D02*
X147163857Y-98672095D01*
X147163857Y-98672095D02*
X147259095Y-98624476D01*
X147259095Y-98624476D02*
X147354333Y-98624476D01*
X147354333Y-98624476D02*
X147497190Y-98672095D01*
X147497190Y-98672095D02*
X148068619Y-99243523D01*
X148068619Y-99243523D02*
X148068619Y-98624476D01*
X147068619Y-98291142D02*
X147068619Y-97672095D01*
X147068619Y-97672095D02*
X147449571Y-98005428D01*
X147449571Y-98005428D02*
X147449571Y-97862571D01*
X147449571Y-97862571D02*
X147497190Y-97767333D01*
X147497190Y-97767333D02*
X147544809Y-97719714D01*
X147544809Y-97719714D02*
X147640047Y-97672095D01*
X147640047Y-97672095D02*
X147878142Y-97672095D01*
X147878142Y-97672095D02*
X147973380Y-97719714D01*
X147973380Y-97719714D02*
X148021000Y-97767333D01*
X148021000Y-97767333D02*
X148068619Y-97862571D01*
X148068619Y-97862571D02*
X148068619Y-98148285D01*
X148068619Y-98148285D02*
X148021000Y-98243523D01*
X148021000Y-98243523D02*
X147973380Y-98291142D01*
%TO.C,D22*%
X145528619Y-100148285D02*
X144528619Y-100148285D01*
X144528619Y-100148285D02*
X144528619Y-99910190D01*
X144528619Y-99910190D02*
X144576238Y-99767333D01*
X144576238Y-99767333D02*
X144671476Y-99672095D01*
X144671476Y-99672095D02*
X144766714Y-99624476D01*
X144766714Y-99624476D02*
X144957190Y-99576857D01*
X144957190Y-99576857D02*
X145100047Y-99576857D01*
X145100047Y-99576857D02*
X145290523Y-99624476D01*
X145290523Y-99624476D02*
X145385761Y-99672095D01*
X145385761Y-99672095D02*
X145481000Y-99767333D01*
X145481000Y-99767333D02*
X145528619Y-99910190D01*
X145528619Y-99910190D02*
X145528619Y-100148285D01*
X144623857Y-99195904D02*
X144576238Y-99148285D01*
X144576238Y-99148285D02*
X144528619Y-99053047D01*
X144528619Y-99053047D02*
X144528619Y-98814952D01*
X144528619Y-98814952D02*
X144576238Y-98719714D01*
X144576238Y-98719714D02*
X144623857Y-98672095D01*
X144623857Y-98672095D02*
X144719095Y-98624476D01*
X144719095Y-98624476D02*
X144814333Y-98624476D01*
X144814333Y-98624476D02*
X144957190Y-98672095D01*
X144957190Y-98672095D02*
X145528619Y-99243523D01*
X145528619Y-99243523D02*
X145528619Y-98624476D01*
X144623857Y-98243523D02*
X144576238Y-98195904D01*
X144576238Y-98195904D02*
X144528619Y-98100666D01*
X144528619Y-98100666D02*
X144528619Y-97862571D01*
X144528619Y-97862571D02*
X144576238Y-97767333D01*
X144576238Y-97767333D02*
X144623857Y-97719714D01*
X144623857Y-97719714D02*
X144719095Y-97672095D01*
X144719095Y-97672095D02*
X144814333Y-97672095D01*
X144814333Y-97672095D02*
X144957190Y-97719714D01*
X144957190Y-97719714D02*
X145528619Y-98291142D01*
X145528619Y-98291142D02*
X145528619Y-97672095D01*
%TO.C,D21*%
X142988619Y-100148285D02*
X141988619Y-100148285D01*
X141988619Y-100148285D02*
X141988619Y-99910190D01*
X141988619Y-99910190D02*
X142036238Y-99767333D01*
X142036238Y-99767333D02*
X142131476Y-99672095D01*
X142131476Y-99672095D02*
X142226714Y-99624476D01*
X142226714Y-99624476D02*
X142417190Y-99576857D01*
X142417190Y-99576857D02*
X142560047Y-99576857D01*
X142560047Y-99576857D02*
X142750523Y-99624476D01*
X142750523Y-99624476D02*
X142845761Y-99672095D01*
X142845761Y-99672095D02*
X142941000Y-99767333D01*
X142941000Y-99767333D02*
X142988619Y-99910190D01*
X142988619Y-99910190D02*
X142988619Y-100148285D01*
X142083857Y-99195904D02*
X142036238Y-99148285D01*
X142036238Y-99148285D02*
X141988619Y-99053047D01*
X141988619Y-99053047D02*
X141988619Y-98814952D01*
X141988619Y-98814952D02*
X142036238Y-98719714D01*
X142036238Y-98719714D02*
X142083857Y-98672095D01*
X142083857Y-98672095D02*
X142179095Y-98624476D01*
X142179095Y-98624476D02*
X142274333Y-98624476D01*
X142274333Y-98624476D02*
X142417190Y-98672095D01*
X142417190Y-98672095D02*
X142988619Y-99243523D01*
X142988619Y-99243523D02*
X142988619Y-98624476D01*
X142988619Y-97672095D02*
X142988619Y-98243523D01*
X142988619Y-97957809D02*
X141988619Y-97957809D01*
X141988619Y-97957809D02*
X142131476Y-98053047D01*
X142131476Y-98053047D02*
X142226714Y-98148285D01*
X142226714Y-98148285D02*
X142274333Y-98243523D01*
%TO.C,D20*%
X165848619Y-87192285D02*
X164848619Y-87192285D01*
X164848619Y-87192285D02*
X164848619Y-86954190D01*
X164848619Y-86954190D02*
X164896238Y-86811333D01*
X164896238Y-86811333D02*
X164991476Y-86716095D01*
X164991476Y-86716095D02*
X165086714Y-86668476D01*
X165086714Y-86668476D02*
X165277190Y-86620857D01*
X165277190Y-86620857D02*
X165420047Y-86620857D01*
X165420047Y-86620857D02*
X165610523Y-86668476D01*
X165610523Y-86668476D02*
X165705761Y-86716095D01*
X165705761Y-86716095D02*
X165801000Y-86811333D01*
X165801000Y-86811333D02*
X165848619Y-86954190D01*
X165848619Y-86954190D02*
X165848619Y-87192285D01*
X164943857Y-86239904D02*
X164896238Y-86192285D01*
X164896238Y-86192285D02*
X164848619Y-86097047D01*
X164848619Y-86097047D02*
X164848619Y-85858952D01*
X164848619Y-85858952D02*
X164896238Y-85763714D01*
X164896238Y-85763714D02*
X164943857Y-85716095D01*
X164943857Y-85716095D02*
X165039095Y-85668476D01*
X165039095Y-85668476D02*
X165134333Y-85668476D01*
X165134333Y-85668476D02*
X165277190Y-85716095D01*
X165277190Y-85716095D02*
X165848619Y-86287523D01*
X165848619Y-86287523D02*
X165848619Y-85668476D01*
X164848619Y-85049428D02*
X164848619Y-84954190D01*
X164848619Y-84954190D02*
X164896238Y-84858952D01*
X164896238Y-84858952D02*
X164943857Y-84811333D01*
X164943857Y-84811333D02*
X165039095Y-84763714D01*
X165039095Y-84763714D02*
X165229571Y-84716095D01*
X165229571Y-84716095D02*
X165467666Y-84716095D01*
X165467666Y-84716095D02*
X165658142Y-84763714D01*
X165658142Y-84763714D02*
X165753380Y-84811333D01*
X165753380Y-84811333D02*
X165801000Y-84858952D01*
X165801000Y-84858952D02*
X165848619Y-84954190D01*
X165848619Y-84954190D02*
X165848619Y-85049428D01*
X165848619Y-85049428D02*
X165801000Y-85144666D01*
X165801000Y-85144666D02*
X165753380Y-85192285D01*
X165753380Y-85192285D02*
X165658142Y-85239904D01*
X165658142Y-85239904D02*
X165467666Y-85287523D01*
X165467666Y-85287523D02*
X165229571Y-85287523D01*
X165229571Y-85287523D02*
X165039095Y-85239904D01*
X165039095Y-85239904D02*
X164943857Y-85192285D01*
X164943857Y-85192285D02*
X164896238Y-85144666D01*
X164896238Y-85144666D02*
X164848619Y-85049428D01*
%TO.C,D19*%
X163308619Y-87192285D02*
X162308619Y-87192285D01*
X162308619Y-87192285D02*
X162308619Y-86954190D01*
X162308619Y-86954190D02*
X162356238Y-86811333D01*
X162356238Y-86811333D02*
X162451476Y-86716095D01*
X162451476Y-86716095D02*
X162546714Y-86668476D01*
X162546714Y-86668476D02*
X162737190Y-86620857D01*
X162737190Y-86620857D02*
X162880047Y-86620857D01*
X162880047Y-86620857D02*
X163070523Y-86668476D01*
X163070523Y-86668476D02*
X163165761Y-86716095D01*
X163165761Y-86716095D02*
X163261000Y-86811333D01*
X163261000Y-86811333D02*
X163308619Y-86954190D01*
X163308619Y-86954190D02*
X163308619Y-87192285D01*
X163308619Y-85668476D02*
X163308619Y-86239904D01*
X163308619Y-85954190D02*
X162308619Y-85954190D01*
X162308619Y-85954190D02*
X162451476Y-86049428D01*
X162451476Y-86049428D02*
X162546714Y-86144666D01*
X162546714Y-86144666D02*
X162594333Y-86239904D01*
X163308619Y-85192285D02*
X163308619Y-85001809D01*
X163308619Y-85001809D02*
X163261000Y-84906571D01*
X163261000Y-84906571D02*
X163213380Y-84858952D01*
X163213380Y-84858952D02*
X163070523Y-84763714D01*
X163070523Y-84763714D02*
X162880047Y-84716095D01*
X162880047Y-84716095D02*
X162499095Y-84716095D01*
X162499095Y-84716095D02*
X162403857Y-84763714D01*
X162403857Y-84763714D02*
X162356238Y-84811333D01*
X162356238Y-84811333D02*
X162308619Y-84906571D01*
X162308619Y-84906571D02*
X162308619Y-85097047D01*
X162308619Y-85097047D02*
X162356238Y-85192285D01*
X162356238Y-85192285D02*
X162403857Y-85239904D01*
X162403857Y-85239904D02*
X162499095Y-85287523D01*
X162499095Y-85287523D02*
X162737190Y-85287523D01*
X162737190Y-85287523D02*
X162832428Y-85239904D01*
X162832428Y-85239904D02*
X162880047Y-85192285D01*
X162880047Y-85192285D02*
X162927666Y-85097047D01*
X162927666Y-85097047D02*
X162927666Y-84906571D01*
X162927666Y-84906571D02*
X162880047Y-84811333D01*
X162880047Y-84811333D02*
X162832428Y-84763714D01*
X162832428Y-84763714D02*
X162737190Y-84716095D01*
%TO.C,D18*%
X160768619Y-87192285D02*
X159768619Y-87192285D01*
X159768619Y-87192285D02*
X159768619Y-86954190D01*
X159768619Y-86954190D02*
X159816238Y-86811333D01*
X159816238Y-86811333D02*
X159911476Y-86716095D01*
X159911476Y-86716095D02*
X160006714Y-86668476D01*
X160006714Y-86668476D02*
X160197190Y-86620857D01*
X160197190Y-86620857D02*
X160340047Y-86620857D01*
X160340047Y-86620857D02*
X160530523Y-86668476D01*
X160530523Y-86668476D02*
X160625761Y-86716095D01*
X160625761Y-86716095D02*
X160721000Y-86811333D01*
X160721000Y-86811333D02*
X160768619Y-86954190D01*
X160768619Y-86954190D02*
X160768619Y-87192285D01*
X160768619Y-85668476D02*
X160768619Y-86239904D01*
X160768619Y-85954190D02*
X159768619Y-85954190D01*
X159768619Y-85954190D02*
X159911476Y-86049428D01*
X159911476Y-86049428D02*
X160006714Y-86144666D01*
X160006714Y-86144666D02*
X160054333Y-86239904D01*
X160197190Y-85097047D02*
X160149571Y-85192285D01*
X160149571Y-85192285D02*
X160101952Y-85239904D01*
X160101952Y-85239904D02*
X160006714Y-85287523D01*
X160006714Y-85287523D02*
X159959095Y-85287523D01*
X159959095Y-85287523D02*
X159863857Y-85239904D01*
X159863857Y-85239904D02*
X159816238Y-85192285D01*
X159816238Y-85192285D02*
X159768619Y-85097047D01*
X159768619Y-85097047D02*
X159768619Y-84906571D01*
X159768619Y-84906571D02*
X159816238Y-84811333D01*
X159816238Y-84811333D02*
X159863857Y-84763714D01*
X159863857Y-84763714D02*
X159959095Y-84716095D01*
X159959095Y-84716095D02*
X160006714Y-84716095D01*
X160006714Y-84716095D02*
X160101952Y-84763714D01*
X160101952Y-84763714D02*
X160149571Y-84811333D01*
X160149571Y-84811333D02*
X160197190Y-84906571D01*
X160197190Y-84906571D02*
X160197190Y-85097047D01*
X160197190Y-85097047D02*
X160244809Y-85192285D01*
X160244809Y-85192285D02*
X160292428Y-85239904D01*
X160292428Y-85239904D02*
X160387666Y-85287523D01*
X160387666Y-85287523D02*
X160578142Y-85287523D01*
X160578142Y-85287523D02*
X160673380Y-85239904D01*
X160673380Y-85239904D02*
X160721000Y-85192285D01*
X160721000Y-85192285D02*
X160768619Y-85097047D01*
X160768619Y-85097047D02*
X160768619Y-84906571D01*
X160768619Y-84906571D02*
X160721000Y-84811333D01*
X160721000Y-84811333D02*
X160673380Y-84763714D01*
X160673380Y-84763714D02*
X160578142Y-84716095D01*
X160578142Y-84716095D02*
X160387666Y-84716095D01*
X160387666Y-84716095D02*
X160292428Y-84763714D01*
X160292428Y-84763714D02*
X160244809Y-84811333D01*
X160244809Y-84811333D02*
X160197190Y-84906571D01*
%TO.C,D17*%
X158228619Y-87192285D02*
X157228619Y-87192285D01*
X157228619Y-87192285D02*
X157228619Y-86954190D01*
X157228619Y-86954190D02*
X157276238Y-86811333D01*
X157276238Y-86811333D02*
X157371476Y-86716095D01*
X157371476Y-86716095D02*
X157466714Y-86668476D01*
X157466714Y-86668476D02*
X157657190Y-86620857D01*
X157657190Y-86620857D02*
X157800047Y-86620857D01*
X157800047Y-86620857D02*
X157990523Y-86668476D01*
X157990523Y-86668476D02*
X158085761Y-86716095D01*
X158085761Y-86716095D02*
X158181000Y-86811333D01*
X158181000Y-86811333D02*
X158228619Y-86954190D01*
X158228619Y-86954190D02*
X158228619Y-87192285D01*
X158228619Y-85668476D02*
X158228619Y-86239904D01*
X158228619Y-85954190D02*
X157228619Y-85954190D01*
X157228619Y-85954190D02*
X157371476Y-86049428D01*
X157371476Y-86049428D02*
X157466714Y-86144666D01*
X157466714Y-86144666D02*
X157514333Y-86239904D01*
X157228619Y-85335142D02*
X157228619Y-84668476D01*
X157228619Y-84668476D02*
X158228619Y-85097047D01*
%TO.C,D16*%
X155688619Y-87192285D02*
X154688619Y-87192285D01*
X154688619Y-87192285D02*
X154688619Y-86954190D01*
X154688619Y-86954190D02*
X154736238Y-86811333D01*
X154736238Y-86811333D02*
X154831476Y-86716095D01*
X154831476Y-86716095D02*
X154926714Y-86668476D01*
X154926714Y-86668476D02*
X155117190Y-86620857D01*
X155117190Y-86620857D02*
X155260047Y-86620857D01*
X155260047Y-86620857D02*
X155450523Y-86668476D01*
X155450523Y-86668476D02*
X155545761Y-86716095D01*
X155545761Y-86716095D02*
X155641000Y-86811333D01*
X155641000Y-86811333D02*
X155688619Y-86954190D01*
X155688619Y-86954190D02*
X155688619Y-87192285D01*
X155688619Y-85668476D02*
X155688619Y-86239904D01*
X155688619Y-85954190D02*
X154688619Y-85954190D01*
X154688619Y-85954190D02*
X154831476Y-86049428D01*
X154831476Y-86049428D02*
X154926714Y-86144666D01*
X154926714Y-86144666D02*
X154974333Y-86239904D01*
X154688619Y-84811333D02*
X154688619Y-85001809D01*
X154688619Y-85001809D02*
X154736238Y-85097047D01*
X154736238Y-85097047D02*
X154783857Y-85144666D01*
X154783857Y-85144666D02*
X154926714Y-85239904D01*
X154926714Y-85239904D02*
X155117190Y-85287523D01*
X155117190Y-85287523D02*
X155498142Y-85287523D01*
X155498142Y-85287523D02*
X155593380Y-85239904D01*
X155593380Y-85239904D02*
X155641000Y-85192285D01*
X155641000Y-85192285D02*
X155688619Y-85097047D01*
X155688619Y-85097047D02*
X155688619Y-84906571D01*
X155688619Y-84906571D02*
X155641000Y-84811333D01*
X155641000Y-84811333D02*
X155593380Y-84763714D01*
X155593380Y-84763714D02*
X155498142Y-84716095D01*
X155498142Y-84716095D02*
X155260047Y-84716095D01*
X155260047Y-84716095D02*
X155164809Y-84763714D01*
X155164809Y-84763714D02*
X155117190Y-84811333D01*
X155117190Y-84811333D02*
X155069571Y-84906571D01*
X155069571Y-84906571D02*
X155069571Y-85097047D01*
X155069571Y-85097047D02*
X155117190Y-85192285D01*
X155117190Y-85192285D02*
X155164809Y-85239904D01*
X155164809Y-85239904D02*
X155260047Y-85287523D01*
%TO.C,D15*%
X153148619Y-87192285D02*
X152148619Y-87192285D01*
X152148619Y-87192285D02*
X152148619Y-86954190D01*
X152148619Y-86954190D02*
X152196238Y-86811333D01*
X152196238Y-86811333D02*
X152291476Y-86716095D01*
X152291476Y-86716095D02*
X152386714Y-86668476D01*
X152386714Y-86668476D02*
X152577190Y-86620857D01*
X152577190Y-86620857D02*
X152720047Y-86620857D01*
X152720047Y-86620857D02*
X152910523Y-86668476D01*
X152910523Y-86668476D02*
X153005761Y-86716095D01*
X153005761Y-86716095D02*
X153101000Y-86811333D01*
X153101000Y-86811333D02*
X153148619Y-86954190D01*
X153148619Y-86954190D02*
X153148619Y-87192285D01*
X153148619Y-85668476D02*
X153148619Y-86239904D01*
X153148619Y-85954190D02*
X152148619Y-85954190D01*
X152148619Y-85954190D02*
X152291476Y-86049428D01*
X152291476Y-86049428D02*
X152386714Y-86144666D01*
X152386714Y-86144666D02*
X152434333Y-86239904D01*
X152148619Y-84763714D02*
X152148619Y-85239904D01*
X152148619Y-85239904D02*
X152624809Y-85287523D01*
X152624809Y-85287523D02*
X152577190Y-85239904D01*
X152577190Y-85239904D02*
X152529571Y-85144666D01*
X152529571Y-85144666D02*
X152529571Y-84906571D01*
X152529571Y-84906571D02*
X152577190Y-84811333D01*
X152577190Y-84811333D02*
X152624809Y-84763714D01*
X152624809Y-84763714D02*
X152720047Y-84716095D01*
X152720047Y-84716095D02*
X152958142Y-84716095D01*
X152958142Y-84716095D02*
X153053380Y-84763714D01*
X153053380Y-84763714D02*
X153101000Y-84811333D01*
X153101000Y-84811333D02*
X153148619Y-84906571D01*
X153148619Y-84906571D02*
X153148619Y-85144666D01*
X153148619Y-85144666D02*
X153101000Y-85239904D01*
X153101000Y-85239904D02*
X153053380Y-85287523D01*
%TO.C,D14*%
X150608619Y-87192285D02*
X149608619Y-87192285D01*
X149608619Y-87192285D02*
X149608619Y-86954190D01*
X149608619Y-86954190D02*
X149656238Y-86811333D01*
X149656238Y-86811333D02*
X149751476Y-86716095D01*
X149751476Y-86716095D02*
X149846714Y-86668476D01*
X149846714Y-86668476D02*
X150037190Y-86620857D01*
X150037190Y-86620857D02*
X150180047Y-86620857D01*
X150180047Y-86620857D02*
X150370523Y-86668476D01*
X150370523Y-86668476D02*
X150465761Y-86716095D01*
X150465761Y-86716095D02*
X150561000Y-86811333D01*
X150561000Y-86811333D02*
X150608619Y-86954190D01*
X150608619Y-86954190D02*
X150608619Y-87192285D01*
X150608619Y-85668476D02*
X150608619Y-86239904D01*
X150608619Y-85954190D02*
X149608619Y-85954190D01*
X149608619Y-85954190D02*
X149751476Y-86049428D01*
X149751476Y-86049428D02*
X149846714Y-86144666D01*
X149846714Y-86144666D02*
X149894333Y-86239904D01*
X149941952Y-84811333D02*
X150608619Y-84811333D01*
X149561000Y-85049428D02*
X150275285Y-85287523D01*
X150275285Y-85287523D02*
X150275285Y-84668476D01*
%TO.C,D13*%
X148068619Y-87192285D02*
X147068619Y-87192285D01*
X147068619Y-87192285D02*
X147068619Y-86954190D01*
X147068619Y-86954190D02*
X147116238Y-86811333D01*
X147116238Y-86811333D02*
X147211476Y-86716095D01*
X147211476Y-86716095D02*
X147306714Y-86668476D01*
X147306714Y-86668476D02*
X147497190Y-86620857D01*
X147497190Y-86620857D02*
X147640047Y-86620857D01*
X147640047Y-86620857D02*
X147830523Y-86668476D01*
X147830523Y-86668476D02*
X147925761Y-86716095D01*
X147925761Y-86716095D02*
X148021000Y-86811333D01*
X148021000Y-86811333D02*
X148068619Y-86954190D01*
X148068619Y-86954190D02*
X148068619Y-87192285D01*
X148068619Y-85668476D02*
X148068619Y-86239904D01*
X148068619Y-85954190D02*
X147068619Y-85954190D01*
X147068619Y-85954190D02*
X147211476Y-86049428D01*
X147211476Y-86049428D02*
X147306714Y-86144666D01*
X147306714Y-86144666D02*
X147354333Y-86239904D01*
X147068619Y-85335142D02*
X147068619Y-84716095D01*
X147068619Y-84716095D02*
X147449571Y-85049428D01*
X147449571Y-85049428D02*
X147449571Y-84906571D01*
X147449571Y-84906571D02*
X147497190Y-84811333D01*
X147497190Y-84811333D02*
X147544809Y-84763714D01*
X147544809Y-84763714D02*
X147640047Y-84716095D01*
X147640047Y-84716095D02*
X147878142Y-84716095D01*
X147878142Y-84716095D02*
X147973380Y-84763714D01*
X147973380Y-84763714D02*
X148021000Y-84811333D01*
X148021000Y-84811333D02*
X148068619Y-84906571D01*
X148068619Y-84906571D02*
X148068619Y-85192285D01*
X148068619Y-85192285D02*
X148021000Y-85287523D01*
X148021000Y-85287523D02*
X147973380Y-85335142D01*
%TO.C,D12*%
X145528619Y-87192285D02*
X144528619Y-87192285D01*
X144528619Y-87192285D02*
X144528619Y-86954190D01*
X144528619Y-86954190D02*
X144576238Y-86811333D01*
X144576238Y-86811333D02*
X144671476Y-86716095D01*
X144671476Y-86716095D02*
X144766714Y-86668476D01*
X144766714Y-86668476D02*
X144957190Y-86620857D01*
X144957190Y-86620857D02*
X145100047Y-86620857D01*
X145100047Y-86620857D02*
X145290523Y-86668476D01*
X145290523Y-86668476D02*
X145385761Y-86716095D01*
X145385761Y-86716095D02*
X145481000Y-86811333D01*
X145481000Y-86811333D02*
X145528619Y-86954190D01*
X145528619Y-86954190D02*
X145528619Y-87192285D01*
X145528619Y-85668476D02*
X145528619Y-86239904D01*
X145528619Y-85954190D02*
X144528619Y-85954190D01*
X144528619Y-85954190D02*
X144671476Y-86049428D01*
X144671476Y-86049428D02*
X144766714Y-86144666D01*
X144766714Y-86144666D02*
X144814333Y-86239904D01*
X144623857Y-85287523D02*
X144576238Y-85239904D01*
X144576238Y-85239904D02*
X144528619Y-85144666D01*
X144528619Y-85144666D02*
X144528619Y-84906571D01*
X144528619Y-84906571D02*
X144576238Y-84811333D01*
X144576238Y-84811333D02*
X144623857Y-84763714D01*
X144623857Y-84763714D02*
X144719095Y-84716095D01*
X144719095Y-84716095D02*
X144814333Y-84716095D01*
X144814333Y-84716095D02*
X144957190Y-84763714D01*
X144957190Y-84763714D02*
X145528619Y-85335142D01*
X145528619Y-85335142D02*
X145528619Y-84716095D01*
%TO.C,D11*%
X142988619Y-87192285D02*
X141988619Y-87192285D01*
X141988619Y-87192285D02*
X141988619Y-86954190D01*
X141988619Y-86954190D02*
X142036238Y-86811333D01*
X142036238Y-86811333D02*
X142131476Y-86716095D01*
X142131476Y-86716095D02*
X142226714Y-86668476D01*
X142226714Y-86668476D02*
X142417190Y-86620857D01*
X142417190Y-86620857D02*
X142560047Y-86620857D01*
X142560047Y-86620857D02*
X142750523Y-86668476D01*
X142750523Y-86668476D02*
X142845761Y-86716095D01*
X142845761Y-86716095D02*
X142941000Y-86811333D01*
X142941000Y-86811333D02*
X142988619Y-86954190D01*
X142988619Y-86954190D02*
X142988619Y-87192285D01*
X142988619Y-85668476D02*
X142988619Y-86239904D01*
X142988619Y-85954190D02*
X141988619Y-85954190D01*
X141988619Y-85954190D02*
X142131476Y-86049428D01*
X142131476Y-86049428D02*
X142226714Y-86144666D01*
X142226714Y-86144666D02*
X142274333Y-86239904D01*
X142988619Y-84716095D02*
X142988619Y-85287523D01*
X142988619Y-85001809D02*
X141988619Y-85001809D01*
X141988619Y-85001809D02*
X142131476Y-85097047D01*
X142131476Y-85097047D02*
X142226714Y-85192285D01*
X142226714Y-85192285D02*
X142274333Y-85287523D01*
%TO.C,D10*%
X165848619Y-75000285D02*
X164848619Y-75000285D01*
X164848619Y-75000285D02*
X164848619Y-74762190D01*
X164848619Y-74762190D02*
X164896238Y-74619333D01*
X164896238Y-74619333D02*
X164991476Y-74524095D01*
X164991476Y-74524095D02*
X165086714Y-74476476D01*
X165086714Y-74476476D02*
X165277190Y-74428857D01*
X165277190Y-74428857D02*
X165420047Y-74428857D01*
X165420047Y-74428857D02*
X165610523Y-74476476D01*
X165610523Y-74476476D02*
X165705761Y-74524095D01*
X165705761Y-74524095D02*
X165801000Y-74619333D01*
X165801000Y-74619333D02*
X165848619Y-74762190D01*
X165848619Y-74762190D02*
X165848619Y-75000285D01*
X165848619Y-73476476D02*
X165848619Y-74047904D01*
X165848619Y-73762190D02*
X164848619Y-73762190D01*
X164848619Y-73762190D02*
X164991476Y-73857428D01*
X164991476Y-73857428D02*
X165086714Y-73952666D01*
X165086714Y-73952666D02*
X165134333Y-74047904D01*
X164848619Y-72857428D02*
X164848619Y-72762190D01*
X164848619Y-72762190D02*
X164896238Y-72666952D01*
X164896238Y-72666952D02*
X164943857Y-72619333D01*
X164943857Y-72619333D02*
X165039095Y-72571714D01*
X165039095Y-72571714D02*
X165229571Y-72524095D01*
X165229571Y-72524095D02*
X165467666Y-72524095D01*
X165467666Y-72524095D02*
X165658142Y-72571714D01*
X165658142Y-72571714D02*
X165753380Y-72619333D01*
X165753380Y-72619333D02*
X165801000Y-72666952D01*
X165801000Y-72666952D02*
X165848619Y-72762190D01*
X165848619Y-72762190D02*
X165848619Y-72857428D01*
X165848619Y-72857428D02*
X165801000Y-72952666D01*
X165801000Y-72952666D02*
X165753380Y-73000285D01*
X165753380Y-73000285D02*
X165658142Y-73047904D01*
X165658142Y-73047904D02*
X165467666Y-73095523D01*
X165467666Y-73095523D02*
X165229571Y-73095523D01*
X165229571Y-73095523D02*
X165039095Y-73047904D01*
X165039095Y-73047904D02*
X164943857Y-73000285D01*
X164943857Y-73000285D02*
X164896238Y-72952666D01*
X164896238Y-72952666D02*
X164848619Y-72857428D01*
%TO.C,D9*%
X163308619Y-74524094D02*
X162308619Y-74524094D01*
X162308619Y-74524094D02*
X162308619Y-74285999D01*
X162308619Y-74285999D02*
X162356238Y-74143142D01*
X162356238Y-74143142D02*
X162451476Y-74047904D01*
X162451476Y-74047904D02*
X162546714Y-74000285D01*
X162546714Y-74000285D02*
X162737190Y-73952666D01*
X162737190Y-73952666D02*
X162880047Y-73952666D01*
X162880047Y-73952666D02*
X163070523Y-74000285D01*
X163070523Y-74000285D02*
X163165761Y-74047904D01*
X163165761Y-74047904D02*
X163261000Y-74143142D01*
X163261000Y-74143142D02*
X163308619Y-74285999D01*
X163308619Y-74285999D02*
X163308619Y-74524094D01*
X163308619Y-73476475D02*
X163308619Y-73285999D01*
X163308619Y-73285999D02*
X163261000Y-73190761D01*
X163261000Y-73190761D02*
X163213380Y-73143142D01*
X163213380Y-73143142D02*
X163070523Y-73047904D01*
X163070523Y-73047904D02*
X162880047Y-73000285D01*
X162880047Y-73000285D02*
X162499095Y-73000285D01*
X162499095Y-73000285D02*
X162403857Y-73047904D01*
X162403857Y-73047904D02*
X162356238Y-73095523D01*
X162356238Y-73095523D02*
X162308619Y-73190761D01*
X162308619Y-73190761D02*
X162308619Y-73381237D01*
X162308619Y-73381237D02*
X162356238Y-73476475D01*
X162356238Y-73476475D02*
X162403857Y-73524094D01*
X162403857Y-73524094D02*
X162499095Y-73571713D01*
X162499095Y-73571713D02*
X162737190Y-73571713D01*
X162737190Y-73571713D02*
X162832428Y-73524094D01*
X162832428Y-73524094D02*
X162880047Y-73476475D01*
X162880047Y-73476475D02*
X162927666Y-73381237D01*
X162927666Y-73381237D02*
X162927666Y-73190761D01*
X162927666Y-73190761D02*
X162880047Y-73095523D01*
X162880047Y-73095523D02*
X162832428Y-73047904D01*
X162832428Y-73047904D02*
X162737190Y-73000285D01*
%TO.C,D8*%
X160768619Y-74524094D02*
X159768619Y-74524094D01*
X159768619Y-74524094D02*
X159768619Y-74285999D01*
X159768619Y-74285999D02*
X159816238Y-74143142D01*
X159816238Y-74143142D02*
X159911476Y-74047904D01*
X159911476Y-74047904D02*
X160006714Y-74000285D01*
X160006714Y-74000285D02*
X160197190Y-73952666D01*
X160197190Y-73952666D02*
X160340047Y-73952666D01*
X160340047Y-73952666D02*
X160530523Y-74000285D01*
X160530523Y-74000285D02*
X160625761Y-74047904D01*
X160625761Y-74047904D02*
X160721000Y-74143142D01*
X160721000Y-74143142D02*
X160768619Y-74285999D01*
X160768619Y-74285999D02*
X160768619Y-74524094D01*
X160197190Y-73381237D02*
X160149571Y-73476475D01*
X160149571Y-73476475D02*
X160101952Y-73524094D01*
X160101952Y-73524094D02*
X160006714Y-73571713D01*
X160006714Y-73571713D02*
X159959095Y-73571713D01*
X159959095Y-73571713D02*
X159863857Y-73524094D01*
X159863857Y-73524094D02*
X159816238Y-73476475D01*
X159816238Y-73476475D02*
X159768619Y-73381237D01*
X159768619Y-73381237D02*
X159768619Y-73190761D01*
X159768619Y-73190761D02*
X159816238Y-73095523D01*
X159816238Y-73095523D02*
X159863857Y-73047904D01*
X159863857Y-73047904D02*
X159959095Y-73000285D01*
X159959095Y-73000285D02*
X160006714Y-73000285D01*
X160006714Y-73000285D02*
X160101952Y-73047904D01*
X160101952Y-73047904D02*
X160149571Y-73095523D01*
X160149571Y-73095523D02*
X160197190Y-73190761D01*
X160197190Y-73190761D02*
X160197190Y-73381237D01*
X160197190Y-73381237D02*
X160244809Y-73476475D01*
X160244809Y-73476475D02*
X160292428Y-73524094D01*
X160292428Y-73524094D02*
X160387666Y-73571713D01*
X160387666Y-73571713D02*
X160578142Y-73571713D01*
X160578142Y-73571713D02*
X160673380Y-73524094D01*
X160673380Y-73524094D02*
X160721000Y-73476475D01*
X160721000Y-73476475D02*
X160768619Y-73381237D01*
X160768619Y-73381237D02*
X160768619Y-73190761D01*
X160768619Y-73190761D02*
X160721000Y-73095523D01*
X160721000Y-73095523D02*
X160673380Y-73047904D01*
X160673380Y-73047904D02*
X160578142Y-73000285D01*
X160578142Y-73000285D02*
X160387666Y-73000285D01*
X160387666Y-73000285D02*
X160292428Y-73047904D01*
X160292428Y-73047904D02*
X160244809Y-73095523D01*
X160244809Y-73095523D02*
X160197190Y-73190761D01*
%TO.C,D7*%
X158228619Y-74524094D02*
X157228619Y-74524094D01*
X157228619Y-74524094D02*
X157228619Y-74285999D01*
X157228619Y-74285999D02*
X157276238Y-74143142D01*
X157276238Y-74143142D02*
X157371476Y-74047904D01*
X157371476Y-74047904D02*
X157466714Y-74000285D01*
X157466714Y-74000285D02*
X157657190Y-73952666D01*
X157657190Y-73952666D02*
X157800047Y-73952666D01*
X157800047Y-73952666D02*
X157990523Y-74000285D01*
X157990523Y-74000285D02*
X158085761Y-74047904D01*
X158085761Y-74047904D02*
X158181000Y-74143142D01*
X158181000Y-74143142D02*
X158228619Y-74285999D01*
X158228619Y-74285999D02*
X158228619Y-74524094D01*
X157228619Y-73619332D02*
X157228619Y-72952666D01*
X157228619Y-72952666D02*
X158228619Y-73381237D01*
%TO.C,D6*%
X155688619Y-74524094D02*
X154688619Y-74524094D01*
X154688619Y-74524094D02*
X154688619Y-74285999D01*
X154688619Y-74285999D02*
X154736238Y-74143142D01*
X154736238Y-74143142D02*
X154831476Y-74047904D01*
X154831476Y-74047904D02*
X154926714Y-74000285D01*
X154926714Y-74000285D02*
X155117190Y-73952666D01*
X155117190Y-73952666D02*
X155260047Y-73952666D01*
X155260047Y-73952666D02*
X155450523Y-74000285D01*
X155450523Y-74000285D02*
X155545761Y-74047904D01*
X155545761Y-74047904D02*
X155641000Y-74143142D01*
X155641000Y-74143142D02*
X155688619Y-74285999D01*
X155688619Y-74285999D02*
X155688619Y-74524094D01*
X154688619Y-73095523D02*
X154688619Y-73285999D01*
X154688619Y-73285999D02*
X154736238Y-73381237D01*
X154736238Y-73381237D02*
X154783857Y-73428856D01*
X154783857Y-73428856D02*
X154926714Y-73524094D01*
X154926714Y-73524094D02*
X155117190Y-73571713D01*
X155117190Y-73571713D02*
X155498142Y-73571713D01*
X155498142Y-73571713D02*
X155593380Y-73524094D01*
X155593380Y-73524094D02*
X155641000Y-73476475D01*
X155641000Y-73476475D02*
X155688619Y-73381237D01*
X155688619Y-73381237D02*
X155688619Y-73190761D01*
X155688619Y-73190761D02*
X155641000Y-73095523D01*
X155641000Y-73095523D02*
X155593380Y-73047904D01*
X155593380Y-73047904D02*
X155498142Y-73000285D01*
X155498142Y-73000285D02*
X155260047Y-73000285D01*
X155260047Y-73000285D02*
X155164809Y-73047904D01*
X155164809Y-73047904D02*
X155117190Y-73095523D01*
X155117190Y-73095523D02*
X155069571Y-73190761D01*
X155069571Y-73190761D02*
X155069571Y-73381237D01*
X155069571Y-73381237D02*
X155117190Y-73476475D01*
X155117190Y-73476475D02*
X155164809Y-73524094D01*
X155164809Y-73524094D02*
X155260047Y-73571713D01*
%TO.C,D5*%
X153148619Y-74524094D02*
X152148619Y-74524094D01*
X152148619Y-74524094D02*
X152148619Y-74285999D01*
X152148619Y-74285999D02*
X152196238Y-74143142D01*
X152196238Y-74143142D02*
X152291476Y-74047904D01*
X152291476Y-74047904D02*
X152386714Y-74000285D01*
X152386714Y-74000285D02*
X152577190Y-73952666D01*
X152577190Y-73952666D02*
X152720047Y-73952666D01*
X152720047Y-73952666D02*
X152910523Y-74000285D01*
X152910523Y-74000285D02*
X153005761Y-74047904D01*
X153005761Y-74047904D02*
X153101000Y-74143142D01*
X153101000Y-74143142D02*
X153148619Y-74285999D01*
X153148619Y-74285999D02*
X153148619Y-74524094D01*
X152148619Y-73047904D02*
X152148619Y-73524094D01*
X152148619Y-73524094D02*
X152624809Y-73571713D01*
X152624809Y-73571713D02*
X152577190Y-73524094D01*
X152577190Y-73524094D02*
X152529571Y-73428856D01*
X152529571Y-73428856D02*
X152529571Y-73190761D01*
X152529571Y-73190761D02*
X152577190Y-73095523D01*
X152577190Y-73095523D02*
X152624809Y-73047904D01*
X152624809Y-73047904D02*
X152720047Y-73000285D01*
X152720047Y-73000285D02*
X152958142Y-73000285D01*
X152958142Y-73000285D02*
X153053380Y-73047904D01*
X153053380Y-73047904D02*
X153101000Y-73095523D01*
X153101000Y-73095523D02*
X153148619Y-73190761D01*
X153148619Y-73190761D02*
X153148619Y-73428856D01*
X153148619Y-73428856D02*
X153101000Y-73524094D01*
X153101000Y-73524094D02*
X153053380Y-73571713D01*
%TO.C,D4*%
X150608619Y-74524094D02*
X149608619Y-74524094D01*
X149608619Y-74524094D02*
X149608619Y-74285999D01*
X149608619Y-74285999D02*
X149656238Y-74143142D01*
X149656238Y-74143142D02*
X149751476Y-74047904D01*
X149751476Y-74047904D02*
X149846714Y-74000285D01*
X149846714Y-74000285D02*
X150037190Y-73952666D01*
X150037190Y-73952666D02*
X150180047Y-73952666D01*
X150180047Y-73952666D02*
X150370523Y-74000285D01*
X150370523Y-74000285D02*
X150465761Y-74047904D01*
X150465761Y-74047904D02*
X150561000Y-74143142D01*
X150561000Y-74143142D02*
X150608619Y-74285999D01*
X150608619Y-74285999D02*
X150608619Y-74524094D01*
X149941952Y-73095523D02*
X150608619Y-73095523D01*
X149561000Y-73333618D02*
X150275285Y-73571713D01*
X150275285Y-73571713D02*
X150275285Y-72952666D01*
%TO.C,D3*%
X148068619Y-74524094D02*
X147068619Y-74524094D01*
X147068619Y-74524094D02*
X147068619Y-74285999D01*
X147068619Y-74285999D02*
X147116238Y-74143142D01*
X147116238Y-74143142D02*
X147211476Y-74047904D01*
X147211476Y-74047904D02*
X147306714Y-74000285D01*
X147306714Y-74000285D02*
X147497190Y-73952666D01*
X147497190Y-73952666D02*
X147640047Y-73952666D01*
X147640047Y-73952666D02*
X147830523Y-74000285D01*
X147830523Y-74000285D02*
X147925761Y-74047904D01*
X147925761Y-74047904D02*
X148021000Y-74143142D01*
X148021000Y-74143142D02*
X148068619Y-74285999D01*
X148068619Y-74285999D02*
X148068619Y-74524094D01*
X147068619Y-73619332D02*
X147068619Y-73000285D01*
X147068619Y-73000285D02*
X147449571Y-73333618D01*
X147449571Y-73333618D02*
X147449571Y-73190761D01*
X147449571Y-73190761D02*
X147497190Y-73095523D01*
X147497190Y-73095523D02*
X147544809Y-73047904D01*
X147544809Y-73047904D02*
X147640047Y-73000285D01*
X147640047Y-73000285D02*
X147878142Y-73000285D01*
X147878142Y-73000285D02*
X147973380Y-73047904D01*
X147973380Y-73047904D02*
X148021000Y-73095523D01*
X148021000Y-73095523D02*
X148068619Y-73190761D01*
X148068619Y-73190761D02*
X148068619Y-73476475D01*
X148068619Y-73476475D02*
X148021000Y-73571713D01*
X148021000Y-73571713D02*
X147973380Y-73619332D01*
%TO.C,D2*%
X145528619Y-74524094D02*
X144528619Y-74524094D01*
X144528619Y-74524094D02*
X144528619Y-74285999D01*
X144528619Y-74285999D02*
X144576238Y-74143142D01*
X144576238Y-74143142D02*
X144671476Y-74047904D01*
X144671476Y-74047904D02*
X144766714Y-74000285D01*
X144766714Y-74000285D02*
X144957190Y-73952666D01*
X144957190Y-73952666D02*
X145100047Y-73952666D01*
X145100047Y-73952666D02*
X145290523Y-74000285D01*
X145290523Y-74000285D02*
X145385761Y-74047904D01*
X145385761Y-74047904D02*
X145481000Y-74143142D01*
X145481000Y-74143142D02*
X145528619Y-74285999D01*
X145528619Y-74285999D02*
X145528619Y-74524094D01*
X144623857Y-73571713D02*
X144576238Y-73524094D01*
X144576238Y-73524094D02*
X144528619Y-73428856D01*
X144528619Y-73428856D02*
X144528619Y-73190761D01*
X144528619Y-73190761D02*
X144576238Y-73095523D01*
X144576238Y-73095523D02*
X144623857Y-73047904D01*
X144623857Y-73047904D02*
X144719095Y-73000285D01*
X144719095Y-73000285D02*
X144814333Y-73000285D01*
X144814333Y-73000285D02*
X144957190Y-73047904D01*
X144957190Y-73047904D02*
X145528619Y-73619332D01*
X145528619Y-73619332D02*
X145528619Y-73000285D01*
%TO.C,D1*%
X142988619Y-74524094D02*
X141988619Y-74524094D01*
X141988619Y-74524094D02*
X141988619Y-74285999D01*
X141988619Y-74285999D02*
X142036238Y-74143142D01*
X142036238Y-74143142D02*
X142131476Y-74047904D01*
X142131476Y-74047904D02*
X142226714Y-74000285D01*
X142226714Y-74000285D02*
X142417190Y-73952666D01*
X142417190Y-73952666D02*
X142560047Y-73952666D01*
X142560047Y-73952666D02*
X142750523Y-74000285D01*
X142750523Y-74000285D02*
X142845761Y-74047904D01*
X142845761Y-74047904D02*
X142941000Y-74143142D01*
X142941000Y-74143142D02*
X142988619Y-74285999D01*
X142988619Y-74285999D02*
X142988619Y-74524094D01*
X142988619Y-73000285D02*
X142988619Y-73571713D01*
X142988619Y-73285999D02*
X141988619Y-73285999D01*
X141988619Y-73285999D02*
X142131476Y-73381237D01*
X142131476Y-73381237D02*
X142226714Y-73476475D01*
X142226714Y-73476475D02*
X142274333Y-73571713D01*
%TO.C,C3*%
X155971380Y-57824666D02*
X156019000Y-57872285D01*
X156019000Y-57872285D02*
X156066619Y-58015142D01*
X156066619Y-58015142D02*
X156066619Y-58110380D01*
X156066619Y-58110380D02*
X156019000Y-58253237D01*
X156019000Y-58253237D02*
X155923761Y-58348475D01*
X155923761Y-58348475D02*
X155828523Y-58396094D01*
X155828523Y-58396094D02*
X155638047Y-58443713D01*
X155638047Y-58443713D02*
X155495190Y-58443713D01*
X155495190Y-58443713D02*
X155304714Y-58396094D01*
X155304714Y-58396094D02*
X155209476Y-58348475D01*
X155209476Y-58348475D02*
X155114238Y-58253237D01*
X155114238Y-58253237D02*
X155066619Y-58110380D01*
X155066619Y-58110380D02*
X155066619Y-58015142D01*
X155066619Y-58015142D02*
X155114238Y-57872285D01*
X155114238Y-57872285D02*
X155161857Y-57824666D01*
X155066619Y-57491332D02*
X155066619Y-56872285D01*
X155066619Y-56872285D02*
X155447571Y-57205618D01*
X155447571Y-57205618D02*
X155447571Y-57062761D01*
X155447571Y-57062761D02*
X155495190Y-56967523D01*
X155495190Y-56967523D02*
X155542809Y-56919904D01*
X155542809Y-56919904D02*
X155638047Y-56872285D01*
X155638047Y-56872285D02*
X155876142Y-56872285D01*
X155876142Y-56872285D02*
X155971380Y-56919904D01*
X155971380Y-56919904D02*
X156019000Y-56967523D01*
X156019000Y-56967523D02*
X156066619Y-57062761D01*
X156066619Y-57062761D02*
X156066619Y-57348475D01*
X156066619Y-57348475D02*
X156019000Y-57443713D01*
X156019000Y-57443713D02*
X155971380Y-57491332D01*
%TO.C,C2*%
X159273380Y-57824666D02*
X159321000Y-57872285D01*
X159321000Y-57872285D02*
X159368619Y-58015142D01*
X159368619Y-58015142D02*
X159368619Y-58110380D01*
X159368619Y-58110380D02*
X159321000Y-58253237D01*
X159321000Y-58253237D02*
X159225761Y-58348475D01*
X159225761Y-58348475D02*
X159130523Y-58396094D01*
X159130523Y-58396094D02*
X158940047Y-58443713D01*
X158940047Y-58443713D02*
X158797190Y-58443713D01*
X158797190Y-58443713D02*
X158606714Y-58396094D01*
X158606714Y-58396094D02*
X158511476Y-58348475D01*
X158511476Y-58348475D02*
X158416238Y-58253237D01*
X158416238Y-58253237D02*
X158368619Y-58110380D01*
X158368619Y-58110380D02*
X158368619Y-58015142D01*
X158368619Y-58015142D02*
X158416238Y-57872285D01*
X158416238Y-57872285D02*
X158463857Y-57824666D01*
X158463857Y-57443713D02*
X158416238Y-57396094D01*
X158416238Y-57396094D02*
X158368619Y-57300856D01*
X158368619Y-57300856D02*
X158368619Y-57062761D01*
X158368619Y-57062761D02*
X158416238Y-56967523D01*
X158416238Y-56967523D02*
X158463857Y-56919904D01*
X158463857Y-56919904D02*
X158559095Y-56872285D01*
X158559095Y-56872285D02*
X158654333Y-56872285D01*
X158654333Y-56872285D02*
X158797190Y-56919904D01*
X158797190Y-56919904D02*
X159368619Y-57491332D01*
X159368619Y-57491332D02*
X159368619Y-56872285D01*
%TO.C,C1*%
X155971380Y-54014666D02*
X156019000Y-54062285D01*
X156019000Y-54062285D02*
X156066619Y-54205142D01*
X156066619Y-54205142D02*
X156066619Y-54300380D01*
X156066619Y-54300380D02*
X156019000Y-54443237D01*
X156019000Y-54443237D02*
X155923761Y-54538475D01*
X155923761Y-54538475D02*
X155828523Y-54586094D01*
X155828523Y-54586094D02*
X155638047Y-54633713D01*
X155638047Y-54633713D02*
X155495190Y-54633713D01*
X155495190Y-54633713D02*
X155304714Y-54586094D01*
X155304714Y-54586094D02*
X155209476Y-54538475D01*
X155209476Y-54538475D02*
X155114238Y-54443237D01*
X155114238Y-54443237D02*
X155066619Y-54300380D01*
X155066619Y-54300380D02*
X155066619Y-54205142D01*
X155066619Y-54205142D02*
X155114238Y-54062285D01*
X155114238Y-54062285D02*
X155161857Y-54014666D01*
X156066619Y-53062285D02*
X156066619Y-53633713D01*
X156066619Y-53347999D02*
X155066619Y-53347999D01*
X155066619Y-53347999D02*
X155209476Y-53443237D01*
X155209476Y-53443237D02*
X155304714Y-53538475D01*
X155304714Y-53538475D02*
X155352333Y-53633713D01*
%TO.C,SW34*%
X201761313Y-111456253D02*
X201338695Y-110549945D01*
X207255350Y-123238254D02*
X206832732Y-122331947D01*
X207255350Y-123238254D02*
X208161658Y-122815636D01*
X202245002Y-110127327D02*
X201338695Y-110549945D01*
X219037352Y-117744217D02*
X219943659Y-117321599D01*
X214027004Y-104633290D02*
X213120696Y-105055908D01*
X214027004Y-104633290D02*
X214449622Y-105539597D01*
X219521041Y-116415291D02*
X219943659Y-117321599D01*
%TO.C,SW33*%
X180280334Y-117946580D02*
X179780334Y-117080554D01*
X186780334Y-129204910D02*
X186280334Y-128338884D01*
X186780334Y-129204910D02*
X187646360Y-128704910D01*
X180646360Y-116580554D02*
X179780334Y-117080554D01*
X198038664Y-122704910D02*
X198904690Y-122204910D01*
X191904690Y-110080554D02*
X191038664Y-110580554D01*
X191904690Y-110080554D02*
X192404690Y-110946580D01*
X198404690Y-121338884D02*
X198904690Y-122204910D01*
%TO.C,SW32*%
X119253310Y-110946580D02*
X119753310Y-110080554D01*
X112753310Y-122204910D02*
X113253310Y-121338884D01*
X112753310Y-122204910D02*
X113619336Y-122704910D01*
X120619336Y-110580554D02*
X119753310Y-110080554D01*
X124011640Y-128704910D02*
X124877666Y-129204910D01*
X131877666Y-117080554D02*
X131011640Y-116580554D01*
X131877666Y-117080554D02*
X131377666Y-117946580D01*
X125377666Y-128338884D02*
X124877666Y-129204910D01*
%TO.C,SW31*%
X97208378Y-105539598D02*
X97630996Y-104633291D01*
X91714341Y-117321600D02*
X92136959Y-116415292D01*
X91714341Y-117321600D02*
X92620648Y-117744218D01*
X98537304Y-105055909D02*
X97630996Y-104633291D01*
X103496342Y-122815637D02*
X104402650Y-123238255D01*
X110319305Y-110549946D02*
X109412998Y-110127328D01*
X110319305Y-110549946D02*
X109896687Y-111456254D01*
X104825268Y-122331948D02*
X104402650Y-123238255D01*
%TO.C,SW30*%
X251152646Y-75225616D02*
X250893827Y-74259691D01*
X254517294Y-87782652D02*
X254258474Y-86816726D01*
X254517294Y-87782652D02*
X255483219Y-87523833D01*
X251859753Y-74000871D02*
X250893827Y-74259691D01*
X267074329Y-84418005D02*
X268040255Y-84159185D01*
X264416788Y-70636224D02*
X263450863Y-70895043D01*
X264416788Y-70636224D02*
X264675608Y-71602150D01*
X267781436Y-83193260D02*
X268040255Y-84159185D01*
%TO.C,SW29*%
X229661977Y-68624896D02*
X229403158Y-67658971D01*
X233026625Y-81181932D02*
X232767805Y-80216006D01*
X233026625Y-81181932D02*
X233992550Y-80923113D01*
X230369084Y-67400151D02*
X229403158Y-67658971D01*
X245583660Y-77817285D02*
X246549586Y-77558465D01*
X242926119Y-64035504D02*
X241960194Y-64294323D01*
X242926119Y-64035504D02*
X243184939Y-65001430D01*
X246290767Y-76592540D02*
X246549586Y-77558465D01*
%TO.C,SW28*%
X209683329Y-67667115D02*
X209424510Y-66701190D01*
X213047977Y-80224151D02*
X212789157Y-79258225D01*
X213047977Y-80224151D02*
X214013902Y-79965332D01*
X210390436Y-66442370D02*
X209424510Y-66701190D01*
X225605012Y-76859504D02*
X226570938Y-76600684D01*
X222947471Y-63077723D02*
X221981546Y-63336542D01*
X222947471Y-63077723D02*
X223206291Y-64043649D01*
X226312119Y-75634759D02*
X226570938Y-76600684D01*
%TO.C,SW27*%
X192597243Y-77504521D02*
X192338424Y-76538596D01*
X195961891Y-90061557D02*
X195703071Y-89095631D01*
X195961891Y-90061557D02*
X196927816Y-89802738D01*
X193304350Y-76279776D02*
X192338424Y-76538596D01*
X208518926Y-86696910D02*
X209484852Y-86438090D01*
X205861385Y-72915129D02*
X204895460Y-73173948D01*
X205861385Y-72915129D02*
X206120205Y-73881055D01*
X209226033Y-85472165D02*
X209484852Y-86438090D01*
%TO.C,SW26*%
X175182457Y-86115201D02*
X174923638Y-85149276D01*
X178547105Y-98672237D02*
X178288285Y-97706311D01*
X178547105Y-98672237D02*
X179513030Y-98413418D01*
X175889564Y-84890456D02*
X174923638Y-85149276D01*
X191104140Y-95307590D02*
X192070066Y-95048770D01*
X188446599Y-81525809D02*
X187480674Y-81784628D01*
X188446599Y-81525809D02*
X188705419Y-82491735D01*
X191811247Y-94082845D02*
X192070066Y-95048770D01*
%TO.C,SW25*%
X122952581Y-82491735D02*
X123211401Y-81525809D01*
X119587934Y-95048770D02*
X119846753Y-94082845D01*
X119587934Y-95048770D02*
X120553860Y-95307590D01*
X124177326Y-81784628D02*
X123211401Y-81525809D01*
X132144970Y-98413418D02*
X133110895Y-98672237D01*
X136734362Y-85149276D02*
X135768436Y-84890456D01*
X136734362Y-85149276D02*
X136475543Y-86115201D01*
X133369715Y-97706311D02*
X133110895Y-98672237D01*
%TO.C,SW24*%
X105537795Y-73881055D02*
X105796615Y-72915129D01*
X102173148Y-86438090D02*
X102431967Y-85472165D01*
X102173148Y-86438090D02*
X103139074Y-86696910D01*
X106762540Y-73173948D02*
X105796615Y-72915129D01*
X114730184Y-89802738D02*
X115696109Y-90061557D01*
X119319576Y-76538596D02*
X118353650Y-76279776D01*
X119319576Y-76538596D02*
X119060757Y-77504521D01*
X115954929Y-89095631D02*
X115696109Y-90061557D01*
%TO.C,SW23*%
X88451709Y-64043649D02*
X88710529Y-63077723D01*
X85087062Y-76600684D02*
X85345881Y-75634759D01*
X85087062Y-76600684D02*
X86052988Y-76859504D01*
X89676454Y-63336542D02*
X88710529Y-63077723D01*
X97644098Y-79965332D02*
X98610023Y-80224151D01*
X102233490Y-66701190D02*
X101267564Y-66442370D01*
X102233490Y-66701190D02*
X101974671Y-67667115D01*
X98868843Y-79258225D02*
X98610023Y-80224151D01*
%TO.C,SW22*%
X68473061Y-65001430D02*
X68731881Y-64035504D01*
X65108414Y-77558465D02*
X65367233Y-76592540D01*
X65108414Y-77558465D02*
X66074340Y-77817285D01*
X69697806Y-64294323D02*
X68731881Y-64035504D01*
X77665450Y-80923113D02*
X78631375Y-81181932D01*
X82254842Y-67658971D02*
X81288916Y-67400151D01*
X82254842Y-67658971D02*
X81996023Y-68624896D01*
X78890195Y-80216006D02*
X78631375Y-81181932D01*
%TO.C,SW21*%
X46982392Y-71602150D02*
X47241212Y-70636224D01*
X43617745Y-84159185D02*
X43876564Y-83193260D01*
X43617745Y-84159185D02*
X44583671Y-84418005D01*
X48207137Y-70895043D02*
X47241212Y-70636224D01*
X56174781Y-87523833D02*
X57140706Y-87782652D01*
X60764173Y-74259691D02*
X59798247Y-74000871D01*
X60764173Y-74259691D02*
X60505354Y-75225616D01*
X57399526Y-86816726D02*
X57140706Y-87782652D01*
%TO.C,SW20*%
X246222143Y-56824729D02*
X245963324Y-55858804D01*
X249586791Y-69381765D02*
X249327971Y-68415839D01*
X249586791Y-69381765D02*
X250552716Y-69122946D01*
X246929250Y-55599984D02*
X245963324Y-55858804D01*
X262143826Y-66017118D02*
X263109752Y-65758298D01*
X259486285Y-52235337D02*
X258520360Y-52494156D01*
X259486285Y-52235337D02*
X259745105Y-53201263D01*
X262850933Y-64792373D02*
X263109752Y-65758298D01*
%TO.C,SW19*%
X224731474Y-50224009D02*
X224472655Y-49258084D01*
X228096122Y-62781045D02*
X227837302Y-61815119D01*
X228096122Y-62781045D02*
X229062047Y-62522226D01*
X225438581Y-48999264D02*
X224472655Y-49258084D01*
X240653157Y-59416398D02*
X241619083Y-59157578D01*
X237995616Y-45634617D02*
X237029691Y-45893436D01*
X237995616Y-45634617D02*
X238254436Y-46600543D01*
X241360264Y-58191653D02*
X241619083Y-59157578D01*
%TO.C,SW18*%
X204752827Y-49266228D02*
X204494008Y-48300303D01*
X208117475Y-61823264D02*
X207858655Y-60857338D01*
X208117475Y-61823264D02*
X209083400Y-61564445D01*
X205459934Y-48041483D02*
X204494008Y-48300303D01*
X220674510Y-58458617D02*
X221640436Y-58199797D01*
X218016969Y-44676836D02*
X217051044Y-44935655D01*
X218016969Y-44676836D02*
X218275789Y-45642762D01*
X221381617Y-57233872D02*
X221640436Y-58199797D01*
%TO.C,SW17*%
X187666740Y-59103634D02*
X187407921Y-58137709D01*
X191031388Y-71660670D02*
X190772568Y-70694744D01*
X191031388Y-71660670D02*
X191997313Y-71401851D01*
X188373847Y-57878889D02*
X187407921Y-58137709D01*
X203588423Y-68296023D02*
X204554349Y-68037203D01*
X200930882Y-54514242D02*
X199964957Y-54773061D01*
X200930882Y-54514242D02*
X201189702Y-55480168D01*
X204295530Y-67071278D02*
X204554349Y-68037203D01*
%TO.C,SW16*%
X170251954Y-67714314D02*
X169993135Y-66748389D01*
X173616602Y-80271350D02*
X173357782Y-79305424D01*
X173616602Y-80271350D02*
X174582527Y-80012531D01*
X170959061Y-66489569D02*
X169993135Y-66748389D01*
X186173637Y-76906703D02*
X187139563Y-76647883D01*
X183516096Y-63124922D02*
X182550171Y-63383741D01*
X183516096Y-63124922D02*
X183774916Y-64090848D01*
X186880744Y-75681958D02*
X187139563Y-76647883D01*
%TO.C,SW15*%
X127883084Y-64090848D02*
X128141904Y-63124922D01*
X124518437Y-76647883D02*
X124777256Y-75681958D01*
X124518437Y-76647883D02*
X125484363Y-76906703D01*
X129107829Y-63383741D02*
X128141904Y-63124922D01*
X137075473Y-80012531D02*
X138041398Y-80271350D01*
X141664865Y-66748389D02*
X140698939Y-66489569D01*
X141664865Y-66748389D02*
X141406046Y-67714314D01*
X138300218Y-79305424D02*
X138041398Y-80271350D01*
%TO.C,SW14*%
X110468298Y-55480168D02*
X110727118Y-54514242D01*
X107103651Y-68037203D02*
X107362470Y-67071278D01*
X107103651Y-68037203D02*
X108069577Y-68296023D01*
X111693043Y-54773061D02*
X110727118Y-54514242D01*
X119660687Y-71401851D02*
X120626612Y-71660670D01*
X124250079Y-58137709D02*
X123284153Y-57878889D01*
X124250079Y-58137709D02*
X123991260Y-59103634D01*
X120885432Y-70694744D02*
X120626612Y-71660670D01*
%TO.C,SW13*%
X93382211Y-45642762D02*
X93641031Y-44676836D01*
X90017564Y-58199797D02*
X90276383Y-57233872D01*
X90017564Y-58199797D02*
X90983490Y-58458617D01*
X94606956Y-44935655D02*
X93641031Y-44676836D01*
X102574600Y-61564445D02*
X103540525Y-61823264D01*
X107163992Y-48300303D02*
X106198066Y-48041483D01*
X107163992Y-48300303D02*
X106905173Y-49266228D01*
X103799345Y-60857338D02*
X103540525Y-61823264D01*
%TO.C,SW12*%
X73403563Y-46600543D02*
X73662383Y-45634617D01*
X70038916Y-59157578D02*
X70297735Y-58191653D01*
X70038916Y-59157578D02*
X71004842Y-59416398D01*
X74628308Y-45893436D02*
X73662383Y-45634617D01*
X82595952Y-62522226D02*
X83561877Y-62781045D01*
X87185344Y-49258084D02*
X86219418Y-48999264D01*
X87185344Y-49258084D02*
X86926525Y-50224009D01*
X83820697Y-61815119D02*
X83561877Y-62781045D01*
%TO.C,SW11*%
X51912895Y-53201263D02*
X52171715Y-52235337D01*
X48548248Y-65758298D02*
X48807067Y-64792373D01*
X48548248Y-65758298D02*
X49514174Y-66017118D01*
X53137640Y-52494156D02*
X52171715Y-52235337D01*
X61105284Y-69122946D02*
X62071209Y-69381765D01*
X65694676Y-55858804D02*
X64728750Y-55599984D01*
X65694676Y-55858804D02*
X65435857Y-56824729D01*
X62330029Y-68415839D02*
X62071209Y-69381765D01*
%TO.C,SW10*%
X241291640Y-38423842D02*
X241032821Y-37457917D01*
X244656288Y-50980878D02*
X244397468Y-50014952D01*
X244656288Y-50980878D02*
X245622213Y-50722059D01*
X241998747Y-37199097D02*
X241032821Y-37457917D01*
X257213323Y-47616231D02*
X258179249Y-47357411D01*
X254555782Y-33834450D02*
X253589857Y-34093269D01*
X254555782Y-33834450D02*
X254814602Y-34800376D01*
X257920430Y-46391486D02*
X258179249Y-47357411D01*
%TO.C,SW9*%
X219800972Y-31823122D02*
X219542153Y-30857197D01*
X223165620Y-44380158D02*
X222906800Y-43414232D01*
X223165620Y-44380158D02*
X224131545Y-44121339D01*
X220508079Y-30598377D02*
X219542153Y-30857197D01*
X235722655Y-41015511D02*
X236688581Y-40756691D01*
X233065114Y-27233730D02*
X232099189Y-27492549D01*
X233065114Y-27233730D02*
X233323934Y-28199656D01*
X236429762Y-39790766D02*
X236688581Y-40756691D01*
%TO.C,SW8*%
X199822324Y-30865341D02*
X199563505Y-29899416D01*
X203186972Y-43422377D02*
X202928152Y-42456451D01*
X203186972Y-43422377D02*
X204152897Y-43163558D01*
X200529431Y-29640596D02*
X199563505Y-29899416D01*
X215744007Y-40057730D02*
X216709933Y-39798910D01*
X213086466Y-26275949D02*
X212120541Y-26534768D01*
X213086466Y-26275949D02*
X213345286Y-27241875D01*
X216451114Y-38832985D02*
X216709933Y-39798910D01*
%TO.C,SW7*%
X182736238Y-40702747D02*
X182477419Y-39736822D01*
X186100886Y-53259783D02*
X185842066Y-52293857D01*
X186100886Y-53259783D02*
X187066811Y-53000964D01*
X183443345Y-39478002D02*
X182477419Y-39736822D01*
X198657921Y-49895136D02*
X199623847Y-49636316D01*
X196000380Y-36113355D02*
X195034455Y-36372174D01*
X196000380Y-36113355D02*
X196259200Y-37079281D01*
X199365028Y-48670391D02*
X199623847Y-49636316D01*
%TO.C,SW6*%
X165321451Y-49313427D02*
X165062632Y-48347502D01*
X168686099Y-61870463D02*
X168427279Y-60904537D01*
X168686099Y-61870463D02*
X169652024Y-61611644D01*
X166028558Y-48088682D02*
X165062632Y-48347502D01*
X181243134Y-58505816D02*
X182209060Y-58246996D01*
X178585593Y-44724035D02*
X177619668Y-44982854D01*
X178585593Y-44724035D02*
X178844413Y-45689961D01*
X181950241Y-57281071D02*
X182209060Y-58246996D01*
%TO.C,SW5*%
X132813587Y-45689961D02*
X133072407Y-44724035D01*
X129448940Y-58246996D02*
X129707759Y-57281071D01*
X129448940Y-58246996D02*
X130414866Y-58505816D01*
X134038332Y-44982854D02*
X133072407Y-44724035D01*
X142005976Y-61611644D02*
X142971901Y-61870463D01*
X146595368Y-48347502D02*
X145629442Y-48088682D01*
X146595368Y-48347502D02*
X146336549Y-49313427D01*
X143230721Y-60904537D02*
X142971901Y-61870463D01*
%TO.C,SW4*%
X115398800Y-37079281D02*
X115657620Y-36113355D01*
X112034153Y-49636316D02*
X112292972Y-48670391D01*
X112034153Y-49636316D02*
X113000079Y-49895136D01*
X116623545Y-36372174D02*
X115657620Y-36113355D01*
X124591189Y-53000964D02*
X125557114Y-53259783D01*
X129180581Y-39736822D02*
X128214655Y-39478002D01*
X129180581Y-39736822D02*
X128921762Y-40702747D01*
X125815934Y-52293857D02*
X125557114Y-53259783D01*
%TO.C,SW3*%
X98312714Y-27241875D02*
X98571534Y-26275949D01*
X94948067Y-39798910D02*
X95206886Y-38832985D01*
X94948067Y-39798910D02*
X95913993Y-40057730D01*
X99537459Y-26534768D02*
X98571534Y-26275949D01*
X107505103Y-43163558D02*
X108471028Y-43422377D01*
X112094495Y-29899416D02*
X111128569Y-29640596D01*
X112094495Y-29899416D02*
X111835676Y-30865341D01*
X108729848Y-42456451D02*
X108471028Y-43422377D01*
%TO.C,SW2*%
X78334066Y-28199656D02*
X78592886Y-27233730D01*
X74969419Y-40756691D02*
X75228238Y-39790766D01*
X74969419Y-40756691D02*
X75935345Y-41015511D01*
X79558811Y-27492549D02*
X78592886Y-27233730D01*
X87526455Y-44121339D02*
X88492380Y-44380158D01*
X92115847Y-30857197D02*
X91149921Y-30598377D01*
X92115847Y-30857197D02*
X91857028Y-31823122D01*
X88751200Y-43414232D02*
X88492380Y-44380158D01*
%TO.C,SW1*%
X56843398Y-34800376D02*
X57102218Y-33834450D01*
X53478751Y-47357411D02*
X53737570Y-46391486D01*
X53478751Y-47357411D02*
X54444677Y-47616231D01*
X58068143Y-34093269D02*
X57102218Y-33834450D01*
X66035787Y-50722059D02*
X67001712Y-50980878D01*
X70625179Y-37457917D02*
X69659253Y-37199097D01*
X70625179Y-37457917D02*
X70366360Y-38423842D01*
X67260532Y-50014952D02*
X67001712Y-50980878D01*
D11*
%TO.C,U1*%
X156178000Y-61209000D02*
X158378000Y-61209000D01*
X156178000Y-61209000D02*
X152578000Y-61209000D01*
X156178000Y-67979000D02*
X158378000Y-67979000D01*
X156178000Y-67979000D02*
X153978000Y-67979000D01*
%TO.C,R4*%
X156491000Y-49556936D02*
X156491000Y-50011064D01*
X157961000Y-49556936D02*
X157961000Y-50011064D01*
%TO.C,R3*%
X153189000Y-49556936D02*
X153189000Y-50011064D01*
X154659000Y-49556936D02*
X154659000Y-50011064D01*
%TO.C,R2*%
X156491000Y-45746936D02*
X156491000Y-46201064D01*
X157961000Y-45746936D02*
X157961000Y-46201064D01*
%TO.C,R1*%
X153189000Y-45746936D02*
X153189000Y-46201064D01*
X154659000Y-45746936D02*
X154659000Y-46201064D01*
%TO.C,J3*%
X146299000Y-42612000D02*
X148899000Y-42612000D01*
X143699000Y-45272000D02*
X143699000Y-43942000D01*
X146299000Y-45272000D02*
X146299000Y-42612000D01*
X146299000Y-45272000D02*
X148899000Y-45272000D01*
X148899000Y-45272000D02*
X148899000Y-42612000D01*
X145029000Y-45272000D02*
X143699000Y-45272000D01*
%TO.C,J2*%
X167391000Y-42866000D02*
X168721000Y-42866000D01*
X163521000Y-42866000D02*
X163521000Y-45526000D01*
X166121000Y-42866000D02*
X163521000Y-42866000D01*
X166121000Y-42866000D02*
X166121000Y-45526000D01*
X168721000Y-42866000D02*
X168721000Y-44196000D01*
X166121000Y-45526000D02*
X163521000Y-45526000D01*
%TO.C,J1*%
X160654000Y-33610000D02*
X151254000Y-33610000D01*
X151254000Y-35510000D02*
X151254000Y-33610000D01*
X160654000Y-39410000D02*
X160654000Y-37410000D01*
X160654000Y-35510000D02*
X160654000Y-33610000D01*
X151254000Y-39410000D02*
X151254000Y-37410000D01*
%TO.C,D34*%
X160766000Y-108278000D02*
X160766000Y-104268000D01*
X158766000Y-108278000D02*
X158766000Y-104268000D01*
X158766000Y-108278000D02*
X160766000Y-108278000D01*
%TO.C,D33*%
X158226000Y-108278000D02*
X158226000Y-104268000D01*
X156226000Y-108278000D02*
X156226000Y-104268000D01*
X156226000Y-108278000D02*
X158226000Y-108278000D01*
%TO.C,D32*%
X155686000Y-108278000D02*
X155686000Y-104268000D01*
X153686000Y-108278000D02*
X153686000Y-104268000D01*
X153686000Y-108278000D02*
X155686000Y-108278000D01*
%TO.C,D31*%
X153146000Y-108278000D02*
X153146000Y-104268000D01*
X151146000Y-108278000D02*
X151146000Y-104268000D01*
X151146000Y-108278000D02*
X153146000Y-108278000D01*
%TO.C,D30*%
X168386000Y-101294000D02*
X168386000Y-97284000D01*
X166386000Y-101294000D02*
X166386000Y-97284000D01*
X166386000Y-101294000D02*
X168386000Y-101294000D01*
%TO.C,D29*%
X165846000Y-101294000D02*
X165846000Y-97284000D01*
X163846000Y-101294000D02*
X163846000Y-97284000D01*
X163846000Y-101294000D02*
X165846000Y-101294000D01*
%TO.C,D28*%
X163306000Y-101294000D02*
X163306000Y-97284000D01*
X161306000Y-101294000D02*
X161306000Y-97284000D01*
X161306000Y-101294000D02*
X163306000Y-101294000D01*
%TO.C,D27*%
X160766000Y-101294000D02*
X160766000Y-97284000D01*
X158766000Y-101294000D02*
X158766000Y-97284000D01*
X158766000Y-101294000D02*
X160766000Y-101294000D01*
%TO.C,D26*%
X156226000Y-101294000D02*
X158226000Y-101294000D01*
X156226000Y-101294000D02*
X156226000Y-97284000D01*
X158226000Y-101294000D02*
X158226000Y-97284000D01*
%TO.C,D25*%
X153686000Y-101294000D02*
X155686000Y-101294000D01*
X153686000Y-101294000D02*
X153686000Y-97284000D01*
X155686000Y-101294000D02*
X155686000Y-97284000D01*
%TO.C,D24*%
X151146000Y-101294000D02*
X153146000Y-101294000D01*
X151146000Y-101294000D02*
X151146000Y-97284000D01*
X153146000Y-101294000D02*
X153146000Y-97284000D01*
%TO.C,D23*%
X148606000Y-101294000D02*
X150606000Y-101294000D01*
X148606000Y-101294000D02*
X148606000Y-97284000D01*
X150606000Y-101294000D02*
X150606000Y-97284000D01*
%TO.C,D22*%
X146066000Y-101294000D02*
X148066000Y-101294000D01*
X146066000Y-101294000D02*
X146066000Y-97284000D01*
X148066000Y-101294000D02*
X148066000Y-97284000D01*
%TO.C,D21*%
X143526000Y-101294000D02*
X145526000Y-101294000D01*
X143526000Y-101294000D02*
X143526000Y-97284000D01*
X145526000Y-101294000D02*
X145526000Y-97284000D01*
%TO.C,D20*%
X166386000Y-88338000D02*
X168386000Y-88338000D01*
X166386000Y-88338000D02*
X166386000Y-84328000D01*
X168386000Y-88338000D02*
X168386000Y-84328000D01*
%TO.C,D19*%
X163846000Y-88338000D02*
X165846000Y-88338000D01*
X163846000Y-88338000D02*
X163846000Y-84328000D01*
X165846000Y-88338000D02*
X165846000Y-84328000D01*
%TO.C,D18*%
X161306000Y-88338000D02*
X163306000Y-88338000D01*
X161306000Y-88338000D02*
X161306000Y-84328000D01*
X163306000Y-88338000D02*
X163306000Y-84328000D01*
%TO.C,D17*%
X158766000Y-88338000D02*
X160766000Y-88338000D01*
X158766000Y-88338000D02*
X158766000Y-84328000D01*
X160766000Y-88338000D02*
X160766000Y-84328000D01*
%TO.C,D16*%
X156226000Y-88338000D02*
X158226000Y-88338000D01*
X156226000Y-88338000D02*
X156226000Y-84328000D01*
X158226000Y-88338000D02*
X158226000Y-84328000D01*
%TO.C,D15*%
X153686000Y-88338000D02*
X155686000Y-88338000D01*
X153686000Y-88338000D02*
X153686000Y-84328000D01*
X155686000Y-88338000D02*
X155686000Y-84328000D01*
%TO.C,D14*%
X151146000Y-88338000D02*
X153146000Y-88338000D01*
X151146000Y-88338000D02*
X151146000Y-84328000D01*
X153146000Y-88338000D02*
X153146000Y-84328000D01*
%TO.C,D13*%
X148606000Y-88338000D02*
X150606000Y-88338000D01*
X148606000Y-88338000D02*
X148606000Y-84328000D01*
X150606000Y-88338000D02*
X150606000Y-84328000D01*
%TO.C,D12*%
X146066000Y-88338000D02*
X148066000Y-88338000D01*
X146066000Y-88338000D02*
X146066000Y-84328000D01*
X148066000Y-88338000D02*
X148066000Y-84328000D01*
%TO.C,D11*%
X143526000Y-88338000D02*
X145526000Y-88338000D01*
X143526000Y-88338000D02*
X143526000Y-84328000D01*
X145526000Y-88338000D02*
X145526000Y-84328000D01*
%TO.C,D10*%
X168386000Y-76146000D02*
X168386000Y-72136000D01*
X166386000Y-76146000D02*
X166386000Y-72136000D01*
X166386000Y-76146000D02*
X168386000Y-76146000D01*
%TO.C,D9*%
X165846000Y-76146000D02*
X165846000Y-72136000D01*
X163846000Y-76146000D02*
X163846000Y-72136000D01*
X163846000Y-76146000D02*
X165846000Y-76146000D01*
%TO.C,D8*%
X163306000Y-76146000D02*
X163306000Y-72136000D01*
X161306000Y-76146000D02*
X161306000Y-72136000D01*
X161306000Y-76146000D02*
X163306000Y-76146000D01*
%TO.C,D7*%
X160766000Y-76146000D02*
X160766000Y-72136000D01*
X158766000Y-76146000D02*
X158766000Y-72136000D01*
X158766000Y-76146000D02*
X160766000Y-76146000D01*
%TO.C,D6*%
X158226000Y-76146000D02*
X158226000Y-72136000D01*
X156226000Y-76146000D02*
X156226000Y-72136000D01*
X156226000Y-76146000D02*
X158226000Y-76146000D01*
%TO.C,D5*%
X155686000Y-76146000D02*
X155686000Y-72136000D01*
X153686000Y-76146000D02*
X153686000Y-72136000D01*
X153686000Y-76146000D02*
X155686000Y-76146000D01*
%TO.C,D4*%
X153146000Y-76146000D02*
X153146000Y-72136000D01*
X151146000Y-76146000D02*
X151146000Y-72136000D01*
X151146000Y-76146000D02*
X153146000Y-76146000D01*
%TO.C,D3*%
X148606000Y-76146000D02*
X150606000Y-76146000D01*
X148606000Y-76146000D02*
X148606000Y-72136000D01*
X150606000Y-76146000D02*
X150606000Y-72136000D01*
%TO.C,D2*%
X146066000Y-76146000D02*
X148066000Y-76146000D01*
X146066000Y-76146000D02*
X146066000Y-72136000D01*
X148066000Y-76146000D02*
X148066000Y-72136000D01*
%TO.C,D1*%
X143526000Y-76146000D02*
X145526000Y-76146000D01*
X143526000Y-76146000D02*
X143526000Y-72136000D01*
X145526000Y-76146000D02*
X145526000Y-72136000D01*
%TO.C,C3*%
X154659000Y-57396748D02*
X154659000Y-57919252D01*
X153189000Y-57396748D02*
X153189000Y-57919252D01*
%TO.C,C2*%
X157961000Y-57396748D02*
X157961000Y-57919252D01*
X156491000Y-57396748D02*
X156491000Y-57919252D01*
%TO.C,C1*%
X154659000Y-53586748D02*
X154659000Y-54109252D01*
X153189000Y-53586748D02*
X153189000Y-54109252D01*
%TD*%
M02*
