%TF.GenerationSoftware,KiCad,Pcbnew,7.0.1*%
%TF.CreationDate,2024-01-05T17:15:01-05:00*%
%TF.ProjectId,ch55p34,63683535-7033-4342-9e6b-696361645f70,rev?*%
%TF.SameCoordinates,Original*%
%TF.FileFunction,Paste,Bot*%
%TF.FilePolarity,Positive*%
%FSLAX46Y46*%
G04 Gerber Fmt 4.6, Leading zero omitted, Abs format (unit mm)*
G04 Created by KiCad (PCBNEW 7.0.1) date 2024-01-05 17:15:01*
%MOMM*%
%LPD*%
G01*
G04 APERTURE LIST*
G04 Aperture macros list*
%AMRotRect*
0 Rectangle, with rotation*
0 The origin of the aperture is its center*
0 $1 length*
0 $2 width*
0 $3 Rotation angle, in degrees counterclockwise*
0 Add horizontal line*
21,1,$1,$2,0,0,$3*%
G04 Aperture macros list end*
%ADD10RotRect,2.550000X2.500000X25.000000*%
%ADD11RotRect,2.550000X2.500000X30.000000*%
%ADD12RotRect,2.550000X2.500000X330.000000*%
%ADD13RotRect,2.550000X2.500000X335.000000*%
%ADD14RotRect,2.550000X2.500000X15.000000*%
%ADD15RotRect,2.550000X2.500000X345.000000*%
G04 APERTURE END LIST*
D10*
%TO.C,SW34*%
X214194952Y-106673460D03*
X202716040Y-114828744D03*
%TD*%
D11*
%TO.C,SW33*%
X192249812Y-112098323D03*
X181525360Y-121223027D03*
%TD*%
D12*
%TO.C,SW32*%
X130302788Y-118388323D03*
X117038336Y-113663027D03*
%TD*%
D13*
%TO.C,SW31*%
X108864400Y-111989998D03*
X95238587Y-108438757D03*
%TD*%
D14*
%TO.C,SW30*%
X264227914Y-72674563D03*
X251507241Y-78712658D03*
%TD*%
%TO.C,SW29*%
X242737245Y-66073843D03*
X230016572Y-72111938D03*
%TD*%
%TO.C,SW28*%
X222758597Y-65116062D03*
X210037924Y-71154157D03*
%TD*%
%TO.C,SW27*%
X205672511Y-74953468D03*
X192951838Y-80991563D03*
%TD*%
%TO.C,SW26*%
X188257725Y-83564148D03*
X175537052Y-89602243D03*
%TD*%
D15*
%TO.C,SW25*%
X135551622Y-86820092D03*
X121516149Y-85688899D03*
%TD*%
%TO.C,SW24*%
X118136836Y-78209412D03*
X104101363Y-77078219D03*
%TD*%
%TO.C,SW23*%
X101050750Y-68372006D03*
X87015277Y-67240813D03*
%TD*%
%TO.C,SW22*%
X81072102Y-69329787D03*
X67036629Y-68198594D03*
%TD*%
%TO.C,SW21*%
X59581433Y-75930507D03*
X45545960Y-74799314D03*
%TD*%
D14*
%TO.C,SW20*%
X259297411Y-54273676D03*
X246576738Y-60311771D03*
%TD*%
%TO.C,SW19*%
X237806742Y-47672956D03*
X225086069Y-53711051D03*
%TD*%
%TO.C,SW18*%
X217828095Y-46715175D03*
X205107422Y-52753270D03*
%TD*%
%TO.C,SW17*%
X200742008Y-56552581D03*
X188021335Y-62590676D03*
%TD*%
%TO.C,SW16*%
X183327222Y-65163261D03*
X170606549Y-71201356D03*
%TD*%
D15*
%TO.C,SW15*%
X140482125Y-68419205D03*
X126446652Y-67288012D03*
%TD*%
%TO.C,SW14*%
X123067339Y-59808525D03*
X109031866Y-58677332D03*
%TD*%
%TO.C,SW13*%
X105981252Y-49971119D03*
X91945779Y-48839926D03*
%TD*%
%TO.C,SW12*%
X86002604Y-50928900D03*
X71967131Y-49797707D03*
%TD*%
%TO.C,SW11*%
X64511936Y-57529620D03*
X50476463Y-56398427D03*
%TD*%
D14*
%TO.C,SW10*%
X254366908Y-35872789D03*
X241646235Y-41910884D03*
%TD*%
%TO.C,SW9*%
X232876240Y-29272069D03*
X220155567Y-35310164D03*
%TD*%
%TO.C,SW8*%
X212897592Y-28314288D03*
X200176919Y-34352383D03*
%TD*%
%TO.C,SW7*%
X195811506Y-38151694D03*
X183090833Y-44189789D03*
%TD*%
%TO.C,SW6*%
X178396719Y-46762374D03*
X165676046Y-52800469D03*
%TD*%
D15*
%TO.C,SW5*%
X145412628Y-50018318D03*
X131377155Y-48887125D03*
%TD*%
%TO.C,SW4*%
X127997841Y-41407638D03*
X113962368Y-40276445D03*
%TD*%
%TO.C,SW3*%
X110911755Y-31570232D03*
X96876282Y-30439039D03*
%TD*%
%TO.C,SW2*%
X90933107Y-32528013D03*
X76897634Y-31396820D03*
%TD*%
%TO.C,SW1*%
X69442439Y-39128733D03*
X55406966Y-37997540D03*
%TD*%
M02*
