%TF.GenerationSoftware,KiCad,Pcbnew,7.0.1*%
%TF.CreationDate,2024-01-05T17:15:02-05:00*%
%TF.ProjectId,ch55p34,63683535-7033-4342-9e6b-696361645f70,rev?*%
%TF.SameCoordinates,Original*%
%TF.FileFunction,Soldermask,Bot*%
%TF.FilePolarity,Negative*%
%FSLAX46Y46*%
G04 Gerber Fmt 4.6, Leading zero omitted, Abs format (unit mm)*
G04 Created by KiCad (PCBNEW 7.0.1) date 2024-01-05 17:15:02*
%MOMM*%
%LPD*%
G01*
G04 APERTURE LIST*
G04 Aperture macros list*
%AMRotRect*
0 Rectangle, with rotation*
0 The origin of the aperture is its center*
0 $1 length*
0 $2 width*
0 $3 Rotation angle, in degrees counterclockwise*
0 Add horizontal line*
21,1,$1,$2,0,0,$3*%
G04 Aperture macros list end*
%ADD10C,1.701800*%
%ADD11C,3.000000*%
%ADD12C,3.987800*%
%ADD13RotRect,2.550000X2.500000X25.000000*%
%ADD14RotRect,2.550000X2.500000X30.000000*%
%ADD15RotRect,2.550000X2.500000X330.000000*%
%ADD16RotRect,2.550000X2.500000X335.000000*%
%ADD17RotRect,2.550000X2.500000X15.000000*%
%ADD18RotRect,2.550000X2.500000X345.000000*%
%ADD19O,1.700000X1.700000*%
%ADD20R,1.700000X1.700000*%
%ADD21O,1.000000X1.600000*%
%ADD22O,1.000000X2.100000*%
%ADD23C,0.650000*%
G04 APERTURE END LIST*
D10*
%TO.C,SW34*%
X206037133Y-116082673D03*
D11*
X206114694Y-113243926D03*
D12*
X210641177Y-113935772D03*
D11*
X210796298Y-108258278D03*
D10*
X215245221Y-111788871D03*
D13*
X214194952Y-106673460D03*
X202716040Y-114828744D03*
%TD*%
D10*
%TO.C,SW33*%
X184943103Y-122182732D03*
D11*
X184772955Y-119348027D03*
D12*
X189342512Y-119642732D03*
D11*
X189002217Y-113973323D03*
D10*
X193741921Y-117102732D03*
D14*
X192249812Y-112098323D03*
X181525360Y-121223027D03*
%TD*%
D10*
%TO.C,SW32*%
X117916079Y-117102732D03*
D11*
X120285931Y-115538027D03*
D12*
X122315488Y-119642732D03*
D11*
X127055193Y-116513323D03*
D10*
X126714897Y-122182732D03*
D15*
X130302788Y-118388323D03*
X117038336Y-113663027D03*
%TD*%
D10*
%TO.C,SW31*%
X96412779Y-111788872D03*
D11*
X98637241Y-110023576D03*
D12*
X101016823Y-113935773D03*
D11*
X105465746Y-110405180D03*
D10*
X105620867Y-116082674D03*
D16*
X108864400Y-111989998D03*
X95238587Y-108438757D03*
%TD*%
D10*
%TO.C,SW30*%
X254560138Y-80524239D03*
D11*
X255129463Y-77742087D03*
D12*
X259467041Y-79209438D03*
D11*
X260605692Y-73645134D03*
D10*
X264373944Y-77894637D03*
D17*
X264227914Y-72674563D03*
X251507241Y-78712658D03*
%TD*%
D10*
%TO.C,SW29*%
X233069469Y-73923519D03*
D11*
X233638794Y-71141367D03*
D12*
X237976372Y-72608718D03*
D11*
X239115023Y-67044414D03*
D10*
X242883275Y-71293917D03*
D17*
X242737245Y-66073843D03*
X230016572Y-72111938D03*
%TD*%
D10*
%TO.C,SW28*%
X213090821Y-72965738D03*
D11*
X213660146Y-70183586D03*
D12*
X217997724Y-71650937D03*
D11*
X219136375Y-66086633D03*
D10*
X222904627Y-70336136D03*
D17*
X222758597Y-65116062D03*
X210037924Y-71154157D03*
%TD*%
D10*
%TO.C,SW27*%
X196004735Y-82803144D03*
D11*
X196574060Y-80020992D03*
D12*
X200911638Y-81488343D03*
D11*
X202050289Y-75924039D03*
D10*
X205818541Y-80173542D03*
D17*
X205672511Y-74953468D03*
X192951838Y-80991563D03*
%TD*%
D10*
%TO.C,SW26*%
X178589949Y-91413824D03*
D11*
X179159274Y-88631672D03*
D12*
X183496852Y-90099023D03*
D11*
X184635503Y-84534719D03*
D10*
X188403755Y-88784222D03*
D17*
X188257725Y-83564148D03*
X175537052Y-89602243D03*
%TD*%
D10*
%TO.C,SW25*%
X123254245Y-88784222D03*
D11*
X125138371Y-86659471D03*
D12*
X128161148Y-90099023D03*
D11*
X131929400Y-85849520D03*
D10*
X133068051Y-91413824D03*
D18*
X135551622Y-86820092D03*
X121516149Y-85688899D03*
%TD*%
D10*
%TO.C,SW24*%
X105839459Y-80173542D03*
D11*
X107723585Y-78048791D03*
D12*
X110746362Y-81488343D03*
D11*
X114514614Y-77238840D03*
D10*
X115653265Y-82803144D03*
D18*
X118136836Y-78209412D03*
X104101363Y-77078219D03*
%TD*%
D10*
%TO.C,SW23*%
X88753373Y-70336136D03*
D11*
X90637499Y-68211385D03*
D12*
X93660276Y-71650937D03*
D11*
X97428528Y-67401434D03*
D10*
X98567179Y-72965738D03*
D18*
X101050750Y-68372006D03*
X87015277Y-67240813D03*
%TD*%
D10*
%TO.C,SW22*%
X68774725Y-71293917D03*
D11*
X70658851Y-69169166D03*
D12*
X73681628Y-72608718D03*
D11*
X77449880Y-68359215D03*
D10*
X78588531Y-73923519D03*
D18*
X81072102Y-69329787D03*
X67036629Y-68198594D03*
%TD*%
D10*
%TO.C,SW21*%
X47284056Y-77894637D03*
D11*
X49168182Y-75769886D03*
D12*
X52190959Y-79209438D03*
D11*
X55959211Y-74959935D03*
D10*
X57097862Y-80524239D03*
D18*
X59581433Y-75930507D03*
X45545960Y-74799314D03*
%TD*%
D10*
%TO.C,SW20*%
X249629635Y-62123352D03*
D11*
X250198960Y-59341200D03*
D12*
X254536538Y-60808551D03*
D11*
X255675189Y-55244247D03*
D10*
X259443441Y-59493750D03*
D17*
X259297411Y-54273676D03*
X246576738Y-60311771D03*
%TD*%
D10*
%TO.C,SW19*%
X228138966Y-55522632D03*
D11*
X228708291Y-52740480D03*
D12*
X233045869Y-54207831D03*
D11*
X234184520Y-48643527D03*
D10*
X237952772Y-52893030D03*
D17*
X237806742Y-47672956D03*
X225086069Y-53711051D03*
%TD*%
D10*
%TO.C,SW18*%
X208160319Y-54564851D03*
D11*
X208729644Y-51782699D03*
D12*
X213067222Y-53250050D03*
D11*
X214205873Y-47685746D03*
D10*
X217974125Y-51935249D03*
D17*
X217828095Y-46715175D03*
X205107422Y-52753270D03*
%TD*%
D10*
%TO.C,SW17*%
X191074232Y-64402257D03*
D11*
X191643557Y-61620105D03*
D12*
X195981135Y-63087456D03*
D11*
X197119786Y-57523152D03*
D10*
X200888038Y-61772655D03*
D17*
X200742008Y-56552581D03*
X188021335Y-62590676D03*
%TD*%
D10*
%TO.C,SW16*%
X173659446Y-73012937D03*
D11*
X174228771Y-70230785D03*
D12*
X178566349Y-71698136D03*
D11*
X179705000Y-66133832D03*
D10*
X183473252Y-70383335D03*
D17*
X183327222Y-65163261D03*
X170606549Y-71201356D03*
%TD*%
D10*
%TO.C,SW15*%
X128184748Y-70383335D03*
D11*
X130068874Y-68258584D03*
D12*
X133091651Y-71698136D03*
D11*
X136859903Y-67448633D03*
D10*
X137998554Y-73012937D03*
D18*
X140482125Y-68419205D03*
X126446652Y-67288012D03*
%TD*%
D10*
%TO.C,SW14*%
X110769962Y-61772655D03*
D11*
X112654088Y-59647904D03*
D12*
X115676865Y-63087456D03*
D11*
X119445117Y-58837953D03*
D10*
X120583768Y-64402257D03*
D18*
X123067339Y-59808525D03*
X109031866Y-58677332D03*
%TD*%
D10*
%TO.C,SW13*%
X93683875Y-51935249D03*
D11*
X95568001Y-49810498D03*
D12*
X98590778Y-53250050D03*
D11*
X102359030Y-49000547D03*
D10*
X103497681Y-54564851D03*
D18*
X105981252Y-49971119D03*
X91945779Y-48839926D03*
%TD*%
D10*
%TO.C,SW12*%
X73705227Y-52893030D03*
D11*
X75589353Y-50768279D03*
D12*
X78612130Y-54207831D03*
D11*
X82380382Y-49958328D03*
D10*
X83519033Y-55522632D03*
D18*
X86002604Y-50928900D03*
X71967131Y-49797707D03*
%TD*%
D10*
%TO.C,SW11*%
X52214559Y-59493750D03*
D11*
X54098685Y-57368999D03*
D12*
X57121462Y-60808551D03*
D11*
X60889714Y-56559048D03*
D10*
X62028365Y-62123352D03*
D18*
X64511936Y-57529620D03*
X50476463Y-56398427D03*
%TD*%
D10*
%TO.C,SW10*%
X244699132Y-43722465D03*
D11*
X245268457Y-40940313D03*
D12*
X249606035Y-42407664D03*
D11*
X250744686Y-36843360D03*
D10*
X254512938Y-41092863D03*
D17*
X254366908Y-35872789D03*
X241646235Y-41910884D03*
%TD*%
D10*
%TO.C,SW9*%
X223208464Y-37121745D03*
D11*
X223777789Y-34339593D03*
D12*
X228115367Y-35806944D03*
D11*
X229254018Y-30242640D03*
D10*
X233022270Y-34492143D03*
D17*
X232876240Y-29272069D03*
X220155567Y-35310164D03*
%TD*%
D10*
%TO.C,SW8*%
X203229816Y-36163964D03*
D11*
X203799141Y-33381812D03*
D12*
X208136719Y-34849163D03*
D11*
X209275370Y-29284859D03*
D10*
X213043622Y-33534362D03*
D17*
X212897592Y-28314288D03*
X200176919Y-34352383D03*
%TD*%
D10*
%TO.C,SW7*%
X186143730Y-46001370D03*
D11*
X186713055Y-43219218D03*
D12*
X191050633Y-44686569D03*
D11*
X192189284Y-39122265D03*
D10*
X195957536Y-43371768D03*
D17*
X195811506Y-38151694D03*
X183090833Y-44189789D03*
%TD*%
D10*
%TO.C,SW6*%
X168728943Y-54612050D03*
D11*
X169298268Y-51829898D03*
D12*
X173635846Y-53297249D03*
D11*
X174774497Y-47732945D03*
D10*
X178542749Y-51982448D03*
D17*
X178396719Y-46762374D03*
X165676046Y-52800469D03*
%TD*%
D10*
%TO.C,SW5*%
X133115251Y-51982448D03*
D11*
X134999377Y-49857697D03*
D12*
X138022154Y-53297249D03*
D11*
X141790406Y-49047746D03*
D10*
X142929057Y-54612050D03*
D18*
X145412628Y-50018318D03*
X131377155Y-48887125D03*
%TD*%
D10*
%TO.C,SW4*%
X115700464Y-43371768D03*
D11*
X117584590Y-41247017D03*
D12*
X120607367Y-44686569D03*
D11*
X124375619Y-40437066D03*
D10*
X125514270Y-46001370D03*
D18*
X127997841Y-41407638D03*
X113962368Y-40276445D03*
%TD*%
D10*
%TO.C,SW3*%
X98614378Y-33534362D03*
D11*
X100498504Y-31409611D03*
D12*
X103521281Y-34849163D03*
D11*
X107289533Y-30599660D03*
D10*
X108428184Y-36163964D03*
D18*
X110911755Y-31570232D03*
X96876282Y-30439039D03*
%TD*%
D10*
%TO.C,SW2*%
X78635730Y-34492143D03*
D11*
X80519856Y-32367392D03*
D12*
X83542633Y-35806944D03*
D11*
X87310885Y-31557441D03*
D10*
X88449536Y-37121745D03*
D18*
X90933107Y-32528013D03*
X76897634Y-31396820D03*
%TD*%
D10*
%TO.C,SW1*%
X57145062Y-41092863D03*
D11*
X59029188Y-38968112D03*
D12*
X62051965Y-42407664D03*
D11*
X65820217Y-38158161D03*
D10*
X66958868Y-43722465D03*
D18*
X69442439Y-39128733D03*
X55406966Y-37997540D03*
%TD*%
D19*
%TO.C,J3*%
X147569000Y-43942000D03*
D20*
X145029000Y-43942000D03*
%TD*%
%TO.C,J2*%
X167391000Y-44196000D03*
D19*
X164851000Y-44196000D03*
%TD*%
D21*
%TO.C,J1*%
X151634000Y-36460000D03*
D22*
X151634000Y-40640000D03*
X160274000Y-40640000D03*
D21*
X160274000Y-36460000D03*
D23*
X158844000Y-40110000D03*
X153064000Y-40110000D03*
%TD*%
M02*
