M48
; DRILL file {KiCad 7.0.1} date Fri Jan  5 17:15:05 2024
; FORMAT={-:-/ absolute / metric / decimal}
; #@! TF.CreationDate,2024-01-05T17:15:05-05:00
; #@! TF.GenerationSoftware,Kicad,Pcbnew,7.0.1
; #@! TF.FileFunction,Plated,1,2,PTH
FMAT,2
METRIC
; #@! TA.AperFunction,Plated,PTH,ViaDrill
T1C0.400
; #@! TA.AperFunction,Plated,PTH,ComponentDrill
T2C0.600
; #@! TA.AperFunction,Plated,PTH,ComponentDrill
T3C1.000
%
G90
G05
T1
X62.02Y-76.65
X68.11Y-57.65
X72.21Y-39.13
X84.0Y-66.08
X88.85Y-50.78
X91.27Y-39.2
X92.82Y-33.25
X93.67Y-38.89
X97.576Y-40.44
X97.76Y-38.74
X103.07Y-69.29
X109.58Y-50.55
X110.75Y-45.75
X110.78Y-43.73
X111.87Y-109.65
X112.79Y-33.51
X112.79Y-49.652
X112.8Y-46.73
X112.96Y-44.98
X121.39Y-79.49
X126.28Y-61.16
X127.52Y-54.33
X127.57Y-52.92
X128.68Y-43.97
X129.13Y-54.91
X129.16Y-53.69
X129.38Y-47.77
X129.66Y-52.44
X131.83Y-116.87
X133.415Y-61.583
X137.48Y-86.74
X141.05Y-84.29
X141.21Y-61.91
X141.21Y-71.8
X142.03Y-100.59
X143.14Y-66.66
X143.15Y-97.45
X143.16Y-87.52
X144.42Y-77.08
X144.46Y-102.35
X144.52Y-83.358
X144.56Y-70.45
X145.48Y-62.929
X145.53Y-52.41
X145.94Y-64.38
X146.6Y-62.929
X146.75Y-82.957
X146.97Y-69.95
X147.16Y-95.83
X148.13Y-66.269
X149.31Y-82.85
X149.352Y-70.978
X149.5Y-95.37
X149.62Y-66.918
X150.32Y-64.87
X150.663Y-63.918
X151.804Y-45.974
X151.94Y-70.92
X152.07Y-105.472
X152.15Y-83.17
X152.17Y-95.59
X152.654Y-52.226
X152.654Y-56.388
X153.504Y-47.752
X154.433Y-51.799
X154.5Y-60.63
X154.55Y-83.0
X154.59Y-105.79
X154.66Y-96.05
X154.74Y-70.91
X155.111Y-49.022
X156.303Y-51.816
X156.809Y-63.094
X157.153Y-54.61
X157.44Y-105.79
X157.48Y-83.07
X157.546Y-64.044
X157.94Y-94.61
X158.662Y-45.974
X158.662Y-48.768
X158.705Y-56.985
X159.7Y-95.4
X160.03Y-83.03
X160.362Y-45.974
X160.69Y-70.9
X161.35Y-104.27
X162.12Y-95.695
X162.18Y-82.98
X163.71Y-70.59
X164.33Y-96.203
X164.97Y-83.358
X165.32Y-70.492
X165.5Y-69.093
X168.251Y-70.171
X170.08Y-84.32
X170.92Y-97.25
X179.8Y-57.15
X179.87Y-58.74
X180.67Y-47.14
X180.806Y-59.275
X183.35Y-58.19
X183.395Y-56.197
X183.445Y-57.195
X185.6Y-63.08
X188.89Y-80.98
X191.92Y-93.84
X193.63Y-110.3
X197.64Y-49.67
X197.69Y-50.74
X198.39Y-40.59
X199.28Y-48.92
X199.477Y-49.98
X203.24Y-56.46
X206.37Y-72.42
X214.433Y-40.043
X215.35Y-30.33
X215.5Y-104.78
X216.049Y-38.427
X220.44Y-49.28
X222.58Y-62.23
X237.06Y-40.51
X240.23Y-50.6
X242.94Y-63.69
X252.46Y-33.29
T3
X145.029Y-43.942
X147.569Y-43.942
X164.851Y-44.196
X167.391Y-44.196
T2
X151.634Y-36.76G85X151.634Y-36.16
G05
X151.634Y-41.19G85X151.634Y-40.09
G05
X160.274Y-36.76G85X160.274Y-36.16
G05
X160.274Y-41.19G85X160.274Y-40.09
G05
T0
M30
