M48
; DRILL file {KiCad 7.0.1} date Fri Jan  5 17:15:05 2024
; FORMAT={-:-/ absolute / metric / decimal}
; #@! TF.CreationDate,2024-01-05T17:15:05-05:00
; #@! TF.GenerationSoftware,Kicad,Pcbnew,7.0.1
; #@! TF.FileFunction,NonPlated,1,2,NPTH
FMAT,2
METRIC
; #@! TA.AperFunction,NonPlated,NPTH,ComponentDrill
T1C0.650
; #@! TA.AperFunction,NonPlated,NPTH,ComponentDrill
T2C1.702
; #@! TA.AperFunction,NonPlated,NPTH,ComponentDrill
T3C3.000
; #@! TA.AperFunction,NonPlated,NPTH,ComponentDrill
T4C3.988
%
G90
G05
T1
X153.064Y-40.11
X158.844Y-40.11
T2
X47.284Y-77.895
X52.215Y-59.494
X57.098Y-80.524
X57.145Y-41.093
X62.028Y-62.123
X66.959Y-43.722
X68.775Y-71.294
X73.705Y-52.893
X78.589Y-73.924
X78.636Y-34.492
X83.519Y-55.523
X88.45Y-37.122
X88.753Y-70.336
X93.684Y-51.935
X96.413Y-111.789
X98.567Y-72.966
X98.614Y-33.534
X103.498Y-54.565
X105.621Y-116.083
X105.839Y-80.174
X108.428Y-36.164
X110.77Y-61.773
X115.653Y-82.803
X115.7Y-43.372
X117.916Y-117.103
X120.584Y-64.402
X123.254Y-88.784
X125.514Y-46.001
X126.715Y-122.183
X128.185Y-70.383
X133.068Y-91.414
X133.115Y-51.982
X137.999Y-73.013
X142.929Y-54.612
X168.729Y-54.612
X173.659Y-73.013
X178.543Y-51.982
X178.59Y-91.414
X183.473Y-70.383
X184.943Y-122.183
X186.144Y-46.001
X188.404Y-88.784
X191.074Y-64.402
X193.742Y-117.103
X195.958Y-43.372
X196.005Y-82.803
X200.888Y-61.773
X203.23Y-36.164
X205.819Y-80.174
X206.037Y-116.083
X208.16Y-54.565
X213.044Y-33.534
X213.091Y-72.966
X215.245Y-111.789
X217.974Y-51.935
X222.905Y-70.336
X223.208Y-37.122
X228.139Y-55.523
X233.022Y-34.492
X233.069Y-73.924
X237.953Y-52.893
X242.883Y-71.294
X244.699Y-43.722
X249.63Y-62.123
X254.513Y-41.093
X254.56Y-80.524
X259.443Y-59.494
X264.374Y-77.895
T3
X49.168Y-75.77
X54.099Y-57.369
X55.959Y-74.96
X59.029Y-38.968
X60.89Y-56.559
X65.82Y-38.158
X70.659Y-69.169
X75.589Y-50.768
X77.45Y-68.359
X80.52Y-32.367
X82.38Y-49.958
X87.311Y-31.557
X90.637Y-68.211
X95.568Y-49.81
X97.429Y-67.401
X98.637Y-110.024
X100.499Y-31.41
X102.359Y-49.001
X105.466Y-110.405
X107.29Y-30.6
X107.724Y-78.049
X112.654Y-59.648
X114.515Y-77.239
X117.585Y-41.247
X119.445Y-58.838
X120.286Y-115.538
X124.376Y-40.437
X125.138Y-86.659
X127.055Y-116.513
X130.069Y-68.259
X131.929Y-85.85
X134.999Y-49.858
X136.86Y-67.449
X141.79Y-49.048
X169.298Y-51.83
X174.229Y-70.231
X174.774Y-47.733
X179.159Y-88.632
X179.705Y-66.134
X184.636Y-84.535
X184.773Y-119.348
X186.713Y-43.219
X189.002Y-113.973
X191.644Y-61.62
X192.189Y-39.122
X196.574Y-80.021
X197.12Y-57.523
X202.05Y-75.924
X203.799Y-33.382
X206.115Y-113.244
X208.73Y-51.783
X209.275Y-29.285
X210.796Y-108.258
X213.66Y-70.184
X214.206Y-47.686
X219.136Y-66.087
X223.778Y-34.34
X228.708Y-52.74
X229.254Y-30.243
X233.639Y-71.141
X234.185Y-48.644
X239.115Y-67.044
X245.268Y-40.94
X250.199Y-59.341
X250.745Y-36.843
X255.129Y-77.742
X255.675Y-55.244
X260.606Y-73.645
T4
X52.191Y-79.209
X57.121Y-60.809
X62.052Y-42.408
X73.682Y-72.609
X78.612Y-54.208
X83.543Y-35.807
X93.66Y-71.651
X98.591Y-53.25
X101.017Y-113.936
X103.521Y-34.849
X110.746Y-81.488
X115.677Y-63.087
X120.607Y-44.687
X122.315Y-119.643
X128.161Y-90.099
X133.092Y-71.698
X138.022Y-53.297
X173.636Y-53.297
X178.566Y-71.698
X183.497Y-90.099
X189.343Y-119.643
X191.051Y-44.687
X195.981Y-63.087
X200.912Y-81.488
X208.137Y-34.849
X210.641Y-113.936
X213.067Y-53.25
X217.998Y-71.651
X228.115Y-35.807
X233.046Y-54.208
X237.976Y-72.609
X249.606Y-42.408
X254.537Y-60.809
X259.467Y-79.209
T0
M30
