%TF.GenerationSoftware,KiCad,Pcbnew,7.0.1*%
%TF.CreationDate,2024-01-05T17:15:02-05:00*%
%TF.ProjectId,ch55p34,63683535-7033-4342-9e6b-696361645f70,rev?*%
%TF.SameCoordinates,Original*%
%TF.FileFunction,Legend,Bot*%
%TF.FilePolarity,Positive*%
%FSLAX46Y46*%
G04 Gerber Fmt 4.6, Leading zero omitted, Abs format (unit mm)*
G04 Created by KiCad (PCBNEW 7.0.1) date 2024-01-05 17:15:02*
%MOMM*%
%LPD*%
G01*
G04 APERTURE LIST*
%ADD10C,0.150000*%
G04 APERTURE END LIST*
D10*
X148137714Y-41726428D02*
X148637714Y-41012142D01*
X148994857Y-41726428D02*
X148994857Y-40226428D01*
X148994857Y-40226428D02*
X148423428Y-40226428D01*
X148423428Y-40226428D02*
X148280571Y-40297857D01*
X148280571Y-40297857D02*
X148209142Y-40369285D01*
X148209142Y-40369285D02*
X148137714Y-40512142D01*
X148137714Y-40512142D02*
X148137714Y-40726428D01*
X148137714Y-40726428D02*
X148209142Y-40869285D01*
X148209142Y-40869285D02*
X148280571Y-40940714D01*
X148280571Y-40940714D02*
X148423428Y-41012142D01*
X148423428Y-41012142D02*
X148994857Y-41012142D01*
X146923428Y-41655000D02*
X147066285Y-41726428D01*
X147066285Y-41726428D02*
X147352000Y-41726428D01*
X147352000Y-41726428D02*
X147494857Y-41655000D01*
X147494857Y-41655000D02*
X147566285Y-41512142D01*
X147566285Y-41512142D02*
X147566285Y-40940714D01*
X147566285Y-40940714D02*
X147494857Y-40797857D01*
X147494857Y-40797857D02*
X147352000Y-40726428D01*
X147352000Y-40726428D02*
X147066285Y-40726428D01*
X147066285Y-40726428D02*
X146923428Y-40797857D01*
X146923428Y-40797857D02*
X146852000Y-40940714D01*
X146852000Y-40940714D02*
X146852000Y-41083571D01*
X146852000Y-41083571D02*
X147566285Y-41226428D01*
X146280571Y-41655000D02*
X146137714Y-41726428D01*
X146137714Y-41726428D02*
X145852000Y-41726428D01*
X145852000Y-41726428D02*
X145709143Y-41655000D01*
X145709143Y-41655000D02*
X145637714Y-41512142D01*
X145637714Y-41512142D02*
X145637714Y-41440714D01*
X145637714Y-41440714D02*
X145709143Y-41297857D01*
X145709143Y-41297857D02*
X145852000Y-41226428D01*
X145852000Y-41226428D02*
X146066286Y-41226428D01*
X146066286Y-41226428D02*
X146209143Y-41155000D01*
X146209143Y-41155000D02*
X146280571Y-41012142D01*
X146280571Y-41012142D02*
X146280571Y-40940714D01*
X146280571Y-40940714D02*
X146209143Y-40797857D01*
X146209143Y-40797857D02*
X146066286Y-40726428D01*
X146066286Y-40726428D02*
X145852000Y-40726428D01*
X145852000Y-40726428D02*
X145709143Y-40797857D01*
X144423428Y-41655000D02*
X144566285Y-41726428D01*
X144566285Y-41726428D02*
X144852000Y-41726428D01*
X144852000Y-41726428D02*
X144994857Y-41655000D01*
X144994857Y-41655000D02*
X145066285Y-41512142D01*
X145066285Y-41512142D02*
X145066285Y-40940714D01*
X145066285Y-40940714D02*
X144994857Y-40797857D01*
X144994857Y-40797857D02*
X144852000Y-40726428D01*
X144852000Y-40726428D02*
X144566285Y-40726428D01*
X144566285Y-40726428D02*
X144423428Y-40797857D01*
X144423428Y-40797857D02*
X144352000Y-40940714D01*
X144352000Y-40940714D02*
X144352000Y-41083571D01*
X144352000Y-41083571D02*
X145066285Y-41226428D01*
X143923428Y-40726428D02*
X143352000Y-40726428D01*
X143709143Y-40226428D02*
X143709143Y-41512142D01*
X143709143Y-41512142D02*
X143637714Y-41655000D01*
X143637714Y-41655000D02*
X143494857Y-41726428D01*
X143494857Y-41726428D02*
X143352000Y-41726428D01*
X167798857Y-41448714D02*
X167584571Y-41520142D01*
X167584571Y-41520142D02*
X167513142Y-41591571D01*
X167513142Y-41591571D02*
X167441714Y-41734428D01*
X167441714Y-41734428D02*
X167441714Y-41948714D01*
X167441714Y-41948714D02*
X167513142Y-42091571D01*
X167513142Y-42091571D02*
X167584571Y-42163000D01*
X167584571Y-42163000D02*
X167727428Y-42234428D01*
X167727428Y-42234428D02*
X168298857Y-42234428D01*
X168298857Y-42234428D02*
X168298857Y-40734428D01*
X168298857Y-40734428D02*
X167798857Y-40734428D01*
X167798857Y-40734428D02*
X167656000Y-40805857D01*
X167656000Y-40805857D02*
X167584571Y-40877285D01*
X167584571Y-40877285D02*
X167513142Y-41020142D01*
X167513142Y-41020142D02*
X167513142Y-41163000D01*
X167513142Y-41163000D02*
X167584571Y-41305857D01*
X167584571Y-41305857D02*
X167656000Y-41377285D01*
X167656000Y-41377285D02*
X167798857Y-41448714D01*
X167798857Y-41448714D02*
X168298857Y-41448714D01*
X166584571Y-42234428D02*
X166727428Y-42163000D01*
X166727428Y-42163000D02*
X166798857Y-42091571D01*
X166798857Y-42091571D02*
X166870285Y-41948714D01*
X166870285Y-41948714D02*
X166870285Y-41520142D01*
X166870285Y-41520142D02*
X166798857Y-41377285D01*
X166798857Y-41377285D02*
X166727428Y-41305857D01*
X166727428Y-41305857D02*
X166584571Y-41234428D01*
X166584571Y-41234428D02*
X166370285Y-41234428D01*
X166370285Y-41234428D02*
X166227428Y-41305857D01*
X166227428Y-41305857D02*
X166156000Y-41377285D01*
X166156000Y-41377285D02*
X166084571Y-41520142D01*
X166084571Y-41520142D02*
X166084571Y-41948714D01*
X166084571Y-41948714D02*
X166156000Y-42091571D01*
X166156000Y-42091571D02*
X166227428Y-42163000D01*
X166227428Y-42163000D02*
X166370285Y-42234428D01*
X166370285Y-42234428D02*
X166584571Y-42234428D01*
X165227428Y-42234428D02*
X165370285Y-42163000D01*
X165370285Y-42163000D02*
X165441714Y-42091571D01*
X165441714Y-42091571D02*
X165513142Y-41948714D01*
X165513142Y-41948714D02*
X165513142Y-41520142D01*
X165513142Y-41520142D02*
X165441714Y-41377285D01*
X165441714Y-41377285D02*
X165370285Y-41305857D01*
X165370285Y-41305857D02*
X165227428Y-41234428D01*
X165227428Y-41234428D02*
X165013142Y-41234428D01*
X165013142Y-41234428D02*
X164870285Y-41305857D01*
X164870285Y-41305857D02*
X164798857Y-41377285D01*
X164798857Y-41377285D02*
X164727428Y-41520142D01*
X164727428Y-41520142D02*
X164727428Y-41948714D01*
X164727428Y-41948714D02*
X164798857Y-42091571D01*
X164798857Y-42091571D02*
X164870285Y-42163000D01*
X164870285Y-42163000D02*
X165013142Y-42234428D01*
X165013142Y-42234428D02*
X165227428Y-42234428D01*
X164298856Y-41234428D02*
X163727428Y-41234428D01*
X164084571Y-40734428D02*
X164084571Y-42020142D01*
X164084571Y-42020142D02*
X164013142Y-42163000D01*
X164013142Y-42163000D02*
X163870285Y-42234428D01*
X163870285Y-42234428D02*
X163727428Y-42234428D01*
%TO.C,SW34*%
X208967835Y-106065580D02*
X208858487Y-106169112D01*
X208858487Y-106169112D02*
X208642699Y-106269735D01*
X208642699Y-106269735D02*
X208536259Y-106266827D01*
X208536259Y-106266827D02*
X208472977Y-106243794D01*
X208472977Y-106243794D02*
X208389570Y-106177604D01*
X208389570Y-106177604D02*
X208349321Y-106091289D01*
X208349321Y-106091289D02*
X208352229Y-105984849D01*
X208352229Y-105984849D02*
X208375262Y-105921567D01*
X208375262Y-105921567D02*
X208441452Y-105838160D01*
X208441452Y-105838160D02*
X208593958Y-105714504D01*
X208593958Y-105714504D02*
X208660148Y-105631097D01*
X208660148Y-105631097D02*
X208683181Y-105567815D01*
X208683181Y-105567815D02*
X208686089Y-105461375D01*
X208686089Y-105461375D02*
X208645840Y-105375060D01*
X208645840Y-105375060D02*
X208562433Y-105308870D01*
X208562433Y-105308870D02*
X208499151Y-105285837D01*
X208499151Y-105285837D02*
X208392711Y-105282929D01*
X208392711Y-105282929D02*
X208176923Y-105383552D01*
X208176923Y-105383552D02*
X208067576Y-105487084D01*
X207745348Y-105584799D02*
X207952179Y-106591730D01*
X207952179Y-106591730D02*
X207477679Y-106024866D01*
X207477679Y-106024866D02*
X207606919Y-106752728D01*
X207606919Y-106752728D02*
X206968513Y-105947043D01*
X206709568Y-106067791D02*
X206148520Y-106329412D01*
X206148520Y-106329412D02*
X206611620Y-106533799D01*
X206611620Y-106533799D02*
X206482148Y-106594174D01*
X206482148Y-106594174D02*
X206415957Y-106677580D01*
X206415957Y-106677580D02*
X206392925Y-106740863D01*
X206392925Y-106740863D02*
X206390016Y-106847302D01*
X206390016Y-106847302D02*
X206490640Y-107063090D01*
X206490640Y-107063090D02*
X206574047Y-107129280D01*
X206574047Y-107129280D02*
X206637329Y-107152313D01*
X206637329Y-107152313D02*
X206743769Y-107155221D01*
X206743769Y-107155221D02*
X207002714Y-107034473D01*
X207002714Y-107034473D02*
X207068904Y-106951066D01*
X207068904Y-106951066D02*
X207091937Y-106887784D01*
X205512558Y-106993759D02*
X205794303Y-107597964D01*
X205567348Y-106547875D02*
X206085006Y-107094615D01*
X206085006Y-107094615D02*
X205523958Y-107356236D01*
%TO.C,SW33*%
X186989605Y-111948330D02*
X186889697Y-112060998D01*
X186889697Y-112060998D02*
X186683500Y-112180046D01*
X186683500Y-112180046D02*
X186577212Y-112186425D01*
X186577212Y-112186425D02*
X186512163Y-112168996D01*
X186512163Y-112168996D02*
X186423305Y-112110327D01*
X186423305Y-112110327D02*
X186375686Y-112027848D01*
X186375686Y-112027848D02*
X186369306Y-111921560D01*
X186369306Y-111921560D02*
X186386736Y-111856511D01*
X186386736Y-111856511D02*
X186445405Y-111767653D01*
X186445405Y-111767653D02*
X186586553Y-111631175D01*
X186586553Y-111631175D02*
X186645222Y-111542317D01*
X186645222Y-111542317D02*
X186662651Y-111477268D01*
X186662651Y-111477268D02*
X186656272Y-111370980D01*
X186656272Y-111370980D02*
X186608653Y-111288501D01*
X186608653Y-111288501D02*
X186519794Y-111229832D01*
X186519794Y-111229832D02*
X186454746Y-111212402D01*
X186454746Y-111212402D02*
X186348457Y-111218782D01*
X186348457Y-111218782D02*
X186142261Y-111337830D01*
X186142261Y-111337830D02*
X186042352Y-111450498D01*
X185729868Y-111575925D02*
X186023671Y-112560998D01*
X186023671Y-112560998D02*
X185501571Y-112037647D01*
X185501571Y-112037647D02*
X185693757Y-112751474D01*
X185693757Y-112751474D02*
X184987560Y-112004496D01*
X184740125Y-112147354D02*
X184204014Y-112456877D01*
X184204014Y-112456877D02*
X184683165Y-112620125D01*
X184683165Y-112620125D02*
X184559447Y-112691554D01*
X184559447Y-112691554D02*
X184500778Y-112780412D01*
X184500778Y-112780412D02*
X184483348Y-112845461D01*
X184483348Y-112845461D02*
X184489728Y-112951749D01*
X184489728Y-112951749D02*
X184608776Y-113157946D01*
X184608776Y-113157946D02*
X184697634Y-113216615D01*
X184697634Y-113216615D02*
X184762683Y-113234044D01*
X184762683Y-113234044D02*
X184868971Y-113227665D01*
X184868971Y-113227665D02*
X185116407Y-113084807D01*
X185116407Y-113084807D02*
X185175076Y-112995949D01*
X185175076Y-112995949D02*
X185192506Y-112930900D01*
X183915338Y-112623544D02*
X183379227Y-112933068D01*
X183379227Y-112933068D02*
X183858379Y-113096316D01*
X183858379Y-113096316D02*
X183734661Y-113167744D01*
X183734661Y-113167744D02*
X183675992Y-113256603D01*
X183675992Y-113256603D02*
X183658562Y-113321651D01*
X183658562Y-113321651D02*
X183664942Y-113427939D01*
X183664942Y-113427939D02*
X183783989Y-113634136D01*
X183783989Y-113634136D02*
X183872848Y-113692805D01*
X183872848Y-113692805D02*
X183937897Y-113710235D01*
X183937897Y-113710235D02*
X184044185Y-113703855D01*
X184044185Y-113703855D02*
X184291621Y-113560998D01*
X184291621Y-113560998D02*
X184350290Y-113472140D01*
X184350290Y-113472140D02*
X184367719Y-113407091D01*
%TO.C,SW32*%
X127802581Y-113757854D02*
X127655054Y-113727665D01*
X127655054Y-113727665D02*
X127448857Y-113608617D01*
X127448857Y-113608617D02*
X127390188Y-113519759D01*
X127390188Y-113519759D02*
X127372758Y-113454710D01*
X127372758Y-113454710D02*
X127379138Y-113348422D01*
X127379138Y-113348422D02*
X127426757Y-113265943D01*
X127426757Y-113265943D02*
X127515615Y-113207274D01*
X127515615Y-113207274D02*
X127580664Y-113189844D01*
X127580664Y-113189844D02*
X127686952Y-113196224D01*
X127686952Y-113196224D02*
X127875719Y-113250223D01*
X127875719Y-113250223D02*
X127982007Y-113256603D01*
X127982007Y-113256603D02*
X128047056Y-113239173D01*
X128047056Y-113239173D02*
X128135914Y-113180504D01*
X128135914Y-113180504D02*
X128183533Y-113098025D01*
X128183533Y-113098025D02*
X128189913Y-112991737D01*
X128189913Y-112991737D02*
X128172483Y-112926688D01*
X128172483Y-112926688D02*
X128113814Y-112837830D01*
X128113814Y-112837830D02*
X127907618Y-112718782D01*
X127907618Y-112718782D02*
X127760090Y-112688593D01*
X127495225Y-112480687D02*
X126789028Y-113227665D01*
X126789028Y-113227665D02*
X126981214Y-112513837D01*
X126981214Y-112513837D02*
X126459114Y-113037188D01*
X126459114Y-113037188D02*
X126752917Y-112052115D01*
X126505482Y-111909258D02*
X125969371Y-111599735D01*
X125969371Y-111599735D02*
X126067570Y-112096316D01*
X126067570Y-112096316D02*
X125943852Y-112024887D01*
X125943852Y-112024887D02*
X125837563Y-112018507D01*
X125837563Y-112018507D02*
X125772515Y-112035937D01*
X125772515Y-112035937D02*
X125683656Y-112094606D01*
X125683656Y-112094606D02*
X125564609Y-112300803D01*
X125564609Y-112300803D02*
X125558229Y-112407091D01*
X125558229Y-112407091D02*
X125575659Y-112472140D01*
X125575659Y-112472140D02*
X125634328Y-112560998D01*
X125634328Y-112560998D02*
X125881764Y-112703855D01*
X125881764Y-112703855D02*
X125988052Y-112710235D01*
X125988052Y-112710235D02*
X126053101Y-112692805D01*
X125591837Y-111491737D02*
X125574407Y-111426688D01*
X125574407Y-111426688D02*
X125515738Y-111337830D01*
X125515738Y-111337830D02*
X125309542Y-111218782D01*
X125309542Y-111218782D02*
X125203254Y-111212402D01*
X125203254Y-111212402D02*
X125138205Y-111229832D01*
X125138205Y-111229832D02*
X125049346Y-111288501D01*
X125049346Y-111288501D02*
X125001727Y-111370980D01*
X125001727Y-111370980D02*
X124971538Y-111518507D01*
X124971538Y-111518507D02*
X125180695Y-112299093D01*
X125180695Y-112299093D02*
X124644584Y-111989569D01*
%TO.C,SW31*%
X105970135Y-107595057D02*
X105820538Y-107577841D01*
X105820538Y-107577841D02*
X105604751Y-107477217D01*
X105604751Y-107477217D02*
X105538560Y-107393810D01*
X105538560Y-107393810D02*
X105515527Y-107330528D01*
X105515527Y-107330528D02*
X105512619Y-107224088D01*
X105512619Y-107224088D02*
X105552869Y-107137773D01*
X105552869Y-107137773D02*
X105636276Y-107071583D01*
X105636276Y-107071583D02*
X105699558Y-107048550D01*
X105699558Y-107048550D02*
X105805997Y-107045642D01*
X105805997Y-107045642D02*
X105998752Y-107082983D01*
X105998752Y-107082983D02*
X106105192Y-107080075D01*
X106105192Y-107080075D02*
X106168474Y-107057042D01*
X106168474Y-107057042D02*
X106251881Y-106990852D01*
X106251881Y-106990852D02*
X106292130Y-106904537D01*
X106292130Y-106904537D02*
X106289222Y-106798097D01*
X106289222Y-106798097D02*
X106266189Y-106734815D01*
X106266189Y-106734815D02*
X106199999Y-106651408D01*
X106199999Y-106651408D02*
X105984211Y-106550785D01*
X105984211Y-106550785D02*
X105834614Y-106533568D01*
X105552636Y-106349538D02*
X104914230Y-107155222D01*
X104914230Y-107155222D02*
X105043471Y-106427361D01*
X105043471Y-106427361D02*
X104568970Y-106994225D01*
X104568970Y-106994225D02*
X104775801Y-105987294D01*
X104516856Y-105866546D02*
X103955808Y-105604925D01*
X103955808Y-105604925D02*
X104096914Y-106091058D01*
X104096914Y-106091058D02*
X103967441Y-106030684D01*
X103967441Y-106030684D02*
X103861001Y-106033592D01*
X103861001Y-106033592D02*
X103797719Y-106056625D01*
X103797719Y-106056625D02*
X103714312Y-106122815D01*
X103714312Y-106122815D02*
X103613689Y-106338603D01*
X103613689Y-106338603D02*
X103616597Y-106445042D01*
X103616597Y-106445042D02*
X103639630Y-106508324D01*
X103639630Y-106508324D02*
X103705820Y-106591731D01*
X103705820Y-106591731D02*
X103964765Y-106712479D01*
X103964765Y-106712479D02*
X104071205Y-106709571D01*
X104071205Y-106709571D02*
X104134487Y-106686538D01*
X102670040Y-106108739D02*
X103187930Y-106350235D01*
X102928985Y-106229487D02*
X103351603Y-105323179D01*
X103351603Y-105323179D02*
X103377544Y-105492901D01*
X103377544Y-105492901D02*
X103423610Y-105619466D01*
X103423610Y-105619466D02*
X103489800Y-105702872D01*
%TO.C,SW30*%
X259185765Y-71168239D02*
X259060100Y-71251210D01*
X259060100Y-71251210D02*
X258830118Y-71312834D01*
X258830118Y-71312834D02*
X258725801Y-71291487D01*
X258725801Y-71291487D02*
X258667479Y-71257815D01*
X258667479Y-71257815D02*
X258596833Y-71178147D01*
X258596833Y-71178147D02*
X258572184Y-71086154D01*
X258572184Y-71086154D02*
X258593531Y-70981836D01*
X258593531Y-70981836D02*
X258627203Y-70923515D01*
X258627203Y-70923515D02*
X258706871Y-70852869D01*
X258706871Y-70852869D02*
X258878532Y-70757574D01*
X258878532Y-70757574D02*
X258958200Y-70686928D01*
X258958200Y-70686928D02*
X258991872Y-70628607D01*
X258991872Y-70628607D02*
X259013219Y-70524289D01*
X259013219Y-70524289D02*
X258988570Y-70432296D01*
X258988570Y-70432296D02*
X258917924Y-70352628D01*
X258917924Y-70352628D02*
X258859603Y-70318956D01*
X258859603Y-70318956D02*
X258755285Y-70297609D01*
X258755285Y-70297609D02*
X258525303Y-70359233D01*
X258525303Y-70359233D02*
X258399638Y-70442203D01*
X258065338Y-70482480D02*
X258094175Y-71510029D01*
X258094175Y-71510029D02*
X257725318Y-70869381D01*
X257725318Y-70869381D02*
X257726203Y-71608627D01*
X257726203Y-71608627D02*
X257237401Y-70704325D01*
X256961423Y-70778273D02*
X256363469Y-70938494D01*
X256363469Y-70938494D02*
X256784042Y-71220193D01*
X256784042Y-71220193D02*
X256646052Y-71257167D01*
X256646052Y-71257167D02*
X256566384Y-71327813D01*
X256566384Y-71327813D02*
X256532712Y-71386134D01*
X256532712Y-71386134D02*
X256511365Y-71490452D01*
X256511365Y-71490452D02*
X256572989Y-71720434D01*
X256572989Y-71720434D02*
X256643635Y-71800102D01*
X256643635Y-71800102D02*
X256701956Y-71833774D01*
X256701956Y-71833774D02*
X256806274Y-71855121D01*
X256806274Y-71855121D02*
X257082252Y-71781173D01*
X257082252Y-71781173D02*
X257161921Y-71710527D01*
X257161921Y-71710527D02*
X257195592Y-71652206D01*
X255765515Y-71098716D02*
X255673522Y-71123365D01*
X255673522Y-71123365D02*
X255593853Y-71194011D01*
X255593853Y-71194011D02*
X255560182Y-71252332D01*
X255560182Y-71252332D02*
X255538835Y-71356650D01*
X255538835Y-71356650D02*
X255542137Y-71552960D01*
X255542137Y-71552960D02*
X255603761Y-71782943D01*
X255603761Y-71782943D02*
X255699056Y-71954604D01*
X255699056Y-71954604D02*
X255769702Y-72034272D01*
X255769702Y-72034272D02*
X255828023Y-72067944D01*
X255828023Y-72067944D02*
X255932341Y-72089291D01*
X255932341Y-72089291D02*
X256024334Y-72064641D01*
X256024334Y-72064641D02*
X256104002Y-71993995D01*
X256104002Y-71993995D02*
X256137674Y-71935674D01*
X256137674Y-71935674D02*
X256159021Y-71831357D01*
X256159021Y-71831357D02*
X256155718Y-71635046D01*
X256155718Y-71635046D02*
X256094095Y-71405064D01*
X256094095Y-71405064D02*
X255998799Y-71233403D01*
X255998799Y-71233403D02*
X255928153Y-71153734D01*
X255928153Y-71153734D02*
X255869832Y-71120063D01*
X255869832Y-71120063D02*
X255765515Y-71098716D01*
%TO.C,SW29*%
X237695096Y-64567519D02*
X237569431Y-64650490D01*
X237569431Y-64650490D02*
X237339449Y-64712114D01*
X237339449Y-64712114D02*
X237235132Y-64690767D01*
X237235132Y-64690767D02*
X237176810Y-64657095D01*
X237176810Y-64657095D02*
X237106164Y-64577427D01*
X237106164Y-64577427D02*
X237081515Y-64485434D01*
X237081515Y-64485434D02*
X237102862Y-64381116D01*
X237102862Y-64381116D02*
X237136534Y-64322795D01*
X237136534Y-64322795D02*
X237216202Y-64252149D01*
X237216202Y-64252149D02*
X237387863Y-64156854D01*
X237387863Y-64156854D02*
X237467531Y-64086208D01*
X237467531Y-64086208D02*
X237501203Y-64027887D01*
X237501203Y-64027887D02*
X237522550Y-63923569D01*
X237522550Y-63923569D02*
X237497901Y-63831576D01*
X237497901Y-63831576D02*
X237427255Y-63751908D01*
X237427255Y-63751908D02*
X237368934Y-63718236D01*
X237368934Y-63718236D02*
X237264616Y-63696889D01*
X237264616Y-63696889D02*
X237034634Y-63758513D01*
X237034634Y-63758513D02*
X236908969Y-63841483D01*
X236574669Y-63881760D02*
X236603506Y-64909309D01*
X236603506Y-64909309D02*
X236234649Y-64268661D01*
X236234649Y-64268661D02*
X236235534Y-65007907D01*
X236235534Y-65007907D02*
X235746732Y-64103605D01*
X235449407Y-64281871D02*
X235391086Y-64248199D01*
X235391086Y-64248199D02*
X235286768Y-64226852D01*
X235286768Y-64226852D02*
X235056786Y-64288475D01*
X235056786Y-64288475D02*
X234977117Y-64359121D01*
X234977117Y-64359121D02*
X234943446Y-64417442D01*
X234943446Y-64417442D02*
X234922099Y-64521760D01*
X234922099Y-64521760D02*
X234946748Y-64613753D01*
X234946748Y-64613753D02*
X235029719Y-64739418D01*
X235029719Y-64739418D02*
X235729573Y-65143479D01*
X235729573Y-65143479D02*
X235131619Y-65303700D01*
X234671654Y-65426947D02*
X234487668Y-65476246D01*
X234487668Y-65476246D02*
X234383351Y-65454899D01*
X234383351Y-65454899D02*
X234325029Y-65421227D01*
X234325029Y-65421227D02*
X234196062Y-65307887D01*
X234196062Y-65307887D02*
X234100767Y-65136226D01*
X234100767Y-65136226D02*
X234002169Y-64768254D01*
X234002169Y-64768254D02*
X234023516Y-64663937D01*
X234023516Y-64663937D02*
X234057188Y-64605616D01*
X234057188Y-64605616D02*
X234136856Y-64534970D01*
X234136856Y-64534970D02*
X234320842Y-64485671D01*
X234320842Y-64485671D02*
X234425160Y-64507018D01*
X234425160Y-64507018D02*
X234483481Y-64540690D01*
X234483481Y-64540690D02*
X234554127Y-64620358D01*
X234554127Y-64620358D02*
X234615750Y-64850340D01*
X234615750Y-64850340D02*
X234594403Y-64954658D01*
X234594403Y-64954658D02*
X234560732Y-65012979D01*
X234560732Y-65012979D02*
X234481063Y-65083625D01*
X234481063Y-65083625D02*
X234297078Y-65132924D01*
X234297078Y-65132924D02*
X234192760Y-65111577D01*
X234192760Y-65111577D02*
X234134439Y-65077905D01*
X234134439Y-65077905D02*
X234063793Y-64998237D01*
%TO.C,SW28*%
X217716448Y-63609738D02*
X217590783Y-63692709D01*
X217590783Y-63692709D02*
X217360801Y-63754333D01*
X217360801Y-63754333D02*
X217256484Y-63732986D01*
X217256484Y-63732986D02*
X217198162Y-63699314D01*
X217198162Y-63699314D02*
X217127516Y-63619646D01*
X217127516Y-63619646D02*
X217102867Y-63527653D01*
X217102867Y-63527653D02*
X217124214Y-63423335D01*
X217124214Y-63423335D02*
X217157886Y-63365014D01*
X217157886Y-63365014D02*
X217237554Y-63294368D01*
X217237554Y-63294368D02*
X217409215Y-63199073D01*
X217409215Y-63199073D02*
X217488883Y-63128427D01*
X217488883Y-63128427D02*
X217522555Y-63070106D01*
X217522555Y-63070106D02*
X217543902Y-62965788D01*
X217543902Y-62965788D02*
X217519253Y-62873795D01*
X217519253Y-62873795D02*
X217448607Y-62794127D01*
X217448607Y-62794127D02*
X217390286Y-62760455D01*
X217390286Y-62760455D02*
X217285968Y-62739108D01*
X217285968Y-62739108D02*
X217055986Y-62800732D01*
X217055986Y-62800732D02*
X216930321Y-62883702D01*
X216596021Y-62923979D02*
X216624858Y-63951528D01*
X216624858Y-63951528D02*
X216256001Y-63310880D01*
X216256001Y-63310880D02*
X216256886Y-64050126D01*
X216256886Y-64050126D02*
X215768084Y-63145824D01*
X215470759Y-63324090D02*
X215412438Y-63290418D01*
X215412438Y-63290418D02*
X215308120Y-63269071D01*
X215308120Y-63269071D02*
X215078138Y-63330694D01*
X215078138Y-63330694D02*
X214998469Y-63401340D01*
X214998469Y-63401340D02*
X214964798Y-63459661D01*
X214964798Y-63459661D02*
X214943451Y-63563979D01*
X214943451Y-63563979D02*
X214968100Y-63655972D01*
X214968100Y-63655972D02*
X215051071Y-63781637D01*
X215051071Y-63781637D02*
X215750925Y-64185698D01*
X215750925Y-64185698D02*
X215152971Y-64345919D01*
X214453117Y-63941858D02*
X214532785Y-63871212D01*
X214532785Y-63871212D02*
X214566457Y-63812891D01*
X214566457Y-63812891D02*
X214587804Y-63708573D01*
X214587804Y-63708573D02*
X214575479Y-63662577D01*
X214575479Y-63662577D02*
X214504833Y-63582909D01*
X214504833Y-63582909D02*
X214446512Y-63549237D01*
X214446512Y-63549237D02*
X214342194Y-63527890D01*
X214342194Y-63527890D02*
X214158208Y-63577189D01*
X214158208Y-63577189D02*
X214078540Y-63647835D01*
X214078540Y-63647835D02*
X214044868Y-63706156D01*
X214044868Y-63706156D02*
X214023521Y-63810473D01*
X214023521Y-63810473D02*
X214035846Y-63856470D01*
X214035846Y-63856470D02*
X214106492Y-63936138D01*
X214106492Y-63936138D02*
X214164813Y-63969810D01*
X214164813Y-63969810D02*
X214269131Y-63991157D01*
X214269131Y-63991157D02*
X214453117Y-63941858D01*
X214453117Y-63941858D02*
X214557434Y-63963205D01*
X214557434Y-63963205D02*
X214615755Y-63996877D01*
X214615755Y-63996877D02*
X214686401Y-64076545D01*
X214686401Y-64076545D02*
X214735700Y-64260531D01*
X214735700Y-64260531D02*
X214714353Y-64364849D01*
X214714353Y-64364849D02*
X214680681Y-64423170D01*
X214680681Y-64423170D02*
X214601013Y-64493816D01*
X214601013Y-64493816D02*
X214417027Y-64543115D01*
X214417027Y-64543115D02*
X214312710Y-64521767D01*
X214312710Y-64521767D02*
X214254388Y-64488096D01*
X214254388Y-64488096D02*
X214183743Y-64408428D01*
X214183743Y-64408428D02*
X214134444Y-64224442D01*
X214134444Y-64224442D02*
X214155791Y-64120124D01*
X214155791Y-64120124D02*
X214189462Y-64061803D01*
X214189462Y-64061803D02*
X214269131Y-63991157D01*
%TO.C,SW27*%
X200630362Y-73447144D02*
X200504697Y-73530115D01*
X200504697Y-73530115D02*
X200274715Y-73591739D01*
X200274715Y-73591739D02*
X200170398Y-73570392D01*
X200170398Y-73570392D02*
X200112076Y-73536720D01*
X200112076Y-73536720D02*
X200041430Y-73457052D01*
X200041430Y-73457052D02*
X200016781Y-73365059D01*
X200016781Y-73365059D02*
X200038128Y-73260741D01*
X200038128Y-73260741D02*
X200071800Y-73202420D01*
X200071800Y-73202420D02*
X200151468Y-73131774D01*
X200151468Y-73131774D02*
X200323129Y-73036479D01*
X200323129Y-73036479D02*
X200402797Y-72965833D01*
X200402797Y-72965833D02*
X200436469Y-72907512D01*
X200436469Y-72907512D02*
X200457816Y-72803194D01*
X200457816Y-72803194D02*
X200433167Y-72711201D01*
X200433167Y-72711201D02*
X200362521Y-72631533D01*
X200362521Y-72631533D02*
X200304200Y-72597861D01*
X200304200Y-72597861D02*
X200199882Y-72576514D01*
X200199882Y-72576514D02*
X199969900Y-72638138D01*
X199969900Y-72638138D02*
X199844235Y-72721108D01*
X199509935Y-72761385D02*
X199538772Y-73788934D01*
X199538772Y-73788934D02*
X199169915Y-73148286D01*
X199169915Y-73148286D02*
X199170800Y-73887532D01*
X199170800Y-73887532D02*
X198681998Y-72983230D01*
X198384673Y-73161496D02*
X198326352Y-73127824D01*
X198326352Y-73127824D02*
X198222034Y-73106477D01*
X198222034Y-73106477D02*
X197992052Y-73168100D01*
X197992052Y-73168100D02*
X197912383Y-73238746D01*
X197912383Y-73238746D02*
X197878712Y-73297067D01*
X197878712Y-73297067D02*
X197857365Y-73401385D01*
X197857365Y-73401385D02*
X197882014Y-73493378D01*
X197882014Y-73493378D02*
X197964985Y-73619043D01*
X197964985Y-73619043D02*
X198664839Y-74023104D01*
X198664839Y-74023104D02*
X198066885Y-74183325D01*
X197486090Y-73303672D02*
X196842140Y-73476218D01*
X196842140Y-73476218D02*
X197514927Y-74331222D01*
%TO.C,SW26*%
X183215576Y-82057824D02*
X183089911Y-82140795D01*
X183089911Y-82140795D02*
X182859929Y-82202419D01*
X182859929Y-82202419D02*
X182755612Y-82181072D01*
X182755612Y-82181072D02*
X182697290Y-82147400D01*
X182697290Y-82147400D02*
X182626644Y-82067732D01*
X182626644Y-82067732D02*
X182601995Y-81975739D01*
X182601995Y-81975739D02*
X182623342Y-81871421D01*
X182623342Y-81871421D02*
X182657014Y-81813100D01*
X182657014Y-81813100D02*
X182736682Y-81742454D01*
X182736682Y-81742454D02*
X182908343Y-81647159D01*
X182908343Y-81647159D02*
X182988011Y-81576513D01*
X182988011Y-81576513D02*
X183021683Y-81518192D01*
X183021683Y-81518192D02*
X183043030Y-81413874D01*
X183043030Y-81413874D02*
X183018381Y-81321881D01*
X183018381Y-81321881D02*
X182947735Y-81242213D01*
X182947735Y-81242213D02*
X182889414Y-81208541D01*
X182889414Y-81208541D02*
X182785096Y-81187194D01*
X182785096Y-81187194D02*
X182555114Y-81248818D01*
X182555114Y-81248818D02*
X182429449Y-81331788D01*
X182095149Y-81372065D02*
X182123986Y-82399614D01*
X182123986Y-82399614D02*
X181755129Y-81758966D01*
X181755129Y-81758966D02*
X181756014Y-82498212D01*
X181756014Y-82498212D02*
X181267212Y-81593910D01*
X180969887Y-81772176D02*
X180911566Y-81738504D01*
X180911566Y-81738504D02*
X180807248Y-81717157D01*
X180807248Y-81717157D02*
X180577266Y-81778780D01*
X180577266Y-81778780D02*
X180497597Y-81849426D01*
X180497597Y-81849426D02*
X180463926Y-81907747D01*
X180463926Y-81907747D02*
X180442579Y-82012065D01*
X180442579Y-82012065D02*
X180467228Y-82104058D01*
X180467228Y-82104058D02*
X180550199Y-82229723D01*
X180550199Y-82229723D02*
X181250053Y-82633784D01*
X181250053Y-82633784D02*
X180652099Y-82794005D01*
X179565343Y-82049924D02*
X179749329Y-82000625D01*
X179749329Y-82000625D02*
X179853647Y-82021972D01*
X179853647Y-82021972D02*
X179911968Y-82055644D01*
X179911968Y-82055644D02*
X180040935Y-82168984D01*
X180040935Y-82168984D02*
X180136230Y-82340645D01*
X180136230Y-82340645D02*
X180234828Y-82708617D01*
X180234828Y-82708617D02*
X180213481Y-82812935D01*
X180213481Y-82812935D02*
X180179809Y-82871256D01*
X180179809Y-82871256D02*
X180100141Y-82941902D01*
X180100141Y-82941902D02*
X179916155Y-82991201D01*
X179916155Y-82991201D02*
X179811838Y-82969853D01*
X179811838Y-82969853D02*
X179753516Y-82936182D01*
X179753516Y-82936182D02*
X179682871Y-82856514D01*
X179682871Y-82856514D02*
X179621247Y-82626531D01*
X179621247Y-82626531D02*
X179642594Y-82522214D01*
X179642594Y-82522214D02*
X179676266Y-82463892D01*
X179676266Y-82463892D02*
X179755934Y-82393246D01*
X179755934Y-82393246D02*
X179939920Y-82343948D01*
X179939920Y-82343948D02*
X180044237Y-82365295D01*
X180044237Y-82365295D02*
X180102559Y-82398966D01*
X180102559Y-82398966D02*
X180173205Y-82478635D01*
%TO.C,SW25*%
X131938154Y-82994503D02*
X131787840Y-83003525D01*
X131787840Y-83003525D02*
X131557858Y-82941902D01*
X131557858Y-82941902D02*
X131478190Y-82871256D01*
X131478190Y-82871256D02*
X131444518Y-82812935D01*
X131444518Y-82812935D02*
X131423171Y-82708617D01*
X131423171Y-82708617D02*
X131447820Y-82616624D01*
X131447820Y-82616624D02*
X131518466Y-82536956D01*
X131518466Y-82536956D02*
X131576787Y-82503284D01*
X131576787Y-82503284D02*
X131681105Y-82481937D01*
X131681105Y-82481937D02*
X131877416Y-82485239D01*
X131877416Y-82485239D02*
X131981733Y-82463892D01*
X131981733Y-82463892D02*
X132040055Y-82430221D01*
X132040055Y-82430221D02*
X132110700Y-82350552D01*
X132110700Y-82350552D02*
X132135350Y-82258559D01*
X132135350Y-82258559D02*
X132114003Y-82154242D01*
X132114003Y-82154242D02*
X132080331Y-82095921D01*
X132080331Y-82095921D02*
X132000663Y-82025275D01*
X132000663Y-82025275D02*
X131770680Y-81963651D01*
X131770680Y-81963651D02*
X131620366Y-81972673D01*
X131310716Y-81840404D02*
X130821914Y-82744706D01*
X130821914Y-82744706D02*
X130822799Y-82005460D01*
X130822799Y-82005460D02*
X130453943Y-82646108D01*
X130453943Y-82646108D02*
X130482779Y-81618559D01*
X130136155Y-81624279D02*
X130102483Y-81565958D01*
X130102483Y-81565958D02*
X130022815Y-81495312D01*
X130022815Y-81495312D02*
X129792832Y-81433688D01*
X129792832Y-81433688D02*
X129688515Y-81455035D01*
X129688515Y-81455035D02*
X129630194Y-81488707D01*
X129630194Y-81488707D02*
X129559548Y-81568375D01*
X129559548Y-81568375D02*
X129534898Y-81660368D01*
X129534898Y-81660368D02*
X129543921Y-81810682D01*
X129543921Y-81810682D02*
X129947982Y-82510537D01*
X129947982Y-82510537D02*
X129350028Y-82350315D01*
X128734914Y-81150220D02*
X129194878Y-81273467D01*
X129194878Y-81273467D02*
X129117628Y-81745756D01*
X129117628Y-81745756D02*
X129083956Y-81687435D01*
X129083956Y-81687435D02*
X129004288Y-81616789D01*
X129004288Y-81616789D02*
X128774305Y-81555166D01*
X128774305Y-81555166D02*
X128669988Y-81576513D01*
X128669988Y-81576513D02*
X128611666Y-81610185D01*
X128611666Y-81610185D02*
X128541021Y-81689853D01*
X128541021Y-81689853D02*
X128479397Y-81919835D01*
X128479397Y-81919835D02*
X128500744Y-82024153D01*
X128500744Y-82024153D02*
X128534416Y-82082474D01*
X128534416Y-82082474D02*
X128614084Y-82153120D01*
X128614084Y-82153120D02*
X128844066Y-82214743D01*
X128844066Y-82214743D02*
X128948384Y-82193396D01*
X128948384Y-82193396D02*
X129006705Y-82159725D01*
%TO.C,SW24*%
X114523368Y-74383823D02*
X114373054Y-74392845D01*
X114373054Y-74392845D02*
X114143072Y-74331222D01*
X114143072Y-74331222D02*
X114063404Y-74260576D01*
X114063404Y-74260576D02*
X114029732Y-74202255D01*
X114029732Y-74202255D02*
X114008385Y-74097937D01*
X114008385Y-74097937D02*
X114033034Y-74005944D01*
X114033034Y-74005944D02*
X114103680Y-73926276D01*
X114103680Y-73926276D02*
X114162001Y-73892604D01*
X114162001Y-73892604D02*
X114266319Y-73871257D01*
X114266319Y-73871257D02*
X114462630Y-73874559D01*
X114462630Y-73874559D02*
X114566947Y-73853212D01*
X114566947Y-73853212D02*
X114625269Y-73819541D01*
X114625269Y-73819541D02*
X114695914Y-73739872D01*
X114695914Y-73739872D02*
X114720564Y-73647879D01*
X114720564Y-73647879D02*
X114699217Y-73543562D01*
X114699217Y-73543562D02*
X114665545Y-73485241D01*
X114665545Y-73485241D02*
X114585877Y-73414595D01*
X114585877Y-73414595D02*
X114355894Y-73352971D01*
X114355894Y-73352971D02*
X114205580Y-73361993D01*
X113895930Y-73229724D02*
X113407128Y-74134026D01*
X113407128Y-74134026D02*
X113408013Y-73394780D01*
X113408013Y-73394780D02*
X113039157Y-74035428D01*
X113039157Y-74035428D02*
X113067993Y-73007879D01*
X112721369Y-73013599D02*
X112687697Y-72955278D01*
X112687697Y-72955278D02*
X112608029Y-72884632D01*
X112608029Y-72884632D02*
X112378046Y-72823008D01*
X112378046Y-72823008D02*
X112273729Y-72844355D01*
X112273729Y-72844355D02*
X112215408Y-72878027D01*
X112215408Y-72878027D02*
X112144762Y-72957695D01*
X112144762Y-72957695D02*
X112120112Y-73049688D01*
X112120112Y-73049688D02*
X112129135Y-73200002D01*
X112129135Y-73200002D02*
X112533196Y-73899857D01*
X112533196Y-73899857D02*
X111935242Y-73739635D01*
X111279851Y-72873840D02*
X111107305Y-73517790D01*
X111608431Y-72567492D02*
X111653543Y-73319062D01*
X111653543Y-73319062D02*
X111055589Y-73158841D01*
%TO.C,SW23*%
X97437282Y-64546417D02*
X97286968Y-64555439D01*
X97286968Y-64555439D02*
X97056986Y-64493816D01*
X97056986Y-64493816D02*
X96977318Y-64423170D01*
X96977318Y-64423170D02*
X96943646Y-64364849D01*
X96943646Y-64364849D02*
X96922299Y-64260531D01*
X96922299Y-64260531D02*
X96946948Y-64168538D01*
X96946948Y-64168538D02*
X97017594Y-64088870D01*
X97017594Y-64088870D02*
X97075915Y-64055198D01*
X97075915Y-64055198D02*
X97180233Y-64033851D01*
X97180233Y-64033851D02*
X97376544Y-64037153D01*
X97376544Y-64037153D02*
X97480861Y-64015806D01*
X97480861Y-64015806D02*
X97539183Y-63982135D01*
X97539183Y-63982135D02*
X97609828Y-63902466D01*
X97609828Y-63902466D02*
X97634478Y-63810473D01*
X97634478Y-63810473D02*
X97613131Y-63706156D01*
X97613131Y-63706156D02*
X97579459Y-63647835D01*
X97579459Y-63647835D02*
X97499791Y-63577189D01*
X97499791Y-63577189D02*
X97269808Y-63515565D01*
X97269808Y-63515565D02*
X97119494Y-63524587D01*
X96809844Y-63392318D02*
X96321042Y-64296620D01*
X96321042Y-64296620D02*
X96321927Y-63557374D01*
X96321927Y-63557374D02*
X95953071Y-64198022D01*
X95953071Y-64198022D02*
X95981907Y-63170473D01*
X95635283Y-63176193D02*
X95601611Y-63117872D01*
X95601611Y-63117872D02*
X95521943Y-63047226D01*
X95521943Y-63047226D02*
X95291960Y-62985602D01*
X95291960Y-62985602D02*
X95187643Y-63006949D01*
X95187643Y-63006949D02*
X95129322Y-63040621D01*
X95129322Y-63040621D02*
X95058676Y-63120289D01*
X95058676Y-63120289D02*
X95034026Y-63212282D01*
X95034026Y-63212282D02*
X95043049Y-63362596D01*
X95043049Y-63362596D02*
X95447110Y-64062451D01*
X95447110Y-64062451D02*
X94849156Y-63902229D01*
X94785999Y-62850030D02*
X94188045Y-62689809D01*
X94188045Y-62689809D02*
X94411423Y-63144054D01*
X94411423Y-63144054D02*
X94273433Y-63107080D01*
X94273433Y-63107080D02*
X94169116Y-63128427D01*
X94169116Y-63128427D02*
X94110794Y-63162099D01*
X94110794Y-63162099D02*
X94040149Y-63241767D01*
X94040149Y-63241767D02*
X93978525Y-63471749D01*
X93978525Y-63471749D02*
X93999872Y-63576067D01*
X93999872Y-63576067D02*
X94033544Y-63634388D01*
X94033544Y-63634388D02*
X94113212Y-63705034D01*
X94113212Y-63705034D02*
X94389191Y-63778982D01*
X94389191Y-63778982D02*
X94493508Y-63757635D01*
X94493508Y-63757635D02*
X94551830Y-63723963D01*
%TO.C,SW22*%
X77458634Y-65504198D02*
X77308320Y-65513220D01*
X77308320Y-65513220D02*
X77078338Y-65451597D01*
X77078338Y-65451597D02*
X76998670Y-65380951D01*
X76998670Y-65380951D02*
X76964998Y-65322630D01*
X76964998Y-65322630D02*
X76943651Y-65218312D01*
X76943651Y-65218312D02*
X76968300Y-65126319D01*
X76968300Y-65126319D02*
X77038946Y-65046651D01*
X77038946Y-65046651D02*
X77097267Y-65012979D01*
X77097267Y-65012979D02*
X77201585Y-64991632D01*
X77201585Y-64991632D02*
X77397896Y-64994934D01*
X77397896Y-64994934D02*
X77502213Y-64973587D01*
X77502213Y-64973587D02*
X77560535Y-64939916D01*
X77560535Y-64939916D02*
X77631180Y-64860247D01*
X77631180Y-64860247D02*
X77655830Y-64768254D01*
X77655830Y-64768254D02*
X77634483Y-64663937D01*
X77634483Y-64663937D02*
X77600811Y-64605616D01*
X77600811Y-64605616D02*
X77521143Y-64534970D01*
X77521143Y-64534970D02*
X77291160Y-64473346D01*
X77291160Y-64473346D02*
X77140846Y-64482368D01*
X76831196Y-64350099D02*
X76342394Y-65254401D01*
X76342394Y-65254401D02*
X76343279Y-64515155D01*
X76343279Y-64515155D02*
X75974423Y-65155803D01*
X75974423Y-65155803D02*
X76003259Y-64128254D01*
X75656635Y-64133974D02*
X75622963Y-64075653D01*
X75622963Y-64075653D02*
X75543295Y-64005007D01*
X75543295Y-64005007D02*
X75313312Y-63943383D01*
X75313312Y-63943383D02*
X75208995Y-63964730D01*
X75208995Y-63964730D02*
X75150674Y-63998402D01*
X75150674Y-63998402D02*
X75080028Y-64078070D01*
X75080028Y-64078070D02*
X75055378Y-64170063D01*
X75055378Y-64170063D02*
X75064401Y-64320377D01*
X75064401Y-64320377D02*
X75468462Y-65020232D01*
X75468462Y-65020232D02*
X74870508Y-64860010D01*
X74736705Y-63887480D02*
X74703034Y-63829158D01*
X74703034Y-63829158D02*
X74623365Y-63758513D01*
X74623365Y-63758513D02*
X74393383Y-63696889D01*
X74393383Y-63696889D02*
X74289065Y-63718236D01*
X74289065Y-63718236D02*
X74230744Y-63751908D01*
X74230744Y-63751908D02*
X74160098Y-63831576D01*
X74160098Y-63831576D02*
X74135449Y-63923569D01*
X74135449Y-63923569D02*
X74144471Y-64073883D01*
X74144471Y-64073883D02*
X74548532Y-64773737D01*
X74548532Y-64773737D02*
X73950578Y-64613516D01*
%TO.C,SW21*%
X55967965Y-72104918D02*
X55817651Y-72113940D01*
X55817651Y-72113940D02*
X55587669Y-72052317D01*
X55587669Y-72052317D02*
X55508001Y-71981671D01*
X55508001Y-71981671D02*
X55474329Y-71923350D01*
X55474329Y-71923350D02*
X55452982Y-71819032D01*
X55452982Y-71819032D02*
X55477631Y-71727039D01*
X55477631Y-71727039D02*
X55548277Y-71647371D01*
X55548277Y-71647371D02*
X55606598Y-71613699D01*
X55606598Y-71613699D02*
X55710916Y-71592352D01*
X55710916Y-71592352D02*
X55907227Y-71595654D01*
X55907227Y-71595654D02*
X56011544Y-71574307D01*
X56011544Y-71574307D02*
X56069866Y-71540636D01*
X56069866Y-71540636D02*
X56140511Y-71460967D01*
X56140511Y-71460967D02*
X56165161Y-71368974D01*
X56165161Y-71368974D02*
X56143814Y-71264657D01*
X56143814Y-71264657D02*
X56110142Y-71206336D01*
X56110142Y-71206336D02*
X56030474Y-71135690D01*
X56030474Y-71135690D02*
X55800491Y-71074066D01*
X55800491Y-71074066D02*
X55650177Y-71083088D01*
X55340527Y-70950819D02*
X54851725Y-71855121D01*
X54851725Y-71855121D02*
X54852610Y-71115875D01*
X54852610Y-71115875D02*
X54483754Y-71756523D01*
X54483754Y-71756523D02*
X54512590Y-70728974D01*
X54165966Y-70734694D02*
X54132294Y-70676373D01*
X54132294Y-70676373D02*
X54052626Y-70605727D01*
X54052626Y-70605727D02*
X53822643Y-70544103D01*
X53822643Y-70544103D02*
X53718326Y-70565450D01*
X53718326Y-70565450D02*
X53660005Y-70599122D01*
X53660005Y-70599122D02*
X53589359Y-70678790D01*
X53589359Y-70678790D02*
X53564709Y-70770783D01*
X53564709Y-70770783D02*
X53573732Y-70921097D01*
X53573732Y-70921097D02*
X53977793Y-71620952D01*
X53977793Y-71620952D02*
X53379839Y-71460730D01*
X52459909Y-71214236D02*
X53011867Y-71362133D01*
X52735888Y-71288184D02*
X52994707Y-70322258D01*
X52994707Y-70322258D02*
X53049726Y-70484897D01*
X53049726Y-70484897D02*
X53117069Y-70601540D01*
X53117069Y-70601540D02*
X53196738Y-70672186D01*
%TO.C,SW20*%
X254255262Y-52767352D02*
X254129597Y-52850323D01*
X254129597Y-52850323D02*
X253899615Y-52911947D01*
X253899615Y-52911947D02*
X253795298Y-52890600D01*
X253795298Y-52890600D02*
X253736976Y-52856928D01*
X253736976Y-52856928D02*
X253666330Y-52777260D01*
X253666330Y-52777260D02*
X253641681Y-52685267D01*
X253641681Y-52685267D02*
X253663028Y-52580949D01*
X253663028Y-52580949D02*
X253696700Y-52522628D01*
X253696700Y-52522628D02*
X253776368Y-52451982D01*
X253776368Y-52451982D02*
X253948029Y-52356687D01*
X253948029Y-52356687D02*
X254027697Y-52286041D01*
X254027697Y-52286041D02*
X254061369Y-52227720D01*
X254061369Y-52227720D02*
X254082716Y-52123402D01*
X254082716Y-52123402D02*
X254058067Y-52031409D01*
X254058067Y-52031409D02*
X253987421Y-51951741D01*
X253987421Y-51951741D02*
X253929100Y-51918069D01*
X253929100Y-51918069D02*
X253824782Y-51896722D01*
X253824782Y-51896722D02*
X253594800Y-51958346D01*
X253594800Y-51958346D02*
X253469135Y-52041316D01*
X253134835Y-52081593D02*
X253163672Y-53109142D01*
X253163672Y-53109142D02*
X252794815Y-52468494D01*
X252794815Y-52468494D02*
X252795700Y-53207740D01*
X252795700Y-53207740D02*
X252306898Y-52303438D01*
X252009573Y-52481704D02*
X251951252Y-52448032D01*
X251951252Y-52448032D02*
X251846934Y-52426685D01*
X251846934Y-52426685D02*
X251616952Y-52488308D01*
X251616952Y-52488308D02*
X251537283Y-52558954D01*
X251537283Y-52558954D02*
X251503612Y-52617275D01*
X251503612Y-52617275D02*
X251482265Y-52721593D01*
X251482265Y-52721593D02*
X251506914Y-52813586D01*
X251506914Y-52813586D02*
X251589885Y-52939251D01*
X251589885Y-52939251D02*
X252289739Y-53343312D01*
X252289739Y-53343312D02*
X251691785Y-53503533D01*
X250835012Y-52697829D02*
X250743019Y-52722478D01*
X250743019Y-52722478D02*
X250663350Y-52793124D01*
X250663350Y-52793124D02*
X250629679Y-52851445D01*
X250629679Y-52851445D02*
X250608332Y-52955763D01*
X250608332Y-52955763D02*
X250611634Y-53152073D01*
X250611634Y-53152073D02*
X250673258Y-53382056D01*
X250673258Y-53382056D02*
X250768553Y-53553717D01*
X250768553Y-53553717D02*
X250839199Y-53633385D01*
X250839199Y-53633385D02*
X250897520Y-53667057D01*
X250897520Y-53667057D02*
X251001838Y-53688404D01*
X251001838Y-53688404D02*
X251093831Y-53663754D01*
X251093831Y-53663754D02*
X251173499Y-53593108D01*
X251173499Y-53593108D02*
X251207171Y-53534787D01*
X251207171Y-53534787D02*
X251228518Y-53430470D01*
X251228518Y-53430470D02*
X251225215Y-53234159D01*
X251225215Y-53234159D02*
X251163592Y-53004177D01*
X251163592Y-53004177D02*
X251068296Y-52832516D01*
X251068296Y-52832516D02*
X250997650Y-52752847D01*
X250997650Y-52752847D02*
X250939329Y-52719176D01*
X250939329Y-52719176D02*
X250835012Y-52697829D01*
%TO.C,SW19*%
X232764593Y-46166632D02*
X232638928Y-46249603D01*
X232638928Y-46249603D02*
X232408946Y-46311227D01*
X232408946Y-46311227D02*
X232304629Y-46289880D01*
X232304629Y-46289880D02*
X232246307Y-46256208D01*
X232246307Y-46256208D02*
X232175661Y-46176540D01*
X232175661Y-46176540D02*
X232151012Y-46084547D01*
X232151012Y-46084547D02*
X232172359Y-45980229D01*
X232172359Y-45980229D02*
X232206031Y-45921908D01*
X232206031Y-45921908D02*
X232285699Y-45851262D01*
X232285699Y-45851262D02*
X232457360Y-45755967D01*
X232457360Y-45755967D02*
X232537028Y-45685321D01*
X232537028Y-45685321D02*
X232570700Y-45627000D01*
X232570700Y-45627000D02*
X232592047Y-45522682D01*
X232592047Y-45522682D02*
X232567398Y-45430689D01*
X232567398Y-45430689D02*
X232496752Y-45351021D01*
X232496752Y-45351021D02*
X232438431Y-45317349D01*
X232438431Y-45317349D02*
X232334113Y-45296002D01*
X232334113Y-45296002D02*
X232104131Y-45357626D01*
X232104131Y-45357626D02*
X231978466Y-45440596D01*
X231644166Y-45480873D02*
X231673003Y-46508422D01*
X231673003Y-46508422D02*
X231304146Y-45867774D01*
X231304146Y-45867774D02*
X231305031Y-46607020D01*
X231305031Y-46607020D02*
X230816229Y-45702718D01*
X230201116Y-46902813D02*
X230753073Y-46754916D01*
X230477095Y-46828865D02*
X230218276Y-45862939D01*
X230218276Y-45862939D02*
X230347243Y-45976279D01*
X230347243Y-45976279D02*
X230463885Y-46043622D01*
X230463885Y-46043622D02*
X230568203Y-46064969D01*
X229741151Y-47026060D02*
X229557165Y-47075359D01*
X229557165Y-47075359D02*
X229452848Y-47054012D01*
X229452848Y-47054012D02*
X229394526Y-47020340D01*
X229394526Y-47020340D02*
X229265559Y-46907000D01*
X229265559Y-46907000D02*
X229170264Y-46735339D01*
X229170264Y-46735339D02*
X229071666Y-46367367D01*
X229071666Y-46367367D02*
X229093013Y-46263050D01*
X229093013Y-46263050D02*
X229126685Y-46204729D01*
X229126685Y-46204729D02*
X229206353Y-46134083D01*
X229206353Y-46134083D02*
X229390339Y-46084784D01*
X229390339Y-46084784D02*
X229494657Y-46106131D01*
X229494657Y-46106131D02*
X229552978Y-46139803D01*
X229552978Y-46139803D02*
X229623624Y-46219471D01*
X229623624Y-46219471D02*
X229685247Y-46449453D01*
X229685247Y-46449453D02*
X229663900Y-46553771D01*
X229663900Y-46553771D02*
X229630229Y-46612092D01*
X229630229Y-46612092D02*
X229550560Y-46682738D01*
X229550560Y-46682738D02*
X229366575Y-46732037D01*
X229366575Y-46732037D02*
X229262257Y-46710690D01*
X229262257Y-46710690D02*
X229203936Y-46677018D01*
X229203936Y-46677018D02*
X229133290Y-46597350D01*
%TO.C,SW18*%
X212785946Y-45208851D02*
X212660281Y-45291822D01*
X212660281Y-45291822D02*
X212430299Y-45353446D01*
X212430299Y-45353446D02*
X212325982Y-45332099D01*
X212325982Y-45332099D02*
X212267660Y-45298427D01*
X212267660Y-45298427D02*
X212197014Y-45218759D01*
X212197014Y-45218759D02*
X212172365Y-45126766D01*
X212172365Y-45126766D02*
X212193712Y-45022448D01*
X212193712Y-45022448D02*
X212227384Y-44964127D01*
X212227384Y-44964127D02*
X212307052Y-44893481D01*
X212307052Y-44893481D02*
X212478713Y-44798186D01*
X212478713Y-44798186D02*
X212558381Y-44727540D01*
X212558381Y-44727540D02*
X212592053Y-44669219D01*
X212592053Y-44669219D02*
X212613400Y-44564901D01*
X212613400Y-44564901D02*
X212588751Y-44472908D01*
X212588751Y-44472908D02*
X212518105Y-44393240D01*
X212518105Y-44393240D02*
X212459784Y-44359568D01*
X212459784Y-44359568D02*
X212355466Y-44338221D01*
X212355466Y-44338221D02*
X212125484Y-44399845D01*
X212125484Y-44399845D02*
X211999819Y-44482815D01*
X211665519Y-44523092D02*
X211694356Y-45550641D01*
X211694356Y-45550641D02*
X211325499Y-44909993D01*
X211325499Y-44909993D02*
X211326384Y-45649239D01*
X211326384Y-45649239D02*
X210837582Y-44744937D01*
X210222469Y-45945032D02*
X210774426Y-45797135D01*
X210498448Y-45871084D02*
X210239629Y-44905158D01*
X210239629Y-44905158D02*
X210368596Y-45018498D01*
X210368596Y-45018498D02*
X210485238Y-45085841D01*
X210485238Y-45085841D02*
X210589556Y-45107188D01*
X209522615Y-45540971D02*
X209602283Y-45470325D01*
X209602283Y-45470325D02*
X209635955Y-45412004D01*
X209635955Y-45412004D02*
X209657302Y-45307686D01*
X209657302Y-45307686D02*
X209644977Y-45261690D01*
X209644977Y-45261690D02*
X209574331Y-45182022D01*
X209574331Y-45182022D02*
X209516010Y-45148350D01*
X209516010Y-45148350D02*
X209411692Y-45127003D01*
X209411692Y-45127003D02*
X209227706Y-45176302D01*
X209227706Y-45176302D02*
X209148038Y-45246948D01*
X209148038Y-45246948D02*
X209114366Y-45305269D01*
X209114366Y-45305269D02*
X209093019Y-45409586D01*
X209093019Y-45409586D02*
X209105344Y-45455583D01*
X209105344Y-45455583D02*
X209175990Y-45535251D01*
X209175990Y-45535251D02*
X209234311Y-45568923D01*
X209234311Y-45568923D02*
X209338629Y-45590270D01*
X209338629Y-45590270D02*
X209522615Y-45540971D01*
X209522615Y-45540971D02*
X209626932Y-45562318D01*
X209626932Y-45562318D02*
X209685253Y-45595990D01*
X209685253Y-45595990D02*
X209755899Y-45675658D01*
X209755899Y-45675658D02*
X209805198Y-45859644D01*
X209805198Y-45859644D02*
X209783851Y-45963962D01*
X209783851Y-45963962D02*
X209750179Y-46022283D01*
X209750179Y-46022283D02*
X209670511Y-46092929D01*
X209670511Y-46092929D02*
X209486525Y-46142228D01*
X209486525Y-46142228D02*
X209382208Y-46120880D01*
X209382208Y-46120880D02*
X209323886Y-46087209D01*
X209323886Y-46087209D02*
X209253241Y-46007541D01*
X209253241Y-46007541D02*
X209203942Y-45823555D01*
X209203942Y-45823555D02*
X209225289Y-45719237D01*
X209225289Y-45719237D02*
X209258960Y-45660916D01*
X209258960Y-45660916D02*
X209338629Y-45590270D01*
%TO.C,SW17*%
X195699859Y-55046257D02*
X195574194Y-55129228D01*
X195574194Y-55129228D02*
X195344212Y-55190852D01*
X195344212Y-55190852D02*
X195239895Y-55169505D01*
X195239895Y-55169505D02*
X195181573Y-55135833D01*
X195181573Y-55135833D02*
X195110927Y-55056165D01*
X195110927Y-55056165D02*
X195086278Y-54964172D01*
X195086278Y-54964172D02*
X195107625Y-54859854D01*
X195107625Y-54859854D02*
X195141297Y-54801533D01*
X195141297Y-54801533D02*
X195220965Y-54730887D01*
X195220965Y-54730887D02*
X195392626Y-54635592D01*
X195392626Y-54635592D02*
X195472294Y-54564946D01*
X195472294Y-54564946D02*
X195505966Y-54506625D01*
X195505966Y-54506625D02*
X195527313Y-54402307D01*
X195527313Y-54402307D02*
X195502664Y-54310314D01*
X195502664Y-54310314D02*
X195432018Y-54230646D01*
X195432018Y-54230646D02*
X195373697Y-54196974D01*
X195373697Y-54196974D02*
X195269379Y-54175627D01*
X195269379Y-54175627D02*
X195039397Y-54237251D01*
X195039397Y-54237251D02*
X194913732Y-54320221D01*
X194579432Y-54360498D02*
X194608269Y-55388047D01*
X194608269Y-55388047D02*
X194239412Y-54747399D01*
X194239412Y-54747399D02*
X194240297Y-55486645D01*
X194240297Y-55486645D02*
X193751495Y-54582343D01*
X193136382Y-55782438D02*
X193688339Y-55634541D01*
X193412361Y-55708490D02*
X193153542Y-54742564D01*
X193153542Y-54742564D02*
X193282509Y-54855904D01*
X193282509Y-54855904D02*
X193399151Y-54923247D01*
X193399151Y-54923247D02*
X193503469Y-54944594D01*
X192555587Y-54902785D02*
X191911637Y-55075331D01*
X191911637Y-55075331D02*
X192584424Y-55930335D01*
%TO.C,SW16*%
X178285073Y-63656937D02*
X178159408Y-63739908D01*
X178159408Y-63739908D02*
X177929426Y-63801532D01*
X177929426Y-63801532D02*
X177825109Y-63780185D01*
X177825109Y-63780185D02*
X177766787Y-63746513D01*
X177766787Y-63746513D02*
X177696141Y-63666845D01*
X177696141Y-63666845D02*
X177671492Y-63574852D01*
X177671492Y-63574852D02*
X177692839Y-63470534D01*
X177692839Y-63470534D02*
X177726511Y-63412213D01*
X177726511Y-63412213D02*
X177806179Y-63341567D01*
X177806179Y-63341567D02*
X177977840Y-63246272D01*
X177977840Y-63246272D02*
X178057508Y-63175626D01*
X178057508Y-63175626D02*
X178091180Y-63117305D01*
X178091180Y-63117305D02*
X178112527Y-63012987D01*
X178112527Y-63012987D02*
X178087878Y-62920994D01*
X178087878Y-62920994D02*
X178017232Y-62841326D01*
X178017232Y-62841326D02*
X177958911Y-62807654D01*
X177958911Y-62807654D02*
X177854593Y-62786307D01*
X177854593Y-62786307D02*
X177624611Y-62847931D01*
X177624611Y-62847931D02*
X177498946Y-62930901D01*
X177164646Y-62971178D02*
X177193483Y-63998727D01*
X177193483Y-63998727D02*
X176824626Y-63358079D01*
X176824626Y-63358079D02*
X176825511Y-64097325D01*
X176825511Y-64097325D02*
X176336709Y-63193023D01*
X175721596Y-64393118D02*
X176273553Y-64245221D01*
X175997575Y-64319170D02*
X175738756Y-63353244D01*
X175738756Y-63353244D02*
X175867723Y-63466584D01*
X175867723Y-63466584D02*
X175984365Y-63533927D01*
X175984365Y-63533927D02*
X176088683Y-63555274D01*
X174634840Y-63649037D02*
X174818826Y-63599738D01*
X174818826Y-63599738D02*
X174923144Y-63621085D01*
X174923144Y-63621085D02*
X174981465Y-63654757D01*
X174981465Y-63654757D02*
X175110432Y-63768097D01*
X175110432Y-63768097D02*
X175205727Y-63939758D01*
X175205727Y-63939758D02*
X175304325Y-64307730D01*
X175304325Y-64307730D02*
X175282978Y-64412048D01*
X175282978Y-64412048D02*
X175249306Y-64470369D01*
X175249306Y-64470369D02*
X175169638Y-64541015D01*
X175169638Y-64541015D02*
X174985652Y-64590314D01*
X174985652Y-64590314D02*
X174881335Y-64568966D01*
X174881335Y-64568966D02*
X174823013Y-64535295D01*
X174823013Y-64535295D02*
X174752368Y-64455627D01*
X174752368Y-64455627D02*
X174690744Y-64225644D01*
X174690744Y-64225644D02*
X174712091Y-64121327D01*
X174712091Y-64121327D02*
X174745763Y-64063005D01*
X174745763Y-64063005D02*
X174825431Y-63992359D01*
X174825431Y-63992359D02*
X175009417Y-63943061D01*
X175009417Y-63943061D02*
X175113734Y-63964408D01*
X175113734Y-63964408D02*
X175172056Y-63998079D01*
X175172056Y-63998079D02*
X175242702Y-64077748D01*
%TO.C,SW15*%
X136868657Y-64593616D02*
X136718343Y-64602638D01*
X136718343Y-64602638D02*
X136488361Y-64541015D01*
X136488361Y-64541015D02*
X136408693Y-64470369D01*
X136408693Y-64470369D02*
X136375021Y-64412048D01*
X136375021Y-64412048D02*
X136353674Y-64307730D01*
X136353674Y-64307730D02*
X136378323Y-64215737D01*
X136378323Y-64215737D02*
X136448969Y-64136069D01*
X136448969Y-64136069D02*
X136507290Y-64102397D01*
X136507290Y-64102397D02*
X136611608Y-64081050D01*
X136611608Y-64081050D02*
X136807919Y-64084352D01*
X136807919Y-64084352D02*
X136912236Y-64063005D01*
X136912236Y-64063005D02*
X136970558Y-64029334D01*
X136970558Y-64029334D02*
X137041203Y-63949665D01*
X137041203Y-63949665D02*
X137065853Y-63857672D01*
X137065853Y-63857672D02*
X137044506Y-63753355D01*
X137044506Y-63753355D02*
X137010834Y-63695034D01*
X137010834Y-63695034D02*
X136931166Y-63624388D01*
X136931166Y-63624388D02*
X136701183Y-63562764D01*
X136701183Y-63562764D02*
X136550869Y-63571786D01*
X136241219Y-63439517D02*
X135752417Y-64343819D01*
X135752417Y-64343819D02*
X135753302Y-63604573D01*
X135753302Y-63604573D02*
X135384446Y-64245221D01*
X135384446Y-64245221D02*
X135413282Y-63217672D01*
X134280531Y-63949428D02*
X134832488Y-64097325D01*
X134556509Y-64023377D02*
X134815328Y-63057451D01*
X134815328Y-63057451D02*
X134870347Y-63220090D01*
X134870347Y-63220090D02*
X134937691Y-63336732D01*
X134937691Y-63336732D02*
X135017359Y-63407378D01*
X133665417Y-62749333D02*
X134125381Y-62872580D01*
X134125381Y-62872580D02*
X134048131Y-63344869D01*
X134048131Y-63344869D02*
X134014459Y-63286548D01*
X134014459Y-63286548D02*
X133934791Y-63215902D01*
X133934791Y-63215902D02*
X133704808Y-63154279D01*
X133704808Y-63154279D02*
X133600491Y-63175626D01*
X133600491Y-63175626D02*
X133542169Y-63209298D01*
X133542169Y-63209298D02*
X133471524Y-63288966D01*
X133471524Y-63288966D02*
X133409900Y-63518948D01*
X133409900Y-63518948D02*
X133431247Y-63623266D01*
X133431247Y-63623266D02*
X133464919Y-63681587D01*
X133464919Y-63681587D02*
X133544587Y-63752233D01*
X133544587Y-63752233D02*
X133774569Y-63813856D01*
X133774569Y-63813856D02*
X133878887Y-63792509D01*
X133878887Y-63792509D02*
X133937208Y-63758838D01*
%TO.C,SW14*%
X119453871Y-55982936D02*
X119303557Y-55991958D01*
X119303557Y-55991958D02*
X119073575Y-55930335D01*
X119073575Y-55930335D02*
X118993907Y-55859689D01*
X118993907Y-55859689D02*
X118960235Y-55801368D01*
X118960235Y-55801368D02*
X118938888Y-55697050D01*
X118938888Y-55697050D02*
X118963537Y-55605057D01*
X118963537Y-55605057D02*
X119034183Y-55525389D01*
X119034183Y-55525389D02*
X119092504Y-55491717D01*
X119092504Y-55491717D02*
X119196822Y-55470370D01*
X119196822Y-55470370D02*
X119393133Y-55473672D01*
X119393133Y-55473672D02*
X119497450Y-55452325D01*
X119497450Y-55452325D02*
X119555772Y-55418654D01*
X119555772Y-55418654D02*
X119626417Y-55338985D01*
X119626417Y-55338985D02*
X119651067Y-55246992D01*
X119651067Y-55246992D02*
X119629720Y-55142675D01*
X119629720Y-55142675D02*
X119596048Y-55084354D01*
X119596048Y-55084354D02*
X119516380Y-55013708D01*
X119516380Y-55013708D02*
X119286397Y-54952084D01*
X119286397Y-54952084D02*
X119136083Y-54961106D01*
X118826433Y-54828837D02*
X118337631Y-55733139D01*
X118337631Y-55733139D02*
X118338516Y-54993893D01*
X118338516Y-54993893D02*
X117969660Y-55634541D01*
X117969660Y-55634541D02*
X117998496Y-54606992D01*
X116865745Y-55338748D02*
X117417702Y-55486645D01*
X117141723Y-55412697D02*
X117400542Y-54446771D01*
X117400542Y-54446771D02*
X117455561Y-54609410D01*
X117455561Y-54609410D02*
X117522905Y-54726052D01*
X117522905Y-54726052D02*
X117602573Y-54796698D01*
X116210354Y-54472953D02*
X116037808Y-55116903D01*
X116538934Y-54166605D02*
X116584046Y-54918175D01*
X116584046Y-54918175D02*
X115986092Y-54757954D01*
%TO.C,SW13*%
X102367784Y-46145530D02*
X102217470Y-46154552D01*
X102217470Y-46154552D02*
X101987488Y-46092929D01*
X101987488Y-46092929D02*
X101907820Y-46022283D01*
X101907820Y-46022283D02*
X101874148Y-45963962D01*
X101874148Y-45963962D02*
X101852801Y-45859644D01*
X101852801Y-45859644D02*
X101877450Y-45767651D01*
X101877450Y-45767651D02*
X101948096Y-45687983D01*
X101948096Y-45687983D02*
X102006417Y-45654311D01*
X102006417Y-45654311D02*
X102110735Y-45632964D01*
X102110735Y-45632964D02*
X102307046Y-45636266D01*
X102307046Y-45636266D02*
X102411363Y-45614919D01*
X102411363Y-45614919D02*
X102469685Y-45581248D01*
X102469685Y-45581248D02*
X102540330Y-45501579D01*
X102540330Y-45501579D02*
X102564980Y-45409586D01*
X102564980Y-45409586D02*
X102543633Y-45305269D01*
X102543633Y-45305269D02*
X102509961Y-45246948D01*
X102509961Y-45246948D02*
X102430293Y-45176302D01*
X102430293Y-45176302D02*
X102200310Y-45114678D01*
X102200310Y-45114678D02*
X102049996Y-45123700D01*
X101740346Y-44991431D02*
X101251544Y-45895733D01*
X101251544Y-45895733D02*
X101252429Y-45156487D01*
X101252429Y-45156487D02*
X100883573Y-45797135D01*
X100883573Y-45797135D02*
X100912409Y-44769586D01*
X99779658Y-45501342D02*
X100331615Y-45649239D01*
X100055636Y-45575291D02*
X100314455Y-44609365D01*
X100314455Y-44609365D02*
X100369474Y-44772004D01*
X100369474Y-44772004D02*
X100436818Y-44888646D01*
X100436818Y-44888646D02*
X100516486Y-44959292D01*
X99716501Y-44449143D02*
X99118547Y-44288922D01*
X99118547Y-44288922D02*
X99341925Y-44743167D01*
X99341925Y-44743167D02*
X99203935Y-44706193D01*
X99203935Y-44706193D02*
X99099618Y-44727540D01*
X99099618Y-44727540D02*
X99041296Y-44761212D01*
X99041296Y-44761212D02*
X98970651Y-44840880D01*
X98970651Y-44840880D02*
X98909027Y-45070862D01*
X98909027Y-45070862D02*
X98930374Y-45175180D01*
X98930374Y-45175180D02*
X98964046Y-45233501D01*
X98964046Y-45233501D02*
X99043714Y-45304147D01*
X99043714Y-45304147D02*
X99319693Y-45378095D01*
X99319693Y-45378095D02*
X99424010Y-45356748D01*
X99424010Y-45356748D02*
X99482332Y-45323076D01*
%TO.C,SW12*%
X82389136Y-47103311D02*
X82238822Y-47112333D01*
X82238822Y-47112333D02*
X82008840Y-47050710D01*
X82008840Y-47050710D02*
X81929172Y-46980064D01*
X81929172Y-46980064D02*
X81895500Y-46921743D01*
X81895500Y-46921743D02*
X81874153Y-46817425D01*
X81874153Y-46817425D02*
X81898802Y-46725432D01*
X81898802Y-46725432D02*
X81969448Y-46645764D01*
X81969448Y-46645764D02*
X82027769Y-46612092D01*
X82027769Y-46612092D02*
X82132087Y-46590745D01*
X82132087Y-46590745D02*
X82328398Y-46594047D01*
X82328398Y-46594047D02*
X82432715Y-46572700D01*
X82432715Y-46572700D02*
X82491037Y-46539029D01*
X82491037Y-46539029D02*
X82561682Y-46459360D01*
X82561682Y-46459360D02*
X82586332Y-46367367D01*
X82586332Y-46367367D02*
X82564985Y-46263050D01*
X82564985Y-46263050D02*
X82531313Y-46204729D01*
X82531313Y-46204729D02*
X82451645Y-46134083D01*
X82451645Y-46134083D02*
X82221662Y-46072459D01*
X82221662Y-46072459D02*
X82071348Y-46081481D01*
X81761698Y-45949212D02*
X81272896Y-46853514D01*
X81272896Y-46853514D02*
X81273781Y-46114268D01*
X81273781Y-46114268D02*
X80904925Y-46754916D01*
X80904925Y-46754916D02*
X80933761Y-45727367D01*
X79801010Y-46459123D02*
X80352967Y-46607020D01*
X80076988Y-46533072D02*
X80335807Y-45567146D01*
X80335807Y-45567146D02*
X80390826Y-45729785D01*
X80390826Y-45729785D02*
X80458170Y-45846427D01*
X80458170Y-45846427D02*
X80537838Y-45917073D01*
X79667207Y-45486593D02*
X79633536Y-45428271D01*
X79633536Y-45428271D02*
X79553867Y-45357626D01*
X79553867Y-45357626D02*
X79323885Y-45296002D01*
X79323885Y-45296002D02*
X79219567Y-45317349D01*
X79219567Y-45317349D02*
X79161246Y-45351021D01*
X79161246Y-45351021D02*
X79090600Y-45430689D01*
X79090600Y-45430689D02*
X79065951Y-45522682D01*
X79065951Y-45522682D02*
X79074973Y-45672996D01*
X79074973Y-45672996D02*
X79479034Y-46372850D01*
X79479034Y-46372850D02*
X78881080Y-46212629D01*
%TO.C,SW11*%
X60898468Y-53704031D02*
X60748154Y-53713053D01*
X60748154Y-53713053D02*
X60518172Y-53651430D01*
X60518172Y-53651430D02*
X60438504Y-53580784D01*
X60438504Y-53580784D02*
X60404832Y-53522463D01*
X60404832Y-53522463D02*
X60383485Y-53418145D01*
X60383485Y-53418145D02*
X60408134Y-53326152D01*
X60408134Y-53326152D02*
X60478780Y-53246484D01*
X60478780Y-53246484D02*
X60537101Y-53212812D01*
X60537101Y-53212812D02*
X60641419Y-53191465D01*
X60641419Y-53191465D02*
X60837730Y-53194767D01*
X60837730Y-53194767D02*
X60942047Y-53173420D01*
X60942047Y-53173420D02*
X61000369Y-53139749D01*
X61000369Y-53139749D02*
X61071014Y-53060080D01*
X61071014Y-53060080D02*
X61095664Y-52968087D01*
X61095664Y-52968087D02*
X61074317Y-52863770D01*
X61074317Y-52863770D02*
X61040645Y-52805449D01*
X61040645Y-52805449D02*
X60960977Y-52734803D01*
X60960977Y-52734803D02*
X60730994Y-52673179D01*
X60730994Y-52673179D02*
X60580680Y-52682201D01*
X60271030Y-52549932D02*
X59782228Y-53454234D01*
X59782228Y-53454234D02*
X59783113Y-52714988D01*
X59783113Y-52714988D02*
X59414257Y-53355636D01*
X59414257Y-53355636D02*
X59443093Y-52328087D01*
X58310342Y-53059843D02*
X58862299Y-53207740D01*
X58586320Y-53133792D02*
X58845139Y-52167866D01*
X58845139Y-52167866D02*
X58900158Y-52330505D01*
X58900158Y-52330505D02*
X58967502Y-52447147D01*
X58967502Y-52447147D02*
X59047170Y-52517793D01*
X57390412Y-52813349D02*
X57942370Y-52961246D01*
X57666391Y-52887297D02*
X57925210Y-51921371D01*
X57925210Y-51921371D02*
X57980229Y-52084010D01*
X57980229Y-52084010D02*
X58047572Y-52200653D01*
X58047572Y-52200653D02*
X58127241Y-52271299D01*
%TO.C,SW10*%
X249324759Y-34366465D02*
X249199094Y-34449436D01*
X249199094Y-34449436D02*
X248969112Y-34511060D01*
X248969112Y-34511060D02*
X248864795Y-34489713D01*
X248864795Y-34489713D02*
X248806473Y-34456041D01*
X248806473Y-34456041D02*
X248735827Y-34376373D01*
X248735827Y-34376373D02*
X248711178Y-34284380D01*
X248711178Y-34284380D02*
X248732525Y-34180062D01*
X248732525Y-34180062D02*
X248766197Y-34121741D01*
X248766197Y-34121741D02*
X248845865Y-34051095D01*
X248845865Y-34051095D02*
X249017526Y-33955800D01*
X249017526Y-33955800D02*
X249097194Y-33885154D01*
X249097194Y-33885154D02*
X249130866Y-33826833D01*
X249130866Y-33826833D02*
X249152213Y-33722515D01*
X249152213Y-33722515D02*
X249127564Y-33630522D01*
X249127564Y-33630522D02*
X249056918Y-33550854D01*
X249056918Y-33550854D02*
X248998597Y-33517182D01*
X248998597Y-33517182D02*
X248894279Y-33495835D01*
X248894279Y-33495835D02*
X248664297Y-33557459D01*
X248664297Y-33557459D02*
X248538632Y-33640429D01*
X248204332Y-33680706D02*
X248233169Y-34708255D01*
X248233169Y-34708255D02*
X247864312Y-34067607D01*
X247864312Y-34067607D02*
X247865197Y-34806853D01*
X247865197Y-34806853D02*
X247376395Y-33902551D01*
X246761282Y-35102646D02*
X247313239Y-34954749D01*
X247037261Y-35028698D02*
X246778442Y-34062772D01*
X246778442Y-34062772D02*
X246907409Y-34176112D01*
X246907409Y-34176112D02*
X247024051Y-34243455D01*
X247024051Y-34243455D02*
X247128369Y-34264802D01*
X245904509Y-34296942D02*
X245812516Y-34321591D01*
X245812516Y-34321591D02*
X245732847Y-34392237D01*
X245732847Y-34392237D02*
X245699176Y-34450558D01*
X245699176Y-34450558D02*
X245677829Y-34554876D01*
X245677829Y-34554876D02*
X245681131Y-34751186D01*
X245681131Y-34751186D02*
X245742755Y-34981169D01*
X245742755Y-34981169D02*
X245838050Y-35152830D01*
X245838050Y-35152830D02*
X245908696Y-35232498D01*
X245908696Y-35232498D02*
X245967017Y-35266170D01*
X245967017Y-35266170D02*
X246071335Y-35287517D01*
X246071335Y-35287517D02*
X246163328Y-35262867D01*
X246163328Y-35262867D02*
X246242996Y-35192221D01*
X246242996Y-35192221D02*
X246276668Y-35133900D01*
X246276668Y-35133900D02*
X246298015Y-35029583D01*
X246298015Y-35029583D02*
X246294712Y-34833272D01*
X246294712Y-34833272D02*
X246233089Y-34603290D01*
X246233089Y-34603290D02*
X246137793Y-34431629D01*
X246137793Y-34431629D02*
X246067147Y-34351960D01*
X246067147Y-34351960D02*
X246008826Y-34318289D01*
X246008826Y-34318289D02*
X245904509Y-34296942D01*
%TO.C,SW9*%
X227374126Y-27888993D02*
X227248461Y-27971963D01*
X227248461Y-27971963D02*
X227018479Y-28033587D01*
X227018479Y-28033587D02*
X226914161Y-28012240D01*
X226914161Y-28012240D02*
X226855840Y-27978568D01*
X226855840Y-27978568D02*
X226785194Y-27898900D01*
X226785194Y-27898900D02*
X226760545Y-27806907D01*
X226760545Y-27806907D02*
X226781892Y-27702589D01*
X226781892Y-27702589D02*
X226815564Y-27644268D01*
X226815564Y-27644268D02*
X226895232Y-27573622D01*
X226895232Y-27573622D02*
X227066893Y-27478327D01*
X227066893Y-27478327D02*
X227146561Y-27407681D01*
X227146561Y-27407681D02*
X227180233Y-27349360D01*
X227180233Y-27349360D02*
X227201580Y-27245042D01*
X227201580Y-27245042D02*
X227176931Y-27153049D01*
X227176931Y-27153049D02*
X227106285Y-27073381D01*
X227106285Y-27073381D02*
X227047963Y-27039709D01*
X227047963Y-27039709D02*
X226943646Y-27018362D01*
X226943646Y-27018362D02*
X226713663Y-27079986D01*
X226713663Y-27079986D02*
X226587999Y-27162957D01*
X226253699Y-27203233D02*
X226282535Y-28230782D01*
X226282535Y-28230782D02*
X225913679Y-27590134D01*
X225913679Y-27590134D02*
X225914564Y-28329380D01*
X225914564Y-28329380D02*
X225425762Y-27425078D01*
X225270613Y-28501926D02*
X225086627Y-28551225D01*
X225086627Y-28551225D02*
X224982310Y-28529878D01*
X224982310Y-28529878D02*
X224923989Y-28496206D01*
X224923989Y-28496206D02*
X224795021Y-28382866D01*
X224795021Y-28382866D02*
X224699726Y-28211205D01*
X224699726Y-28211205D02*
X224601128Y-27843233D01*
X224601128Y-27843233D02*
X224622475Y-27738916D01*
X224622475Y-27738916D02*
X224656147Y-27680595D01*
X224656147Y-27680595D02*
X224735815Y-27609949D01*
X224735815Y-27609949D02*
X224919801Y-27560650D01*
X224919801Y-27560650D02*
X225024119Y-27581997D01*
X225024119Y-27581997D02*
X225082440Y-27615669D01*
X225082440Y-27615669D02*
X225153086Y-27695337D01*
X225153086Y-27695337D02*
X225214710Y-27925319D01*
X225214710Y-27925319D02*
X225193363Y-28029637D01*
X225193363Y-28029637D02*
X225159691Y-28087958D01*
X225159691Y-28087958D02*
X225080023Y-28158604D01*
X225080023Y-28158604D02*
X224896037Y-28207903D01*
X224896037Y-28207903D02*
X224791719Y-28186556D01*
X224791719Y-28186556D02*
X224733398Y-28152884D01*
X224733398Y-28152884D02*
X224662752Y-28073216D01*
%TO.C,SW8*%
X207395478Y-26931212D02*
X207269813Y-27014182D01*
X207269813Y-27014182D02*
X207039831Y-27075806D01*
X207039831Y-27075806D02*
X206935513Y-27054459D01*
X206935513Y-27054459D02*
X206877192Y-27020787D01*
X206877192Y-27020787D02*
X206806546Y-26941119D01*
X206806546Y-26941119D02*
X206781897Y-26849126D01*
X206781897Y-26849126D02*
X206803244Y-26744808D01*
X206803244Y-26744808D02*
X206836916Y-26686487D01*
X206836916Y-26686487D02*
X206916584Y-26615841D01*
X206916584Y-26615841D02*
X207088245Y-26520546D01*
X207088245Y-26520546D02*
X207167913Y-26449900D01*
X207167913Y-26449900D02*
X207201585Y-26391579D01*
X207201585Y-26391579D02*
X207222932Y-26287261D01*
X207222932Y-26287261D02*
X207198283Y-26195268D01*
X207198283Y-26195268D02*
X207127637Y-26115600D01*
X207127637Y-26115600D02*
X207069315Y-26081928D01*
X207069315Y-26081928D02*
X206964998Y-26060581D01*
X206964998Y-26060581D02*
X206735015Y-26122205D01*
X206735015Y-26122205D02*
X206609351Y-26205176D01*
X206275051Y-26245452D02*
X206303887Y-27273001D01*
X206303887Y-27273001D02*
X205935031Y-26632353D01*
X205935031Y-26632353D02*
X205935916Y-27371599D01*
X205935916Y-27371599D02*
X205447114Y-26467297D01*
X205052076Y-27016837D02*
X205131744Y-26946191D01*
X205131744Y-26946191D02*
X205165416Y-26887870D01*
X205165416Y-26887870D02*
X205186763Y-26783552D01*
X205186763Y-26783552D02*
X205174438Y-26737556D01*
X205174438Y-26737556D02*
X205103792Y-26657888D01*
X205103792Y-26657888D02*
X205045471Y-26624216D01*
X205045471Y-26624216D02*
X204941153Y-26602869D01*
X204941153Y-26602869D02*
X204757167Y-26652168D01*
X204757167Y-26652168D02*
X204677499Y-26722814D01*
X204677499Y-26722814D02*
X204643827Y-26781135D01*
X204643827Y-26781135D02*
X204622480Y-26885452D01*
X204622480Y-26885452D02*
X204634805Y-26931449D01*
X204634805Y-26931449D02*
X204705451Y-27011117D01*
X204705451Y-27011117D02*
X204763772Y-27044789D01*
X204763772Y-27044789D02*
X204868090Y-27066136D01*
X204868090Y-27066136D02*
X205052076Y-27016837D01*
X205052076Y-27016837D02*
X205156393Y-27038184D01*
X205156393Y-27038184D02*
X205214715Y-27071856D01*
X205214715Y-27071856D02*
X205285360Y-27151524D01*
X205285360Y-27151524D02*
X205334659Y-27335510D01*
X205334659Y-27335510D02*
X205313312Y-27439828D01*
X205313312Y-27439828D02*
X205279641Y-27498149D01*
X205279641Y-27498149D02*
X205199972Y-27568795D01*
X205199972Y-27568795D02*
X205015986Y-27618093D01*
X205015986Y-27618093D02*
X204911669Y-27596746D01*
X204911669Y-27596746D02*
X204853348Y-27563075D01*
X204853348Y-27563075D02*
X204782702Y-27483406D01*
X204782702Y-27483406D02*
X204733403Y-27299421D01*
X204733403Y-27299421D02*
X204754750Y-27195103D01*
X204754750Y-27195103D02*
X204788422Y-27136782D01*
X204788422Y-27136782D02*
X204868090Y-27066136D01*
%TO.C,SW7*%
X190309392Y-36768618D02*
X190183727Y-36851588D01*
X190183727Y-36851588D02*
X189953745Y-36913212D01*
X189953745Y-36913212D02*
X189849427Y-36891865D01*
X189849427Y-36891865D02*
X189791106Y-36858193D01*
X189791106Y-36858193D02*
X189720460Y-36778525D01*
X189720460Y-36778525D02*
X189695811Y-36686532D01*
X189695811Y-36686532D02*
X189717158Y-36582214D01*
X189717158Y-36582214D02*
X189750830Y-36523893D01*
X189750830Y-36523893D02*
X189830498Y-36453247D01*
X189830498Y-36453247D02*
X190002159Y-36357952D01*
X190002159Y-36357952D02*
X190081827Y-36287306D01*
X190081827Y-36287306D02*
X190115499Y-36228985D01*
X190115499Y-36228985D02*
X190136846Y-36124667D01*
X190136846Y-36124667D02*
X190112197Y-36032674D01*
X190112197Y-36032674D02*
X190041551Y-35953006D01*
X190041551Y-35953006D02*
X189983229Y-35919334D01*
X189983229Y-35919334D02*
X189878912Y-35897987D01*
X189878912Y-35897987D02*
X189648929Y-35959611D01*
X189648929Y-35959611D02*
X189523265Y-36042582D01*
X189188965Y-36082858D02*
X189217801Y-37110407D01*
X189217801Y-37110407D02*
X188848945Y-36469759D01*
X188848945Y-36469759D02*
X188849830Y-37209005D01*
X188849830Y-37209005D02*
X188361028Y-36304703D01*
X188085050Y-36378651D02*
X187441099Y-36551197D01*
X187441099Y-36551197D02*
X188113886Y-37406201D01*
%TO.C,SW6*%
X172894605Y-45379298D02*
X172768940Y-45462268D01*
X172768940Y-45462268D02*
X172538958Y-45523892D01*
X172538958Y-45523892D02*
X172434640Y-45502545D01*
X172434640Y-45502545D02*
X172376319Y-45468873D01*
X172376319Y-45468873D02*
X172305673Y-45389205D01*
X172305673Y-45389205D02*
X172281024Y-45297212D01*
X172281024Y-45297212D02*
X172302371Y-45192894D01*
X172302371Y-45192894D02*
X172336043Y-45134573D01*
X172336043Y-45134573D02*
X172415711Y-45063927D01*
X172415711Y-45063927D02*
X172587372Y-44968632D01*
X172587372Y-44968632D02*
X172667040Y-44897986D01*
X172667040Y-44897986D02*
X172700712Y-44839665D01*
X172700712Y-44839665D02*
X172722059Y-44735347D01*
X172722059Y-44735347D02*
X172697410Y-44643354D01*
X172697410Y-44643354D02*
X172626764Y-44563686D01*
X172626764Y-44563686D02*
X172568442Y-44530014D01*
X172568442Y-44530014D02*
X172464125Y-44508667D01*
X172464125Y-44508667D02*
X172234142Y-44570291D01*
X172234142Y-44570291D02*
X172108478Y-44653262D01*
X171774178Y-44693538D02*
X171803014Y-45721087D01*
X171803014Y-45721087D02*
X171434158Y-45080439D01*
X171434158Y-45080439D02*
X171435043Y-45819685D01*
X171435043Y-45819685D02*
X170946241Y-44915383D01*
X170164301Y-45124903D02*
X170348287Y-45075604D01*
X170348287Y-45075604D02*
X170452605Y-45096951D01*
X170452605Y-45096951D02*
X170510926Y-45130623D01*
X170510926Y-45130623D02*
X170639893Y-45243963D01*
X170639893Y-45243963D02*
X170735189Y-45415624D01*
X170735189Y-45415624D02*
X170833786Y-45783596D01*
X170833786Y-45783596D02*
X170812439Y-45887914D01*
X170812439Y-45887914D02*
X170778768Y-45946235D01*
X170778768Y-45946235D02*
X170699099Y-46016881D01*
X170699099Y-46016881D02*
X170515113Y-46066179D01*
X170515113Y-46066179D02*
X170410796Y-46044832D01*
X170410796Y-46044832D02*
X170352475Y-46011161D01*
X170352475Y-46011161D02*
X170281829Y-45931492D01*
X170281829Y-45931492D02*
X170220205Y-45701510D01*
X170220205Y-45701510D02*
X170241552Y-45597192D01*
X170241552Y-45597192D02*
X170275224Y-45538871D01*
X170275224Y-45538871D02*
X170354892Y-45468225D01*
X170354892Y-45468225D02*
X170538878Y-45418927D01*
X170538878Y-45418927D02*
X170643196Y-45440274D01*
X170643196Y-45440274D02*
X170701517Y-45473945D01*
X170701517Y-45473945D02*
X170772163Y-45553614D01*
%TO.C,SW5*%
X141339195Y-46069482D02*
X141188881Y-46078504D01*
X141188881Y-46078504D02*
X140958899Y-46016880D01*
X140958899Y-46016880D02*
X140879231Y-45946234D01*
X140879231Y-45946234D02*
X140845559Y-45887913D01*
X140845559Y-45887913D02*
X140824212Y-45783596D01*
X140824212Y-45783596D02*
X140848861Y-45691603D01*
X140848861Y-45691603D02*
X140919507Y-45611934D01*
X140919507Y-45611934D02*
X140977828Y-45578263D01*
X140977828Y-45578263D02*
X141082146Y-45556916D01*
X141082146Y-45556916D02*
X141278456Y-45560218D01*
X141278456Y-45560218D02*
X141382774Y-45538871D01*
X141382774Y-45538871D02*
X141441095Y-45505199D01*
X141441095Y-45505199D02*
X141511741Y-45425531D01*
X141511741Y-45425531D02*
X141536391Y-45333538D01*
X141536391Y-45333538D02*
X141515044Y-45229221D01*
X141515044Y-45229221D02*
X141481372Y-45170899D01*
X141481372Y-45170899D02*
X141401704Y-45100253D01*
X141401704Y-45100253D02*
X141171721Y-45038630D01*
X141171721Y-45038630D02*
X141021407Y-45047652D01*
X140711757Y-44915383D02*
X140222955Y-45819685D01*
X140222955Y-45819685D02*
X140223840Y-45080439D01*
X140223840Y-45080439D02*
X139854983Y-45721087D01*
X139854983Y-45721087D02*
X139883820Y-44693538D01*
X139055884Y-44471693D02*
X139515849Y-44594940D01*
X139515849Y-44594940D02*
X139438598Y-45067229D01*
X139438598Y-45067229D02*
X139404926Y-45008908D01*
X139404926Y-45008908D02*
X139325258Y-44938262D01*
X139325258Y-44938262D02*
X139095276Y-44876639D01*
X139095276Y-44876639D02*
X138990958Y-44897986D01*
X138990958Y-44897986D02*
X138932637Y-44931658D01*
X138932637Y-44931658D02*
X138861991Y-45011326D01*
X138861991Y-45011326D02*
X138800367Y-45241308D01*
X138800367Y-45241308D02*
X138821714Y-45345626D01*
X138821714Y-45345626D02*
X138855386Y-45403947D01*
X138855386Y-45403947D02*
X138935054Y-45474593D01*
X138935054Y-45474593D02*
X139165037Y-45536216D01*
X139165037Y-45536216D02*
X139269354Y-45514869D01*
X139269354Y-45514869D02*
X139327675Y-45481198D01*
%TO.C,SW4*%
X123924408Y-37458802D02*
X123774094Y-37467824D01*
X123774094Y-37467824D02*
X123544112Y-37406200D01*
X123544112Y-37406200D02*
X123464444Y-37335554D01*
X123464444Y-37335554D02*
X123430772Y-37277233D01*
X123430772Y-37277233D02*
X123409425Y-37172916D01*
X123409425Y-37172916D02*
X123434074Y-37080923D01*
X123434074Y-37080923D02*
X123504720Y-37001254D01*
X123504720Y-37001254D02*
X123563041Y-36967583D01*
X123563041Y-36967583D02*
X123667359Y-36946236D01*
X123667359Y-36946236D02*
X123863669Y-36949538D01*
X123863669Y-36949538D02*
X123967987Y-36928191D01*
X123967987Y-36928191D02*
X124026308Y-36894519D01*
X124026308Y-36894519D02*
X124096954Y-36814851D01*
X124096954Y-36814851D02*
X124121604Y-36722858D01*
X124121604Y-36722858D02*
X124100257Y-36618541D01*
X124100257Y-36618541D02*
X124066585Y-36560219D01*
X124066585Y-36560219D02*
X123986917Y-36489573D01*
X123986917Y-36489573D02*
X123756934Y-36427950D01*
X123756934Y-36427950D02*
X123606620Y-36436972D01*
X123296970Y-36304703D02*
X122808168Y-37209005D01*
X122808168Y-37209005D02*
X122809053Y-36469759D01*
X122809053Y-36469759D02*
X122440196Y-37110407D01*
X122440196Y-37110407D02*
X122469033Y-36082858D01*
X121600820Y-36195313D02*
X121428274Y-36839263D01*
X121929400Y-35888965D02*
X121974512Y-36640535D01*
X121974512Y-36640535D02*
X121376558Y-36480314D01*
%TO.C,SW3*%
X106838322Y-27621396D02*
X106688008Y-27630418D01*
X106688008Y-27630418D02*
X106458026Y-27568794D01*
X106458026Y-27568794D02*
X106378358Y-27498148D01*
X106378358Y-27498148D02*
X106344686Y-27439827D01*
X106344686Y-27439827D02*
X106323339Y-27335510D01*
X106323339Y-27335510D02*
X106347988Y-27243517D01*
X106347988Y-27243517D02*
X106418634Y-27163848D01*
X106418634Y-27163848D02*
X106476955Y-27130177D01*
X106476955Y-27130177D02*
X106581273Y-27108830D01*
X106581273Y-27108830D02*
X106777583Y-27112132D01*
X106777583Y-27112132D02*
X106881901Y-27090785D01*
X106881901Y-27090785D02*
X106940222Y-27057113D01*
X106940222Y-27057113D02*
X107010868Y-26977445D01*
X107010868Y-26977445D02*
X107035518Y-26885452D01*
X107035518Y-26885452D02*
X107014171Y-26781135D01*
X107014171Y-26781135D02*
X106980499Y-26722813D01*
X106980499Y-26722813D02*
X106900831Y-26652167D01*
X106900831Y-26652167D02*
X106670848Y-26590544D01*
X106670848Y-26590544D02*
X106520534Y-26599566D01*
X106210884Y-26467297D02*
X105722082Y-27371599D01*
X105722082Y-27371599D02*
X105722967Y-26632353D01*
X105722967Y-26632353D02*
X105354110Y-27273001D01*
X105354110Y-27273001D02*
X105382947Y-26245452D01*
X105106968Y-26171504D02*
X104509014Y-26011282D01*
X104509014Y-26011282D02*
X104732392Y-26465527D01*
X104732392Y-26465527D02*
X104594403Y-26428553D01*
X104594403Y-26428553D02*
X104490085Y-26449900D01*
X104490085Y-26449900D02*
X104431764Y-26483572D01*
X104431764Y-26483572D02*
X104361118Y-26563240D01*
X104361118Y-26563240D02*
X104299494Y-26793222D01*
X104299494Y-26793222D02*
X104320841Y-26897540D01*
X104320841Y-26897540D02*
X104354513Y-26955861D01*
X104354513Y-26955861D02*
X104434181Y-27026507D01*
X104434181Y-27026507D02*
X104710160Y-27100455D01*
X104710160Y-27100455D02*
X104814478Y-27079108D01*
X104814478Y-27079108D02*
X104872799Y-27045436D01*
%TO.C,SW2*%
X86859674Y-28579177D02*
X86709360Y-28588199D01*
X86709360Y-28588199D02*
X86479378Y-28526575D01*
X86479378Y-28526575D02*
X86399710Y-28455929D01*
X86399710Y-28455929D02*
X86366038Y-28397608D01*
X86366038Y-28397608D02*
X86344691Y-28293291D01*
X86344691Y-28293291D02*
X86369340Y-28201298D01*
X86369340Y-28201298D02*
X86439986Y-28121629D01*
X86439986Y-28121629D02*
X86498307Y-28087958D01*
X86498307Y-28087958D02*
X86602625Y-28066611D01*
X86602625Y-28066611D02*
X86798935Y-28069913D01*
X86798935Y-28069913D02*
X86903253Y-28048566D01*
X86903253Y-28048566D02*
X86961574Y-28014894D01*
X86961574Y-28014894D02*
X87032220Y-27935226D01*
X87032220Y-27935226D02*
X87056870Y-27843233D01*
X87056870Y-27843233D02*
X87035523Y-27738916D01*
X87035523Y-27738916D02*
X87001851Y-27680594D01*
X87001851Y-27680594D02*
X86922183Y-27609948D01*
X86922183Y-27609948D02*
X86692200Y-27548325D01*
X86692200Y-27548325D02*
X86541886Y-27557347D01*
X86232236Y-27425078D02*
X85743434Y-28329380D01*
X85743434Y-28329380D02*
X85744319Y-27590134D01*
X85744319Y-27590134D02*
X85375462Y-28230782D01*
X85375462Y-28230782D02*
X85404299Y-27203233D01*
X85057675Y-27208953D02*
X85024003Y-27150632D01*
X85024003Y-27150632D02*
X84944335Y-27079986D01*
X84944335Y-27079986D02*
X84714352Y-27018362D01*
X84714352Y-27018362D02*
X84610035Y-27039709D01*
X84610035Y-27039709D02*
X84551713Y-27073381D01*
X84551713Y-27073381D02*
X84481068Y-27153049D01*
X84481068Y-27153049D02*
X84456418Y-27245042D01*
X84456418Y-27245042D02*
X84465440Y-27395356D01*
X84465440Y-27395356D02*
X84869501Y-28095210D01*
X84869501Y-28095210D02*
X84271547Y-27934989D01*
%TO.C,SW1*%
X65369006Y-35179897D02*
X65218692Y-35188919D01*
X65218692Y-35188919D02*
X64988710Y-35127295D01*
X64988710Y-35127295D02*
X64909042Y-35056649D01*
X64909042Y-35056649D02*
X64875370Y-34998328D01*
X64875370Y-34998328D02*
X64854023Y-34894011D01*
X64854023Y-34894011D02*
X64878672Y-34802018D01*
X64878672Y-34802018D02*
X64949318Y-34722349D01*
X64949318Y-34722349D02*
X65007639Y-34688678D01*
X65007639Y-34688678D02*
X65111957Y-34667331D01*
X65111957Y-34667331D02*
X65308267Y-34670633D01*
X65308267Y-34670633D02*
X65412585Y-34649286D01*
X65412585Y-34649286D02*
X65470906Y-34615614D01*
X65470906Y-34615614D02*
X65541552Y-34535946D01*
X65541552Y-34535946D02*
X65566202Y-34443953D01*
X65566202Y-34443953D02*
X65544855Y-34339636D01*
X65544855Y-34339636D02*
X65511183Y-34281314D01*
X65511183Y-34281314D02*
X65431515Y-34210668D01*
X65431515Y-34210668D02*
X65201532Y-34149045D01*
X65201532Y-34149045D02*
X65051218Y-34158067D01*
X64741568Y-34025798D02*
X64252766Y-34930100D01*
X64252766Y-34930100D02*
X64253651Y-34190854D01*
X64253651Y-34190854D02*
X63884794Y-34831502D01*
X63884794Y-34831502D02*
X63913631Y-33803953D01*
X62780879Y-34535709D02*
X63332837Y-34683606D01*
X63056858Y-34609657D02*
X63315677Y-33643731D01*
X63315677Y-33643731D02*
X63370696Y-33806370D01*
X63370696Y-33806370D02*
X63438040Y-33923013D01*
X63438040Y-33923013D02*
X63517708Y-33993659D01*
%TO.C,SW34*%
X203007584Y-112590860D02*
X203168602Y-112936163D01*
X204456742Y-115698589D02*
X204617760Y-116043893D01*
X204963063Y-115882875D02*
X204617760Y-116043893D01*
X204236156Y-109215388D02*
X212293232Y-105458311D01*
X208139525Y-114401666D02*
X206574478Y-115131460D01*
X212293232Y-105458311D02*
X212454250Y-105803615D01*
X213742390Y-108566041D02*
X214171770Y-109486849D01*
X214171770Y-109486849D02*
X209567727Y-111633750D01*
X204236156Y-109215388D02*
G75*
G03*
X203007585Y-112590860I1073451J-2302022D01*
G01*
X209567727Y-111633749D02*
G75*
G03*
X208147538Y-114418850I1073450J-2302022D01*
G01*
%TO.C,SW33*%
X181620751Y-118968249D02*
X181811251Y-119298205D01*
X183335251Y-121937850D02*
X183525751Y-122267806D01*
X183855706Y-122077306D02*
X183525751Y-122267806D01*
X182550455Y-115498545D02*
X190249421Y-111053545D01*
X186890985Y-120324887D02*
X185395500Y-121188306D01*
X190249421Y-111053545D02*
X190439921Y-111383500D01*
X191963921Y-114023146D02*
X192471921Y-114903027D01*
X192471921Y-114903027D02*
X188072512Y-117443027D01*
X182550455Y-115498545D02*
G75*
G03*
X181620751Y-118968249I1270002J-2199704D01*
G01*
X188072512Y-117443027D02*
G75*
G03*
X186900465Y-120341307I1269999J-2199704D01*
G01*
%TO.C,SW32*%
X119038727Y-112618249D02*
X118848227Y-112948205D01*
X117324227Y-115587850D02*
X117133727Y-115917806D01*
X117463682Y-116108306D02*
X117133727Y-115917806D01*
X122508431Y-111688545D02*
X130207397Y-116133545D01*
X120498961Y-117860725D02*
X119003476Y-116997306D01*
X130207397Y-116133545D02*
X130016897Y-116463500D01*
X128492897Y-119103146D02*
X127984897Y-119983027D01*
X127984897Y-119983027D02*
X123585488Y-117443027D01*
X122508431Y-111688545D02*
G75*
G03*
X119038728Y-112618249I-1269999J-2199705D01*
G01*
X123585488Y-117443027D02*
G75*
G03*
X120489482Y-117877146I-1269999J-2199704D01*
G01*
%TO.C,SW31*%
X97140307Y-107223609D02*
X96979289Y-107568912D01*
X95691149Y-110331338D02*
X95530131Y-110676642D01*
X95875434Y-110837659D02*
X95530131Y-110676642D01*
X100515779Y-105995038D02*
X108572855Y-109752114D01*
X99051896Y-112318868D02*
X97486850Y-111589074D01*
X108572855Y-109752114D02*
X108411838Y-110097417D01*
X107123697Y-112859843D02*
X106694317Y-113780652D01*
X106694317Y-113780652D02*
X102090273Y-111633751D01*
X100515779Y-105995039D02*
G75*
G03*
X97140308Y-107223609I-1073450J-2302022D01*
G01*
X102090273Y-111633751D02*
G75*
G03*
X99043884Y-112336051I-1073450J-2302021D01*
G01*
%TO.C,SW30*%
X252182961Y-76559399D02*
X252281571Y-76927416D01*
X253070452Y-79871558D02*
X253169062Y-80239576D01*
X253537080Y-80140966D02*
X253169062Y-80239576D01*
X253979013Y-73448547D02*
X262566093Y-71147645D01*
X256922493Y-79233847D02*
X255254496Y-79680786D01*
X262566093Y-71147645D02*
X262664703Y-71515663D01*
X263453584Y-74459805D02*
X263716544Y-75441186D01*
X263716544Y-75441186D02*
X258809641Y-76755986D01*
X253979013Y-73448547D02*
G75*
G03*
X252182961Y-76559399I657401J-2453452D01*
G01*
X258809641Y-76755985D02*
G75*
G03*
X256927400Y-79252161I657400J-2453452D01*
G01*
%TO.C,SW29*%
X230692292Y-69958679D02*
X230790902Y-70326696D01*
X231579783Y-73270838D02*
X231678393Y-73638856D01*
X232046411Y-73540246D02*
X231678393Y-73638856D01*
X232488344Y-66847827D02*
X241075424Y-64546925D01*
X235431824Y-72633127D02*
X233763827Y-73080066D01*
X241075424Y-64546925D02*
X241174034Y-64914943D01*
X241962915Y-67859085D02*
X242225875Y-68840466D01*
X242225875Y-68840466D02*
X237318972Y-70155266D01*
X232488344Y-66847827D02*
G75*
G03*
X230692292Y-69958679I657401J-2453452D01*
G01*
X237318972Y-70155265D02*
G75*
G03*
X235436731Y-72651441I657400J-2453452D01*
G01*
%TO.C,SW28*%
X210713644Y-69000898D02*
X210812254Y-69368915D01*
X211601135Y-72313057D02*
X211699745Y-72681075D01*
X212067763Y-72582465D02*
X211699745Y-72681075D01*
X212509696Y-65890046D02*
X221096776Y-63589144D01*
X215453176Y-71675346D02*
X213785179Y-72122285D01*
X221096776Y-63589144D02*
X221195386Y-63957162D01*
X221984267Y-66901304D02*
X222247227Y-67882685D01*
X222247227Y-67882685D02*
X217340324Y-69197485D01*
X212509696Y-65890046D02*
G75*
G03*
X210713644Y-69000898I657401J-2453452D01*
G01*
X217340324Y-69197484D02*
G75*
G03*
X215458083Y-71693660I657400J-2453452D01*
G01*
%TO.C,SW27*%
X193627558Y-78838304D02*
X193726168Y-79206321D01*
X194515049Y-82150463D02*
X194613659Y-82518481D01*
X194981677Y-82419871D02*
X194613659Y-82518481D01*
X195423610Y-75727452D02*
X204010690Y-73426550D01*
X198367090Y-81512752D02*
X196699093Y-81959691D01*
X204010690Y-73426550D02*
X204109300Y-73794568D01*
X204898181Y-76738710D02*
X205161141Y-77720091D01*
X205161141Y-77720091D02*
X200254238Y-79034891D01*
X195423610Y-75727452D02*
G75*
G03*
X193627558Y-78838304I657401J-2453452D01*
G01*
X200254238Y-79034890D02*
G75*
G03*
X198371997Y-81531066I657400J-2453452D01*
G01*
%TO.C,SW26*%
X176212772Y-87448984D02*
X176311382Y-87817001D01*
X177100263Y-90761143D02*
X177198873Y-91129161D01*
X177566891Y-91030551D02*
X177198873Y-91129161D01*
X178008824Y-84338132D02*
X186595904Y-82037230D01*
X180952304Y-90123432D02*
X179284307Y-90570371D01*
X186595904Y-82037230D02*
X186694514Y-82405248D01*
X187483395Y-85349390D02*
X187746355Y-86330771D01*
X187746355Y-86330771D02*
X182839452Y-87645571D01*
X178008824Y-84338132D02*
G75*
G03*
X176212772Y-87448984I657401J-2453452D01*
G01*
X182839452Y-87645570D02*
G75*
G03*
X180957211Y-90141746I657400J-2453452D01*
G01*
%TO.C,SW25*%
X123177970Y-84161982D02*
X123079360Y-84530000D01*
X122290479Y-87474141D02*
X122191869Y-87842159D01*
X122559887Y-87940769D02*
X122191869Y-87842159D01*
X126288822Y-82365931D02*
X134875902Y-84666832D01*
X125945300Y-88847888D02*
X124277303Y-88400949D01*
X134875902Y-84666832D02*
X134777292Y-85034850D01*
X133988412Y-87978992D02*
X133725452Y-88960372D01*
X133725452Y-88960372D02*
X128818548Y-87645571D01*
X126288822Y-82365931D02*
G75*
G03*
X123177971Y-84161982I-657400J-2453452D01*
G01*
X128818548Y-87645571D02*
G75*
G03*
X125940394Y-88866202I-657400J-2453451D01*
G01*
%TO.C,SW24*%
X105763184Y-75551302D02*
X105664574Y-75919320D01*
X104875693Y-78863461D02*
X104777083Y-79231479D01*
X105145101Y-79330089D02*
X104777083Y-79231479D01*
X108874036Y-73755251D02*
X117461116Y-76056152D01*
X108530514Y-80237208D02*
X106862517Y-79790269D01*
X117461116Y-76056152D02*
X117362506Y-76424170D01*
X116573626Y-79368312D02*
X116310666Y-80349692D01*
X116310666Y-80349692D02*
X111403762Y-79034891D01*
X108874036Y-73755251D02*
G75*
G03*
X105763185Y-75551302I-657400J-2453452D01*
G01*
X111403762Y-79034891D02*
G75*
G03*
X108525608Y-80255522I-657400J-2453451D01*
G01*
%TO.C,SW23*%
X88677098Y-65713896D02*
X88578488Y-66081914D01*
X87789607Y-69026055D02*
X87690997Y-69394073D01*
X88059015Y-69492683D02*
X87690997Y-69394073D01*
X91787950Y-63917845D02*
X100375030Y-66218746D01*
X91444428Y-70399802D02*
X89776431Y-69952863D01*
X100375030Y-66218746D02*
X100276420Y-66586764D01*
X99487540Y-69530906D02*
X99224580Y-70512286D01*
X99224580Y-70512286D02*
X94317676Y-69197485D01*
X91787950Y-63917845D02*
G75*
G03*
X88677099Y-65713896I-657400J-2453452D01*
G01*
X94317676Y-69197485D02*
G75*
G03*
X91439522Y-70418116I-657400J-2453451D01*
G01*
%TO.C,SW22*%
X68698450Y-66671677D02*
X68599840Y-67039695D01*
X67810959Y-69983836D02*
X67712349Y-70351854D01*
X68080367Y-70450464D02*
X67712349Y-70351854D01*
X71809302Y-64875626D02*
X80396382Y-67176527D01*
X71465780Y-71357583D02*
X69797783Y-70910644D01*
X80396382Y-67176527D02*
X80297772Y-67544545D01*
X79508892Y-70488687D02*
X79245932Y-71470067D01*
X79245932Y-71470067D02*
X74339028Y-70155266D01*
X71809302Y-64875626D02*
G75*
G03*
X68698451Y-66671677I-657400J-2453452D01*
G01*
X74339028Y-70155266D02*
G75*
G03*
X71460874Y-71375897I-657400J-2453451D01*
G01*
%TO.C,SW21*%
X47207781Y-73272397D02*
X47109171Y-73640415D01*
X46320290Y-76584556D02*
X46221680Y-76952574D01*
X46589698Y-77051184D02*
X46221680Y-76952574D01*
X50318633Y-71476346D02*
X58905713Y-73777247D01*
X49975111Y-77958303D02*
X48307114Y-77511364D01*
X58905713Y-73777247D02*
X58807103Y-74145265D01*
X58018223Y-77089407D02*
X57755263Y-78070787D01*
X57755263Y-78070787D02*
X52848359Y-76755986D01*
X50318633Y-71476346D02*
G75*
G03*
X47207782Y-73272397I-657400J-2453452D01*
G01*
X52848359Y-76755986D02*
G75*
G03*
X49970205Y-77976617I-657400J-2453451D01*
G01*
%TO.C,SW20*%
X247252458Y-58158512D02*
X247351068Y-58526529D01*
X248139949Y-61470671D02*
X248238559Y-61838689D01*
X248606577Y-61740079D02*
X248238559Y-61838689D01*
X249048510Y-55047660D02*
X257635590Y-52746758D01*
X251991990Y-60832960D02*
X250323993Y-61279899D01*
X257635590Y-52746758D02*
X257734200Y-53114776D01*
X258523081Y-56058918D02*
X258786041Y-57040299D01*
X258786041Y-57040299D02*
X253879138Y-58355099D01*
X249048510Y-55047660D02*
G75*
G03*
X247252458Y-58158512I657401J-2453452D01*
G01*
X253879138Y-58355098D02*
G75*
G03*
X251996897Y-60851274I657400J-2453452D01*
G01*
%TO.C,SW19*%
X225761789Y-51557792D02*
X225860399Y-51925809D01*
X226649280Y-54869951D02*
X226747890Y-55237969D01*
X227115908Y-55139359D02*
X226747890Y-55237969D01*
X227557841Y-48446940D02*
X236144921Y-46146038D01*
X230501321Y-54232240D02*
X228833324Y-54679179D01*
X236144921Y-46146038D02*
X236243531Y-46514056D01*
X237032412Y-49458198D02*
X237295372Y-50439579D01*
X237295372Y-50439579D02*
X232388469Y-51754379D01*
X227557841Y-48446940D02*
G75*
G03*
X225761789Y-51557792I657401J-2453452D01*
G01*
X232388469Y-51754378D02*
G75*
G03*
X230506228Y-54250554I657400J-2453452D01*
G01*
%TO.C,SW18*%
X205783142Y-50600011D02*
X205881752Y-50968028D01*
X206670633Y-53912170D02*
X206769243Y-54280188D01*
X207137261Y-54181578D02*
X206769243Y-54280188D01*
X207579194Y-47489159D02*
X216166274Y-45188257D01*
X210522674Y-53274459D02*
X208854677Y-53721398D01*
X216166274Y-45188257D02*
X216264884Y-45556275D01*
X217053765Y-48500417D02*
X217316725Y-49481798D01*
X217316725Y-49481798D02*
X212409822Y-50796598D01*
X207579194Y-47489159D02*
G75*
G03*
X205783142Y-50600011I657401J-2453452D01*
G01*
X212409822Y-50796597D02*
G75*
G03*
X210527581Y-53292773I657400J-2453452D01*
G01*
%TO.C,SW17*%
X188697055Y-60437417D02*
X188795665Y-60805434D01*
X189584546Y-63749576D02*
X189683156Y-64117594D01*
X190051174Y-64018984D02*
X189683156Y-64117594D01*
X190493107Y-57326565D02*
X199080187Y-55025663D01*
X193436587Y-63111865D02*
X191768590Y-63558804D01*
X199080187Y-55025663D02*
X199178797Y-55393681D01*
X199967678Y-58337823D02*
X200230638Y-59319204D01*
X200230638Y-59319204D02*
X195323735Y-60634004D01*
X190493107Y-57326565D02*
G75*
G03*
X188697055Y-60437417I657401J-2453452D01*
G01*
X195323735Y-60634003D02*
G75*
G03*
X193441494Y-63130179I657400J-2453452D01*
G01*
%TO.C,SW16*%
X171282269Y-69048097D02*
X171380879Y-69416114D01*
X172169760Y-72360256D02*
X172268370Y-72728274D01*
X172636388Y-72629664D02*
X172268370Y-72728274D01*
X173078321Y-65937245D02*
X181665401Y-63636343D01*
X176021801Y-71722545D02*
X174353804Y-72169484D01*
X181665401Y-63636343D02*
X181764011Y-64004361D01*
X182552892Y-66948503D02*
X182815852Y-67929884D01*
X182815852Y-67929884D02*
X177908949Y-69244684D01*
X173078321Y-65937245D02*
G75*
G03*
X171282269Y-69048097I657401J-2453452D01*
G01*
X177908949Y-69244683D02*
G75*
G03*
X176026708Y-71740859I657400J-2453452D01*
G01*
%TO.C,SW15*%
X128108473Y-65761095D02*
X128009863Y-66129113D01*
X127220982Y-69073254D02*
X127122372Y-69441272D01*
X127490390Y-69539882D02*
X127122372Y-69441272D01*
X131219325Y-63965044D02*
X139806405Y-66265945D01*
X130875803Y-70447001D02*
X129207806Y-70000062D01*
X139806405Y-66265945D02*
X139707795Y-66633963D01*
X138918915Y-69578105D02*
X138655955Y-70559485D01*
X138655955Y-70559485D02*
X133749051Y-69244684D01*
X131219325Y-63965044D02*
G75*
G03*
X128108474Y-65761095I-657400J-2453452D01*
G01*
X133749051Y-69244684D02*
G75*
G03*
X130870897Y-70465315I-657400J-2453451D01*
G01*
%TO.C,SW14*%
X110693687Y-57150415D02*
X110595077Y-57518433D01*
X109806196Y-60462574D02*
X109707586Y-60830592D01*
X110075604Y-60929202D02*
X109707586Y-60830592D01*
X113804539Y-55354364D02*
X122391619Y-57655265D01*
X113461017Y-61836321D02*
X111793020Y-61389382D01*
X122391619Y-57655265D02*
X122293009Y-58023283D01*
X121504129Y-60967425D02*
X121241169Y-61948805D01*
X121241169Y-61948805D02*
X116334265Y-60634004D01*
X113804539Y-55354364D02*
G75*
G03*
X110693688Y-57150415I-657400J-2453452D01*
G01*
X116334265Y-60634004D02*
G75*
G03*
X113456111Y-61854635I-657400J-2453451D01*
G01*
%TO.C,SW13*%
X93607600Y-47313009D02*
X93508990Y-47681027D01*
X92720109Y-50625168D02*
X92621499Y-50993186D01*
X92989517Y-51091796D02*
X92621499Y-50993186D01*
X96718452Y-45516958D02*
X105305532Y-47817859D01*
X96374930Y-51998915D02*
X94706933Y-51551976D01*
X105305532Y-47817859D02*
X105206922Y-48185877D01*
X104418042Y-51130019D02*
X104155082Y-52111399D01*
X104155082Y-52111399D02*
X99248178Y-50796598D01*
X96718452Y-45516958D02*
G75*
G03*
X93607601Y-47313009I-657400J-2453452D01*
G01*
X99248178Y-50796598D02*
G75*
G03*
X96370024Y-52017229I-657400J-2453451D01*
G01*
%TO.C,SW12*%
X73628952Y-48270790D02*
X73530342Y-48638808D01*
X72741461Y-51582949D02*
X72642851Y-51950967D01*
X73010869Y-52049577D02*
X72642851Y-51950967D01*
X76739804Y-46474739D02*
X85326884Y-48775640D01*
X76396282Y-52956696D02*
X74728285Y-52509757D01*
X85326884Y-48775640D02*
X85228274Y-49143658D01*
X84439394Y-52087800D02*
X84176434Y-53069180D01*
X84176434Y-53069180D02*
X79269530Y-51754379D01*
X76739804Y-46474739D02*
G75*
G03*
X73628953Y-48270790I-657400J-2453452D01*
G01*
X79269530Y-51754379D02*
G75*
G03*
X76391376Y-52975010I-657400J-2453451D01*
G01*
%TO.C,SW11*%
X52138284Y-54871510D02*
X52039674Y-55239528D01*
X51250793Y-58183669D02*
X51152183Y-58551687D01*
X51520201Y-58650297D02*
X51152183Y-58551687D01*
X55249136Y-53075459D02*
X63836216Y-55376360D01*
X54905614Y-59557416D02*
X53237617Y-59110477D01*
X63836216Y-55376360D02*
X63737606Y-55744378D01*
X62948726Y-58688520D02*
X62685766Y-59669900D01*
X62685766Y-59669900D02*
X57778862Y-58355099D01*
X55249136Y-53075459D02*
G75*
G03*
X52138285Y-54871510I-657400J-2453452D01*
G01*
X57778862Y-58355099D02*
G75*
G03*
X54900708Y-59575730I-657400J-2453451D01*
G01*
%TO.C,SW10*%
X242321955Y-39757625D02*
X242420565Y-40125642D01*
X243209446Y-43069784D02*
X243308056Y-43437802D01*
X243676074Y-43339192D02*
X243308056Y-43437802D01*
X244118007Y-36646773D02*
X252705087Y-34345871D01*
X247061487Y-42432073D02*
X245393490Y-42879012D01*
X252705087Y-34345871D02*
X252803697Y-34713889D01*
X253592578Y-37658031D02*
X253855538Y-38639412D01*
X253855538Y-38639412D02*
X248948635Y-39954212D01*
X244118007Y-36646773D02*
G75*
G03*
X242321955Y-39757625I657401J-2453452D01*
G01*
X248948635Y-39954211D02*
G75*
G03*
X247066394Y-42450387I657400J-2453452D01*
G01*
%TO.C,SW9*%
X220831287Y-33156905D02*
X220929897Y-33524922D01*
X221718778Y-36469064D02*
X221817388Y-36837082D01*
X222185406Y-36738472D02*
X221817388Y-36837082D01*
X222627339Y-30046053D02*
X231214419Y-27745151D01*
X225570819Y-35831353D02*
X223902822Y-36278292D01*
X231214419Y-27745151D02*
X231313029Y-28113169D01*
X232101910Y-31057311D02*
X232364870Y-32038692D01*
X232364870Y-32038692D02*
X227457967Y-33353492D01*
X222627339Y-30046053D02*
G75*
G03*
X220831287Y-33156905I657401J-2453452D01*
G01*
X227457967Y-33353491D02*
G75*
G03*
X225575726Y-35849667I657400J-2453452D01*
G01*
%TO.C,SW8*%
X200852639Y-32199124D02*
X200951249Y-32567141D01*
X201740130Y-35511283D02*
X201838740Y-35879301D01*
X202206758Y-35780691D02*
X201838740Y-35879301D01*
X202648691Y-29088272D02*
X211235771Y-26787370D01*
X205592171Y-34873572D02*
X203924174Y-35320511D01*
X211235771Y-26787370D02*
X211334381Y-27155388D01*
X212123262Y-30099530D02*
X212386222Y-31080911D01*
X212386222Y-31080911D02*
X207479319Y-32395711D01*
X202648691Y-29088272D02*
G75*
G03*
X200852639Y-32199124I657401J-2453452D01*
G01*
X207479319Y-32395710D02*
G75*
G03*
X205597078Y-34891886I657400J-2453452D01*
G01*
%TO.C,SW7*%
X183766553Y-42036530D02*
X183865163Y-42404547D01*
X184654044Y-45348689D02*
X184752654Y-45716707D01*
X185120672Y-45618097D02*
X184752654Y-45716707D01*
X185562605Y-38925678D02*
X194149685Y-36624776D01*
X188506085Y-44710978D02*
X186838088Y-45157917D01*
X194149685Y-36624776D02*
X194248295Y-36992794D01*
X195037176Y-39936936D02*
X195300136Y-40918317D01*
X195300136Y-40918317D02*
X190393233Y-42233117D01*
X185562605Y-38925678D02*
G75*
G03*
X183766553Y-42036530I657401J-2453452D01*
G01*
X190393233Y-42233116D02*
G75*
G03*
X188510992Y-44729292I657400J-2453452D01*
G01*
%TO.C,SW6*%
X166351766Y-50647210D02*
X166450376Y-51015227D01*
X167239257Y-53959369D02*
X167337867Y-54327387D01*
X167705885Y-54228777D02*
X167337867Y-54327387D01*
X168147818Y-47536358D02*
X176734898Y-45235456D01*
X171091298Y-53321658D02*
X169423301Y-53768597D01*
X176734898Y-45235456D02*
X176833508Y-45603474D01*
X177622389Y-48547616D02*
X177885349Y-49528997D01*
X177885349Y-49528997D02*
X172978446Y-50843797D01*
X168147818Y-47536358D02*
G75*
G03*
X166351766Y-50647210I657401J-2453452D01*
G01*
X172978446Y-50843796D02*
G75*
G03*
X171096205Y-53339972I657400J-2453452D01*
G01*
%TO.C,SW5*%
X133038976Y-47360208D02*
X132940366Y-47728226D01*
X132151485Y-50672367D02*
X132052875Y-51040385D01*
X132420893Y-51138995D02*
X132052875Y-51040385D01*
X136149828Y-45564157D02*
X144736908Y-47865058D01*
X135806306Y-52046114D02*
X134138309Y-51599175D01*
X144736908Y-47865058D02*
X144638298Y-48233076D01*
X143849418Y-51177218D02*
X143586458Y-52158598D01*
X143586458Y-52158598D02*
X138679554Y-50843797D01*
X136149828Y-45564157D02*
G75*
G03*
X133038977Y-47360208I-657400J-2453452D01*
G01*
X138679554Y-50843797D02*
G75*
G03*
X135801400Y-52064428I-657400J-2453451D01*
G01*
%TO.C,SW4*%
X115624189Y-38749528D02*
X115525579Y-39117546D01*
X114736698Y-42061687D02*
X114638088Y-42429705D01*
X115006106Y-42528315D02*
X114638088Y-42429705D01*
X118735041Y-36953477D02*
X127322121Y-39254378D01*
X118391519Y-43435434D02*
X116723522Y-42988495D01*
X127322121Y-39254378D02*
X127223511Y-39622396D01*
X126434631Y-42566538D02*
X126171671Y-43547918D01*
X126171671Y-43547918D02*
X121264767Y-42233117D01*
X118735041Y-36953477D02*
G75*
G03*
X115624190Y-38749528I-657400J-2453452D01*
G01*
X121264767Y-42233117D02*
G75*
G03*
X118386613Y-43453748I-657400J-2453451D01*
G01*
%TO.C,SW3*%
X98538103Y-28912122D02*
X98439493Y-29280140D01*
X97650612Y-32224281D02*
X97552002Y-32592299D01*
X97920020Y-32690909D02*
X97552002Y-32592299D01*
X101648955Y-27116071D02*
X110236035Y-29416972D01*
X101305433Y-33598028D02*
X99637436Y-33151089D01*
X110236035Y-29416972D02*
X110137425Y-29784990D01*
X109348545Y-32729132D02*
X109085585Y-33710512D01*
X109085585Y-33710512D02*
X104178681Y-32395711D01*
X101648955Y-27116071D02*
G75*
G03*
X98538104Y-28912122I-657400J-2453452D01*
G01*
X104178681Y-32395711D02*
G75*
G03*
X101300527Y-33616342I-657400J-2453451D01*
G01*
%TO.C,SW2*%
X78559455Y-29869903D02*
X78460845Y-30237921D01*
X77671964Y-33182062D02*
X77573354Y-33550080D01*
X77941372Y-33648690D02*
X77573354Y-33550080D01*
X81670307Y-28073852D02*
X90257387Y-30374753D01*
X81326785Y-34555809D02*
X79658788Y-34108870D01*
X90257387Y-30374753D02*
X90158777Y-30742771D01*
X89369897Y-33686913D02*
X89106937Y-34668293D01*
X89106937Y-34668293D02*
X84200033Y-33353492D01*
X81670307Y-28073852D02*
G75*
G03*
X78559456Y-29869903I-657400J-2453452D01*
G01*
X84200033Y-33353492D02*
G75*
G03*
X81321879Y-34574123I-657400J-2453451D01*
G01*
%TO.C,SW1*%
X57068787Y-36470623D02*
X56970177Y-36838641D01*
X56181296Y-39782782D02*
X56082686Y-40150800D01*
X56450704Y-40249410D02*
X56082686Y-40150800D01*
X60179639Y-34674572D02*
X68766719Y-36975473D01*
X59836117Y-41156529D02*
X58168120Y-40709590D01*
X68766719Y-36975473D02*
X68668109Y-37343491D01*
X67879229Y-40287633D02*
X67616269Y-41269013D01*
X67616269Y-41269013D02*
X62709365Y-39954212D01*
X60179639Y-34674572D02*
G75*
G03*
X57068788Y-36470623I-657400J-2453452D01*
G01*
X62709365Y-39954212D02*
G75*
G03*
X59831211Y-41174843I-657400J-2453451D01*
G01*
%TD*%
M02*
